<svg xmlns="http://www.w3.org/2000/svg" viewBox="0 0 600.19804 516.72071"><title>Asset 3</title><g id="Layer_2" data-name="Layer 2"><g id="Design"><path d="M273.61669,10.28431q1.69275-.8316,3.4394-1.5793c35.4112-15.1327,73.3279,8.5039,109.6944,8.1895,33.5715-.2902,65.5349-17.488,99.10242-16.8787,9.99208.1814,20.31038,2.1102,28.49548,8.0501,8.89452,6.4547,14.2636,16.8349,21.7833,24.9516,17.4564,18.8425,47.1103,26.4939,55.9536,50.9506,6.971,19.2789-2.4007,40.2475-9.7979,59.3553-12.6669,32.7201-19.8486,69.5794-9.5232,103.1708,7.3922,24.0487,23.3675,45.1822,26.7562,70.1756,2.97652,21.9545-4.21,44.4455-14.559,63.6075-13.7619,25.4815-13.6539,54.6166-20.3942,82.1377-4.4074,17.9957-13.3702,36.1842-29.5626,45.1892-14.5464,8.0895-31.6278,7.2314-47.7014,8.1234-16.6177.9223-32.5257,1.7519-49.1924-.1837-28.1454-3.2688-55.803-10.0761-84.11-12.0685-51.6126-3.633-102.9321,8.9103-154.5993,11.5822-28.5064,1.4741-58.7392-.5736-82.586-16.8204-20.3391-13.857-33.84959-37.0729-39.0011-61.7199s-2.4313-50.5868,4.921-74.6271c8.9522-29.2715,24.8708-57.9715,21.485-88.4759-2.123-19.1274-11.70349-36.3962-17.1689-54.7983-7.5022-25.2597-6.9078-53.5403,4.2556-77.304a84.05711,84.05711,0,0,1,30.0752-34.757c14.93161-9.6399,31.7121-7.5536,48.0327-13.7297C211.62379,76.85231,233.91679,29.78561,273.61669,10.28431Z" fill="#fff"/><path d="M543.18419,232.569h-10.2197a68.17486,68.17486,0,0,0-7.7089-18.6035l7.2285-7.2285a6.14134,6.14134,0,0,0,0-8.6854l-14.8814-14.8814a6.14122,6.14122,0,0,0-8.6853,0l-7.2286,7.2285a68.17552,68.17552,0,0,0-18.6034-7.7089v-10.2197a6.14151,6.14151,0,0,0-6.1416-6.1414h-21.0455a6.14142,6.14142,0,0,0-6.1415,6.1414v10.2197a68.17968,68.17968,0,0,0-18.6036,7.7088l-7.2284-7.2284a6.14134,6.14134,0,0,0-8.6854,0l-14.88148,14.8814a6.14149,6.14149,0,0,0,0,8.6854l7.22848,7.2285a68.17775,68.17775,0,0,0-7.7088,18.6035H389.65791a6.14149,6.14149,0,0,0-6.14142,6.1415v21.0456a6.14147,6.14147,0,0,0,6.14142,6.1414h10.21968a68.17968,68.17968,0,0,0,7.7088,18.6036l-7.22848,7.2285a6.14149,6.14149,0,0,0,0,8.6854l14.88148,14.8814a6.14134,6.14134,0,0,0,8.6854,0l7.2284-7.2284a68.17632,68.17632,0,0,0,18.6036,7.7087v10.2197a6.14144,6.14144,0,0,0,6.1415,6.1415h21.0455a6.14153,6.14153,0,0,0,6.1416-6.1415v-10.2197a68.17529,68.17529,0,0,0,18.6034-7.7088l7.2286,7.2285a6.14122,6.14122,0,0,0,8.6853,0l14.8814-14.8814a6.14134,6.14134,0,0,0,0-8.6854l-7.2285-7.2285a68.17679,68.17679,0,0,0,7.7089-18.6036h10.2197a6.14149,6.14149,0,0,0,6.1415-6.1414v-21.0456A6.14151,6.14151,0,0,0,543.18419,232.569Zm-76.7631,58.1794a41.51515,41.51515,0,1,1,41.5151-41.5151A41.51513,41.51513,0,0,1,466.42109,290.74841Z" fill="#8550fc"/><path d="M328.23329,214.092h-7.6129a50.78433,50.78433,0,0,0-5.74248-13.8581l5.38468-5.3847a4.57506,4.57506,0,0,0,0-6.47l-11.0855-11.0855a4.57475,4.57475,0,0,0-6.4699,0l-5.3848,5.3847a50.78453,50.78453,0,0,0-13.858-5.7425V169.323a4.575,4.575,0,0,0-4.5751-4.5749H263.212a4.5749,4.5749,0,0,0-4.5749,4.5749v7.6129a50.78842,50.78842,0,0,0-13.85819,5.7424l-5.38461-5.3846a4.57487,4.57487,0,0,0-6.47,0l-11.0855,11.0855a4.57487,4.57487,0,0,0,0,6.47l5.3846,5.3847a50.78719,50.78719,0,0,0-5.7424,13.8581h-7.6129a4.57492,4.57492,0,0,0-4.5749,4.575v15.6773a4.575,4.575,0,0,0,4.5749,4.5749h7.6129a50.78912,50.78912,0,0,0,5.7424,13.8582l-5.3846,5.3847a4.57475,4.57475,0,0,0,0,6.4699l11.0855,11.0855a4.57487,4.57487,0,0,0,6.47,0l5.38461-5.3846a50.7853,50.7853,0,0,0,13.85819,5.7424v7.6129a4.575,4.575,0,0,0,4.5749,4.575h15.6773a4.57509,4.57509,0,0,0,4.5751-4.575v-7.6129a50.78743,50.78743,0,0,0,13.858-5.7424l5.3848,5.3846a4.57475,4.57475,0,0,0,6.4699,0l11.0855-11.0855a4.57493,4.57493,0,0,0,0-6.4699l-5.38468-5.3847a50.78626,50.78626,0,0,0,5.74248-13.8582h7.6129a4.575,4.575,0,0,0,4.5749-4.5749V218.667A4.57491,4.57491,0,0,0,328.23329,214.092Zm-57.1826,43.3392a30.9256,30.9256,0,1,1,30.9256-30.9255A30.92556,30.92556,0,0,1,271.05069,257.43121Z" fill="#a796ff"/><path d="M196.715,316.69541q-.9639-2.8815-2.03309-5.6317Z" fill="#f4d37e"/><path d="M194.6095,327.547l.0435-16.5565a129.92013,129.92013,0,0,0-11.6184-22.9115c-4.2738,4.5277-5.6584,18.592-5.6584,18.592.4012-14.5265,1.9558-18.8681,2.1054-23.6242-6.2838-8.1908-15.8688-12.6296-23.4479-17.5058,3.0353,17.2653,2.80621,21.6178,2.80621,21.6178-1.00021-10.3418-4.38581-17.494-6.09281-23.636-19.3068-11.3689-29.30019-8.3925-29.30019-8.3925.18849,7.2953,2.56669,23.4711,3.28629,29.7106a178.28877,178.28877,0,0,0,19.4479,13.7976c-5.8538-1.8749-13.51719-6.4151-18.9566-9.9226,1.2372,9.029,1.1272,7.5465,3.4449,14.6874,8.1219,7.4207,24.6079,15.9129,24.6079,15.9129-7.15439-1.7346-17.14739-7.1214-22.6026-10.2611a98.84379,98.84379,0,0,0,18.6608,30.4876,184.1374,184.1374,0,0,0,17.4387,6.5306,68.4957,68.4957,0,0,1-14.0764-2.8709c9.0183,9.4427,19.6325,17.8369,31.3738,27.2546l11.8766,4.8221,3.7298-17.7404c1.71991-14.1337-.7772-28.2689-4.9073-40.6755Z" fill="#f4d37e"/><path d="M185.2075,344.72241c2.2435,4.22,4.3915,8.5091,6.3162,12.9248a77.12254,77.12254,0,0,1,4.6928,13.7378l-.206.0593a76.14966,76.14966,0,0,0-5.0573-13.4777c-2.0399-4.3187-4.2989-8.5061-6.6531-12.6249-4.69019-8.2529-9.7493-16.2471-14.83219-24.2253-5.07731-7.9828-10.36251-15.821-15.13241-24.0673-2.3875-4.1194-4.7258-8.2788-6.9263-12.5318-2.2134-4.2428-4.2856-8.5835-6.14029-13.0348l.18679-.1133c4.7317,8.2622,9.6559,16.3276,14.65,24.3636,5.009,8.0196,9.8323,16.1974,14.76321,24.3059C175.7814,328.159,180.6781,336.308,185.2075,344.72241Z" fill="#fef3f9"/><path d="M169.73391,371.60861c.14179-17.5045,1.27319-24.8774-.003-30.6555a97.05474,97.05474,0,0,0-31.62251-15.2778c8.9384,19.6227,6.7291,33.4907,6.7291,33.4907-.4782-14.1997-7.3669-27.9331-11.30159-34.6765a134.4064,134.4064,0,0,0-50.10361-2.0626c2.4607,8.7048,5.0788,16.6236,7.8549,23.8576,11.9302,5.2694,27.6232,9.2493,27.6232,9.2493-7.6169-.0433-18.2273-2.6094-25.8457-4.7732a164.63043,164.63043,0,0,0,13.8383,27.0083c12.0441,5.8578,34.4792,9.844,34.4792,9.844-9.1385.6167-22.8111-2.0871-30.3359-3.8027a113.68851,113.68851,0,0,0,31.7868,29.6242,222.70545,222.70545,0,0,0,22.9811,1.2665c-5.0306,1.2652-11.6339,1.7465-17.8154,1.8656,13.7418,7.9513,29.0826,14.0382,46.0926,20.9308l15.7657,1.3132-.9444-22.7507c-4.3652-34.1153-17.3324-56.1949-33.3662-70.3956C171.7907,352.72591,169.73391,371.60861,169.73391,371.60861Z" fill="#a796ff"/><path d="M206.35169,434.92951a88.67908,88.67908,0,0,0-10.2116-14.3024c-3.7764-4.4244-7.7766-8.6081-11.8703-12.6733-8.17-8.1556-16.7045-15.8608-25.263-23.5377-8.5531-7.6844-17.3118-15.1164-25.5755-23.2341-4.1341-4.0532-8.2208-8.1733-12.1707-12.458-3.9621-4.2677-7.7844-8.7064-11.3788-13.3601l.1902-.2071c8.2226,8.1511,16.61691,15.9928,25.0858,23.773,8.48211,7.7544,16.7892,15.7696,25.2046,23.6607,8.3968,7.9123,16.7834,15.8649,24.8096,24.2754,3.9914,4.2289,7.889,8.5769,11.55691,13.1616a90.08642,90.08642,0,0,1,9.85249,14.7528Z" fill="#7862ec"/><path d="M514.03659,372.00931q2.01465-1.7643,3.8839-3.5849Z" fill="#a796ff"/><path d="M504.36259,373.40591l13.60732-5.0304a106.74721,106.74721,0,0,0,14.58358-17.6474c-5.2711-2.524-17.3203.5162-17.3203.5162,12.0711-4.0815,16.2004-3.9888,20.1592-5.3083,4.4389-8.2581,4.5973-18.3879,5.8442-26.8161-13.0695,8.0647-16.726,9.188-16.726,9.188,8.1261-4.0824,12.76632-9.3705,17.1877-12.8134,2.3122-21.1476-3.7652-29.3801-3.7652-29.3801-5.9203,2.4066-18.3345,9.5365-23.1949,12.1056a172.408,172.408,0,0,0-4.2546,22.0205c-.58968-5.9304.3508-14.3329,1.2522-20.3842-6.9621,3.8971-5.7852,3.3424-10.8044,7.65-3.1384,9.7042-4.1148,27.3896-4.1148,27.3896-1.1775-7.0773-.3894-17.8707.20432-23.8239a83.12434,83.12434,0,0,0-18.242,26.4114c0,8.8718.98028,17.9567.98028,17.9567a74.00447,74.00447,0,0,1-2.7618-13.7595c-4.4724,11.1437-7.5034,23.4265-10.965,37.0539l.3601,12.344,15.9198-2.02c12.2279-2.7548,22.9237-9.3683,31.6067-16.9468Z" fill="#a796ff"/><path d="M486.844,370.06291c-2.6483,3.3451-5.3882,6.6241-8.3133,9.7376a61.3463,61.3463,0,0,1-9.5711,8.501l-.1235-.1704a60.92206,60.92206,0,0,0,9.225-8.755c2.8035-3.189,5.4196-6.5383,7.9446-9.9539,5.0694-6.8189,9.7923-13.8962,14.4934-20.9904,4.7069-7.0905,9.2195-14.3267,14.2544-21.2166,2.5135-3.4462,5.0778-6.8596,7.7689-10.1755,2.6782-3.3246,5.4879-6.55,8.4676-9.6102l.161.1362c-5.0618,6.8598-9.8923,13.8355-14.67308,20.8661-4.762,7.0392-9.72132,13.9569-14.58472,20.9519C497.01339,356.36541,492.10439,363.34151,486.844,370.06291Z" fill="#7862ec"/><path d="M492.12,343.667q-.9231,1.69275-1.9634,3.384Zm-2.02408,3.482c-4.48462,7.2572-10.60372,14.2714-18.64952,18.8917l-10.8172,4.9074-2.9521-8.6512c-.5298-10.3939-1.07018-19.7427-.3424-28.601a54.78889,54.78889,0,0,0,4.9599,9.1273s-2.6785-6.2107-4.6172-12.4849a61.53111,61.53111,0,0,1,7.1296-22.6647c.881,4.3398,2.6822,12.1453,5.0615,16.8932,0,0-3.174-12.7207-3.0751-20.2694,2.6084-4.1432,1.8973-3.4938,5.9693-7.7712.6849,4.4765,1.8559,10.6243,3.5687,14.6896a127.59916,127.59916,0,0,1-1.8028-16.5028c2.8759-2.8791,10.0974-10.6341,13.75832-13.6299,0,0,6.097,4.4942,9.083,19.9553-2.37452,3.401-4.50072,8.1548-9.35542,12.8176,0,0,2.34042-1.5934,9.8211-10.1528.9599,6.2329,3.06132,13.4315,1.7267,20.2417-2.5115,1.7983-5.452,2.635-13.0969,8.1593,0,0,7.857-4.7831,12.1363-4.1499a79.001,79.001,0,0,1-6.4575,15.6672l-8.5239,6.5312Zm-13.47132-13.4456c1.9109-6.0096,3.9066-11.9857,5.7361-18.0045,1.8447-6.0168,3.7366-12.0056,5.8173-17.9631l-.1435-.0611c-1.43858,2.8153-2.7209,5.7104-3.8885,8.6468-1.1785,2.9331-2.2462,5.9074-3.2706,8.8938-2.0553,5.9728-3.6654,12.0765-5.4447,18.1195-1.7745,6.0445-3.5681,12.0816-5.6631,18.0119-1.0394,2.9672-2.15768,5.9076-3.4435,8.7755a45.09119,45.09119,0,0,1-4.6109,8.2074l.1246.0936a45.42544,45.42544,0,0,0,4.9112-8.1035c1.3883-2.8411,2.6094-5.7587,3.7514-8.7032C472.75191,345.71361,474.69919,339.70731,476.62459,333.70341Z" fill="#fc8e53"/><path d="M500.61249,407.28471c11.5752,3.7565,16.202,6.1291,20.3297,6.3935a78.87507,78.87507,0,0,0,17.4672-20.1289c-15.0862,2.4965-23.7703-2.0257-23.7703-2.0257,9.5274,2.6099,20.2326.3959,25.6174-1.0983a115.2982,115.2982,0,0,0,12.99042-36.5131c-6.34332-.0017-12.20192.2766-17.64312.8143a173.93539,173.93539,0,0,0-12.5416,18.4379c1.7956-5.6072,5.9588-12.8953,9.1609-18.0612a110.68021,110.68021,0,0,0-21.1206,4.5687c-6.6785,7.6585-14.5264,23.3691-14.5264,23.3691,1.711-6.867,6.6757-16.3841,9.5591-21.5746a85.00906,85.00906,0,0,0-27.0191,17.2571c-3.4903,8.0622-6.1708,16.6805-6.1708,16.6805a72.74112,72.74112,0,0,1,2.89562-13.5251c-8.46082,8.4734-16.056,18.5147-24.57272,29.6188l-4.528,11.3507,15.3062,4.0501c23.636,3.8991,41.286-1.0557,54.4227-9.9151C512.65739,412.74081,500.61249,407.28471,500.61249,407.28471Z" fill="#f4d37e"/><path d="M450.127,421.07341a62.22124,62.22124,0,0,0,11.8534-4.5455c3.8101-1.8614,7.51252-3.9379,11.1579-6.1082,7.30362-4.3225,14.3931-9.0078,21.4694-13.7166,7.0799-4.7033,14.04022-9.6109,21.3404-14.0103,3.6469-2.2026,7.3272-4.3564,11.08482-6.3747,3.74928-2.0311,7.57938-3.9234,11.49938-5.6027l.0931.1834c-7.3128,4.3622-14.4603,8.9157-21.5842,13.5369-7.1101,4.6363-14.35228,9.0893-21.5374,13.6478-7.19488,4.5405-14.4141,9.0651-21.8533,13.2283-3.7303,2.0607-7.5179,4.0274-11.409,5.7754a62.60512,62.60512,0,0,1-12.0688,4.1867Z" fill="#fdeab1"/><path d="M209.80209,250.13861H465.85749A14.05142,14.05142,0,0,1,479.90891,264.19V428.91881a0,0,0,0,1,0,0H195.7507a0,0,0,0,1,0,0V264.19A14.0514,14.0514,0,0,1,209.80209,250.13861Z" fill="#380f8f"/><rect x="209.23859" y="263.23041" width="257.18249" height="150.2536" fill="#8550fc"/><polygon points="532.045 473.01 143.615 473.01 195.751 428.919 479.909 428.919 532.045 473.01" fill="#a796ff"/><path d="M143.61491,473.01041H532.045a0,0,0,0,1,0,0v2.8926a13.8707,13.8707,0,0,1-13.8707,13.8707H157.4858a13.87089,13.87089,0,0,1-13.87089-13.87089v-2.89241A0,0,0,0,1,143.61491,473.01041Z" fill="#380f8f"/><path d="M232.75339,440.84481H217.02491a.54114.54114,0,0,1-.372-.9341l4.90909-4.6466a.54074.54074,0,0,1,.372-.1481h15.0252a.54111.54111,0,0,1,.4012.9042l-4.2057,4.6465A.54137.54137,0,0,1,232.75339,440.84481Z" fill="#fef3f9"/><path d="M257.65779,440.84481H241.77491a.54113.54113,0,0,1-.41471-.8888l3.8964-4.6466a.5412.5412,0,0,1,.4146-.1934h15.1796a.54109.54109,0,0,1,.4459.8475l-3.193,4.6466A.541.541,0,0,1,257.65779,440.84481Z" fill="#fef3f9"/><path d="M282.54759,440.84481h-16.0111a.54117.54117,0,0,1-.4598-.8265l2.8837-4.6465a.541.541,0,0,1,.4598-.2558h15.3076a.54106.54106,0,0,1,.4898.7709l-2.1802,4.6466A.54114.54114,0,0,1,282.54759,440.84481Z" fill="#fef3f9"/><path d="M307.41839,440.84481H291.314a.54122.54122,0,0,1-.502-.7433l1.8708-4.6465a.5413.5413,0,0,1,.50212-.339h15.40088a.54115.54115,0,0,1,.5248.6729l-1.1675,4.6466A.541.541,0,0,1,307.41839,440.84481Z" fill="#fef3f9"/><path d="M332.26579,440.84481H316.112a.54114.54114,0,0,1-.5322-.6394l.858-4.6466a.54122.54122,0,0,1,.5322-.4428h15.4505a.541.541,0,0,1,.5408.559l-.1547,4.6466A.54111.54111,0,0,1,332.26579,440.84481Z" fill="#fef3f9"/><path d="M357.08791,440.84481H340.93409a.54122.54122,0,0,1-.5409-.5232l-.1547-4.6466a.54116.54116,0,0,1,.5409-.559h15.45052a.54111.54111,0,0,1,.53208.4428l.8581,4.6466A.54118.54118,0,0,1,357.08791,440.84481Z" fill="#fef3f9"/><path d="M381.88579,440.84481h-16.1043a.54123.54123,0,0,1-.5248-.4093l-1.1674-4.6466a.54106.54106,0,0,1,.5248-.6729H380.015a.541.541,0,0,1,.502.339l1.8708,4.6465A.54117.54117,0,0,1,381.88579,440.84481Z" fill="#fef3f9"/><path d="M406.66329,440.84481h-16.011a.5414.5414,0,0,1-.4899-.3113l-2.1802-4.6466a.54111.54111,0,0,1,.4899-.7709h15.3077a.541.541,0,0,1,.4597.2558l2.8836,4.6465A.54114.54114,0,0,1,406.66329,440.84481Z" fill="#fef3f9"/><path d="M431.425,440.84481h-15.8828a.54107.54107,0,0,1-.446-.2347l-3.193-4.6466a.54107.54107,0,0,1,.446-.8475h15.1794a.54105.54105,0,0,1,.4146.1934l3.8963,4.6466A.541.541,0,0,1,431.425,440.84481Z" fill="#fef3f9"/><path d="M456.175,440.84481h-15.7287a.54129.54129,0,0,1-.4011-.1781l-4.2057-4.6465a.54109.54109,0,0,1,.4012-.9042h15.0251a.54092.54092,0,0,1,.372.1481l4.9092,4.6466A.54117.54117,0,0,1,456.175,440.84481Z" fill="#fef3f9"/><path d="M224.89549,449.52641h-17.0427a.54117.54117,0,0,1-.372-.9342l5.8355-5.5233a.5409.5409,0,0,1,.3719-.1483h16.20671a.54116.54116,0,0,1,.40119.9043l-4.9994,5.5235A.54126.54126,0,0,1,224.89549,449.52641Z" fill="#fef3f9"/><path d="M251.692,449.52641H234.49491a.54113.54113,0,0,1-.41451-.8889l4.6316-5.5233a.54129.54129,0,0,1,.4147-.1936h16.3608a.5412.5412,0,0,1,.446.8477l-3.79559,5.5234A.54065.54065,0,0,1,251.692,449.52641Z" fill="#fef3f9"/><path d="M278.47409,449.52641H261.14891a.54116.54116,0,0,1-.45981-.8265l3.4277-5.5234a.54147.54147,0,0,1,.4598-.2559h16.4891a.54123.54123,0,0,1,.4899.7711l-2.59169,5.5234A.5409.5409,0,0,1,278.47409,449.52641Z" fill="#fef3f9"/><path d="M215.74769,459.633H197.1751a.54112.54112,0,0,1-.372-.9341l6.9922-6.6182a.54128.54128,0,0,1,.3721-.1482h17.5708a.54106.54106,0,0,1,.4011.9042l-5.99039,6.6183A.54131.54131,0,0,1,215.74769,459.633Z" fill="#fef3f9"/><path d="M244.74709,459.633h-18.7269a.54112.54112,0,0,1-.4147-.8888l5.5498-6.6182a.54035.54035,0,0,1,.41461-.1935H249.295a.541.541,0,0,1,.44591.8475l-4.54791,6.6184A.541.541,0,0,1,244.74709,459.633Z" fill="#fef3f9"/><path d="M273.732,459.633h-18.8552a.5412.5412,0,0,1-.4598-.8265l4.1073-6.6182a.541.541,0,0,1,.4598-.2558h17.8532a.541.541,0,0,1,.4898.7709l-3.1053,6.6183A.541.541,0,0,1,273.732,459.633Z" fill="#fef3f9"/><path d="M305.23709,449.52641h-17.4186a.541.541,0,0,1-.5019-.7431l2.2239-5.5236a.54132.54132,0,0,1,.5019-.3391h16.5824a.54113.54113,0,0,1,.5248.6731l-1.3878,5.5234A.541.541,0,0,1,305.23709,449.52641Z" fill="#fef3f9"/><path d="M389.45049,459.633H283.74939a.54118.54118,0,0,1-.502-.7433l2.6647-6.6182a.54106.54106,0,0,1,.502-.339h100.3717a.54093.54093,0,0,1,.5019.339l2.6648,6.6182A.54122.54122,0,0,1,389.45049,459.633Z" fill="#fef3f9"/><path d="M331.97669,449.52641h-17.468a.54113.54113,0,0,1-.5321-.6394l1.0199-5.5234a.54148.54148,0,0,1,.5322-.443h16.6319a.5412.5412,0,0,1,.5409.5592l-.1838,5.5235A.5412.5412,0,0,1,331.97669,449.52641Z" fill="#fef3f9"/><path d="M358.69119,449.52641H341.223a.54111.54111,0,0,1-.5408-.5231l-.1839-5.5235a.54133.54133,0,0,1,.5409-.5592h16.632a.5412.5412,0,0,1,.5321.443l1.02,5.5234A.54118.54118,0,0,1,358.69119,449.52641Z" fill="#fef3f9"/><path d="M385.38129,449.52641h-17.4185a.54106.54106,0,0,1-.5248-.4093l-1.3878-5.5234a.54123.54123,0,0,1,.5248-.6731h16.5825a.54107.54107,0,0,1,.5018.3391l2.224,5.5236A.54108.54108,0,0,1,385.38129,449.52641Z" fill="#fef3f9"/><path d="M412.051,449.52641h-17.3252a.54109.54109,0,0,1-.48988-.3113l-2.59162-5.5234a.54121.54121,0,0,1,.4899-.7711h16.4891a.5416.5416,0,0,1,.4598.2559l3.4277,5.5234A.54119.54119,0,0,1,412.051,449.52641Z" fill="#fef3f9"/><path d="M438.70491,449.52641H421.50779a.54055.54055,0,0,1-.44588-.2347l-3.79552-5.5234a.54116.54116,0,0,1,.4459-.8477h16.3609a.54136.54136,0,0,1,.41472.1936l4.63158,5.5233A.54116.54116,0,0,1,438.70491,449.52641Z" fill="#fef3f9"/><path d="M443.56319,455.32021h-18.0741a.54117.54117,0,0,1-.4459-.2346l-1.58428-2.3056a.54109.54109,0,0,1,.446-.8475H441.63a.54085.54085,0,0,1,.4147.1935l1.9331,2.3054A.541.541,0,0,1,443.56319,455.32021Z" fill="#fef3f9"/><path d="M447.17979,459.633h-18.727a.541.541,0,0,1-.44588-.2346l-1.77012-2.576a.5411.5411,0,0,1,.4459-.8476h18.3371a.54118.54118,0,0,1,.4145.1934l2.1601,2.576A.54117.54117,0,0,1,447.17979,459.633Z" fill="#fef3f9"/><path d="M476.02469,459.633h-18.5725a.54124.54124,0,0,1-.40128-.178l-2.33142-2.5759a.54109.54109,0,0,1,.401-.9043h18.1828a.54138.54138,0,0,1,.372.1481l2.7214,2.576A.5411.5411,0,0,1,476.02469,459.633Z" fill="#fef3f9"/><path d="M418.323,459.633H399.46791a.54112.54112,0,0,1-.48992-.3113l-1.2086-2.5759a.54114.54114,0,0,1,.4898-.771h18.4652a.54125.54125,0,0,1,.4598.2558l1.5986,2.5759A.54114.54114,0,0,1,418.323,459.633Z" fill="#fef3f9"/><path d="M465.34709,449.52641h-17.0428a.54083.54083,0,0,1-.401-.178l-4.9996-5.5235a.54122.54122,0,0,1,.4013-.9043h16.2066a.54111.54111,0,0,1,.372.1483l5.8355,5.5233A.54119.54119,0,0,1,465.34709,449.52641Z" fill="#fef3f9"/><polygon points="0 36.967 56.312 79.231 40.148 99.236 0 36.967" fill="#7b0f8f"/><polygon points="0 36.967 43.426 79.902 40.148 99.236 0 36.967" fill="#de50fc"/><polygon points="0 36.967 77.841 74.104 56.312 79.231 0 36.967" fill="#d396ff"/><polygon points="0 36.967 43.426 79.902 17.233 84.153 0 36.967" fill="#d396ff"/><path d="M246.20691,209.68661a1.07889,1.07889,0,0,1-.31761-.1195c-1.7389-.9802-3.4678-2.0556-5.1395-3.1957a1.09842,1.09842,0,1,1,1.2387-1.8143c1.6188,1.1053,3.2942,2.1471,4.9791,3.097a1.09831,1.09831,0,0,1-.76069,2.0325Zm-11.58261-8.1628a1.09445,1.09445,0,0,1-.4932-.2433,81.18749,81.18749,0,0,1-6.0319-5.7679,1.09817,1.09817,0,0,1,1.5971-1.5077,79.02482,79.02482,0,0,0,5.8671,5.6107,1.09847,1.09847,0,0,1-.9391,1.9082Zm-11.31339-11.9356a1.0912,1.0912,0,0,1-.64331-.3987c-1.6728-2.1382-3.303-4.4169-4.8462-6.7727a1.09861,1.09861,0,0,1,1.8383-1.2035c1.5085,2.3049,3.1027,4.5329,4.7374,6.6229a1.09758,1.09758,0,0,1-1.08619,1.752Zm-9.03461-13.7561a1.09245,1.09245,0,0,1-.7392-.5444c-1.3091-2.3691-2.5747-4.8628-3.7631-7.4125a1.09852,1.09852,0,1,1,1.992-.9268c1.165,2.5037,2.4085,4.9524,3.6926,7.2774a1.09712,1.09712,0,0,1-1.1823,1.6063Zm-86.19739-30.3519-.01841-.0038c-2.716-.6086-5.4237-1.2778-8.0487-1.9895a1.098,1.098,0,1,1,.5735-2.1198c2.5953.7029,5.2717,1.3644,7.955,1.9663a1.098,1.098,0,0,1-.46139,2.1468Zm8.07259,1.6341a1.09806,1.09806,0,0,1,.4181-2.1558c2.6519.4812,5.3742.9194,8.09,1.3035a1.098,1.098,0,1,1-.3083,2.1743c-2.7437-.3878-5.4939-.8304-8.1748-1.3169Zm71.15941,13.801a1.09781,1.09781,0,0,1-.80251-.6759c-.9936-2.5388-1.9359-5.1671-2.7997-7.8107a1.09786,1.09786,0,1,1,2.0868-.683c.85141,2.6049,1.7788,5.1924,2.75841,7.6929a1.099,1.099,0,0,1-1.243,1.4767Zm-95.13311-19.7558c-.0394-.0081-.0783-.0189-.1181-.0312-2.6612-.8615-5.2936-1.7896-7.8233-2.7582a1.09846,1.09846,0,0,1,.78651-2.0513c2.49269.9556,5.08819,1.8706,7.71369,2.7194a1.09858,1.09858,0,0,1-.5588,2.1213Zm40.2826,8.262a1.09835,1.09835,0,0,1,.3357-2.168q1.60815.16605,3.1933.3046c1.64951.1455,3.3157.2559,4.9488.3281a1.09845,1.09845,0,0,1-.0962,2.1948c-1.6669-.0744-3.3642-.1865-5.046-.3345q-1.6008-.1419-3.2253-.3085A1.04546,1.04546,0,0,1,152.4604,149.42151Zm16.44151.7065a1.09855,1.09855,0,0,1,.19179-2.1736c2.715-.0772,5.45121-.2575,8.1335-.5352a1.09809,1.09809,0,0,1,.2262,2.1845c-2.7356.2837-5.5273.4677-8.2973.5466A1.12358,1.12358,0,0,1,168.90191,150.128ZM96.8085,135.25391a1.08035,1.08035,0,0,1-.2321-.0759c-2.5616-1.1586-5.0683-2.3921-7.4516-3.6658a1.098,1.098,0,1,1,1.03411-1.9373c2.34129,1.2514,4.80589,2.4632,7.32229,3.6023a1.09832,1.09832,0,0,1-.6727,2.0767ZM82.3102,127.478a1.09586,1.09586,0,0,1-.36629-.1486c-2.37541-1.5049-4.67671-3.0998-6.83951-4.7402a1.09787,1.09787,0,1,1,1.3267-1.7496c2.1142,1.6029,4.3649,3.1622,6.6886,4.6351a1.09833,1.09833,0,0,1-.8095,2.0033Zm102.9576,20.9465a1.09809,1.09809,0,0,1,.0252-2.156c2.6735-.4875,5.3478-1.0849,7.9496-1.7755a1.09831,1.09831,0,0,1,.5647,2.1228c-2.6582.7056-5.3913,1.3156-8.1215,1.8127A1.095,1.095,0,0,1,185.2678,148.42451Zm16.9264-3.1559a1.09843,1.09843,0,0,1-.841-.7946c-.0225-.0834-.0448-.1674-.0661-.2504a1.083,1.083,0,0,1-.9285-.7285,1.09916,1.09916,0,0,1,.4167-1.2726c-.4876-1.9714-.9266-3.9267-1.3079-5.8366a1.09872,1.09872,0,0,1,2.1551-.4293c.3575,1.7928.7666,3.6275,1.2203,5.4784,1.9396-.7256,3.8666-1.5153,5.75211-2.3567a1.09843,1.09843,0,0,1,.89519,2.0062c-1.9998.8916-4.0458,1.7274-6.1028,2.4917.029.1115.0594.223.0884.3344a1.09859,1.09859,0,0,1-1.2815,1.358ZM69.224,117.52181a1.09334,1.09334,0,0,1-.52-.2665,81.04513,81.04513,0,0,1-5.8489-5.9479,1.09831,1.09831,0,0,1,1.6452-1.4555,78.36142,78.36142,0,0,0,5.6895,5.7849,1.09864,1.09864,0,0,1-.9658,1.885Zm-10.8703-12.3227a1.09319,1.09319,0,0,1-.677-.444,70.82132,70.82132,0,0,1-4.39479-7.1142,1.09815,1.09815,0,0,1,1.93359-1.0416,68.68923,68.68923,0,0,0,4.2583,6.8932,1.09785,1.09785,0,0,1-1.1201,1.7066Zm157.8416,32.2973a1.09817,1.09817,0,0,1-.3071-2.0382c2.3699-1.2994,4.717-2.713,6.9739-4.2019a1.09865,1.09865,0,0,1,1.2099,1.8342c-2.3074,1.5209-4.7059,2.9656-7.1268,4.2935A1.0951,1.0951,0,0,1,216.19529,137.49641Zm-17.197-8.3755a1.09781,1.09781,0,0,1-.86739-.9389c-.35261-2.7998-.588-5.5911-.70141-8.2965a1.09844,1.09844,0,1,1,2.195-.0911c.1096,2.6442.3411,5.3746.68441,8.1135a1.09878,1.09878,0,0,1-1.31061,1.213Zm30.926-.681a1.09742,1.09742,0,0,1-.4559-1.9395c2.1201-1.6616,4.2073-3.4359,6.2027-5.2758a1.09786,1.09786,0,1,1,1.4877,1.6149c-2.0375,1.8789-4.16989,3.6926-6.3356,5.3892A1.09357,1.09357,0,0,1,229.92429,128.43991Zm-31.5806-15.7575a1.09929,1.09929,0,0,1-.8736-1.1339,78.39482,78.39482,0,0,1,.8776-8.3016,1.09666,1.09666,0,0,1,1.2577-.9099,1.06164,1.06164,0,0,1,.9096,1.2589,76.202,76.202,0,0,0-.8517,8.069,1.09823,1.09823,0,0,1-1.1542,1.0385A1.17549,1.17549,0,0,1,198.3437,112.68241Zm43.6715,4.6075a1.09835,1.09835,0,0,1-.5831-1.8206c1.8267-1.9779,3.6067-4.062,5.2915-6.1943a1.098,1.098,0,1,1,1.7234,1.3609c-1.7184,2.1768-3.5362,4.3043-5.4029,6.3232A1.09545,1.09545,0,0,1,242.01519,117.28991Zm-41.023-20.8284c-.02629-.0054-.0524-.0115-.0796-.0192a1.09792,1.09792,0,0,1-.7568-1.3561l.0954-.3301a58.1129,58.1129,0,0,1,2.787-7.5504,1.09849,1.09849,0,0,1,2.00471.8988,55.80511,55.80511,0,0,0-2.684,7.2698l-.09011.3113A1.09861,1.09861,0,0,1,200.99219,96.46151Zm51.2248,7.9186a1.09872,1.09872,0,0,1-.6896-1.6893c1.505-2.2365,2.9512-4.5671,4.2967-6.9268a1.09848,1.09848,0,0,1,1.9084,1.0884c-1.3731,2.4066-2.8481,4.7834-4.3828,7.0651A1.09942,1.09942,0,0,1,252.217,104.38011ZM207.68019,81.46a1.09773,1.09773,0,0,1-.712-1.6536,62.883,62.883,0,0,1,4.8728-6.819,1.09854,1.09854,0,0,1,1.6973,1.3951,60.61822,60.61822,0,0,0-4.7029,6.5791A1.0975,1.0975,0,0,1,207.68019,81.46Zm52.6958,8.6309a1.10022,1.10022,0,0,1-.7703-1.5493l.5824-1.2329a30.86919,30.86919,0,0,0,2.13-6.2611,1.09766,1.09766,0,0,1,1.293-.8355l.0184.0038a1.09765,1.09765,0,0,1,.8316,1.3114,33.08672,33.08672,0,0,1-2.2823,6.7087l-.5917,1.2516A1.09843,1.09843,0,0,1,260.376,90.09091Zm-42.24209-21.302a1.0985,1.0985,0,0,1-.51561-1.8889,50.47669,50.47669,0,0,1,6.6648-5.1272,1.0983,1.0983,0,0,1,1.1849,1.8496,48.15129,48.15129,0,0,0-6.3725,4.904A1.10052,1.10052,0,0,1,218.13391,68.78891Zm45.65989,5.3928a1.0989,1.0989,0,0,1-.8727-.9859,17.97889,17.97889,0,0,0-2.1558-7.3955,1.09858,1.09858,0,0,1,1.916-1.0754,20.14935,20.14935,0,0,1,2.4285,8.2908A1.09789,1.09789,0,0,1,264.10491,74.2,1.08424,1.08424,0,0,1,263.79379,74.18171Zm-31.82289-14.1554a1.098,1.098,0,0,1-.17811-2.0993,37.29074,37.29074,0,0,1,8.17711-2.1755,1.09856,1.09856,0,0,1,.31579,2.1743,35.074,35.074,0,0,0-7.6962,2.0473A1.09315,1.09315,0,0,1,231.97091,60.02631Zm23.86179.4644a1.10027,1.10027,0,0,1-.35179-.1395,19.24989,19.24989,0,0,0-7.30361-2.5507,1.0979,1.0979,0,1,1,.3108-2.1737,21.42772,21.42772,0,0,1,8.1395,2.8514,1.09825,1.09825,0,0,1-.7949,2.0125Z" fill="#8550fc"/><path d="M452.05611,54.88141H507.762A20.04888,20.04888,0,0,1,527.81091,74.9303v39.37842a20.0491,20.0491,0,0,1-20.0491,20.0491H452.05613a20.04922,20.04922,0,0,1-20.04922-20.04922v-39.378A20.0492,20.0492,0,0,1,452.05611,54.88141Z" fill="#fc8e53"/><path d="M523.54539,62.58461l-26.0633,26.0631c-.4489.4489-.9204.8755-1.3918,1.2795a24.8495,24.8495,0,0,1-32.3713,0c-.4713-.404-.9427-.8306-1.3918-1.2795l-1.8408-1.8409-24.2-24.2222a20.11637,20.11637,0,0,1,3.12052-3.2103l24.267,24.2449,1.84108,1.8409a14.882,14.882,0,0,0,1.4142,1.2571,20.32869,20.32869,0,0,0,25.9734.0223q.7407-.60585,1.4141-1.2794l1.84122-1.8184,24.24448-24.2674A20.25382,20.25382,0,0,1,523.54539,62.58461Z" fill="#fff"/><path d="M465.515,85.46011a14.882,14.882,0,0,0,1.4142,1.2571l-3.2102,3.21-30.6877,30.6879a20.25218,20.25218,0,0,1-.9876-5.3653l28.4427-28.443,3.18752-3.1876Z" fill="#fff"/><path d="M527.76569,115.24981a20.24917,20.24917,0,0,1-.98778,5.3653l-30.68762-30.6879-3.1877-3.1877q.7407-.60585,1.4141-1.2794l1.84122-1.8184,3.16508,3.1651Z" fill="#fff"/><polygon points="381.821 231.606 342.722 264.614 300.036 234.083 310.217 206.236 312.32 195.603 316.462 174.557 359.291 173.383 361.136 180.88 366.13 201.113 381.821 231.606" fill="#f4d37e"/><path d="M361.13619,180.87981c-4.3358,7.665-16.2462,18.0011-48.8159,14.7235l4.1421-21.0465,42.82852-1.1742Z" fill="#deb449"/><path d="M378.05539,119.42221c0,36.9313-17.8088,66.87-39.777,66.87s-39.777-29.9387-39.777-66.87,17.8087-47.8797,39.777-47.8797S378.05539,82.49091,378.05539,119.42221Z" fill="#f4d37e"/><path d="M357.89109,75.27061s.1446,21.3362-19.1091,23.2188-36.77708-9.724-41.2174,15.4792V91.37731l21.3362-12.5507Z" fill="#deb449"/><path d="M382.21029,87.81c3.603,12.6105-5.9925,68.9199-11.3971,80.3294s-17.3278,18.0088-33.6405,18.1528c-20.8116.1838-27.8587-10.09-32.0622-16.095s-4.5684-17.533-9.9729-60.7691,28.8796-49.0464,41.4902-49.0464,18.5599-.1948,20.9619,8.2123C375.55991,67.59861,378.60729,75.19951,382.21029,87.81Zm-39.8382,6.2423c-11.49118,5.3467-31.8439-5.4434-39.621,3.3058s-2.989,36.6635-.4409,48.3778c1.0082,4.6352,14.1991.9896,22.314,5.266-11.1626,10.5319,0,19.515,12.2801,19.515,11.6533,0,22.7118-3.7171,15.27762-17.9662,5.70918-6.1952,17.96618-.3098,20.44428-5.5757,3.56072-7.5667,1.577-42.8119,1.577-42.8119-4.8607-1.4582-16.0402-15.0682-16.0402-25.2756A33.44238,33.44238,0,0,1,342.37209,94.05231Z" fill="#232323"/><ellipse cx="320.73567" cy="116.99944" rx="3.88855" ry="5.70015" fill="#232323"/><ellipse cx="354.00252" cy="116.99944" rx="3.88855" ry="5.70015" fill="#232323"/><path d="M326.32359,156.33361H349.222s-2.4748,9.9077-10.5219,9.9077S327.29019,160.44171,326.32359,156.33361Z" fill="#fff"/><path d="M337.77279,122.69961s-14.6152,23.3979,0,23.3706Z" fill="#deb449"/><path d="M292.65419,120.60251a38.36913,38.36913,0,0,1-.6199-6.8353c0-22.9762,20.2808-37.7281,45.2983-37.7281s45.29832,14.7519,45.29832,37.7281a38.51237,38.51237,0,0,1-.62082,6.8353h5.1965c1.2359-4.0716,2.3598-8.3777,1.9105-12.7921-2.1938-21.5524-20.1196-42.3875-51.7845-42.3875-28.59968,0-51.223,22.4789-51.223,45.1947a26.7461,26.7461,0,0,0,1.3511,9.9849Z" fill="#808285"/><path d="M294.67,145.52031l-4.6446.4926a9.57094,9.57094,0,0,1-10.67748-8.1422l-2.59621-22.253a9.33191,9.33191,0,0,1,8.5399-10.1802l4.6446-.4926a5.12142,5.12142,0,0,1,5.7134,4.3568l3.59,30.7713A4.99335,4.99335,0,0,1,294.67,145.52031Z" fill="#808285"/><path d="M380.87559,145.52031l4.6446.4926a9.571,9.571,0,0,0,10.6775-8.1422l2.59622-22.253a9.33179,9.33179,0,0,0-8.53992-10.1802l-4.6445-.4926a5.12133,5.12133,0,0,0-5.7134,4.3568l-3.59,30.7713A4.99327,4.99327,0,0,0,380.87559,145.52031Z" fill="#808285"/><path d="M349.222,63.51741s-3.1055,10.1753-21.0285,10.2009-23.5063,1.5523-23.5063,1.5523S317.91579,61.07811,349.222,63.51741Z" fill="#232323"/><path d="M405.61379,293.77971c-1.22588.4-2.3227.7742-3.2776,1.1226.5678,5.239,1.2001,17.4849,1.8582,28.9179l.0774,1.3033c.1807,3.1744.3742,6.2585.5678,9.0845.34832,5.1745.6968,9.5102,1.0581,11.9619,1.0581,6.0263,1.9098,12.2718,2.5937,18.1173,1.7162,14.7752,2.3357,27.0597,2.3357,27.0597-2.8519-.0774-140.9636,0-140.9636,0l.7098-23.8595.4774-15.73.4516-14.917,1.2259-41.2541a46.86072,46.86072,0,0,0-6.0004-1.3034c-10.0651-1.7421-27.8468-3.6389-34.6473-4.3358-1.7291-.1806-2.7485-.2838-2.7485-.2838s15.2784-63.7846,24.6725-73.8885c17.0849-10.749,34.8279-14.9428,58.2358-20.1947,0,0-1.4582,8.8392,2.8905,16.4526,10.491,18.2979,45.177,15.0461,49.8096-5.5359,1.1097-4.9293-.1678-10.9039-.1678-10.9039s48.0029,9.962,57.3067,21.0723c7.2779,12.2976,20.6594,66.6751,20.6594,66.6751s-1.3163.3355-3.497.9162C431.98959,286.16631,415.16279,290.65691,405.61379,293.77971Z" fill="#380f8f"/><polygon points="392.612 255.994 402.332 294.904 404.266 325.123 392.612 293.466 392.612 255.994" fill="#1a0845"/><polygon points="279.206 316.865 274.006 339.112 271.051 351.757 271.502 336.84 272.728 295.586 279.206 253.058 279.206 316.865" fill="#1a0845"/><path d="M249.40779,417.70841s-49.0086,2.6271-60.23489,7.6484,1.69849,30.4657,9.54649,31.5386c5.744.7851,54.3421-4.1221,61.21451-11.212Z" fill="#232323"/><path d="M249.40779,417.70841s-21.265,4.5256-25.2264,9.6866-4.6488,19.2056-1.7074,19.7907,6.6515,5.1995,37.45991-1.5023Z" fill="#f4d37e"/><path d="M248.85139,417.45631l10.8749,28.7071,201.87-36.965c19.6879-4.3477,53.787-22.3878,49.3925-37.8757-5.33288-18.7953-20.7134-30.8022-40.1247-25.3508Z" fill="#0b53ff"/><path d="M274.00569,339.11151l-2.5034-2.2711-12.9556-11.704,8.1811-30.8535c-10.0651-1.7421-27.8468-3.6389-34.6473-4.3358l-7.7295,39.4605a12.16184,12.16184,0,0,0,5.4843,12.646l40.738,25.4338,13.8072,8.6199,10.7878-17.872Z" fill="#f4d37e"/><path d="M448.79069,328.77541l-9.549-44.5189c-7.2521,1.9098-24.0789,6.4004-33.6279,9.5232l8.9167,31.3438-9.6909,9.0845-26.3372,24.6725,11.1104,17.6785,18.8786-12.2718,35.0473-22.7627A12.1684,12.1684,0,0,0,448.79069,328.77541Z" fill="#f4d37e"/><path d="M432.55639,417.06271l-10.4771,28.8547-208.85038-36.7348c-19.74611-4.0752-42.55791-19.769-42.90621-31.4037-.4817-16.092,22.8189-36.6491,42.3037-31.4665Z" fill="#2175fb"/><path d="M432.55639,417.06271s51.585,3.4145,63.0036,7.982-4.0674,28.2361-11.8662,29.6226c-5.70788,1.0147-54.4636-1.9411-61.6145-8.7499Z" fill="#232323"/><path d="M432.55639,417.06271s20.3487,4.1501,24.5138,9.1482,5.4146,19.0039,2.499,19.7065-6.4377,5.4617-37.4899,0Z" fill="#f4d37e"/><path d="M415.148,293.48541l-10.7774,84.8931H267.70019l-1.6047-12.6474-9.1728-72.2457a9.56861,9.56861,0,0,1,9.5645-9.5772h139.0963A9.56852,9.56852,0,0,1,415.148,293.48541Z" fill="#e6e7e8"/><rect x="265.00639" y="378.38091" width="142.0573" height="8.0245" rx="2.7059" ry="2.7059" fill="#d1d3d4"/><path d="M336.035,320.30261a11.18187,11.18187,0,0,0-2.4404.2757,8.75417,8.75417,0,0,1-8.673,9.8014c-.0349.3593-.0551.723-.0551,1.0915a11.1686,11.1686,0,1,0,11.1685-11.1686Z" fill="#d1d3d4"/><path d="M137.2665,164.54941c-7.146,0-9.971,2.9524-9.971,9.3047,0,.5839-1.1107.5839-1.1107,0,0-6.3523-2.2605-9.3047-9.97089-9.3047-.57641,0-.57621-1.1132.00029-1.1132,7.9484,0,9.97071-3.6798,9.97071-9.2936,0-.5839,1.11059-.5839,1.11059,0,0,6.6863,2.7058,9.2936,9.9706,9.2936C137.8426,163.43621,137.84291,164.54941,137.2665,164.54941Z" fill="#fbf3fe"/><path d="M190.817,115.89151c-10.6637,0-14.8793,4.4056-14.8793,13.8849,0,.8714-1.6574.8714-1.6574,0,0-9.4793-3.3735-13.8849-14.8793-13.8849-.8602,0-.8597-1.6612.0004-1.6612,11.8611,0,14.879-5.4913,14.879-13.8687,0-.8714,1.6573-.8714,1.6573,0,0,9.9777,4.0377,13.8687,14.8788,13.8687C191.6767,114.23031,191.6771,115.89151,190.817,115.89151Z" fill="#fbf3fe"/><path d="M180.8904,218.66381c-8.1594,0-11.385,3.371-11.385,10.6242,0,.6668-1.2682.6668-1.2682,0,0-7.2532-2.58129-10.6242-11.3851-10.6242-.6581,0-.6579-1.271.0004-1.271,9.0756,0,11.3848-4.2017,11.3848-10.6117,0-.6668,1.2681-.6668,1.2681,0,0,7.6345,3.08951,10.6117,11.3847,10.6117C181.5483,217.39281,181.5485,218.66381,180.8904,218.66381Z" fill="#fbf3fe"/></g></g></svg>