<svg id="Layer_1" data-name="Layer 1" xmlns="http://www.w3.org/2000/svg" xmlns:xlink="http://www.w3.org/1999/xlink" viewBox="0 0 1173.45388 768"><defs><linearGradient id="linear-gradient" x1="728.54612" y1="385" x2="1902" y2="385" gradientUnits="userSpaceOnUse"><stop offset="0" stop-color="#f60d45"/><stop offset="1" stop-color="#ff6320"/></linearGradient></defs><title>home</title><path d="M1038.4687,1c81.1867,48,107.7569,203,66.42548,279-32.90118,60.49853-102.49834,117.68614-169.754,159C857,487,799.89646,517.75087,774.20958,550,685,662,754,769,754,769H1902V1Z" transform="translate(-728.54612 -1)" fill="url(#linear-gradient)"/><g id="Layer_5" data-name="Layer 5"><path d="M1454.61629,254.38322c4.065.80257,7.96062-2.18093,8.68913-6.6488a8.83048,8.83048,0,0,0-1.22265-6.15474,7.40709,7.40709,0,0,0-4.82233-3.40024,6.85434,6.85434,0,0,0-1.3251-.13033,7.73136,7.73136,0,0,0-7.364,6.77839,8.82774,8.82774,0,0,0,1.22265,6.154A7.40533,7.40533,0,0,0,1454.61629,254.38322Z" transform="translate(-728.54612 -1)" fill="none"/><path d="M1615.08047,563.57387V529.196c0-.58094-1.001-1.49471-1.988-2.03881h-4.34156v42.21366C1614.99877,568.25822,1615.08047,563.79035,1615.08047,563.57387Z" transform="translate(-728.54612 -1)" fill="none"/><path d="M1381.13661,230.6235c6.64357,0,12.04909-5.94416,12.04909-13.24974s-5.40552-13.24974-12.04909-13.24974-12.04909,5.94343-12.04909,13.24974C1369.08752,224.67934,1374.493,230.6235,1381.13661,230.6235Z" transform="translate(-728.54612 -1)" fill="none"/><path d="M1351.87531,224.39145a34.48263,34.48263,0,0,0,4.06166,10.76915,3.63047,3.63047,0,0,1-.41044,4.21165l-5.96463,6.559,5.60573,6.16432,5.96463-6.559a2.86377,2.86377,0,0,1,3.83-.45136,28.28746,28.28746,0,0,0,9.79326,4.4664,3.31859,3.31859,0,0,1,2.41787,3.2979v9.26929h7.92784V252.8495a3.31782,3.31782,0,0,1,2.41787-3.2979,28.26849,28.26849,0,0,0,9.79326-4.4664,2.86368,2.86368,0,0,1,3.83.45136l5.96463,6.559,5.60573-6.16432-5.96463-6.559a3.6294,3.6294,0,0,1-.41044-4.21165,34.51256,34.51256,0,0,0,4.06166-10.76915,3.15207,3.15207,0,0,1,2.99905-2.65879h8.43v-8.71781h-8.43a3.15135,3.15135,0,0,1-2.99905-2.65878,34.4936,34.4936,0,0,0-4.06166-10.76988,3.62944,3.62944,0,0,1,.41113-4.21165l5.96394-6.55824-5.60573-6.16431-5.96463,6.559a2.86153,2.86153,0,0,1-3.83.45136,28.28725,28.28725,0,0,0-9.79326-4.4664,3.31787,3.31787,0,0,1-2.41787-3.2979v-9.27h-7.92784v9.27a3.31783,3.31783,0,0,1-2.41787,3.2979,28.26283,28.26283,0,0,0-9.79326,4.4664,2.86221,2.86221,0,0,1-3.83-.45136l-5.96463-6.559-5.60573,6.16431,5.96463,6.559a3.6294,3.6294,0,0,1,.41044,4.21165,34.51251,34.51251,0,0,0-4.06166,10.76915,3.15207,3.15207,0,0,1-2.99905,2.65879h-8.43v8.71781h8.43A3.15133,3.15133,0,0,1,1351.87531,224.39145Zm38.70841,19.925c-2.58927,0-2.58526-4.41781,0-4.41781C1393.173,239.89869,1393.16828,244.3165,1390.58372,244.3165Zm-11.38286-54.48631c2.58927,0,2.58526,4.41781,0,4.41781C1376.61159,194.248,1376.61564,189.83019,1379.20086,189.83019Zm1.93575,7.54489c10.02829,0,18.18647,8.9711,18.18647,19.99868s-8.15818,19.99868-18.18647,19.99868-18.18646-8.9711-18.18646-19.99868S1371.109,197.37508,1381.13661,197.37508Zm-25.26389,13.23354a34.18492,34.18492,0,0,1,12.84924-18.18223c2.18014-1.54844,4.19223,2.27738,2.0275,3.81478a29.34863,29.34863,0,0,0-11.0032,15.54258A2.02576,2.02576,0,1,1,1355.87272,210.60862Z" transform="translate(-728.54612 -1)" fill="#60718d"/><path d="M1359.13958,383.54669v-7.215h6.13738v1.97917c10.55659,1.69348,51.9969,7.631,92.57277,3.81329v-5.79249h6.13738v7.21575a9.45,9.45,0,0,1,3.53871-1.57053,7.44666,7.44666,0,0,1,3.02651.03314c5.37605-4.31251,6.76544-13.654,7.12234-18.39576-6.61746-1.265-9.67744-3.95247-10.043-4.29263a3.60334,3.60334,0,0,1-.09105-5.06427c2.88989-2.9128,4.80558-8.8415,5.90169-13.65838-8.05372,2.48576-16.66115.99621-17.10845.91669a3.2069,3.2069,0,0,1-2.49286-2.55791,3.54924,3.54924,0,0,1,1.19453-3.51143c2.73455-2.16547,4.45472-8.36437,5.29906-13.90063-15.02137,6.90651-35.06324,10.52247-36.00463,10.69037a2.9879,2.9879,0,0,1-3.20327-1.75534,3.63785,3.63785,0,0,1,.48678-3.89873c4.54778-5.27118,4.52972-12.16369,3.692-17.07041-13.1204,17.37966-40.07569,28.25042-41.3385,28.75256a2.85194,2.85194,0,0,1-2.96893-.5456,3.54717,3.54717,0,0,1-1.11618-3.074,18.59482,18.59482,0,0,0-2.04086-9.70225,55.43516,55.43516,0,0,1-6.63821,11.08575,109.11333,109.11333,0,0,0-10.23451,16.03076c-4.84509,9.73979-5.818,20.3315-5.83336,29.84156.16139.02135.31938.04566.468.0751A9.47537,9.47537,0,0,1,1359.13958,383.54669Zm81.95994-43.955c2.4721,0,2.46805,4.21827,0,4.21827C1438.62742,343.81,1438.63142,339.59171,1441.09952,339.59171Zm-19.37094,25.30888c2.4721,0,2.46805,4.21827,0,4.21827C1419.25648,369.11886,1419.26048,364.90059,1421.72858,364.90059Zm-6.521.63249c2.4721,0,2.46805,4.21827,0,4.21827C1412.73543,369.75135,1412.73944,365.53308,1415.20753,365.53308Zm-4.64823-32.24633c3.45236,0,3.447,5.89041,0,5.89041C1407.10694,339.17716,1407.11229,333.28675,1410.5593,333.28675Zm-5.02185,13.62158c3.45236,0,3.447,5.89041,0,5.89041C1402.08509,352.79873,1402.09044,346.90832,1405.53745,346.90832Zm-10.71328-5.89041c3.45236,0,3.447,5.89041,0,5.89041C1391.37181,346.90832,1391.37717,341.01791,1394.82417,341.01791Zm-13.642,24.25157a115.36347,115.36347,0,0,0,26.92448,1.44463c2.47075-.15241,2.45469,4.0666,0,4.21827a119.66312,119.66312,0,0,1-27.94425-1.59482C1377.72712,368.91344,1378.767,364.84978,1381.18213,365.26948Zm-17.10641-4.06217a24.22986,24.22986,0,0,1,5.43363-10.47535c2.41517-2.71547,6.19962,1.45272,3.7878,4.16527a17.98869,17.98869,0,0,0-4.0563,7.87621C1368.35435,366.43945,1363.18922,364.87481,1364.07573,361.20731Z" transform="translate(-728.54612 -1)" fill="#996b53"/><path d="M1383.26521,588.67216l5.01584-15.396h-14.24263a18.53854,18.53854,0,0,1-2.41452,15.396Z" transform="translate(-728.54612 -1)" fill="#12b57b"/><polygon points="714.842 598.496 775.846 598.496 775.846 594.421 713.515 594.421 714.842 598.496" fill="#60718d"/><path d="M1463.9871,401.014v4.38026h2.58391c1.18917-.64647,4.365-5.29475,5.14437-10.54973.21962-1.48143.38166-4.155-.997-5.41771a2.29267,2.29267,0,0,0-2.10384-.80919c-1.71412.33206-3.62645,2.73021-4.62678,4.33608v5.03778a7.74954,7.74954,0,0,0,1.80317-2.21039c.76063-1.39751,2.75-.1237,1.98733,1.27747A10.01126,10.01126,0,0,1,1463.9871,401.014Z" transform="translate(-728.54612 -1)" fill="#bca877"/><path d="M1467.70592,588.67216a18.02517,18.02517,0,0,1-3.71015-10.429l-.0971-4.96707h-29.05238l5.01584,15.396Z" transform="translate(-728.54612 -1)" fill="#12b57b"/><path d="M1305.993,562.64464H1489.012c2.09914,0,2.912,2.175,2.458,3.88252h30.31189c3.66593,0,6.64827-3.27947,6.64827-7.31147V419.45536c0-4.032-2.98229-7.31147-6.64827-7.31147h-220.4364c-3.66593,0-6.64892,3.27949-6.64892,7.31147v139.7603c0,4.032,2.983,7.31147,6.64892,7.31147h2.18884C1303.08168,564.81966,1303.89724,562.64464,1305.993,562.64464Zm204.89144-76.82126c2.58927,0,2.58526,4.41781,0,4.41781C1508.29519,490.24119,1508.29989,485.82338,1510.88446,485.82338Zm1.69067,62.70638c-2.96693,0-2.96153-5.06207,0-5.06207C1515.54205,543.46769,1515.53735,548.52976,1512.57513,548.52976Zm-15.66279-125.84128h16.11074a4.025,4.025,0,0,1,0,8.01388h-16.11074a4.025,4.025,0,0,1,0-8.01388Zm-24.86351,65.09862h24.55148c2.58927,0,2.58526,4.41781,0,4.41781h-24.55148C1469.45956,492.2049,1469.46426,487.78709,1472.04883,487.78709Zm-25.45074,56.24311h56.771c2.96693,0,2.96153,5.06207,0,5.06207h-56.771C1443.6312,549.09156,1443.63586,544.0302,1446.59809,544.0302Zm-30.34737-116.37464c3.45236,0,3.447,5.89041,0,5.89041C1412.79837,433.546,1412.80372,427.65557,1416.25073,427.65557Zm-9.82072,0c3.45236,0,3.447,5.89041,0,5.89041C1402.97765,433.546,1402.98365,427.65557,1406.43,427.65557Zm5.13366,37.49542c12.12678,0,21.993,10.84939,21.993,24.1838,0,13.33517-9.86625,24.18456-21.993,24.18456s-21.99233-10.84939-21.99233-24.18456C1389.57134,476.00038,1399.43689,465.151,1411.56367,465.151Zm-76.55508-37.49542h54.45894c3.45236,0,3.447,5.89041,0,5.89041h-54.45894C1331.55558,433.546,1331.56158,427.65557,1335.00859,427.65557Zm-25.99109-.6082c2.96693,0,2.96153,5.06207,0,5.06207C1306.05061,432.10944,1306.05531,427.04737,1309.0175,427.04737Zm0,12.93536c2.96693,0,2.96153,5.06207,0,5.06207C1306.05061,445.0448,1306.05531,439.98273,1309.0175,439.98273Zm0,12.93606c2.96693,0,2.96153,5.06207,0,5.06207C1306.05061,457.98014,1306.05531,452.91879,1309.0175,452.91879Zm-2.302,19.403a2.30586,2.30586,0,1,1,4.60336,0v70.302a2.30586,2.30586,0,1,1-4.60336,0Z" transform="translate(-728.54612 -1)" fill="#a9b3c1"/><path d="M1561.23083,512.39427h-.04418v.04566C1561.20071,512.42375,1561.21611,512.409,1561.23083,512.39427Z" transform="translate(-728.54612 -1)" fill="#ae6344"/><path d="M1561.18665,515.659v56.91389h15.5992c1.97792,0,1.97457,3.37448,0,3.37448h-15.5992v7.874h41.42756V521.252h-19.81889c-1.97792,0-1.97457-3.37448,0-3.37448h19.81889v-1.61987h-40.06028A1.77058,1.77058,0,0,1,1561.18665,515.659Zm23.39847,60.28837c-1.97792,0-1.97457-3.37448,0-3.37448C1586.563,572.57294,1586.55969,575.94741,1584.58512,575.94741Zm6.90472,0c-1.97793,0-1.97457-3.37448,0-3.37448C1593.46776,572.57294,1593.46441,575.94741,1591.48984,575.94741Zm-14.95978-39.47387c6.5331-4.14907,14.25738-2.93343,17.21826,2.70518,2.96153,5.63933.05558,13.60243-6.47752,17.75073a15.12285,15.12285,0,0,1-8.04636,2.46367,9.99755,9.99755,0,0,1-9.17256-5.16885C1567.091,548.58423,1569.997,540.62189,1576.53006,536.47354Z" transform="translate(-728.54612 -1)" fill="#ae6344"/><path d="M1411.56367,506.7704c8.74271,0,15.855-7.82172,15.855-17.43489,0-9.61389-7.11294-17.43489-15.855-17.43489-8.74271,0-15.855,7.82172-15.855,17.43489S1402.821,506.7704,1411.56367,506.7704Z" transform="translate(-728.54612 -1)" fill="#e3e2d5"/><path d="M1429.24394,243.30114l4.971.98075a2.87916,2.87916,0,0,1,2.20961,2.79941,23.05923,23.05923,0,0,0,1.47909,7.42487,3.12693,3.12693,0,0,1-.94544,3.55781l-4.1494,3.1742,2.33752,3.69328,4.14805-3.1742a2.50173,2.50173,0,0,1,3.36261.2614,19.244,19.244,0,0,0,5.816,4.10635,3.0192,3.0192,0,0,1,1.61906,3.25078l-.89256,5.46631,4.02753.79448.89121-5.46631a2.78184,2.78184,0,0,1,2.5464-2.42907,17.85831,17.85831,0,0,0,6.75068-1.6265,2.55131,2.55131,0,0,1,3.23609,1.03965l2.88589,4.56213,3.35861-2.56968-2.88589-4.56213a3.18048,3.18048,0,0,1,.23838-3.69771,21.6335,21.6335,0,0,0,3.73357-6.39626,2.64873,2.64873,0,0,1,2.95618-1.77963l4.971.98.72246-4.42886-4.97027-.98075a2.87916,2.87916,0,0,1-2.20961-2.79942,23.05914,23.05914,0,0,0-1.47909-7.42486,3.12725,3.12725,0,0,1,.94544-3.55781l4.14805-3.1742-2.33683-3.69329-4.14805,3.1742a2.50251,2.50251,0,0,1-3.36261-.26138,19.23739,19.23739,0,0,0-5.816-4.10562,3.0171,3.0171,0,0,1-1.61972-3.25151l.89256-5.4663-4.02684-.79447-.89256,5.4663a2.7818,2.7818,0,0,1-2.5464,2.42906,17.86175,17.86175,0,0,0-6.75,1.62649,2.55032,2.55032,0,0,1-3.23608-1.03966l-2.88654-4.56212-3.35861,2.5697,2.88654,4.56212a3.18048,3.18048,0,0,1-.23838,3.69771,21.63468,21.63468,0,0,0-3.73427,6.39552,2.642,2.642,0,0,1-2.95618,1.78038l-4.97027-.98075Zm40.48947-10.51954c2.58927,0,2.58526,4.41781,0,4.41781C1467.14415,237.19941,1467.14815,232.7816,1469.73342,232.7816Zm-26.44906,11.004c1.25211-7.67226,7.94991-12.7925,14.92427-11.41783a12.7255,12.7255,0,0,1,8.2827,5.84035,15.1679,15.1679,0,0,1,2.10049,10.57035c-1.11484,6.83213-6.54516,11.64167-12.64768,11.64167a11.7349,11.7349,0,0,1-2.27589-.22383,12.73053,12.73053,0,0,1-8.2827-5.84035A15.17022,15.17022,0,0,1,1443.28436,243.78563Z" transform="translate(-728.54612 -1)" fill="#445d7b"/><path d="M1457.84972,405.39422V388.8937c-9.54487.8784-19.12855,1.23478-28.34733,1.23478A436.63606,436.63606,0,0,1,1365.277,385.129v20.266h17.64546v-2.53068a3.85334,3.85334,0,1,1,7.67205,0v2.53068h41.93914v-2.53068a3.85334,3.85334,0,1,1,7.67205,0v2.53068h17.64407Z" transform="translate(-728.54612 -1)" fill="#f8db94"/><path d="M1356.55636,405.39422h2.58322v-5.283a20.16918,20.16918,0,0,1-3.42759-3.31924c-.98226-1.21415.64077-3.00927,1.62777-1.78995a18.79016,18.79016,0,0,0,1.80052,1.9107v-3.95836c-1.00037-1.60587-2.91266-4.00474-4.62613-4.33683a2.28926,2.28926,0,0,0-2.10315.80919c-1.37933,1.2635-1.21729,3.937-.99767,5.41845C1352.19134,400.09947,1355.36718,404.74776,1356.55636,405.39422Z" transform="translate(-728.54612 -1)" fill="#bca877"/><path d="M1470.03739,573.27612l.09306,4.76021a10.778,10.778,0,0,0,3.03052,7.17377,8.925,8.925,0,0,0,6.78755,2.75524c5.20065-.22088,9.269-5.03776,9.09421-10.75075l-.26315-3.93919h-18.74219Z" transform="translate(-728.54612 -1)" fill="#f8db94"/><path d="M1697.33768,599.4958v-8.92545h-13.255v8.92545Z" transform="translate(-728.54612 -1)" fill="#00a99d"/><path d="M1739.6578,525.94516h-13.93465v17.89063h13.93465Z" transform="translate(-728.54612 -1)" fill="#f4bb3a"/><path d="M1658.97882,523.62067V599.4958h16.11078V523.6155c-.0161,0-.02942.00517-.04553.00517Zm12.27468,51.97477a4.23874,4.23874,0,1,1-8.43939,0V543.327a4.23874,4.23874,0,1,1,8.43939,0Z" transform="translate(-728.54612 -1)" fill="#39b54a"/><path d="M1584.96879,552.54629c4.26121-2.70518,6.45676-7.66856,4.79352-10.83613a5.50861,5.50861,0,0,0-5.13166-2.65363,11.001,11.001,0,0,0-5.79854,1.801c-4.26121,2.70518-6.45676,7.66856-4.79352,10.83613C1575.70113,554.86121,1580.70823,555.25143,1584.96879,552.54629Zm-6.76074-3.78312a2.55848,2.55848,0,0,0,.99031-.25845,4.88028,4.88028,0,0,0,1.25681-.9042c.41783-.405.86979-.97341,1.4021-1.60441a10.00821,10.00821,0,0,1,1.81793-1.74872,4.49935,4.49935,0,0,1,2.03821-.80919,2.87038,2.87038,0,0,1,1.47979.19661,2.13158,2.13158,0,0,1,.47542.2798,2.80613,2.80613,0,0,0-.52429.06772,3.17679,3.17679,0,0,0-1.155.539,6.53088,6.53088,0,0,0-1.24206,1.21563c-.39908.49407-.82091,1.11771-1.36728,1.76346a6.90261,6.90261,0,0,1-1.92234,1.64639,3.69,3.69,0,0,1-2.05427.45947,2.28634,2.28634,0,0,1-1.26952-.50144,1.70169,1.70169,0,0,1-.25109-.26137l-.07434-.09864A2.045,2.045,0,0,0,1578.20805,548.76318Z" transform="translate(-728.54612 -1)" fill="#7f2e19"/><path d="M1704.17006,507.79019a1.89355,1.89355,0,0,1-.695-.13473V599.4958h16.11078V507.65838a1.89356,1.89356,0,0,1-.68495.13181Zm11.196,70.26452h-7.86356V544.87108h7.86356Zm0-40.91556h-7.86356V522.165h7.86356Z" transform="translate(-728.54612 -1)" fill="#999"/><path d="M1739.6578,500.79532c0-.025.006-.04638.0067-.07141h-12.503a1.51618,1.51618,0,0,0-1.43822,1.58158v16.89076h13.93457Zm-2.61873,8.99763a1.63472,1.63472,0,0,1-1.53467-1.6876v-2.10878a1.5416,1.5416,0,1,1,3.06934,0v2.10878A1.64557,1.64557,0,0,1,1737.03906,509.79295Z" transform="translate(-728.54612 -1)" fill="#666"/><path d="M1729.94219,580.30631a1.53714,1.53714,0,1,1,3.06869,0v19.1895h6.64692v-48.9103h-13.93465v48.9103h4.21969Q1729.94186,589.90141,1729.94219,580.30631Zm1.27892-10.40466c1.97793,0,1.97457,3.37448,0,3.37448C1729.24318,573.27612,1729.24653,569.90164,1731.22111,569.90164Z" transform="translate(-728.54612 -1)" fill="#666"/><path d="M1684.08267,485.333V583.8214h13.255V485.71512a1.51623,1.51623,0,0,0-1.43822-1.58158H1683.766A2.26825,2.26825,0,0,1,1684.08267,485.333Zm5.71088,8.92325a1.53715,1.53715,0,1,1,3.06869,0V523.7834a1.53715,1.53715,0,1,1-3.06869,0Zm1.27818,35.4323c1.97792,0,1.97457,3.37448,0,3.37448C1689.09446,533.063,1689.09781,529.68855,1691.07174,529.68855Zm0,7.03019c1.97792,0,1.97457,3.37448,0,3.37448C1689.09446,540.09321,1689.09781,536.71873,1691.07174,536.71873Z" transform="translate(-728.54612 -1)" fill="gray"/><path d="M1639.8904,501.53162v29.98514h12.95031V502.30621a1.51623,1.51623,0,0,0-1.43822-1.58158h-11.648A2.4352,2.4352,0,0,1,1639.8904,501.53162Zm3.16914,7.41753c1.97793,0,1.97457,3.37448,0,3.37448C1641.08162,512.32358,1641.085,508.94915,1643.05954,508.94915Zm-1.53467,6.53832a1.5416,1.5416,0,1,1,3.06934,0v2.10878a1.5416,1.5416,0,1,1-3.06934,0Z" transform="translate(-728.54612 -1)" fill="#0071bc"/><path d="M1652.8407,599.4958V562.9053H1639.8904V599.4958Zm-4.98629-10.71835c-1.97793,0-1.97457-3.37448,0-3.37448C1649.83233,585.403,1649.829,588.77746,1647.85441,588.77746Zm-1.27892-15.78262a1.53714,1.53714,0,1,1,3.06869,0v7.874a1.53714,1.53714,0,1,1-3.06869,0Z" transform="translate(-728.54612 -1)" fill="#0071bc"/><path d="M1652.8407,556.15635V538.26571H1639.8904v17.89063Z" transform="translate(-728.54612 -1)" fill="#f4bb3a"/><rect x="830.33852" y="589.57035" width="46.03092" height="8.92545" fill="#85402a"/><path d="M1174.47549,473.92841a3.6408,3.6408,0,0,0-3.45236-3.79637,3.379,3.379,0,0,0-2.85844,1.67065,2.62231,2.62231,0,0,1,.67628-.09132c3.12492,0,3.40683,4.81171.87782,5.72768a3.15882,3.15882,0,0,0,1.30434.28569A3.64074,3.64074,0,0,0,1174.47549,473.92841Z" transform="translate(-728.54612 -1)" fill="#f09b36"/><path d="M1660.70426,255.79322H1539.10657v77.32931h121.59769Zm-98.48513,58.48959h-14.32032V298.53553h14.32032Zm20.55141,0h-14.32032V298.53553h14.32032Zm20.5521,0h-14.32032V298.53553h14.32032Zm20.55141,11.69027h-14.32032V310.2258h14.32032Zm0-21.44626h-14.32032V288.77954h14.32032Zm20.92433,21.44626h-14.32028V310.2258h14.32028Zm0-21.44626h-14.32028V288.77954h14.32028Zm7.11429-21.447H1547.89881V263.936H1651.912v19.14384Z" transform="translate(-728.54612 -1)" fill="#fff"/><path d="M1186.28889,511.58584h-3.70278l14.39664,40.59967h3.70545Z" transform="translate(-728.54612 -1)" fill="#f09b36"/><path d="M1103.73236,599.4958H1141.261V578.9H1103.7799v20.06862A3.54138,3.54138,0,0,1,1103.73236,599.4958Zm16.55939-12.01865h14.704c2.47208,0,2.46807,4.21827,0,4.21827h-14.704C1117.819,591.69467,1117.823,587.47716,1120.29175,587.47716Zm-6.77683,0c2.47209,0,2.46806,4.21827,0,4.21827C1111.04217,591.69467,1111.04618,587.47716,1113.51492,587.47716Zm-7.79993,0c2.47209,0,2.46807,4.21827,0,4.21827C1103.2429,591.69467,1103.24692,587.47716,1105.715,587.47716Z" transform="translate(-728.54612 -1)" fill="#a17a94"/><path d="M1182.98116,502.26056q-1.86211-.03094-3.72487-.0626l1.94513,5.48617h3.70278Z" transform="translate(-728.54612 -1)" fill="#31b78d"/><path d="M1176.26058,483.31113l-3.21265,1.37836,5.30576,14.96237q1.86211.03094,3.72421.0626Z" transform="translate(-728.54612 -1)" fill="#31b78d"/><path d="M1232.907,592.96041h-32.0722c-1.07669.60449-3.50056,3.18892-6.21438,6.53539h44.50027C1236.4076,596.14933,1233.98372,593.5649,1232.907,592.96041Z" transform="translate(-728.54612 -1)" fill="#4ac6e0"/><path d="M1212.756,586.21146l-11.16994-31.49531H1197.88l11.16791,31.49531Z" transform="translate(-728.54612 -1)" fill="#31b78d"/><polygon points="379.349 527.001 382.635 527.001 380.077 504.209 376.84 504.648 379.349 527.001" fill="#f4bb3a"/><polygon points="375.441 492.1 378.678 491.661 379.524 499.195 376.287 499.634 375.441 492.1" fill="#ca6a4f"/><path d="M1141.261,573.83864v-15.748H1103.7799v15.748Z" transform="translate(-728.54612 -1)" fill="#895881"/><polygon points="407.397 513.882 397.765 512.064 395.433 527.001 405.347 527.001 407.397 513.882" fill="#bec0c2"/><path d="M1137.6988,503.64481a2.20975,2.20975,0,0,0-1.64583-2.5616l-5.66331-1.06176a1.8498,1.8498,0,0,0-1.50388.37184,2.22226,2.22226,0,0,0-.81957,1.42991l-.97625,6.252,9.63257,1.81792Z" transform="translate(-728.54612 -1)" fill="#c2ce2f"/><path d="M1533.73653,344.653H1666.075a5.86576,5.86576,0,0,0,5.56221-6.11646v-88.1581a5.86578,5.86578,0,0,0-5.56221-6.11646H1533.73653a5.86579,5.86579,0,0,0-5.5622,6.11646v88.15884A5.86515,5.86515,0,0,0,1533.73653,344.653Zm-.76734-91.17988a4.2475,4.2475,0,0,1,4.02753-4.42886h125.81738a4.24749,4.24749,0,0,1,4.02753,4.42886v81.96949a4.2475,4.2475,0,0,1-4.02753,4.42886H1536.99738a4.24751,4.24751,0,0,1-4.02753-4.42886V253.47316Z" transform="translate(-728.54612 -1)" fill="#7989a3"/><path d="M1752.64962,610.50424H1419.10715v9.23837h335.66172a.10624.10624,0,0,0,.09236-.1097V609.15607A2.39672,2.39672,0,0,1,1752.64962,610.50424Z" transform="translate(-728.54612 -1)" fill="#b55232"/><path d="M1103.7799,553.02855H1141.261V536.57812a1.75241,1.75241,0,0,0-1.66189-1.82822h-35.81851Q1103.77956,543.8892,1103.7799,553.02855Z" transform="translate(-728.54612 -1)" fill="#a17a94"/><path d="M1347.7219,573.27612l2.42052,8.29957a9.775,9.775,0,0,0,7.59706,7.09647h2.831a8.73248,8.73248,0,0,0,1.47709-.36963c4.96627-1.748,7.70953-7.6185,6.11727-13.08629l-.56647-1.94016H1347.7219Z" transform="translate(-728.54612 -1)" fill="#f8db94"/><path d="M1242.31933,389.41721l-1.83,3.0159q.72817.50585,1.457,1.01241c1.25011.86883.09441,3.05785-1.16171,2.18533q-.78641-.5467-1.57284-1.09268l-4.22037,6.95363-8.65366,14.25847a84.66282,84.66282,0,0,0,6.83775,8.71192l2.47745-4.08206a1.50342,1.50342,0,0,1-.233-.16936q-1.05458-.94873-2.10985-1.89819a1.36777,1.36777,0,0,1,0-1.78995,1.1085,1.1085,0,0,1,1.62775,0q.98831.88908,1.97727,1.77889l15.20147-25.04528A101.9955,101.9955,0,0,0,1242.31933,389.41721Z" transform="translate(-728.54612 -1)" fill="#f09b36"/><path d="M1419.10715,588.60224V599.4958h17.76193l-8.5425-26.21968h-30.46789a209.5888,209.5888,0,0,1-7.71088,26.21968h13.871V588.60224c0-4.57465,3.38407-8.29593,7.54418-8.29593C1415.72308,580.30559,1419.10715,584.02682,1419.10715,588.60224Z" transform="translate(-728.54612 -1)" fill="#60718d"/><path d="M1381.06632,595.42111h-20.08339a12.67478,12.67478,0,0,1-3.63581,0h-38.61266v4.07469h61.00406Z" transform="translate(-728.54612 -1)" fill="#60718d"/><path d="M1193.25049,440.22936l1.90361-3.01149a19.93261,19.93261,0,0,1-2.54039-2.60281l-2.20225,3.48714q1.25748.89352,2.51427,1.787A1.24894,1.24894,0,0,1,1193.25049,440.22936Z" transform="translate(-728.54612 -1)" fill="#f09b36"/><path d="M1207.75627,384.43172c1.63713,7.0501,5.48186,18.51429,14.09732,26.54734l14.21719-23.42395A97.4703,97.4703,0,0,0,1207.75627,384.43172Zm8.97907,11.08575a22.60086,22.60086,0,0,1-3.75633-7.04715,1.16032,1.16032,0,1,1,2.219-.673,19.15011,19.15011,0,0,0,3.16444,5.9309C1219.33,394.95347,1217.70757,396.75005,1216.73534,395.51747Zm3.291,3.76029c-1.48312,0-1.48111-2.53068,0-2.53068C1221.51012,396.74711,1221.50745,399.27776,1220.02633,399.27776Z" transform="translate(-728.54612 -1)" fill="#31b78d"/><path d="M1403.52871,610.50424h-335.262v9.12867a.10621.10621,0,0,0,.0924.1097h335.661v-9.29212A2.68764,2.68764,0,0,1,1403.52871,610.50424Z" transform="translate(-728.54612 -1)" fill="#b55232"/><path d="M1212.375,409.96959c-.23971-.321-.46669-.64647-.697-.97118l-1.96722-1.45494-14.94235,23.66031a34.75155,34.75155,0,0,1,2.26786,3.03576Z" transform="translate(-728.54612 -1)" fill="#31b78d"/><path d="M1192.00041,442.20709a1.17715,1.17715,0,0,1-.23636-.13253q-1.3328-.94651-2.66494-1.89378l-15.00864,23.76487a9.355,9.355,0,0,1,3.01176,1.83415Z" transform="translate(-728.54612 -1)" fill="#f09b36"/><path d="M1411.56367,587.05449a1.48313,1.48313,0,0,0-1.4068,1.547v47.52384a1.41277,1.41277,0,1,0,2.8129,0V588.60147A1.483,1.483,0,0,0,1411.56367,587.05449Z" transform="translate(-728.54612 -1)" fill="#ca6a4f"/><path d="M1547.89881,283.07983H1651.912V263.936H1547.89881Zm45.45578-9.80165c2.58927,0,2.58526,4.41781,0,4.41781C1590.76533,277.696,1590.76933,273.27818,1593.3546,273.27818Zm-32.47462.7363h22.09614c2.58927,0,2.58526,4.41781,0,4.41781H1560.88C1558.29071,278.43229,1558.29471,274.01448,1560.88,274.01448Z" transform="translate(-728.54612 -1)" fill="#0071bc"/><rect x="819.35269" y="297.53553" width="14.32032" height="15.74727" fill="#999"/><rect x="839.9048" y="297.53553" width="14.32032" height="15.74727" fill="#445d7b"/><rect x="860.45621" y="297.53553" width="14.32032" height="15.74727" fill="#445d7b"/><rect x="881.00762" y="287.77954" width="14.32032" height="15.74727" fill="#ef4d4e"/><rect x="901.93199" y="287.77954" width="14.32028" height="15.74727" fill="#60718d"/><rect x="881.00762" y="309.22578" width="14.32032" height="15.74727" fill="#ef4d4e"/><rect x="901.93199" y="309.22578" width="14.32028" height="15.74727" fill="#60718d"/><path d="M1103.7799,598.96861V578.9H1100.345V599.4958h3.38741A3.54138,3.54138,0,0,0,1103.7799,598.96861Z" transform="translate(-728.54612 -1)" fill="#fff"/><path d="M1103.7799,558.09062H1100.345v15.748h3.43495Z" transform="translate(-728.54612 -1)" fill="#fff"/><path d="M1102.00685,534.74986a1.75241,1.75241,0,0,0-1.66189,1.82822V553.0285h3.43495V534.74981h-1.77305Z" transform="translate(-728.54612 -1)" fill="#fff"/><path d="M1403.52871,610.50424a2.67322,2.67322,0,0,0,.49078-.05375v-4.20574h-335.661a.09758.09758,0,0,0-.0924.10161v4.15787h335.26266Z" transform="translate(-728.54612 -1)" fill="#fff"/><path d="M1752.64962,610.50424a2.39591,2.39591,0,0,0,2.211-1.34816V606.3456a.09759.09759,0,0,0-.09236-.10161H1419.10715v4.25948h260.18131Q1715.969,610.50462,1752.64962,610.50424Z" transform="translate(-728.54612 -1)" fill="#fff"/><path d="M1335.00859,433.546h54.45894c3.447,0,3.45236-5.89041,0-5.89041h-54.45894C1331.56158,427.65557,1331.55558,433.546,1335.00859,433.546Z" transform="translate(-728.54612 -1)" fill="#fff"/><path d="M1406.43,433.546c3.447,0,3.45236-5.89041,0-5.89041C1402.98365,427.65557,1402.97765,433.546,1406.43,433.546Z" transform="translate(-728.54612 -1)" fill="#fff"/><path d="M1416.25073,433.546c3.447,0,3.45236-5.89041,0-5.89041C1412.80372,427.65557,1412.79837,433.546,1416.25073,433.546Z" transform="translate(-728.54612 -1)" fill="#fff"/><path d="M1369.24086,362.77341a17.98955,17.98955,0,0,1,4.0563-7.87621c2.41182-2.71181-1.372-6.88074-3.7878-4.16527a24.22656,24.22656,0,0,0-5.43363,10.47535C1363.18922,364.87481,1368.35435,366.43945,1369.24086,362.77341Z" transform="translate(-728.54612 -1)" fill="#fff"/><path d="M1394.82417,346.90832c3.447,0,3.45236-5.89041,0-5.89041C1391.37717,341.01791,1391.37181,346.90832,1394.82417,346.90832Z" transform="translate(-728.54612 -1)" fill="#fff"/><path d="M1410.5593,339.17716c3.447,0,3.45236-5.89041,0-5.89041C1407.11229,333.28675,1407.10694,339.17716,1410.5593,339.17716Z" transform="translate(-728.54612 -1)" fill="#fff"/><path d="M1405.53745,352.79873c3.447,0,3.45236-5.89041,0-5.89041C1402.09044,346.90832,1402.08509,352.79873,1405.53745,352.79873Z" transform="translate(-728.54612 -1)" fill="#fff"/><path d="M1489.012,562.64464H1305.993c-2.09579,0-2.91135,2.175-2.4587,3.88252h187.935C1491.924,564.81966,1491.11109,562.64464,1489.012,562.64464Z" transform="translate(-728.54612 -1)" fill="#fff"/><path d="M1394.80006,573.27612l-8.54184,26.21968h3.89026a209.80971,209.80971,0,0,0,7.71088-26.21968Z" transform="translate(-728.54612 -1)" fill="#fff"/><path d="M1253.58567,390.83312a73.34858,73.34858,0,0,0-9.93991-3.60124l-1.32643,2.18533a102.19288,102.19288,0,0,1,9.796,3.83761Z" transform="translate(-728.54612 -1)" fill="#fff"/><path d="M1236.07013,387.55511l1.84938-3.04682c-11.93192-6.72612-25.34828-4.7727-30.86831-3.52246.16874.95941.3984,2.1257.7044,3.44663A97.43941,97.43941,0,0,1,1236.07013,387.55511Z" transform="translate(-728.54612 -1)" fill="#fff"/><path d="M1168.841,471.71142a2.62255,2.62255,0,0,0-.67628.09132,4.04418,4.04418,0,0,0-.59391,2.12572,3.81593,3.81593,0,0,0,2.148,3.51069C1172.2478,476.52317,1171.96589,471.71142,1168.841,471.71142Z" transform="translate(-728.54612 -1)" fill="#fff"/><path d="M1359.74687,211.783a29.34793,29.34793,0,0,1,11.0032-15.54258c2.16473-1.5374.15268-5.36322-2.0275-3.81478a34.18773,34.18773,0,0,0-12.84924,18.18223A2.02579,2.02579,0,1,0,1359.74687,211.783Z" transform="translate(-728.54612 -1)" fill="#fff"/><path d="M1379.20086,194.248c2.58526,0,2.58927-4.41781,0-4.41781C1376.61564,189.83019,1376.61159,194.248,1379.20086,194.248Z" transform="translate(-728.54612 -1)" fill="#fff"/><path d="M1390.58372,239.89869c-2.58526,0-2.58927,4.41781,0,4.41781C1393.16828,244.3165,1393.173,239.89869,1390.58372,239.89869Z" transform="translate(-728.54612 -1)" fill="#fff"/><path d="M1469.73342,237.19941c2.58526,0,2.58927-4.41781,0-4.41781C1467.14815,232.7816,1467.14415,237.19941,1469.73342,237.19941Z" transform="translate(-728.54612 -1)" fill="#fff"/><path d="M1560.88,278.43229h22.09614c2.58526,0,2.58927-4.41781,0-4.41781H1560.88C1558.29471,274.01448,1558.29071,278.43229,1560.88,278.43229Z" transform="translate(-728.54612 -1)" fill="#fff"/><path d="M1593.3546,277.696c2.58526,0,2.58927-4.41781,0-4.41781C1590.76933,273.27818,1590.76533,277.696,1593.3546,277.696Z" transform="translate(-728.54612 -1)" fill="#fff"/><path d="M1561.18665,515.659a1.77058,1.77058,0,0,0,1.36728.5986h40.06028v-3.86338h-41.38338c-.01471.01546-.03012.0302-.04418.04566Z" transform="translate(-728.54612 -1)" fill="#fff"/><path d="M1639.75447,500.72391h-1.58625a1.51618,1.51618,0,0,0-1.43822,1.58158V531.516h3.1604V501.53091A2.44173,2.44173,0,0,0,1639.75447,500.72391Z" transform="translate(-728.54612 -1)" fill="#fff"/><path d="M1639.8904,562.9053h-3.15974V599.4958h3.15974Z" transform="translate(-728.54612 -1)" fill="#fff"/><path d="M1639.8904,538.26571h-3.15974v17.89063h3.15974Z" transform="translate(-728.54612 -1)" fill="#fff"/><path d="M1675.04334,523.62067c.0161,0,.02942-.0044.04553-.00517v-2.46884a1.51623,1.51623,0,0,0-1.43822-1.58158H1660.417a1.51618,1.51618,0,0,0-1.43822,1.58158v2.474Q1667.01071,523.62069,1675.04334,523.62067Z" transform="translate(-728.54612 -1)" fill="#fff"/><path d="M1684.08267,590.57035h-2.85577v8.92545h2.85577Z" transform="translate(-728.54612 -1)" fill="#fff"/><path d="M1683.76529,484.13282h-1.10082a1.51618,1.51618,0,0,0-1.43822,1.58158v98.107h2.85642V485.333A2.26621,2.26621,0,0,0,1683.76529,484.13282Z" transform="translate(-728.54612 -1)" fill="#fff"/><path d="M1704.17006,507.79019h14.73076a1.89633,1.89633,0,0,0,.68495-.13181v-1.13465a1.51623,1.51623,0,0,0-1.43822-1.58158h-13.2336a1.51618,1.51618,0,0,0-1.43822,1.58158v1.131A1.87182,1.87182,0,0,0,1704.17006,507.79019Z" transform="translate(-728.54612 -1)" fill="#fff"/><path d="M1741.83393,543.83656V525.94592h-2.17613v17.89063Z" transform="translate(-728.54612 -1)" fill="#fff"/><path d="M1739.6578,519.19625h2.17613V502.3055a1.51623,1.51623,0,0,0-1.43822-1.58158h-.73121c-.00065.025-.0067.04566-.0067.07141Z" transform="translate(-728.54612 -1)" fill="#fff"/><path d="M1741.83393,599.4958v-48.9103h-2.17613v48.9103Z" transform="translate(-728.54612 -1)" fill="#fff"/><path d="M1472.04883,492.2049h24.55148c2.58526,0,2.58927-4.41781,0-4.41781h-24.55148C1469.46426,487.78709,1469.45956,492.2049,1472.04883,492.2049Z" transform="translate(-728.54612 -1)" fill="#fff"/><path d="M1510.88446,485.82338c-2.58526,0-2.58927,4.41781,0,4.41781C1513.46968,490.24119,1513.47373,485.82338,1510.88446,485.82338Z" transform="translate(-728.54612 -1)" fill="#fff"/><path d="M1754.76887,599.4958h-6.79756V502.30621c0-4.59379-3.39808-8.33053-7.5756-8.33053h-13.2336a7.54156,7.54156,0,0,0-6.76143,4.59451,6.91768,6.91768,0,0,0-2.25248-.37624h-13.2336a6.88135,6.88135,0,0,0-1.43822.15536V485.71512c0-4.59379-3.39809-8.33053-7.5756-8.33053h-13.2336c-4.17752,0-7.5756,3.73674-7.5756,8.33053v27.25641a6.93326,6.93326,0,0,0-1.43822-.15464h-13.2336a6.9296,6.9296,0,0,0-1.43822.15464v-10.6646c0-4.59379-3.39809-8.33053-7.5756-8.33053h-13.2336c-4.17752,0-7.5756,3.73674-7.5756,8.33053v97.18959H1611.057V587.19659a3.32378,3.32378,0,0,0-2.30135-3.2552V576.1771c9.76919-1.26866,12.46692-8.57056,12.46692-12.60179V529.1974c0-5.75348-5.74231-8.29957-6.39783-8.57128a2.81652,2.81652,0,0,0-1.08206-.21648h-4.98637V509.02052a3.23261,3.23261,0,0,0-3.06869-3.37448H1558.1227a3.23261,3.23261,0,0,0-3.06869,3.37448v74.9202a3.32374,3.32374,0,0,0-2.30135,3.2552v12.29993H1510.5343v-7.44916a3.23261,3.23261,0,0,0-3.06869-3.37448h-16.01769a18.15645,18.15645,0,0,0,3.73157-11.77273c-.00135-.03977-.004-.07806-.006-.11707l-.23434-3.50629h26.84748c7.05,0,12.78561-6.30714,12.78561-14.06042V419.45536c0-7.75325-5.73561-14.06042-12.78561-14.06042h-47.28172a31.5957,31.5957,0,0,0,2.209-5.04956c1.96456-5.96773,1.6773-11.1395-.72716-14.56773,8.07448-8.56687,7.96266-24.39587,7.95191-25.14763a3.26484,3.26484,0,0,0-2.77272-3.306,24.61444,24.61444,0,0,1-6.76274-1.61987c4.59531-7.51543,6.01886-18.73151,6.18691-20.18571a3.50727,3.50727,0,0,0-1.36058-3.24709,2.83522,2.83522,0,0,0-3.25014-.08026c-3.93713,2.57117-9.21007,3.10865-13.1358,3.08879,3.56752-7.37847,4.14736-17.67418,4.21369-19.14384a3.48158,3.48158,0,0,0-1.40545-3.0041,2.8332,2.8332,0,0,0-3.06934-.1583c-9.55422,5.43465-23.87254,9.23617-32.31123,11.15791,4.16612-11.15791-.83563-23.05948-1.09677-23.6662a3.07352,3.07352,0,0,0-2.66492-1.92765,3.02168,3.02168,0,0,0-2.78278,1.71631c-7.51136,14.662-28.91446,25.77792-37.85,29.91225a31.37367,31.37367,0,0,0-6.83708-15.02349,2.883,2.883,0,0,0-3.15974-.92112,3.30129,3.30129,0,0,0-2.12256,2.73316c-.71445,5.37573-4.51631,11.03275-7.3145,14.821a115.26155,115.26155,0,0,0-10.85456,17.04686c-5.83872,11.73591-6.677,24.63224-6.57863,34.96917-.1741.14136-.34885.29083-.5236.45136-3.59564,3.29569-4.34692,9.16474-2.06232,16.10365a31.64045,31.64045,0,0,0,2.20826,5.04881h-47.281c-7.0507,0-12.7863,6.30717-12.7863,14.06042V559.21642c0,7.75328,5.73561,14.06042,12.7863,14.06042h39.9304l3.02247,10.36269a17.75328,17.75328,0,0,0,2.36764,5.03336h-31.005a3.23261,3.23261,0,0,0-3.06869,3.37448v7.44916h-65.41661c-9.735-13.28363-12.88741-13.28434-13.94534-13.28434h-13.89243l-38.48008-108.49548a3.41427,3.41427,0,0,0-.59259-1.03745,10.98115,10.98115,0,0,0,.21024-4.41709l36.21089-57.2953a42.59073,42.59073,0,0,0,3.68537,3.2957c1.47106,2.20448,7.31985,10.74264,11.7538,13.99782a2.87649,2.87649,0,0,0,1.70342.56769,2.808,2.808,0,0,0,.59994-.0648,3.07645,3.07645,0,0,0,1.95248-1.4358l24.19528-39.86483a3.655,3.655,0,0,0,.45733-2.53362,3.40684,3.40684,0,0,0-1.30634-2.147c-4.43462-3.25372-13.85093-5.91765-16.26543-6.56559-18.25275-12.35365-39.86679-5.31536-40.78679-5.00612a3.3851,3.3851,0,0,0-2.15738,3.55487,70.32021,70.32021,0,0,0,6.211,21.75918,3.33941,3.33941,0,0,0-.34215.441l-40.43391,64.02508a11.08617,11.08617,0,0,0,.06226,17.91863,3.6482,3.6482,0,0,0,.19418,1.089l36.245,102.21409h-1.95451c-1.05727,0-4.21031.00148-13.94534,13.28434h-39.16239V536.57879c0-4.73-3.49856-8.57717-7.79927-8.57717h-1.03516l3.67131-23.49612c.622-3.951-1.7985-7.72379-5.40217-8.41l-5.66331-1.06176a6.10141,6.10141,0,0,0-4.94083,1.22669,7.32826,7.32826,0,0,0-2.69908,4.71086l-4.21969,27.03036h-4.26322l-4.26121-37.963a2.16387,2.16387,0,0,0-.72449-1.40488,1.78129,1.78129,0,0,0-1.41549-.42927l-7.04264.96235a2.07753,2.07753,0,0,0-1.66726,2.351l4.09582,36.48373h-2.02347c-4.30071,0-7.79926,3.84716-7.79926,8.57717v62.91769h-25.84846c-3.43495,0-6.22977,3.07333-6.22977,6.85056V619.6343c0,3.78163,2.79482,6.85865,6.22977,6.85865h335.66107v9.63376c0,4.57389,3.38407,8.29517,7.54418,8.29517,4.15941,0,7.54348-3.72128,7.54348-8.29517v-9.63515h335.66168c3.43495,0,6.22974-3.077,6.22974-6.85865V606.34636C1760.998,602.56837,1758.20382,599.4958,1754.76887,599.4958Zm-146.01729-72.3387h4.34156c.987.54486,1.988,1.45786,1.988,2.03881v34.37792c0,.21648-.08235,4.68435-6.32954,5.79689ZM1100.345,558.09062h40.916v15.748h-40.916v-15.748Zm0,20.80937h40.916V599.4958h-40.916V578.9Zm261.70192,9.40182a8.66034,8.66034,0,0,1-1.47709.36963h-2.831a9.77509,9.77509,0,0,1-7.59706-7.09647l-2.42052-8.29957h19.87648l.56647,1.94016C1369.7571,580.684,1367.01384,586.55381,1362.04688,588.30181Zm11.9915-15.02569H1388.281l-5.01584,15.396h-11.64131A18.53889,18.53889,0,0,0,1374.03838,573.27612Zm115.005,3.93848c.17475,5.71222-3.89361,10.52987-9.09421,10.75075a8.91967,8.91967,0,0,1-6.78755-2.75524,10.7781,10.7781,0,0,1-3.03052-7.17377l-.09306-4.76021H1488.781Zm-25.14472-3.93848.0971,4.96707a18.02156,18.02156,0,0,0,3.71015,10.429h-27.8438l-5.01584-15.396Zm172.83195-35.01041h16.11v17.89063h-16.11Zm0,24.63958h16.11V599.4958h-16.11Zm23.68639-43.34017h13.2336a1.51618,1.51618,0,0,1,1.43822,1.58158v78.3491h-16.11078v-78.3491A1.51724,1.51724,0,0,1,1660.417,519.56512Zm20.80986,71.00523h16.11078v8.92545H1681.2269Zm23.68639-85.62816h13.2336a1.51618,1.51618,0,0,1,1.43822,1.58158v92.972h-16.11079V506.52449A1.5175,1.5175,0,0,1,1704.91329,504.94219Zm20.80986,1.58158V502.3055a1.51623,1.51623,0,0,1,1.43822-1.58158h13.23426a1.51618,1.51618,0,0,1,1.43822,1.58158v16.89076h-16.1107Zm0,19.42139h16.11078v17.89063h-16.11078Zm0,24.64035h16.11078v48.9103h-8.82306v-19.1895a1.53714,1.53714,0,1,0-3.06869,0v19.1895h-4.21969v-48.9103Zm-28.38546-64.8711v98.10628H1681.2269v-98.107a1.51623,1.51623,0,0,1,1.43822-1.58158h13.23425A1.51786,1.51786,0,0,1,1697.33768,485.7144Zm-44.497,16.59181v29.21055h-16.11V502.30621a1.51623,1.51623,0,0,1,1.43822-1.58158h13.23426A1.51563,1.51563,0,0,1,1652.8407,502.30621Zm-91.60988,10.08806h41.38338v5.48325h-19.81889c-1.97457,0-1.97792,3.37448,0,3.37448h19.81889v62.56868h-41.42756v-7.874h15.5992c1.97457,0,1.97792-3.37448,0-3.37448h-15.5992V512.39351h.04418Zm-2.34619,78.17608h46.03092v8.92545h-46.03092Zm-54.49241,4.85076v4.07469h-61.00406l-1.32776-4.07469ZM1360.96686,352.05949a109.13655,109.13655,0,0,1,10.23451-16.03076,55.50033,55.50033,0,0,0,6.63822-11.08575,18.59441,18.59441,0,0,1,2.04086,9.70225,3.54982,3.54982,0,0,0,1.11618,3.074,2.84989,2.84989,0,0,0,2.96893.5456c1.26282-.50216,28.21811-11.37292,41.3385-28.75256.83763,4.90671.85573,11.79923-3.692,17.07041a3.63491,3.63491,0,0,0-.48678,3.89873,2.98883,2.98883,0,0,0,3.20327,1.75534c.94143-.16787,20.9833-3.78386,36.00463-10.69037-.84433,5.53552-2.5645,11.73516-5.29906,13.90063a3.54922,3.54922,0,0,0-1.19453,3.51143,3.207,3.207,0,0,0,2.49286,2.55791c.4473.07952,9.05473,1.56907,17.10845-.91669-1.09612,4.81688-3.01176,10.74558-5.90169,13.65838a3.60334,3.60334,0,0,0,.09105,5.06427c.3656.34018,3.42559,3.02767,10.043,4.29263-.35621,4.74178-1.74559,14.08325-7.12234,18.39576a7.434,7.434,0,0,0-3.02651-.03314,9.44965,9.44965,0,0,0-3.53871,1.57053v-7.21575h-6.13738v5.79249c-40.57587,3.81846-82.01618-2.11981-92.57277-3.81329V376.3324h-6.13738v7.215a9.45878,9.45878,0,0,0-3.5374-1.56979c-.14864-.02946-.30667-.05375-.468-.0751C1355.14956,372.39173,1356.12177,361.79928,1360.96686,352.05949Zm104.82341,43.72232a7.76076,7.76076,0,0,1-1.80317,2.21039v-5.03778c1.001-1.60587,2.91266-4.00474,4.62678-4.33608a2.29123,2.29123,0,0,1,2.10384.80919c1.37868,1.26275,1.21664,3.93627.997,5.41771-.77874,5.25424-3.9552,9.90326-5.14437,10.54973h-2.58391V401.0147a10.013,10.013,0,0,0,3.7905-3.95468C1468.54024,395.65811,1466.55091,394.38431,1465.79028,395.78181Zm-29.42134,2.86346a4.04083,4.04083,0,0,0-3.836,4.21827v2.53068h-41.93914v-2.53068a3.85334,3.85334,0,1,0-7.67205,0v2.53068h-17.64546v-20.266a436.52258,436.52258,0,0,0,64.22543,4.99949c9.21878,0,18.80247-.35563,28.34733-1.23478V405.3935h-17.64476v-2.53068A4.03962,4.03962,0,0,0,1436.36894,398.64527Zm-83.95928-9.21774a2.29159,2.29159,0,0,1,2.10314-.80919c1.71347.33206,3.62576,2.73021,4.62613,4.33683v3.95836a18.95154,18.95154,0,0,1-1.80052-1.9107c-.98631-1.21932-2.60933.5758-1.62777,1.78995a20.1677,20.1677,0,0,0,3.42759,3.31924v5.283H1356.555c-1.18917-.64647-4.365-5.29475-5.14372-10.54825C1351.193,393.36452,1351.03028,390.691,1352.40965,389.42753Zm-57.71313,169.78741V419.45536c0-4.032,2.983-7.31147,6.64892-7.31147h220.43571c3.66593,0,6.64827,3.27949,6.64827,7.31147v139.7603c0,4.032-2.9823,7.31147-6.64827,7.31147H1301.34549C1297.67951,566.52717,1294.69652,563.24693,1294.69652,559.21494Zm24.03859,36.20618h38.61266a12.67478,12.67478,0,0,0,3.63581,0H1381.067l-1.3271,4.07469H1318.7358v-4.07469ZM1207.75627,384.43172c-.30667-1.32093-.53633-2.48722-.7044-3.44663,5.52-1.2495,18.93572-3.20292,30.86831,3.52246l-1.84938,3.04682-14.21719,23.42395C1213.23881,402.946,1209.3934,391.48182,1207.75627,384.43172Zm27.18094,32.08949a1.1085,1.1085,0,0,0-1.62775,0,1.36777,1.36777,0,0,0,0,1.78995q1.05458.94873,2.10985,1.89819a1.45848,1.45848,0,0,0,.233.16936l-2.47745,4.08206a84.663,84.663,0,0,1-6.83775-8.71192l8.65366-14.25847,4.22037-6.95363q.78641.5467,1.57284,1.09268c1.25546.87252,2.41182-1.3165,1.16171-2.18533q-.72817-.50585-1.457-1.01241l1.83-3.0159,1.32643-2.18533a73.41435,73.41435,0,0,1,9.93991,3.60124l-1.46973,2.4217-15.20147,25.0453Q1235.92551,417.41174,1234.93721,416.52121Zm-25.22711-8.97772,1.96722,1.45494c.23033.32472.45733.65015.697.97118l-15.33873,24.27071a34.63677,34.63677,0,0,0-2.26786-3.03576Zm-17.09638,27.07157a19.97777,19.97777,0,0,0,2.54039,2.60281l-1.90361,3.01149a1.24978,1.24978,0,0,0-.32474-.34015q-1.25748-.89352-2.51427-1.787Zm-3.51462,5.56572q1.33279.94651,2.66494,1.89378a1.21218,1.21218,0,0,0,.23636.13253l-14.89815,23.5727a9.38942,9.38942,0,0,0-3.01176-1.83415Zm-19.38032,37.25832a3.81593,3.81593,0,0,1-2.148-3.51069,4.04442,4.04442,0,0,1,.59391-2.12572,3.37894,3.37894,0,0,1,2.85844-1.67065,3.81351,3.81351,0,0,1,0,7.59275A3.15882,3.15882,0,0,1,1169.71879,477.4391Zm3.32914,7.25035,3.21265-1.37836,5.818,16.40333q-1.86211-.03094-3.72421-.0626Zm6.209,17.50855q1.8621.03094,3.72486.0626l1.92369,5.42362h-3.70278Zm3.32849,9.38784h3.70277l14.39932,40.59967h-3.70545Zm15.29453,43.1303h3.70613l11.16994,31.49531h-3.70813Zm2.95487,38.24426h32.0722c1.07668.60449,3.50056,3.18892,6.21437,6.53539h-44.50027C1197.33426,596.14933,1199.75816,593.5649,1200.83484,592.96041Zm-72.76861-91.13721a2.22238,2.22238,0,0,1,.81957-1.42991,1.85559,1.85559,0,0,1,1.50388-.37184l5.66331,1.06176a2.20933,2.20933,0,0,1,1.64583,2.5616l-.97625,6.24827-9.63257-1.81792Zm-1.755,11.24114,9.63191,1.81792-2.04959,13.11941h-9.91447Zm-15.1305,14.93662h-3.28563l-2.50891-22.35262,3.23608-.43956Zm-7.204-34.9088,3.23608-.44253.84568,7.53532-3.23609.43956Zm35.62232,41.6577a1.75241,1.75241,0,0,1,1.66189,1.82822V553.0285h-40.916V536.57807a1.75241,1.75241,0,0,1,1.66189-1.82822h37.59224Zm-71.24062,84.99275a.10624.10624,0,0,1-.0924-.1097V606.34636a.09758.09758,0,0,1,.0924-.10161h335.66107v13.49786Zm335.661-31.14037V599.4958h-17.76128l8.54184-26.21968h33.52652l8.5425,26.21968h-17.76193V588.60224c0-4.57465-3.38407-8.29593-7.54348-8.29593C1407.40356,580.30559,1404.01949,584.02682,1404.01949,588.60224Zm8.95028,47.52384a1.41277,1.41277,0,1,1-2.8129,0V588.60224a1.41283,1.41283,0,1,1,2.8129,0Zm341.7991-16.38347H1419.10715V606.24475h335.66123a.09753.09753,0,0,1,.09236.10161v13.28731A.10623.10623,0,0,1,1754.76887,619.74261Z" transform="translate(-728.54612 -1)" fill="#0d0e1f"/><path d="M1411.56367,513.51935c12.12678,0,21.993-10.84939,21.993-24.18456s-9.86625-24.1838-21.993-24.1838-21.99233,10.84939-21.99233,24.1838C1389.57134,502.67,1399.43689,513.51935,1411.56367,513.51935Zm0-41.61946c8.74271,0,15.855,7.82172,15.855,17.43489,0,9.61389-7.11294,17.43489-15.855,17.43489-8.74271,0-15.855-7.82172-15.855-17.43489S1402.821,471.8999,1411.56367,471.8999Z" transform="translate(-728.54612 -1)" fill="#0d0e1f"/><path d="M1496.91234,430.7031h16.11074a4.025,4.025,0,0,0,0-8.01388h-16.11074a4.025,4.025,0,0,0,0,8.01388Z" transform="translate(-728.54612 -1)" fill="#0d0e1f"/><path d="M1311.31885,542.62389v-70.302a2.30586,2.30586,0,1,0-4.60336,0v70.302A2.30588,2.30588,0,1,0,1311.31885,542.62389Z" transform="translate(-728.54612 -1)" fill="#0d0e1f"/><path d="M1309.0175,457.98014c2.96153,0,2.96693-5.06207,0-5.06207C1306.05531,452.91879,1306.05061,457.98014,1309.0175,457.98014Z" transform="translate(-728.54612 -1)" fill="#0d0e1f"/><path d="M1309.0175,445.0448c2.96153,0,2.96693-5.06207,0-5.06207C1306.05531,439.98273,1306.05061,445.0448,1309.0175,445.0448Z" transform="translate(-728.54612 -1)" fill="#0d0e1f"/><path d="M1309.0175,432.10944c2.96153,0,2.96693-5.06207,0-5.06207C1306.05531,427.04737,1306.05061,432.10944,1309.0175,432.10944Z" transform="translate(-728.54612 -1)" fill="#0d0e1f"/><path d="M1446.59809,549.09156h56.771c2.96153,0,2.96693-5.06207,0-5.06207h-56.771C1443.63586,544.0302,1443.6312,549.09156,1446.59809,549.09156Z" transform="translate(-728.54612 -1)" fill="#0d0e1f"/><path d="M1512.57513,543.46769c-2.96153,0-2.96693,5.06207,0,5.06207C1515.53735,548.52976,1515.54205,543.46769,1512.57513,543.46769Z" transform="translate(-728.54612 -1)" fill="#0d0e1f"/><path d="M1105.715,591.69467c2.46807,0,2.47209-4.21827,0-4.21827C1103.24692,587.47716,1103.2429,591.69467,1105.715,591.69467Z" transform="translate(-728.54612 -1)" fill="#0d0e1f"/><path d="M1113.51492,591.69467c2.46806,0,2.47209-4.21827,0-4.21827C1111.04618,587.47716,1111.04217,591.69467,1113.51492,591.69467Z" transform="translate(-728.54612 -1)" fill="#0d0e1f"/><path d="M1120.29175,591.69467h14.704c2.46807,0,2.47208-4.21827,0-4.21827h-14.704C1117.823,587.47716,1117.819,591.69467,1120.29175,591.69467Z" transform="translate(-728.54612 -1)" fill="#0d0e1f"/><path d="M1215.198,387.79736a1.16033,1.16033,0,1,0-2.219.673,22.59357,22.59357,0,0,0,3.75633,7.04715c.9729,1.23184,2.59462-.564,1.62775-1.78995A19.11246,19.11246,0,0,1,1215.198,387.79736Z" transform="translate(-728.54612 -1)" fill="#0d0e1f"/><path d="M1220.02633,396.74711c-1.48111,0-1.48312,2.53068,0,2.53068C1221.50745,399.27776,1221.51012,396.74711,1220.02633,396.74711Z" transform="translate(-728.54612 -1)" fill="#0d0e1f"/><path d="M1667.0338,538.68685a4.44493,4.44493,0,0,0-4.21969,4.64017v32.26842a4.23874,4.23874,0,1,0,8.43939,0V543.327A4.44541,4.44541,0,0,0,1667.0338,538.68685Z" transform="translate(-728.54612 -1)" fill="#0d0e1f"/><rect x="978.95648" y="521.16501" width="7.86356" height="14.97414" fill="#0d0e1f"/><rect x="978.95648" y="543.87108" width="7.86356" height="33.18363" fill="#0d0e1f"/><path d="M1692.86224,523.7834V494.25624a1.53715,1.53715,0,1,0-3.06869,0V523.7834A1.53713,1.53713,0,1,0,1692.86224,523.7834Z" transform="translate(-728.54612 -1)" fill="#0d0e1f"/><path d="M1691.07174,533.063c1.97457,0,1.97792-3.37448,0-3.37448C1689.09781,529.68855,1689.09446,533.063,1691.07174,533.063Z" transform="translate(-728.54612 -1)" fill="#0d0e1f"/><path d="M1691.07174,540.09321c1.97457,0,1.97792-3.37448,0-3.37448C1689.09781,536.71873,1689.09446,540.09321,1691.07174,540.09321Z" transform="translate(-728.54612 -1)" fill="#0d0e1f"/><path d="M1731.22111,573.27612c1.97457,0,1.97793-3.37448,0-3.37448C1729.24653,569.90164,1729.24318,573.27612,1731.22111,573.27612Z" transform="translate(-728.54612 -1)" fill="#0d0e1f"/><path d="M1649.64418,580.8681v-7.874a1.53714,1.53714,0,1,0-3.06869,0v7.874A1.53715,1.53715,0,1,0,1649.64418,580.8681Z" transform="translate(-728.54612 -1)" fill="#0d0e1f"/><path d="M1647.85441,585.403c-1.97457,0-1.97793,3.37448,0,3.37448C1649.829,588.77746,1649.83233,585.403,1647.85441,585.403Z" transform="translate(-728.54612 -1)" fill="#0d0e1f"/><path d="M1643.05954,519.28384a1.64514,1.64514,0,0,0,1.53467-1.6876v-2.10878a1.5416,1.5416,0,1,0-3.06934,0v2.10878A1.63469,1.63469,0,0,0,1643.05954,519.28384Z" transform="translate(-728.54612 -1)" fill="#0d0e1f"/><path d="M1643.05954,512.32358c1.97457,0,1.97793-3.37448,0-3.37448C1641.085,508.94915,1641.08162,512.32358,1643.05954,512.32358Z" transform="translate(-728.54612 -1)" fill="#0d0e1f"/><path d="M1737.03906,504.3097a1.6456,1.6456,0,0,0-1.53467,1.6876v2.10878a1.5416,1.5416,0,1,0,3.06934,0v-2.10878A1.63511,1.63511,0,0,0,1737.03906,504.3097Z" transform="translate(-728.54612 -1)" fill="#0d0e1f"/><path d="M1380.1624,369.3368a119.61972,119.61972,0,0,0,27.94425,1.59482c2.45469-.15167,2.47075-4.37069,0-4.21827a115.32324,115.32324,0,0,1-26.92448-1.44463C1378.767,364.84978,1377.72712,368.91344,1380.1624,369.3368Z" transform="translate(-728.54612 -1)" fill="#0d0e1f"/><path d="M1415.20753,369.75135c2.46805,0,2.4721-4.21827,0-4.21827C1412.73944,365.53308,1412.73543,369.75135,1415.20753,369.75135Z" transform="translate(-728.54612 -1)" fill="#0d0e1f"/><path d="M1421.72858,369.11886c2.46805,0,2.4721-4.21827,0-4.21827C1419.26048,364.90059,1419.25648,369.11886,1421.72858,369.11886Z" transform="translate(-728.54612 -1)" fill="#0d0e1f"/><path d="M1441.09952,343.81c2.46805,0,2.4721-4.21827,0-4.21827C1438.63142,339.59171,1438.62742,343.81,1441.09952,343.81Z" transform="translate(-728.54612 -1)" fill="#0d0e1f"/><path d="M1579.22378,559.39313a15.123,15.123,0,0,0,8.04636-2.46367c6.5331-4.1483,9.43906-12.1114,6.47752-17.75073-2.96088-5.63933-10.68516-6.85425-17.21826-2.70518-6.5331,4.1483-9.43906,12.11068-6.47818,17.75073A9.99755,9.99755,0,0,0,1579.22378,559.39313Zm-.39237-18.53562a11.00457,11.00457,0,0,1,5.79854-1.801,5.50793,5.50793,0,0,1,5.13166,2.65363c1.66324,3.16757-.53165,8.131-4.79352,10.83613-4.26052,2.70518-9.26766,2.31492-10.9309-.85265C1572.37465,548.52535,1574.57019,543.56264,1578.83141,540.85751Z" transform="translate(-728.54612 -1)" fill="#0d0e1f"/><path d="M1578.13306,549.10481a2.28667,2.28667,0,0,0,1.26952.50144,3.69458,3.69458,0,0,0,2.05427-.45947,6.91264,6.91264,0,0,0,1.92235-1.64639c.54636-.64575.9689-1.26938,1.36728-1.76346a6.4876,6.4876,0,0,1,1.24206-1.21563,3.18812,3.18812,0,0,1,1.155-.539,2.80614,2.80614,0,0,1,.5243-.06772,2.10932,2.10932,0,0,0-.47542-.2798,2.86319,2.86319,0,0,0-1.47979-.19661,4.5082,4.5082,0,0,0-2.0382.80919,10.00821,10.00821,0,0,0-1.81793,1.74872c-.5323.631-.98426,1.19946-1.4021,1.60441a4.88136,4.88136,0,0,1-1.25681.9042,2.5715,2.5715,0,0,1-.99031.25845,2.02124,2.02124,0,0,1-.39973-.01766l.07434.09864A1.70707,1.70707,0,0,0,1578.13306,549.10481Z" transform="translate(-728.54612 -1)" fill="#0d0e1f"/><path d="M1584.58512,572.57294c-1.97457,0-1.97792,3.37448,0,3.37448C1586.55969,575.94741,1586.563,572.57294,1584.58512,572.57294Z" transform="translate(-728.54612 -1)" fill="#0d0e1f"/><path d="M1591.48984,572.57294c-1.97457,0-1.97793,3.37448,0,3.37448C1593.46441,575.94741,1593.46776,572.57294,1591.48984,572.57294Z" transform="translate(-728.54612 -1)" fill="#0d0e1f"/><path d="M1362.95014,217.37376c0,11.02759,8.15818,19.99868,18.18646,19.99868s18.18647-8.9711,18.18647-19.99868-8.15818-19.99868-18.18647-19.99868C1371.109,197.37508,1362.95014,206.34617,1362.95014,217.37376Zm18.18646-13.24974c6.64357,0,12.04909,5.94343,12.04909,13.24974,0,7.30558-5.40552,13.24974-12.04909,13.24974s-12.04909-5.94416-12.04909-13.24974C1369.08752,210.06744,1374.493,204.124,1381.13661,204.124Z" transform="translate(-728.54612 -1)" fill="#0d0e1f"/><path d="M1453.66751,260.19557a11.7349,11.7349,0,0,0,2.27589.22383c6.10321,0,11.53284-4.80953,12.64768-11.64167a15.17193,15.17193,0,0,0-2.10049-10.57035,12.72244,12.72244,0,0,0-8.2827-5.84035c-6.97435-1.37468-13.67215,3.74557-14.92427,11.41783a15.17266,15.17266,0,0,0,2.10049,10.57033A12.73085,12.73085,0,0,0,1453.66751,260.19557Zm-5.09684-15.36734a7.73136,7.73136,0,0,1,7.364-6.77839,6.84934,6.84934,0,0,1,1.3251.13033,7.40966,7.40966,0,0,1,4.82233,3.40024,8.8305,8.8305,0,0,1,1.22265,6.15475c-.72851,4.46787-4.62412,7.45063-8.68913,6.6488a7.41357,7.41357,0,0,1-4.823-3.401A8.83411,8.83411,0,0,1,1448.57066,244.82823Z" transform="translate(-728.54612 -1)" fill="#0d0e1f"/><path d="M1428.2717,232.53789a2.71647,2.71647,0,0,0-3.11757,2.38488l-1.67125,10.24121a3.188,3.188,0,0,0,.43925,2.20817,2.67563,2.67563,0,0,0,1.73018,1.22006l5.581,1.10077c.03482.30483.07834.60746.12252.91006a9.74868,9.74868,0,0,1-3.299.94615,2.07425,2.07425,0,0,0-1.91834,2.10878c0,1.0647.87985,2.20742,1.91834,2.10878a14.6596,14.6596,0,0,0,3.53871-.7952l-4.05765,3.10425a2.99643,2.99643,0,0,0-1.10948,1.90261,3.18723,3.18723,0,0,0,.43925,2.20816l5.40486,8.5411a2.53488,2.53488,0,0,0,3.73757.737l4.65559-3.56224a24.48312,24.48312,0,0,0,3.77575,2.66615l-1.001,6.13632a2.94291,2.94291,0,0,0,2.16878,3.42748l9.31318,1.83781a2.45813,2.45813,0,0,0,.47407.04638,2.51776,2.51776,0,0,0,1.53332-.52865,2.99642,2.99642,0,0,0,1.10948-1.90261l1.001-6.13632a22.77111,22.77111,0,0,0,4.38439-1.05659l3.23874,5.11951a2.672,2.672,0,0,0,1.73018,1.21932,2.49065,2.49065,0,0,0,2.00809-.48228l7.76711-5.9427a3.14277,3.14277,0,0,0,.67023-4.11l-3.23874-5.11951c.27786-.39244.54171-.7952.79946-1.20238a63.21346,63.21346,0,0,0,9.75713,7.983c2.1219,1.39971,4.053-2.24571,1.93575-3.64248a58.405,58.405,0,0,1-8.66371-7.01475l4.17617.82391a2.71815,2.71815,0,0,0,3.11757-2.38489l1.6706-10.24121a2.94291,2.94291,0,0,0-2.16878-3.42748l-5.58027-1.10077a29.31226,29.31226,0,0,0-.96019-4.8213l4.65559-3.56222a3.14276,3.14276,0,0,0,.67023-4.11l-5.40417-8.5411a2.67743,2.67743,0,0,0-1.72953-1.22,2.49125,2.49125,0,0,0-2.00809.48228l-4.65559,3.56222c-.13057-.11191-.26515-.21574-.39707-.3247a61.70008,61.70008,0,0,0,5.62984-10.616c1.00707-2.45483-2.298-4.60188-3.31242-2.12865a61.70849,61.70849,0,0,1-5.5488,10.493c-.05023-.02872-.09841-.06111-.14864-.08982l1.00167-6.13634a3.188,3.188,0,0,0-.43925-2.20816,2.67711,2.67711,0,0,0-1.73018-1.22l-9.31318-1.83707a2.71731,2.71731,0,0,0-3.11757,2.38488l-1.001,6.13634a22.74706,22.74706,0,0,0-4.38439,1.05659l-3.23944-5.11951a2.53531,2.53531,0,0,0-3.73757-.737l-7.76711,5.94269a2.99646,2.99646,0,0,0-1.10948,1.9026,3.188,3.188,0,0,0,.43925,2.20816l3.23943,5.11951a27.55858,27.55858,0,0,0-2.42522,4.15274Zm9.62186,5.53478a21.63407,21.63407,0,0,1,3.73426-6.39552,3.18161,3.18161,0,0,0,.23838-3.69771l-2.88654-4.56212,3.35861-2.5697,2.88654,4.56212a2.55032,2.55032,0,0,0,3.23609,1.03966,17.87567,17.87567,0,0,1,6.75-1.62649,2.7818,2.7818,0,0,0,2.5464-2.42906l.89256-5.4663,4.02684.79447-.89256,5.4663a3.01933,3.01933,0,0,0,1.61972,3.25151,19.23637,19.23637,0,0,1,5.816,4.10562,2.50252,2.50252,0,0,0,3.36261.26138l4.14805-3.1742,2.33683,3.69329-4.14805,3.1742a3.12718,3.12718,0,0,0-.94544,3.55781,23.09017,23.09017,0,0,1,1.47909,7.42486,2.87843,2.87843,0,0,0,2.20961,2.79942l4.97027.98075-.72246,4.42886-4.971-.98a2.64867,2.64867,0,0,0-2.95618,1.77963,21.62877,21.62877,0,0,1-3.73357,6.39626,3.18153,3.18153,0,0,0-.23838,3.69771l2.88589,4.56213-3.35861,2.56968-2.88589-4.56213a2.55129,2.55129,0,0,0-3.23609-1.03965,17.876,17.876,0,0,1-6.75068,1.6265,2.78179,2.78179,0,0,0-2.5464,2.42907l-.89121,5.46631-4.02753-.79448.89255-5.46631a3.0192,3.0192,0,0,0-1.61906-3.25078,19.2439,19.2439,0,0,1-5.816-4.10635,2.50176,2.50176,0,0,0-3.36261-.2614l-4.14805,3.1742-2.33752-3.69328,4.1494-3.1742a3.12718,3.12718,0,0,0,.94544-3.55781,23.09028,23.09028,0,0,1-1.47909-7.42485,2.87844,2.87844,0,0,0-2.20961-2.79942l-4.971-.98075.72316-4.42885,4.97027.98075A2.64345,2.64345,0,0,0,1437.89355,238.07266Z" transform="translate(-728.54612 -1)" fill="#0d0e1f"/><path d="M1533.73653,351.40271H1666.075c6.45141,0,11.69958-5.77186,11.69958-12.86539V250.37848c0-7.09353-5.24818-12.86539-11.69958-12.86539H1533.73653c-6.45141,0-11.69958,5.77187-11.69958,12.86539v88.15884C1522.037,345.63085,1527.28516,351.40271,1533.73653,351.40271Zm-5.56216-101.02423a5.8658,5.8658,0,0,1,5.5622-6.11646H1666.075a5.86576,5.86576,0,0,1,5.5622,6.11646v88.15884a5.86578,5.86578,0,0,1-5.5622,6.11646H1533.73653a5.86579,5.86579,0,0,1-5.5622-6.11646V250.37848Z" transform="translate(-728.54612 -1)" fill="#0d0e1f"/><path d="M1536.99738,339.87148h125.81738a4.24749,4.24749,0,0,0,4.02753-4.42886V253.47316a4.2475,4.2475,0,0,0-4.02753-4.42886H1536.99738a4.24751,4.24751,0,0,0-4.02753,4.42886v81.96949A4.24664,4.24664,0,0,0,1536.99738,339.87148Zm2.10919-84.07826h121.59769v77.32931H1539.10657Z" transform="translate(-728.54612 -1)" fill="#0d0e1f"/><path d="M1361.95247,168.476c2.46805,0,2.4721-4.21827,0-4.21827C1359.48442,164.25844,1359.48042,168.476,1361.95247,168.476Z" transform="translate(-728.54612 -1)" fill="#0d0e1f"/><path d="M1425.56456,197.65192c2.46805,0,2.4721-4.21827,0-4.21827C1423.09651,193.43366,1423.0925,197.65192,1425.56456,197.65192Z" transform="translate(-728.54612 -1)" fill="#0d0e1f"/><path d="M1332.54053,239.52907a51.8703,51.8703,0,0,0,15.94739-5.266c.31738.74.65082,1.47334,1.01107,2.19344l-6.44671,7.08911a3.617,3.617,0,0,0,.00069,4.7727l9.94529,10.93628a2.87616,2.87616,0,0,0,4.33956,0l6.44671-7.0891a33.953,33.953,0,0,0,7.25156,3.30747v10.02033a3.23261,3.23261,0,0,0,3.06869,3.37448H1388.17a3.23261,3.23261,0,0,0,3.06869-3.37448V255.473c.78209-.25034,1.55208-.53971,2.31472-.84748q.78037,2.13381,1.56079,4.26834a1.96227,1.96227,0,0,0,2.35959,1.47334,2.1574,2.1574,0,0,0,1.33981-2.59472q-.8768-2.39887-1.75364-4.797c.48077-.26065.96019-.52571,1.43091-.81068l6.44671,7.0891a2.87669,2.87669,0,0,0,4.33956,0l9.94594-10.93628a3.61595,3.61595,0,0,0,0-4.7727l-6.44605-7.08911a41.54307,41.54307,0,0,0,3.0071-7.97415h9.113a3.23261,3.23261,0,0,0,3.06869-3.37448V209.64038a3.2326,3.2326,0,0,0-3.06869-3.37446h-9.113c-.16069-.60672-.33949-1.20606-.5263-1.80321a8.49842,8.49842,0,0,0,1.155-.8519c1.47443-1.27085,2.94147-2.5535,4.41185-3.82951a2.27676,2.27676,0,0,0,0-2.98275,1.83738,1.83738,0,0,0-2.71249,0q-1.34282,1.16519-2.68568,2.33113a18.20819,18.20819,0,0,1-1.609,1.43063c-.32674-.76649-.66958-1.52488-1.04189-2.26928l6.44606-7.08837a3.61595,3.61595,0,0,0,0-4.7727l-9.94529-10.93628a2.87741,2.87741,0,0,0-4.34021,0l-6.44671,7.08911a33.9676,33.9676,0,0,0-7.25156-3.30747V169.25425a3.23261,3.23261,0,0,0-3.06869-3.37448H1374.104a3.23261,3.23261,0,0,0-3.06869,3.37448v10.02106c-.48612.15536-.9662.33207-1.445.51025q-1.52059-3.61707-3.04192-7.2349c-1.03518-2.46146-4.34222-.321-3.31243,2.12865q1.40112,3.33213,2.80219,6.66426c-.762.3873-1.51661.793-2.25448,1.23994l-6.44671-7.08911a2.87741,2.87741,0,0,0-4.34021,0l-9.94529,10.93628a3.617,3.617,0,0,0,0,4.7727l6.44671,7.08911a41.485,41.485,0,0,0-3.00776,7.97488h-9.113a3.23261,3.23261,0,0,0-3.06869,3.37448V225.1086a3.2326,3.2326,0,0,0,3.06869,3.37446h9.113c.16739.63175.35285,1.25687.54771,1.87757a49.38435,49.38435,0,0,1-15.51751,5.10183C1329.08617,235.83873,1330.122,239.90385,1332.54053,239.52907Zm7.90573-17.7964v-8.71781h8.43a3.15135,3.15135,0,0,0,2.99905-2.65879,34.48263,34.48263,0,0,1,4.06166-10.76915,3.63047,3.63047,0,0,0-.41044-4.21165l-5.96463-6.559,5.60573-6.16431,5.96463,6.559a2.86153,2.86153,0,0,0,3.83.45136,28.28726,28.28726,0,0,1,9.79326-4.4664,3.31859,3.31859,0,0,0,2.41787-3.2979v-9.27h7.92784v9.27a3.31783,3.31783,0,0,0,2.41787,3.2979,28.26828,28.26828,0,0,1,9.79326,4.4664,2.86142,2.86142,0,0,0,3.83-.45136l5.96463-6.559,5.60573,6.16431-5.96394,6.55824a3.62956,3.62956,0,0,0-.41113,4.21165,34.50983,34.50983,0,0,1,4.06166,10.76988,3.15207,3.15207,0,0,0,2.99905,2.65879h8.43v8.71781h-8.43a3.15135,3.15135,0,0,0-2.99905,2.65878,34.48266,34.48266,0,0,1-4.06166,10.76915,3.63047,3.63047,0,0,0,.41044,4.21165l5.96463,6.559-5.60573,6.16432-5.96463-6.559a2.86385,2.86385,0,0,0-3.83-.45136,28.28746,28.28746,0,0,1-9.79326,4.4664,3.31787,3.31787,0,0,0-2.41787,3.2979v9.26929h-7.92784v-9.26929a3.31782,3.31782,0,0,0-2.41787-3.2979,28.263,28.263,0,0,1-9.79326-4.4664,2.86384,2.86384,0,0,0-3.83.45136l-5.96463,6.559-5.60573-6.16432,5.96463-6.559a3.6294,3.6294,0,0,0,.41044-4.21165,34.51251,34.51251,0,0,1-4.06166-10.76915,3.15207,3.15207,0,0,0-2.99905-2.65879h-8.43Z" transform="translate(-728.54612 -1)" fill="#0d0e1f"/><path d="M1325.38407,239.62185c2.46805,0,2.4721-4.21827,0-4.21827C1322.91532,235.40431,1322.91128,239.62185,1325.38407,239.62185Z" transform="translate(-728.54612 -1)" fill="#0d0e1f"/><path d="M1401.59026,268.86774c2.46805,0,2.4721-4.21827,0-4.21827C1399.12221,264.64947,1399.11751,268.86774,1401.59026,268.86774Z" transform="translate(-728.54612 -1)" fill="#0d0e1f"/><path d="M1422.43163,251.85474c-2.46805,0-2.4721,4.21827,0,4.21827C1424.89968,256.073,1424.90438,251.85474,1422.43163,251.85474Z" transform="translate(-728.54612 -1)" fill="#0d0e1f"/><path d="M1477.92437,206.299c2.46805,0,2.4721-4.21827,0-4.21827C1475.45631,202.08077,1475.45231,206.299,1477.92437,206.299Z" transform="translate(-728.54612 -1)" fill="#0d0e1f"/><path d="M1492.75623,273.50791c2.46805,0,2.4721-4.21827,0-4.21827C1490.28818,269.28964,1490.28417,273.50791,1492.75623,273.50791Z" transform="translate(-728.54612 -1)" fill="#0d0e1f"/></g></svg>