<?xml version="1.0" encoding="utf-8"?>
<!-- Generator: Adobe Illustrator 21.0.0, SVG Export Plug-In . SVG Version: 6.00 Build 0)  -->
<svg version="1.1" id="Layer_1" xmlns="http://www.w3.org/2000/svg" xmlns:xlink="http://www.w3.org/1999/xlink" x="0px" y="0px"
	 viewBox="0 0 500 500" style="enable-background:new 0 0 500 500;" xml:space="preserve">
<style type="text/css">
	.st0{fill:#333333;}
	.st1{fill:url(#SVGID_1_);}
	.st2{fill:url(#SVGID_2_);}
	.st3{fill:url(#SVGID_3_);}
	.st4{fill:url(#SVGID_4_);}
	.st5{fill:url(#SVGID_5_);}
	.st6{fill:url(#SVGID_6_);}
	.st7{fill:url(#SVGID_7_);}
</style>
<path class="st0" d="M429.4,417.4c4,0,7.2-3.2,7.2-7.2l0,0V27.7c0-12-9.7-21.7-21.7-21.7H84c-11.5,0-20.8,9.3-20.8,20.8V242
	c0,4,3.2,7.2,7.2,7.2c4,0,7.2-3.2,7.2-7.2c0,0,0,0,0,0v-49.4h185.2c4,0,7.2-3.2,7.2-7.2c0-4-3.2-7.2-7.2-7.2c0,0,0,0,0,0H77.6V26.8
	c0-3.5,2.9-6.4,6.4-6.4l0,0h285.7c3.5,0,6.4,2.9,6.4,6.4c0,0,0,0,0,0v151.3h-84.4c-4,0-7.2,3.2-7.2,7.2c0,4,3.2,7.2,7.2,7.2h84.4
	V313H77.6v-42.2c0-4-3.2-7.2-7.2-7.2c-4,0-7.2,3.2-7.2,7.2c0,0,0,0,0,0v172.5c0,11.5,9.3,20.8,20.8,20.8h4.2v8.2
	c0,12,9.7,21.7,21.7,21.7h305c12,0,21.7-9.7,21.7-21.7V439c0-4-3.2-7.2-7.2-7.2c-4,0-7.2,3.2-7.2,7.2l0,0v33.2c0,4-3.3,7.3-7.3,7.3
	h-305c-4,0-7.3-3.3-7.3-7.3v-8.2h163.9c4.1,0,6.1-2.3,8.8-5l112.4-108.7c1.8-1.7,2.7-4,2.8-6.5v-23.6c0,0,0,0,0-0.1s0,0,0-0.1V26.8
	c0-2.2-0.3-4.3-1-6.4h25.4c4,0,7.3,3.3,7.3,7.3v382.4C422.2,414.1,425.4,417.4,429.4,417.4C429.4,417.4,429.4,417.4,429.4,417.4z
	 M274.5,439.9v-81.7c0-3.4,2.8-6.2,6.2-6.2h84.7L274.5,439.9z M376.1,337.5h-95.3c-11.4,0-20.7,9.3-20.7,20.7v91.5H84
	c-3.5,0-6.4-2.9-6.4-6.4V327.4h298.5V337.5z"/>
<linearGradient id="SVGID_1_" gradientUnits="userSpaceOnUse" x1="279.7551" y1="102.3236" x2="366.8987" y2="102.3236">
	<stop  offset="0" style="stop-color:#F60D45"/>
	<stop  offset="0.19" style="stop-color:#F71641"/>
	<stop  offset="0.5059" style="stop-color:#FA3036"/>
	<stop  offset="0.9064" style="stop-color:#FE5924"/>
	<stop  offset="0.9944" style="stop-color:#FF6320"/>
</linearGradient>
<path class="st1" d="M301.2,152.7c4.1,0,8.1-1.2,11.6-3.5l45-30.1c9.5-6.4,12.1-19.3,5.7-28.8c-1.6-2.4-3.7-4.4-6.1-5.9l-45-28.7
	c-9.4-6.5-22.4-4.2-28.9,5.3s-4.2,22.4,5.3,28.9c0.4,0.3,0.9,0.6,1.3,0.8l18.1,11.6l-18.5,12.4C272.5,126.2,280.8,152.7,301.2,152.7
	z M297.7,126.7l27.7-18.6c3.3-2.2,4.2-6.7,2-10c-0.6-0.8-1.3-1.5-2.1-2.1l-27.5-17.6c-2.9-2-3.6-6-1.6-8.8c1.9-2.7,5.6-3.5,8.4-1.9
	l44.9,28.7c3,1.9,3.8,5.8,1.9,8.8c-0.5,0.7-1.1,1.4-1.8,1.9c-46.8,31-45.1,31.2-48.5,31.2c-3.5,0-6.3-2.9-6.3-6.4
	C294.9,129.8,295.9,127.9,297.7,126.7z"/>
<linearGradient id="SVGID_2_" gradientUnits="userSpaceOnUse" x1="86.8168" y1="102.5186" x2="173.3063" y2="102.5186">
	<stop  offset="0" style="stop-color:#F60D45"/>
	<stop  offset="0.19" style="stop-color:#F71641"/>
	<stop  offset="0.5059" style="stop-color:#FA3036"/>
	<stop  offset="0.9064" style="stop-color:#FE5924"/>
	<stop  offset="0.9944" style="stop-color:#FF6320"/>
</linearGradient>
<path class="st2" d="M170,61.9c-6.2-9.7-19-12.5-28.7-6.4L96.4,84.3c-9.7,6.2-12.5,19-6.3,28.7c1.5,2.4,3.6,4.5,5.9,6.1l44.9,30.1
	c3.4,2.3,7.4,3.5,11.6,3.5c20.3,0,28.7-26.6,11.6-38l-18.6-12.4l18.2-11.6C173.4,84.5,176.2,71.6,170,61.9z M155.9,78.4L128.5,96
	c-3.4,2.2-4.3,6.6-2.2,10c0.5,0.8,1.2,1.5,2,2.1c27.4,19.1,29.5,18.1,30.4,22.6c0.7,3.4-1.6,6.8-5,7.5c-1.7,0.3-3.4,0-4.8-1
	L104,107.1c-2.9-2-3.7-5.9-1.7-8.8c0.5-0.7,1.1-1.3,1.9-1.8l44.9-28.7c2.8-2.1,6.8-1.5,8.9,1.3c2.1,2.8,1.5,6.8-1.3,8.9
	C156.4,78.1,156.2,78.3,155.9,78.4z"/>
<linearGradient id="SVGID_3_" gradientUnits="userSpaceOnUse" x1="184.075" y1="102.5275" x2="269.6263" y2="102.5275">
	<stop  offset="0" style="stop-color:#F60D45"/>
	<stop  offset="0.19" style="stop-color:#F71641"/>
	<stop  offset="0.5059" style="stop-color:#FA3036"/>
	<stop  offset="0.9064" style="stop-color:#FE5924"/>
	<stop  offset="0.9944" style="stop-color:#FF6320"/>
</linearGradient>
<path class="st3" d="M245.8,52.6c-5.5,0.8-10.4,3.7-13.7,8.1l-44,58.8c-10.2,13.6-0.5,33.2,16.6,33.2c6.5,0,12.7-3.1,16.6-8.3
	l44-58.8C276.5,70.8,264.2,49.9,245.8,52.6z M255.1,72.2c0.7,4.9-0.6,2.8-45.2,63.5c-2.1,2.8-6.1,3.4-8.9,1.3
	c-1.3-1-2.2-2.5-2.5-4.1c-0.3-1.7,0.2-3.4,1.2-4.7c47.7-62.7,43.7-61.4,49.1-61.4C252,66.8,254.6,69.1,255.1,72.2L255.1,72.2z"/>
<linearGradient id="SVGID_4_" gradientUnits="userSpaceOnUse" x1="102.6038" y1="253.0166" x2="156.5793" y2="253.0166">
	<stop  offset="0" style="stop-color:#F60D45"/>
	<stop  offset="0.19" style="stop-color:#F71641"/>
	<stop  offset="0.5059" style="stop-color:#FA3036"/>
	<stop  offset="0.9064" style="stop-color:#FE5924"/>
	<stop  offset="0.9944" style="stop-color:#FF6320"/>
</linearGradient>
<path class="st4" d="M110.8,214.4c-4.1,0-8.2,1.5-8.2,5v67.2c0,3.4,4.1,5.1,8.2,5.1s8.2-1.7,8.2-5.1V258h21v28.6
	c0,3.4,4.1,5.1,8.2,5.1s8.2-1.7,8.2-5.1v-67.2c0-3.5-4.1-5-8.2-5s-8.2,1.5-8.2,5v25.9h-21v-25.9C119.1,215.9,115,214.4,110.8,214.4z
	"/>
<linearGradient id="SVGID_5_" gradientUnits="userSpaceOnUse" x1="165.3766" y1="253.0119" x2="220.9438" y2="253.0119">
	<stop  offset="0" style="stop-color:#F60D45"/>
	<stop  offset="0.19" style="stop-color:#F71641"/>
	<stop  offset="0.5059" style="stop-color:#FA3036"/>
	<stop  offset="0.9064" style="stop-color:#FE5924"/>
	<stop  offset="0.9944" style="stop-color:#FF6320"/>
</linearGradient>
<path class="st5" d="M193.2,291.6c4.1,0,8.2-1.7,8.2-5.1v-57.4H216c3.2,0,5-3.5,5-7.5c0-3.5-1.5-7.3-5-7.3h-45.6c-3.5,0-5,3.8-5,7.3
	c0,4,1.8,7.5,5,7.5h14.6v57.4C184.9,289.9,189,291.6,193.2,291.6z"/>
<linearGradient id="SVGID_6_" gradientUnits="userSpaceOnUse" x1="229.6935" y1="253.0166" x2="293.4957" y2="253.0166">
	<stop  offset="0" style="stop-color:#F60D45"/>
	<stop  offset="0.19" style="stop-color:#F71641"/>
	<stop  offset="0.5059" style="stop-color:#FA3036"/>
	<stop  offset="0.9064" style="stop-color:#FE5924"/>
	<stop  offset="0.9944" style="stop-color:#FF6320"/>
</linearGradient>
<path class="st6" d="M285.3,291.6c4.1,0,8.2-1.7,8.2-5.1v-63.9c0-6-4-8.2-8.2-8.2c-5.9,0-8.5,0.6-12.8,8.2l-10.9,19.1l-10.9-19.1
	c-4.3-7.6-6.9-8.2-12.8-8.2c-4.1,0-8.2,2.2-8.2,8.2v63.9c0,3.4,4.1,5.1,8.2,5.1s8.2-1.7,8.2-5.1v-40.7l10.1,18.4c1,2,3,3.2,5.2,3.1
	c2.3,0.1,4.4-1.1,5.5-3.1L277,247v39.6C277,289.9,281.2,291.6,285.3,291.6z"/>
<linearGradient id="SVGID_7_" gradientUnits="userSpaceOnUse" x1="307.154" y1="253.0166" x2="352.4655" y2="253.0166">
	<stop  offset="0" style="stop-color:#F60D45"/>
	<stop  offset="0.19" style="stop-color:#F71641"/>
	<stop  offset="0.5059" style="stop-color:#FA3036"/>
	<stop  offset="0.9064" style="stop-color:#FE5924"/>
	<stop  offset="0.9944" style="stop-color:#FF6320"/>
</linearGradient>
<path class="st7" d="M315.4,214.4c-4.1,0-8.2,1.5-8.2,5v67.2c0,3.4,3.6,5.1,7.2,5.1h33.4c3.2,0,4.8-3.6,4.8-7.2s-1.6-7.2-4.8-7.2
	h-24.1v-57.9C323.6,215.9,319.5,214.4,315.4,214.4z"/>
</svg>
