<?xml version="1.0" encoding="utf-8"?>
<!-- Generator: Adobe Illustrator 21.0.0, SVG Export Plug-In . SVG Version: 6.00 Build 0)  -->
<svg version="1.1" id="Layer_1" xmlns="http://www.w3.org/2000/svg" xmlns:xlink="http://www.w3.org/1999/xlink" x="0px" y="0px"
	 viewBox="0 0 500 500" style="enable-background:new 0 0 500 500;" xml:space="preserve">
<style type="text/css">
	.st0{fill:#333333;}
	.st1{fill:url(#SVGID_1_);}
</style>
<g id="surface1">
	<path class="st0" d="M164.2,78.4h171.6V94H164.2V78.4z"/>
	<path class="st0" d="M187.6,55h124.8v15.6H187.6V55z"/>
	<path class="st0" d="M164.2,406h171.6v15.6H164.2V406z"/>
	<path class="st0" d="M187.6,429.4h124.8V445H187.6V429.4z"/>
	<path class="st0" d="M491.7,147.9c0-0.5-0.2-1.1-0.3-1.6c-0.1-0.5-0.3-0.9-0.5-1.3c-0.2-0.4-0.5-0.8-0.8-1.2
		c-0.3-0.4-0.7-0.8-1.1-1.2c-0.2-0.1-0.3-0.4-0.5-0.5l-74.7-52.3V23.8c0-4.3-3.5-7.8-7.8-7.8H94c-4.3,0-7.8,3.5-7.8,7.8v66.1
		l-74.7,52.3c-0.2,0.1-0.3,0.3-0.5,0.5c-0.4,0.3-0.8,0.7-1.1,1.2c-0.3,0.4-0.6,0.8-0.8,1.2c-0.2,0.4-0.4,0.9-0.5,1.3
		c-0.2,0.5-0.3,1-0.3,1.6c-0.1,0.2-0.1,0.4-0.2,0.7v202.8c0,4.3,3.5,7.8,7.8,7.8h70.2v117c0,4.3,3.5,7.8,7.8,7.8h312
		c4.3,0,7.8-3.5,7.8-7.8v-117H484c4.3,0,7.8-3.5,7.8-7.8V148.6C491.8,148.4,491.7,148.2,491.7,147.9z M459.3,140.8h-45.5V109
		L459.3,140.8z M398.2,31.6v109.2h-23.4v-31.2c0-4.3-3.5-7.8-7.8-7.8H133c-4.3,0-7.8,3.5-7.8,7.8v31.2h-23.4V31.6H398.2z
		 M140.8,140.8v-23.4h218.4v23.4H140.8z M86.2,140.8H40.7L86.2,109V140.8z M398.2,468.4H101.8V359.2h23.4v31.2
		c0,4.3,3.5,7.8,7.8,7.8h234c4.3,0,7.8-3.5,7.8-7.8v-31.2h23.4V468.4z M359.2,359.2v23.4H140.8v-23.4H359.2z M476.2,343.6H23.8
		V156.4h452.4V343.6z"/>
</g>
<linearGradient id="SVGID_1_" gradientUnits="userSpaceOnUse" x1="123.9044" y1="246.1854" x2="353.778" y2="246.1854">
	<stop  offset="0" style="stop-color:#F60D45"/>
	<stop  offset="1" style="stop-color:#FF6320"/>
</linearGradient>
<path class="st1" d="M352.9,241c-1.6-1.6-22.7-28.1-26.2-32.5c-3.8-4.4-5.5-3.6-7.9-3.3c-2.5,0.3-29,4.9-32,5.2
	c-3,0.5-4.9,1.6-3,4.4c1.6,2.5,19.1,27,23,32.8L237,264.3l-55.2-92.6c-2.2-3.3-2.7-4.4-7.7-4.1c-4.9,0.3-43.4,3.6-46.2,3.6
	c-2.7,0.3-5.7,1.4-3,7.9c2.7,6.6,46.4,100.5,47.5,103.3c1.1,2.7,4.4,7.1,11.7,5.5c7.7-1.9,33.9-8.7,48.4-12.6
	c7.7,13.7,23,41.5,26,45.6c3.8,5.5,6.6,4.4,12.3,2.7c4.6-1.4,71.6-25.4,74.6-26.8s4.9-2.2,2.7-5.2c-1.6-2.2-19.1-26-28.4-38.3
	c6.3-1.6,29-7.7,31.4-8.5C353.9,244,354.5,242.7,352.9,241L352.9,241z M226.4,267c-0.8,0.3-39.9,9.6-41.8,10.1
	c-2.2,0.5-2.2,0.3-2.2-0.5c-0.5-0.8-46.4-95.9-47.3-97c-0.5-1.1-0.5-2.2,0-2.2c0.5,0,36.9-3.3,38-3.3c1.4,0,1.1,0.3,1.6,1.1
	c0,0,51.1,88.3,51.9,89.6C227.7,266.2,227.2,266.7,226.4,267L226.4,267z M336.2,287.5c0.5,1.1,1.4,1.6-0.8,2.2
	c-1.9,0.8-65.8,22.4-67.2,23c-1.4,0.5-2.2,0.8-3.8-1.6c-1.6-2.5-22.4-38.3-22.4-38.3l68-17.8c1.6-0.5,2.2-0.8,3.3,0.8
	C314.3,257.7,335.6,286.7,336.2,287.5L336.2,287.5z M340.6,239.4c-1.6,0.3-26.5,6.6-26.5,6.6l-20.5-27.9c-0.5-0.8-1.1-1.6,0.3-1.9
	s24.6-4.4,25.7-4.6c1.1-0.3,1.9-0.5,3.3,1.4c1.4,1.6,18.9,24,19.7,24.9C343.3,238.6,342.2,239.1,340.6,239.4L340.6,239.4z"/>
</svg>
