<svg xmlns="http://www.w3.org/2000/svg" xmlns:xlink="http://www.w3.org/1999/xlink" viewBox="0 0 186 186"><defs><linearGradient id="linear-gradient" x1="158.68128" y1="158.68128" x2="3.93821" y2="3.93821" gradientUnits="userSpaceOnUse"><stop offset="0" stop-color="#f60d45"/><stop offset="0.19109" stop-color="#f71641"/><stop offset="0.50874" stop-color="#fa3036"/><stop offset="0.91154" stop-color="#fe5924"/><stop offset="1" stop-color="#ff6320"/></linearGradient></defs><title>Asset 1</title><g id="Layer_2" data-name="Layer 2"><g id="Layer_1-2" data-name="Layer 1"><path d="M13.40669,0H93.00009A92.99991,92.99991,0,0,1,186,92.99991v.00019A92.99991,92.99991,0,0,1,93.00009,186h-.00019A92.99991,92.99991,0,0,1,0,93.00009V13.40669A13.40669,13.40669,0,0,1,13.40669,0Z" fill="url(#linear-gradient)"/><path d="M77.34435,140.68926h0a13.373,13.373,0,0,1-13.35983-13.35983V47.98011A13.373,13.373,0,0,1,77.34435,34.62028h0A13.373,13.373,0,0,1,90.70418,47.98011v79.34931A13.373,13.373,0,0,1,77.34435,140.68926Z" fill="#fff"/><path d="M122.68681,140.68926H76.53466A11.7489,11.7489,0,0,1,64.7942,128.9488h0a11.7489,11.7489,0,0,1,11.74046-11.74046h46.15215a11.7489,11.7489,0,0,1,11.74046,11.74046h0A11.7489,11.7489,0,0,1,122.68681,140.68926Z" fill="#fff"/></g></g></svg>