<?xml version="1.0" encoding="utf-8"?>
<!-- Generator: Adobe Illustrator 21.0.0, SVG Export Plug-In . SVG Version: 6.00 Build 0)  -->
<svg version="1.1" id="Layer_1" xmlns="http://www.w3.org/2000/svg" xmlns:xlink="http://www.w3.org/1999/xlink" x="0px" y="0px"
	 viewBox="0 0 945 246" style="enable-background:new 0 0 945 246;" xml:space="preserve">
<style type="text/css">
	.st0{fill:url(#SVGID_1_);}
	.st1{fill:#FFFFFF;}
	.st2{fill:#FFFFFF;stroke:#1A1A1A;stroke-miterlimit:10;}
	.st3{fill:#333333;stroke:#333333;stroke-miterlimit:10;}
</style>
<linearGradient id="SVGID_1_" gradientUnits="userSpaceOnUse" x1="174.5273" y1="196.5273" x2="13.9382" y2="35.9382">
	<stop  offset="0" style="stop-color:#FF0079"/>
	<stop  offset="0.172" style="stop-color:#FF0971"/>
	<stop  offset="0.4579" style="stop-color:#FF235A"/>
	<stop  offset="0.8203" style="stop-color:#FF4C35"/>
	<stop  offset="1" style="stop-color:#FF6320"/>
</linearGradient>
<path class="st0" d="M118.1,220H103c-51.1,0-93-41.8-93-93V45.4C10,38,16,32,23.4,32H105c51.1,0,93,41.8,93,93v15.1
	C198,184,162,220,118.1,220z"/>
<g>
	<path class="st1" d="M88.2,174.2L88.2,174.2c-7.4,0-13.5-6.1-13.5-13.5V80.5C74.7,73,80.7,67,88.2,67l0,0c7.4,0,13.5,6.1,13.5,13.5
		v80.2C101.7,168.1,95.6,174.2,88.2,174.2z"/>
</g>
<path class="st1" d="M134,174.2H87.4c-6.5,0-11.9-5.3-11.9-11.9l0,0c0-6.5,5.3-11.9,11.9-11.9H134c6.5,0,11.9,5.3,11.9,11.9l0,0
	C145.9,168.9,140.6,174.2,134,174.2z"/>
<path class="st2" d="M460.5,293.7"/>
<path class="st3" d="M326.2,152.4"/>
<g>
	<path class="st3" d="M257.7,217.5c-1.5-1.5-2.3-3.3-2.3-5.3c0-0.9,0.2-1.8,0.6-2.7l12.2-28.7L233,102c-0.5-1.1-0.8-2.2-0.8-3.3
		c0-2.1,0.8-4,2.4-5.6c1.6-1.5,3.6-2.3,6-2.3c1.7,0,3.4,0.4,4.8,1.4s2.5,2.1,3.1,3.4l28.9,65.6L306.9,96c1.6-3.4,4.2-5.2,7.9-5.2
		c2.4,0,4.4,0.8,6,2.3c1.6,1.5,2.4,3.4,2.4,5.6c0,1-0.2,2-0.6,2.9l-51.2,112.7c-1.7,3.5-4.4,5.3-7.9,5.3
		C261.2,219.7,259.3,219,257.7,217.5z"/>
	<path class="st3" d="M359,175.6c-7-3.6-12.5-8.9-16.9-15.8c-4.3-7-6.4-15-6.4-24.3s2.1-17.4,6.4-24.3s10-12.2,16.9-15.8
		c7-3.6,14.3-5.4,22.1-5.4c12.3,0,22.9,4.4,32.1,13.1V60.9c0-2.3,0.9-4.2,2.5-5.7c1.7-1.5,3.7-2.2,6.1-2.2s4.4,0.8,6,2.3
		c1.6,1.5,2.4,3.4,2.4,5.6v111.5c0,2.1-0.8,4-2.4,5.5c-1.6,1.5-3.6,2.2-6,2.2c-2.4,0-4.4-0.8-6.1-2.2c-1.7-1.5-2.5-3.4-2.5-5.5V168
		c-9.1,8.7-19.8,13.1-32.1,13.1C373.3,181,366,179.2,359,175.6z M399.8,162.9c5.1-2.3,9.5-5.5,13.4-9.4v-36.1
		c-3.9-3.9-8.3-7-13.4-9.4c-5.1-2.3-10.5-3.5-16.2-3.5c-9.3,0-16.7,2.7-22.3,8.1c-5.7,5.4-8.4,13-8.4,22.9s2.8,17.4,8.4,22.9
		c5.7,5.4,13.1,8.1,22.3,8.1C389.3,166.4,394.7,165.3,399.8,162.9z"/>
	<path class="st3" d="M469,177.9c-4.7-2.1-8.4-5.1-11.2-9c-2.7-4-4.1-8.5-4.1-13.7c0-8.5,3.7-15.2,11-20.3c7.3-5.1,18-7.6,32.1-7.6
		h22.7V126c0-7.6-2.1-13-6.1-16.3c-4-3.4-10.4-5-19.1-5c-4.7,0-8.9,0.3-12.6,1s-7.8,1.7-12.3,3.1c-1,0.3-1.8,0.3-2.4,0.3
		c-1.9,0-3.5-0.6-4.9-1.9c-1.4-1.3-2.1-2.8-2.1-4.6c0-3.1,1.6-5.2,4.9-6.5c10.7-4.1,21.5-6.2,32.5-6.2c8.6,0,15.9,1.6,21.8,4.8
		c5.9,3.2,10.3,7.4,13.1,12.5c2.8,5.1,4.2,10.7,4.2,16.6v48.6c0,2.1-0.9,4-2.5,5.5c-1.7,1.5-3.7,2.2-6.1,2.2c-2.4,0-4.4-0.8-6-2.2
		c-1.6-1.5-2.4-3.4-2.4-5.5V168c-9.3,8.7-21.1,13.1-35.2,13.1C478.7,181,473.7,180,469,177.9z M506.6,163.6c5.2-2.5,9.5-5.5,13-9.2
		V140h-20.5c-18.9,0-28.4,4.6-28.4,13.6c0,4.1,1.5,7.5,4.6,10c3.1,2.5,8.2,3.8,15.3,3.8C496.2,167.3,501.5,166.1,506.6,163.6z"/>
	<path class="st3" d="M585.4,178.1c-2-1.4-3.4-3.1-4.1-5.2l-26.6-71.5c-0.3-1-0.6-2-0.6-2.9c0-2.1,0.8-4,2.4-5.5
		c1.6-1.5,3.6-2.2,6-2.2c1.7,0,3.4,0.4,4.8,1.3s2.4,2,2.9,3.4l21.9,66.2L613.8,97c0.6-1.8,1.8-3.4,3.4-4.5c1.7-1.1,3.6-1.7,5.8-1.7
		s4,0.6,5.8,1.7s2.8,2.7,3.4,4.5l21.7,64.6l21.9-66.2c0.5-1.4,1.5-2.5,2.9-3.4c1.5-0.9,3-1.3,4.8-1.3c2.4,0,4.4,0.8,6,2.2
		c1.6,1.5,2.4,3.4,2.4,5.5c0,0.9-0.2,1.9-0.6,2.9L664.8,173c-0.8,2.1-2.1,3.8-4.1,5.2s-4.3,2.1-6.8,2.1s-4.7-0.7-6.8-2.1
		c-2-1.4-3.4-3.2-4.3-5.3l-19.8-56.9l-19.7,56.9c-0.9,2.1-2.3,4-4.3,5.3c-2,1.4-4.3,2.1-6.8,2.1
		C589.7,180.2,587.4,179.5,585.4,178.1z"/>
	<path class="st3" d="M718,169.1c-8.6-8-12.9-19.2-12.9-33.6c0-8.2,1.6-15.6,4.9-22.5c3.3-6.9,8.2-12.5,15-16.7
		c6.8-4.2,15-6.4,24.9-6.4c9.3,0,17.3,2,24,5.9c6.7,4,11.9,9.2,15.4,15.8c3.5,6.6,5.2,13.7,5.2,21.6c0,2.1-0.8,4-2.3,5.5
		s-3.7,2.2-6.3,2.2h-63.6c1,8,4.2,14.3,9.8,18.7c5.5,4.5,13.2,6.7,23.1,6.7c5.2,0,9.9-0.4,13.7-1.4c4-0.9,7.8-2.2,11.5-4
		c1-0.4,2.1-0.7,3.4-0.7c2,0,3.8,0.6,5.2,1.9c1.5,1.3,2.2,2.8,2.2,4.8c0,2.5-1.6,4.6-4.9,6.4c-4.9,2.5-9.7,4.4-14.4,5.7
		c-4.7,1.3-10.9,1.9-18.4,1.9C738.4,181,726.5,177.1,718,169.1z M777.8,128.3c-0.3-5.6-2-10.3-4.8-14.1c-2.8-3.8-6.3-6.5-10.4-8.3
		c-4.1-1.8-8.3-2.7-12.5-2.7c-4.3,0-8.4,0.9-12.5,2.7c-4.1,1.8-7.6,4.6-10.3,8.3c-2.7,3.8-4.3,8.5-4.7,14.1H777.8z"/>
	<path class="st3" d="M834.2,168v4.5c0,2.1-0.9,4-2.5,5.5c-1.7,1.5-3.7,2.2-6.1,2.2c-2.4,0-4.4-0.8-6-2.2c-1.6-1.5-2.4-3.4-2.4-5.5
		V60.9c0-2.1,0.8-4,2.4-5.6s3.6-2.3,6-2.3c2.5,0,4.6,0.8,6.2,2.2c1.6,1.5,2.4,3.4,2.4,5.7V103c9.1-8.7,19.8-13.1,32.1-13.1
		c7.7,0,15.1,1.8,22.1,5.4c7,3.6,12.5,8.9,16.9,15.8c4.3,7,6.4,15,6.4,24.3s-2.1,17.4-6.4,24.3s-10,12.2-16.9,15.8
		c-7,3.6-14.3,5.4-22.1,5.4C854,181,843.3,176.7,834.2,168z M886.2,158.3c5.7-5.4,8.4-13,8.4-22.9s-2.8-17.4-8.4-22.9
		c-5.7-5.4-13.1-8.1-22.3-8.1c-5.8,0-11.2,1.2-16.2,3.5c-5.1,2.3-9.5,5.5-13.4,9.4v36.1c3.9,3.9,8.3,7,13.4,9.4
		c5.1,2.3,10.5,3.5,16.2,3.5C873,166.4,880.5,163.8,886.2,158.3z"/>
</g>
</svg>
