<svg xmlns="http://www.w3.org/2000/svg" xmlns:xlink="http://www.w3.org/1999/xlink" viewBox="0 0 220 220"><defs><linearGradient id="linear-gradient" x1="194.00313" y1="194.00313" x2="25.99688" y2="25.99688" gradientUnits="userSpaceOnUse"><stop offset="0" stop-color="#f60d45"/><stop offset="0.19109" stop-color="#f71641"/><stop offset="0.50874" stop-color="#fa3036"/><stop offset="0.91154" stop-color="#fe5924"/><stop offset="1" stop-color="#ff6320"/></linearGradient></defs><title>Asset 1</title><g id="Layer_2" data-name="Layer 2"><g id="Layer_1-2" data-name="Layer 1"><rect width="220" height="220" rx="88.5" ry="88.5" fill="url(#linear-gradient)"/><path d="M91.48256,166.40665h0a15.81755,15.81755,0,0,1-15.802-15.802v-93.854a15.81755,15.81755,0,0,1,15.802-15.802h0a15.81755,15.81755,0,0,1,15.802,15.802v93.854A15.81755,15.81755,0,0,1,91.48256,166.40665Z" fill="#fff"/><path d="M145.11343,166.40665H90.52487A13.89654,13.89654,0,0,1,76.6383,152.52009h0a13.89654,13.89654,0,0,1,13.88657-13.88657h54.58857A13.89654,13.89654,0,0,1,159,152.52009h0A13.89654,13.89654,0,0,1,145.11343,166.40665Z" fill="#fff"/></g></g></svg>