<?xml version="1.0" encoding="utf-8"?>
<!-- Generator: Adobe Illustrator 21.0.0, SVG Export Plug-In . SVG Version: 6.00 Build 0)  -->
<svg version="1.1" xmlns="http://www.w3.org/2000/svg" xmlns:xlink="http://www.w3.org/1999/xlink" x="0px" y="0px"
	 viewBox="0 0 500 500" style="enable-background:new 0 0 500 500;" xml:space="preserve">
<style type="text/css">
	.st0{display:none;}
	.st1{display:inline;fill:url(#SVGID_1_);}
	.st2{display:inline;fill:url(#SVGID_2_);}
	.st3{display:inline;fill:url(#SVGID_3_);}
	.st4{display:inline;fill:url(#SVGID_4_);}
	.st5{display:inline;fill:#333333;}
	.st6{display:inline;fill:#555555;}
	.st7{display:inline;fill:#666666;}
	.st8{fill:#333333;}
	.st9{fill:url(#SVGID_5_);}
	.st10{fill:#606060;}
	.st11{fill:url(#SVGID_6_);}
	.st12{fill:url(#SVGID_7_);}
	.st13{fill:url(#SVGID_8_);}
	.st14{fill:url(#SVGID_9_);}
	.st15{fill:url(#SVGID_10_);}
</style>
<g id="Layer_1" class="st0">
	<linearGradient id="SVGID_1_" gradientUnits="userSpaceOnUse" x1="72.2324" y1="186.3025" x2="316.4099" y2="186.3025">
		<stop  offset="0" style="stop-color:#F60D45"/>
		<stop  offset="0.6662" style="stop-color:#FC4A2B"/>
		<stop  offset="1" style="stop-color:#FF6320"/>
	</linearGradient>
	<path class="st1" d="M280.6,100c-47.7-47.7-125-47.7-172.7,0s-47.7,125,0,172.7s125,47.7,172.7,0c22.9-22.9,35.8-54,35.7-86.3
		C316.4,153.9,303.5,122.9,280.6,100z M117.8,109.8c42.3-42.2,110.9-42.2,153.1,0.2c15.8,15.9,26.3,36.2,30.1,58.3l-37.9,37.1
		c-11.3-6.4-25.6-2.9-32.7,7.8l-55.7-17.5v-0.5c0-13.7-11-24.8-24.7-24.8c-13.7,0-24.8,11-24.8,24.7c0,4.3,1.1,8.6,3.3,12.4
		l-29.2,30.3C76.5,195.7,84,143.7,117.8,109.8L117.8,109.8z M261.8,226.9c0,6-4.9,10.9-10.9,10.9c-6,0-10.9-4.9-10.9-10.9
		c0-6,4.9-10.9,10.9-10.9c0,0,0,0,0,0l0,0C257,216.1,261.8,220.9,261.8,226.9L261.8,226.9z M160.8,195.2c0,6-4.9,10.9-10.9,10.9
		c-6,0-10.9-4.9-10.9-10.9s4.9-10.9,10.9-10.9C155.9,184.4,160.8,189.2,160.8,195.2L160.8,195.2z M270.8,262.8
		C228.5,305,160,305,117.7,262.7c-4-4-7.6-8.2-10.9-12.8l31.6-32.7c11.2,5.9,25.1,2.4,32.1-8.2l55.7,17.5v0.5
		c0,13.7,11.1,24.8,24.8,24.8c13.7,0,24.8-11.1,24.8-24.8c0-4.1-1-8.1-2.9-11.7l29.7-29C302.6,215,291.2,242.5,270.8,262.8
		L270.8,262.8z"/>
	<linearGradient id="SVGID_2_" gradientUnits="userSpaceOnUse" x1="132.7402" y1="109.1492" x2="225.3281" y2="109.1492">
		<stop  offset="0" style="stop-color:#F60D45"/>
		<stop  offset="0.6662" style="stop-color:#FC4A2B"/>
		<stop  offset="1" style="stop-color:#FF6320"/>
	</linearGradient>
	<path class="st2" d="M132.7,115.4l9.1,10.5c21.7-18.8,51.8-24.5,78.9-15.1l4.6-13.1C193.5,86.6,158.2,93.3,132.7,115.4z"/>
	<linearGradient id="SVGID_3_" gradientUnits="userSpaceOnUse" x1="235.8991" y1="115.8276" x2="255.5067" y2="115.8276">
		<stop  offset="0" style="stop-color:#F60D45"/>
		<stop  offset="0.6662" style="stop-color:#FC4A2B"/>
		<stop  offset="1" style="stop-color:#FF6320"/>
	</linearGradient>
	<path class="st3" d="M243.2,106.1l-7.3,11.9c3.7,2.2,7.2,4.8,10.5,7.6l9.1-10.5C251.6,111.7,247.5,108.7,243.2,106.1z"/>
	<linearGradient id="SVGID_4_" gradientUnits="userSpaceOnUse" x1="159.276" y1="270.3447" x2="213.8159" y2="270.3447">
		<stop  offset="0" style="stop-color:#F60D45"/>
		<stop  offset="0.6662" style="stop-color:#FC4A2B"/>
		<stop  offset="1" style="stop-color:#FF6320"/>
	</linearGradient>
	<path class="st4" d="M210.9,264.5c-15.6,3.3-31.7,1.9-46.5-4l-5.2,12.9c11.1,4.5,23,6.7,35,6.7c6.6,0,13.1-0.7,19.6-2.1
		L210.9,264.5z"/>
	<path class="st5" d="M369.5,298l-10.1,10.1l-25-26.8c29.2-42.8,37.1-96.7,21.4-146.1l19.9-19.4c12,6.5,27.1,2,33.5-10.1
		c3.9-7.2,3.9-15.8,0.3-23L452.1,41v21.6H466v-45h-45v13.9h21l-42.1,41.2c-11.8-6.9-27-3-33.9,8.8c-4.5,7.6-4.6,17-0.3,24.6
		l-15.2,14.9c-8.4-20.1-20.7-38.3-36.1-53.7c-65.7-65.7-172.5-65.7-238.2,0c-58.5,58.5-64.9,149.7-19.1,215.3l-11.7,12.1
		c-12.1-6.4-27.1-1.7-33.5,10.4c-6.4,12.1-1.7,27.1,10.4,33.5c12.1,6.4,27.1,1.7,33.5-10.4c3.9-7.5,3.8-16.5-0.4-23.8l10.2-10.6
		c3.4,4,6.9,7.9,10.7,11.7c57.2,57,146.8,65.5,213.7,20.2l25.1,26.9l-10.4,10.4L426.2,484l64.9-64.8L369.5,298z M387.3,83.1
		c6,0,10.9,4.9,10.9,10.9s-4.9,10.9-10.9,10.9c-6,0-10.9-4.9-10.9-10.9v0l0,0C376.5,88,381.3,83.1,387.3,83.1L387.3,83.1z
		 M33.9,327.4c-6,0-10.9-4.9-10.9-10.9c0-6,4.9-10.9,10.9-10.9s10.9,4.9,10.9,10.9l0,0l0,0C44.7,322.6,39.9,327.4,33.9,327.4z
		 M86.1,295.5c-60.2-60.2-60.2-158.2,0-218.5c60.4-60.2,158.1-60.2,218.5,0c60.2,60.2,60.2,158.2,0,218.5S146.3,355.8,86.1,295.5
		L86.1,295.5z M301.2,317.2c9.1-7.3,17.3-15.6,24.7-24.6l23.7,25.3l-24.6,24.6L301.2,317.2z M426.2,464.4L324.3,362.8l45.2-45.2
		l101.9,101.6L426.2,464.4z"/>
	<polygon class="st6" points="368.5,337.8 348.6,357.7 358.4,367.5 368.5,357.5 406.9,395.9 416.7,386 	"/>
	
		<rect x="421.9" y="400.7" transform="matrix(0.7071 -0.7071 0.7071 0.7071 -162.891 422.7349)" class="st7" width="13.9" height="14.6"/>
	<rect x="83.4" y="361.7" class="st6" width="13.9" height="15.1"/>
	<rect x="83.4" y="446.6" class="st6" width="13.9" height="15.1"/>
	<rect x="197.9" y="390.9" class="st6" width="13.9" height="15.1"/>
	<rect x="397.2" y="265.9" class="st6" width="13.9" height="15.1"/>
	<rect x="413" y="145.2" class="st6" width="13.9" height="15.1"/>
	<rect x="459.1" y="209.1" class="st6" width="13.9" height="15.1"/>
</g>
<g id="Layer_2">
	<g>
		<g>
			<g>
				<path class="st8" d="M474,34h-72V2H102.7L2,102.7V498h400V194h72c13.2,0,24-10.8,24-24V58C498,44.8,487.2,34,474,34z M98,29.3
					V98H29.3L98,29.3z M386,482H18V114h96V18h272v16H186c-13.2,0-24,10.8-24,24v112c0,13.2,10.8,24,24,24h200V482z M482,170
					c0,4.4-3.6,8-8,8H186c-4.4,0-8-3.6-8-8V58c0-4.4,3.6-8,8-8h288c4.4,0,8,3.6,8,8V170z"/>
				<linearGradient id="SVGID_5_" gradientUnits="userSpaceOnUse" x1="290" y1="114" x2="370" y2="114">
					<stop  offset="0" style="stop-color:#F60D45"/>
					<stop  offset="0.6228" style="stop-color:#FC452D"/>
					<stop  offset="1" style="stop-color:#FF6320"/>
				</linearGradient>
				<polygon class="st9" points="354,106 306,106 306,66 290,66 290,162 306,162 306,122 354,122 354,162 370,162 370,66 354,66 
									"/>
				<path class="st8" d="M34,466h336V210H34V466z M50,226h304v224H50V226z"/>
				<rect x="34" y="130" class="st10" width="16" height="16"/>
				<rect x="66" y="130" class="st10" width="16" height="16"/>
				<rect x="34" y="162" class="st10" width="16" height="16"/>
				<linearGradient id="SVGID_6_" gradientUnits="userSpaceOnUse" x1="194" y1="114" x2="274" y2="114">
					<stop  offset="0" style="stop-color:#F60D45"/>
					<stop  offset="0.6228" style="stop-color:#FC452D"/>
					<stop  offset="1" style="stop-color:#FF6320"/>
				</linearGradient>
				<path class="st11" d="M246,66h-52v48v8v40h16v-40h36c15.4,0,28-12.6,28-28S261.4,66,246,66z M246,106h-36V82h36
					c6.6,0,12,5.4,12,12S252.6,106,246,106z"/>
				<linearGradient id="SVGID_7_" gradientUnits="userSpaceOnUse" x1="386" y1="114" x2="466" y2="114">
					<stop  offset="0" style="stop-color:#F60D45"/>
					<stop  offset="0.6228" style="stop-color:#FC452D"/>
					<stop  offset="1" style="stop-color:#FF6320"/>
				</linearGradient>
				<path class="st12" d="M438,66h-52v48v8v40h16v-40h36c15.4,0,28-12.6,28-28S453.4,66,438,66z M438,106h-36V82h36
					c6.6,0,12,5.4,12,12S444.6,106,438,106z"/>
				<linearGradient id="SVGID_8_" gradientUnits="userSpaceOnUse" x1="81.7" y1="342.6035" x2="153.4663" y2="342.6035">
					<stop  offset="0" style="stop-color:#F60D45"/>
					<stop  offset="0.6228" style="stop-color:#FC452D"/>
					<stop  offset="1" style="stop-color:#FF6320"/>
				</linearGradient>
				<polygon class="st13" points="143.4,267.1 81.7,342.6 143.4,418.1 153.5,409.8 98.4,342.6 153.5,275.4 				"/>
				<linearGradient id="SVGID_9_" gradientUnits="userSpaceOnUse" x1="234.2337" y1="342.6035" x2="306" y2="342.6035">
					<stop  offset="0" style="stop-color:#F60D45"/>
					<stop  offset="0.6228" style="stop-color:#FC452D"/>
					<stop  offset="1" style="stop-color:#FF6320"/>
				</linearGradient>
				<polygon class="st14" points="234.2,275.4 289.3,342.6 234.2,409.8 244.3,418.1 306,342.6 244.3,267.1 				"/>
				<linearGradient id="SVGID_10_" gradientUnits="userSpaceOnUse" x1="161.8172" y1="342.5587" x2="225.9099" y2="342.5587">
					<stop  offset="0" style="stop-color:#F60D45"/>
					<stop  offset="0.6228" style="stop-color:#FC452D"/>
					<stop  offset="1" style="stop-color:#FF6320"/>
				</linearGradient>
				<polygon class="st15" points="161.8,411.7 213.7,269 225.9,273.4 174,416.1 				"/>
			</g>
		</g>
	</g>
</g>
</svg>
