<svg xmlns="http://www.w3.org/2000/svg" viewBox="0 0 698.86992 480.16417"><title>Asset 1</title><g id="Layer_2" data-name="Layer 2"><g id="Layer_1-2" data-name="Layer 1"><g id="Layer_5" data-name="Layer 5"><path d="M392.48621,90.12552c4.065.80257,7.96062-2.18093,8.68913-6.6488A8.83048,8.83048,0,0,0,399.9527,77.322a7.40709,7.40709,0,0,0-4.82233-3.40024,6.85435,6.85435,0,0,0-1.3251-.13033,7.73136,7.73136,0,0,0-7.364,6.77839,8.82774,8.82774,0,0,0,1.22265,6.154A7.40533,7.40533,0,0,0,392.48621,90.12552Z" fill="none"/><path d="M552.95039,399.31617V364.93825c0-.58094-1.001-1.49471-1.988-2.03881h-4.34156v42.21366C552.86869,404.00052,552.95039,399.53265,552.95039,399.31617Z" fill="none"/><path d="M319.00653,66.3658c6.64357,0,12.04909-5.94416,12.04909-13.24974s-5.40552-13.24974-12.04909-13.24974-12.04909,5.94343-12.04909,13.24974C306.95744,60.42164,312.363,66.3658,319.00653,66.3658Z" fill="none"/><path d="M289.74522,60.13375a34.48265,34.48265,0,0,0,4.06166,10.76915,3.63047,3.63047,0,0,1-.41044,4.21165l-5.96463,6.559,5.60573,6.16432,5.96463-6.559a2.86377,2.86377,0,0,1,3.83-.45136,28.28746,28.28746,0,0,0,9.79326,4.4664,3.31859,3.31859,0,0,1,2.41787,3.2979v9.26929h7.92784V88.59179a3.31782,3.31782,0,0,1,2.41787-3.2979,28.26849,28.26849,0,0,0,9.79326-4.4664,2.86368,2.86368,0,0,1,3.83.45136l5.96463,6.559,5.60573-6.16432-5.96463-6.559a3.6294,3.6294,0,0,1-.41044-4.21165,34.51253,34.51253,0,0,0,4.06166-10.76915,3.15207,3.15207,0,0,1,2.99905-2.65879h8.43V48.75714h-8.43a3.15135,3.15135,0,0,1-2.99905-2.65878,34.49357,34.49357,0,0,0-4.06166-10.76988,3.62944,3.62944,0,0,1,.41113-4.21165l5.96394-6.55824-5.60573-6.16431-5.96463,6.559a2.86153,2.86153,0,0,1-3.83.45136,28.28725,28.28725,0,0,0-9.79326-4.4664,3.31787,3.31787,0,0,1-2.41787-3.2979v-9.27h-7.92784v9.27a3.31783,3.31783,0,0,1-2.41787,3.2979,28.26284,28.26284,0,0,0-9.79326,4.4664,2.86221,2.86221,0,0,1-3.83-.45136l-5.96463-6.559-5.60573,6.16431,5.96463,6.559a3.6294,3.6294,0,0,1,.41044,4.21165,34.51253,34.51253,0,0,0-4.06166,10.76915,3.15207,3.15207,0,0,1-2.99905,2.65879h-8.43V57.475h8.43A3.15133,3.15133,0,0,1,289.74522,60.13375Zm38.70841,19.925c-2.58927,0-2.58526-4.41781,0-4.41781C331.0429,75.641,331.0382,80.05879,328.45363,80.05879ZM317.07078,25.57249c2.58927,0,2.58526,4.41781,0,4.41781C314.48151,29.9903,314.48555,25.57249,317.07078,25.57249Zm1.93575,7.54489c10.02829,0,18.18647,8.9711,18.18647,19.99868s-8.15818,19.99868-18.18647,19.99868-18.18647-8.9711-18.18647-19.99868S308.97889,33.11738,319.00653,33.11738ZM293.74264,46.35091a34.18493,34.18493,0,0,1,12.84924-18.18223c2.18014-1.54844,4.19223,2.27738,2.0275,3.81478A29.34863,29.34863,0,0,0,297.61618,47.526,2.02576,2.02576,0,1,1,293.74264,46.35091Z" fill="#60718d"/><path d="M297.0095,219.289v-7.215h6.13738v1.97917c10.55659,1.69348,51.9969,7.631,92.57277,3.81329v-5.79249H401.857v7.21575a9.45,9.45,0,0,1,3.53871-1.57053,7.44666,7.44666,0,0,1,3.02651.03314c5.37605-4.31251,6.76544-13.654,7.12234-18.39576-6.61745-1.265-9.67744-3.95247-10.043-4.29263a3.60334,3.60334,0,0,1-.09105-5.06427c2.88989-2.9128,4.80558-8.8415,5.90169-13.65838-8.05372,2.48576-16.66115.99621-17.10845.91669A3.2069,3.2069,0,0,1,391.71087,174.7a3.54924,3.54924,0,0,1,1.19453-3.51143c2.73455-2.16547,4.45472-8.36437,5.29906-13.90063-15.02137,6.90651-35.06324,10.52247-36.00463,10.69037a2.9879,2.9879,0,0,1-3.20327-1.75534,3.63785,3.63785,0,0,1,.48678-3.89873c4.54778-5.27118,4.52972-12.16369,3.692-17.07041-13.1204,17.37966-40.07569,28.25042-41.33851,28.75256a2.85194,2.85194,0,0,1-2.96893-.5456,3.54717,3.54717,0,0,1-1.11618-3.074,18.59482,18.59482,0,0,0-2.04086-9.70225,55.43517,55.43517,0,0,1-6.63822,11.08575A109.11326,109.11326,0,0,0,298.83817,187.801c-4.8451,9.73979-5.818,20.3315-5.83336,29.84155.16139.02135.31938.04566.468.0751A9.47537,9.47537,0,0,1,297.0095,219.289Zm81.95994-43.955c2.4721,0,2.46805,4.21827,0,4.21827C376.49734,179.55226,376.50134,175.334,378.96944,175.334ZM359.5985,200.64288c2.4721,0,2.46805,4.21827,0,4.21827C357.1264,204.86116,357.1304,200.64288,359.5985,200.64288Zm-6.521.63249c2.4721,0,2.46805,4.21827,0,4.21827C350.60535,205.49365,350.60936,201.27537,353.07745,201.27537ZM348.42922,169.029c3.45236,0,3.447,5.89041,0,5.89041C344.97686,174.91945,344.98221,169.029,348.42922,169.029Zm-5.02185,13.62158c3.45236,0,3.447,5.89041,0,5.89041C339.955,188.541,339.96036,182.65062,343.40737,182.65062Zm-10.71328-5.89041c3.45236,0,3.447,5.89041,0,5.89041C329.24173,182.65062,329.24708,176.76021,332.69409,176.76021Zm-13.642,24.25157a115.36346,115.36346,0,0,0,26.92447,1.44463c2.47075-.15241,2.45469,4.0666,0,4.21827a119.66311,119.66311,0,0,1-27.94425-1.59482C315.597,204.65574,316.63688,200.59208,319.05205,201.01178Zm-17.10641-4.06217a24.22986,24.22986,0,0,1,5.43363-10.47535c2.41517-2.71547,6.19962,1.45272,3.7878,4.16527a17.9887,17.9887,0,0,0-4.0563,7.87621C306.22427,202.18175,301.05914,200.61711,301.94564,196.9496Z" fill="#996b53"/><path d="M321.13513,424.41446l5.01584-15.396H311.90834a18.53854,18.53854,0,0,1-2.41452,15.396Z" fill="#12b57b"/><polygon points="381.258 435.238 442.262 435.238 442.262 431.163 379.931 431.163 381.258 435.238" fill="#60718d"/><path d="M401.857,236.75626v4.38026h2.58391c1.18917-.64647,4.365-5.29475,5.14437-10.54973.21962-1.48143.38167-4.155-.997-5.41771a2.29267,2.29267,0,0,0-2.10384-.80919c-1.71412.33206-3.62646,2.73021-4.62678,4.33608v5.03778a7.74953,7.74953,0,0,0,1.80317-2.21039c.76063-1.39751,2.75-.1237,1.98732,1.27747A10.01126,10.01126,0,0,1,401.857,236.75626Z" fill="#bca877"/><path d="M405.57584,424.41446a18.02516,18.02516,0,0,1-3.71015-10.429l-.0971-4.96707H372.7162l5.01584,15.396Z" fill="#12b57b"/><path d="M243.86294,398.38694H426.88187c2.09914,0,2.912,2.175,2.458,3.88253h30.31189c3.66593,0,6.64827-3.27947,6.64827-7.31147V255.19766c0-4.032-2.98229-7.31147-6.64827-7.31147H239.2154c-3.66593,0-6.64892,3.27949-6.64892,7.31147V394.958c0,4.032,2.983,7.31147,6.64892,7.31147h2.18884C240.9516,400.562,241.76716,398.38694,243.86294,398.38694Zm204.89144-76.82126c2.58927,0,2.58526,4.41781,0,4.41781C446.16511,325.98349,446.16981,321.56568,448.75438,321.56568Zm1.69066,62.70638c-2.96693,0-2.96153-5.06207,0-5.06207C453.412,379.21,453.40727,384.27205,450.445,384.27205ZM434.78225,258.43077H450.893a4.025,4.025,0,0,1,0,8.01388H434.78225a4.025,4.025,0,0,1,0-8.01388Zm-24.86351,65.09862h24.55148c2.58927,0,2.58526,4.41781,0,4.41781H409.91875C407.32948,327.9472,407.33418,323.52939,409.91875,323.52939ZM384.468,379.7725h56.771c2.96693,0,2.96153,5.06207,0,5.06207H384.468C381.50112,384.83385,381.50578,379.7725,384.468,379.7725ZM354.12064,263.39786c3.45236,0,3.447,5.89041,0,5.89041C350.66829,269.28828,350.67364,263.39786,354.12064,263.39786Zm-9.82072,0c3.45236,0,3.447,5.89041,0,5.89041C340.84756,269.28828,340.85357,263.39786,344.29992,263.39786Zm5.13366,37.49542c12.12678,0,21.993,10.84939,21.993,24.1838,0,13.33517-9.86625,24.18456-21.993,24.18456s-21.99233-10.84939-21.99233-24.18456C327.44125,311.74268,337.30681,300.89329,349.43359,300.89329Zm-76.55508-37.49542h54.45894c3.45236,0,3.447,5.89041,0,5.89041H272.87851C269.42549,269.28828,269.4315,263.39786,272.87851,263.39786Zm-25.99109-.6082c2.96693,0,2.96153,5.06207,0,5.06207C243.92053,267.85174,243.92523,262.78966,246.88741,262.78966Zm0,12.93536c2.96693,0,2.96153,5.06207,0,5.06207C243.92053,280.7871,243.92523,275.725,246.88741,275.725Zm0,12.93606c2.96693,0,2.96153,5.06207,0,5.06207C243.92053,293.72244,243.92523,288.66108,246.88741,288.66108Zm-2.302,19.403a2.30586,2.30586,0,1,1,4.60336,0v70.302a2.30586,2.30586,0,1,1-4.60336,0Z" fill="#a9b3c1"/><path d="M499.10074,348.13657h-.04418v.04566C499.07062,348.16605,499.086,348.15131,499.10074,348.13657Z" fill="#ae6344"/><path d="M499.05657,351.40135v56.91389h15.5992c1.97793,0,1.97457,3.37448,0,3.37448h-15.5992v7.874h41.42756V356.9943H520.66523c-1.97793,0-1.97457-3.37448,0-3.37448h19.81889v-1.61987H500.42384A1.77058,1.77058,0,0,1,499.05657,351.40135ZM522.455,411.68971c-1.97793,0-1.97457-3.37448,0-3.37448C524.433,408.31524,524.42961,411.68971,522.455,411.68971Zm6.90472,0c-1.97793,0-1.97457-3.37448,0-3.37448C531.33768,408.31524,531.33433,411.68971,529.35975,411.68971ZM514.4,372.21584c6.5331-4.14907,14.25738-2.93343,17.21826,2.70518,2.96153,5.63933.05558,13.60243-6.47752,17.75073a15.12285,15.12285,0,0,1-8.04636,2.46367,9.99755,9.99755,0,0,1-9.17256-5.16885C504.96092,384.32652,507.86691,376.36418,514.4,372.21584Z" fill="#ae6344"/><path d="M349.43359,342.5127c8.74271,0,15.855-7.82172,15.855-17.43489,0-9.61389-7.11294-17.43489-15.855-17.43489-8.74271,0-15.855,7.82172-15.855,17.43489S340.69088,342.5127,349.43359,342.5127Z" fill="#e3e2d5"/><path d="M367.11386,79.04344l4.971.98075a2.87916,2.87916,0,0,1,2.20961,2.79941,23.05925,23.05925,0,0,0,1.47909,7.42487,3.12693,3.12693,0,0,1-.94544,3.55781l-4.1494,3.1742,2.33752,3.69328,4.14805-3.1742a2.50173,2.50173,0,0,1,3.36261.2614,19.244,19.244,0,0,0,5.816,4.10635,3.0192,3.0192,0,0,1,1.61906,3.25078l-.89256,5.46631,4.02753.79448.89121-5.46631a2.78184,2.78184,0,0,1,2.5464-2.42907,17.85831,17.85831,0,0,0,6.75068-1.6265,2.55131,2.55131,0,0,1,3.23608,1.03965l2.88589,4.56213,3.35861-2.56968-2.88589-4.56213a3.18048,3.18048,0,0,1,.23838-3.69771A21.63351,21.63351,0,0,0,411.8518,90.233a2.64873,2.64873,0,0,1,2.95618-1.77963l4.971.98.72246-4.42886-4.97027-.98075a2.87917,2.87917,0,0,1-2.20961-2.79942,23.05913,23.05913,0,0,0-1.47909-7.42486,3.12725,3.12725,0,0,1,.94544-3.55781l4.14805-3.1742-2.33683-3.69329-4.14805,3.1742a2.50252,2.50252,0,0,1-3.36261-.26138,19.23738,19.23738,0,0,0-5.816-4.10562,3.01709,3.01709,0,0,1-1.61972-3.25151l.89256-5.4663-4.02684-.79447-.89256,5.4663a2.7818,2.7818,0,0,1-2.5464,2.42906,17.86175,17.86175,0,0,0-6.75,1.62649,2.55032,2.55032,0,0,1-3.23608-1.03966l-2.88654-4.56212-3.35861,2.5697,2.88654,4.56212a3.18048,3.18048,0,0,1-.23838,3.69771,21.63467,21.63467,0,0,0-3.73426,6.39552,2.642,2.642,0,0,1-2.95618,1.78038l-4.97027-.98075ZM407.60334,68.5239c2.58927,0,2.58526,4.41781,0,4.41781C405.01407,72.9417,405.01807,68.5239,407.60334,68.5239Zm-26.44906,11.004c1.25211-7.67226,7.94991-12.7925,14.92427-11.41783a12.7255,12.7255,0,0,1,8.2827,5.84035,15.1679,15.1679,0,0,1,2.10049,10.57035c-1.11484,6.83213-6.54516,11.64167-12.64768,11.64167a11.7349,11.7349,0,0,1-2.27589-.22383,12.73053,12.73053,0,0,1-8.2827-5.84035A15.17021,15.17021,0,0,1,381.15428,79.52793Z" fill="#445d7b"/><path d="M395.71964,241.13652V224.636c-9.54486.8784-19.12855,1.23478-28.34733,1.23478a436.636,436.636,0,0,1-64.22543-4.99949v20.266h17.64546v-2.53068a3.85334,3.85334,0,1,1,7.67205,0v2.53068h41.93914v-2.53068a3.85334,3.85334,0,1,1,7.67205,0v2.53068h17.64407Z" fill="#f8db94"/><path d="M294.42628,241.13652h2.58322v-5.283a20.1692,20.1692,0,0,1-3.42759-3.31924c-.98226-1.21415.64077-3.00927,1.62777-1.78995a18.79019,18.79019,0,0,0,1.80052,1.9107v-3.95836c-1.00036-1.60587-2.91266-4.00474-4.62613-4.33683a2.28926,2.28926,0,0,0-2.10314.80919c-1.37933,1.2635-1.21729,3.937-.99767,5.41845C290.06126,235.84177,293.2371,240.49005,294.42628,241.13652Z" fill="#bca877"/><path d="M407.90731,409.01842l.09306,4.76021a10.778,10.778,0,0,0,3.03052,7.17377,8.925,8.925,0,0,0,6.78755,2.75524c5.20065-.22088,9.269-5.03776,9.09421-10.75075l-.26315-3.93919H407.90731Z" fill="#f8db94"/><path d="M635.2076,435.2381v-8.92545h-13.255v8.92545Z" fill="#00a99d"/><path d="M677.52771,361.68745H663.59306v17.89063h13.93465Z" fill="#f4bb3a"/><path d="M596.84874,359.363V435.2381h16.11078V359.3578c-.0161,0-.02942.00517-.04553.00517Zm12.27468,51.97477a4.23874,4.23874,0,1,1-8.43939,0V379.06932a4.23874,4.23874,0,1,1,8.43939,0Z" fill="#39b54a"/><path d="M522.83871,388.28859c4.26122-2.70518,6.45676-7.66856,4.79352-10.83613a5.50861,5.50861,0,0,0-5.13166-2.65363,11.001,11.001,0,0,0-5.79854,1.801c-4.26122,2.70518-6.45676,7.66856-4.79352,10.83613C513.571,390.60351,518.57815,390.99373,522.83871,388.28859Zm-6.76074-3.78312a2.55847,2.55847,0,0,0,.99031-.25845,4.88027,4.88027,0,0,0,1.25681-.9042c.41783-.405.86979-.97341,1.4021-1.60441a10.00821,10.00821,0,0,1,1.81793-1.74872,4.49935,4.49935,0,0,1,2.03821-.80919,2.87037,2.87037,0,0,1,1.47979.19661,2.13159,2.13159,0,0,1,.47542.2798,2.80613,2.80613,0,0,0-.52429.06773,3.1768,3.1768,0,0,0-1.155.539,6.53088,6.53088,0,0,0-1.24206,1.21563c-.39908.49407-.82091,1.11771-1.36728,1.76346a6.90263,6.90263,0,0,1-1.92234,1.64639,3.69,3.69,0,0,1-2.05427.45947,2.28634,2.28634,0,0,1-1.26952-.50144,1.70167,1.70167,0,0,1-.25109-.26137l-.07434-.09864A2.045,2.045,0,0,0,516.078,384.50547Z" fill="#7f2e19"/><path d="M642.04,343.53248a1.89355,1.89355,0,0,1-.695-.13473V435.2381h16.11078V343.40067a1.89356,1.89356,0,0,1-.68495.13181ZM653.236,413.797h-7.86356V380.61338H653.236Zm0-40.91556h-7.86356V357.9073H653.236Z" fill="#999"/><path d="M677.52771,336.53762c0-.025.006-.04638.0067-.07141h-12.503a1.51618,1.51618,0,0,0-1.43822,1.58158v16.89076h13.93457Zm-2.61873,8.99763a1.63472,1.63472,0,0,1-1.53467-1.6876v-2.10878a1.5416,1.5416,0,1,1,3.06934,0v2.10878A1.64557,1.64557,0,0,1,674.909,345.53525Z" fill="#666"/><path d="M667.8121,416.0486a1.53714,1.53714,0,1,1,3.06869,0v19.1895h6.64692V386.3278H663.59306v48.9103h4.21969Q667.81178,425.64371,667.8121,416.0486Zm1.27892-10.40466c1.97793,0,1.97457,3.37448,0,3.37448C667.1131,409.01842,667.11645,405.64394,669.091,405.64394Z" fill="#666"/><path d="M621.95259,321.07529V419.5637h13.255V321.45742a1.51623,1.51623,0,0,0-1.43822-1.58158H621.63594A2.26826,2.26826,0,0,1,621.95259,321.07529Zm5.71088,8.92325a1.53714,1.53714,0,1,1,3.06869,0v29.52715a1.53714,1.53714,0,1,1-3.06869,0Zm1.27818,35.4323c1.97793,0,1.97457,3.37448,0,3.37448C626.96438,368.80532,626.96773,365.43084,628.94165,365.43084Zm0,7.03019c1.97793,0,1.97457,3.37448,0,3.37448C626.96438,375.83551,626.96773,372.461,628.94165,372.461Z" fill="gray"/><path d="M577.76032,337.27392v29.98514h12.95031V338.04851a1.51623,1.51623,0,0,0-1.43822-1.58158h-11.648A2.43519,2.43519,0,0,1,577.76032,337.27392Zm3.16914,7.41753c1.97793,0,1.97457,3.37448,0,3.37448C578.95153,348.06588,578.95489,344.69145,580.92946,344.69145Zm-1.53467,6.53832a1.5416,1.5416,0,1,1,3.06934,0v2.10878a1.5416,1.5416,0,1,1-3.06934,0Z" fill="#0071bc"/><path d="M590.71062,435.2381V398.64759H577.76032V435.2381Zm-4.98629-10.71835c-1.97793,0-1.97457-3.37448,0-3.37448C587.70225,421.14528,587.6989,424.51975,585.72433,424.51975Zm-1.27892-15.78262a1.53714,1.53714,0,1,1,3.06869,0v7.874a1.53714,1.53714,0,1,1-3.06869,0Z" fill="#0071bc"/><path d="M590.71062,391.89864V374.008H577.76032v17.89063Z" fill="#f4bb3a"/><rect x="496.75456" y="426.31265" width="46.03092" height="8.92545" fill="#85402a"/><path d="M112.34541,309.67071a3.6408,3.6408,0,0,0-3.45236-3.79637,3.379,3.379,0,0,0-2.85844,1.67065,2.6223,2.6223,0,0,1,.67628-.09132c3.12492,0,3.40683,4.81171.87782,5.72768a3.15882,3.15882,0,0,0,1.30434.28569A3.64074,3.64074,0,0,0,112.34541,309.67071Z" fill="#f09b36"/><path d="M598.57418,91.53552H476.97649v77.32931H598.57418ZM500.08905,150.0251H485.76873V134.27783h14.32032Zm20.55141,0H506.32014V134.27783h14.32032Zm20.5521,0H526.87225V134.27783h14.32032ZM561.744,161.71537H547.42366V145.9681H561.744Zm0-21.44626H547.42366V124.52184H561.744Zm20.92433,21.44626H568.348V145.9681h14.32028Zm0-21.44626H568.348V124.52184h14.32028Zm7.11429-21.447H485.76873V99.67829H589.78194v19.14384Z" fill="#fff"/><path d="M124.15881,347.32814H120.456l14.39664,40.59967h3.70545Z" fill="#f09b36"/><path d="M41.60228,435.2381H79.13089V414.64229H41.64982v20.06862A3.54135,3.54135,0,0,1,41.60228,435.2381Zm16.55939-12.01865h14.704c2.47208,0,2.46807,4.21827,0,4.21827h-14.704C55.68889,427.437,55.69292,423.21945,58.16167,423.21945Zm-6.77683,0c2.47209,0,2.46806,4.21827,0,4.21827C48.91209,427.437,48.9161,423.21945,51.38484,423.21945Zm-7.79993,0c2.47209,0,2.46807,4.21827,0,4.21827C41.11282,427.437,41.11684,423.21945,43.58491,423.21945Z" fill="#a17a94"/><path d="M120.85108,338.00285q-1.86211-.03094-3.72486-.0626l1.94513,5.48617h3.70278Z" fill="#31b78d"/><path d="M114.1305,319.05343l-3.21265,1.37836,5.30576,14.96237q1.86211.03094,3.72421.0626Z" fill="#31b78d"/><path d="M170.777,428.70271h-32.0722c-1.07669.60449-3.50056,3.18892-6.21437,6.53539h44.50027C174.27752,431.89162,171.85364,429.3072,170.777,428.70271Z" fill="#4ac6e0"/><path d="M150.626,421.95375,139.456,390.45844h-3.70613l11.16791,31.49531Z" fill="#31b78d"/><polygon points="45.765 363.743 49.051 363.743 46.493 340.951 43.256 341.391 45.765 363.743" fill="#f4bb3a"/><polygon points="41.858 328.842 45.094 328.403 45.94 335.937 42.703 336.377 41.858 328.842" fill="#ca6a4f"/><path d="M79.13089,409.58093v-15.748H41.64982v15.748Z" fill="#895881"/><polygon points="73.813 350.625 64.181 348.807 61.849 363.743 71.763 363.743 73.813 350.625" fill="#bec0c2"/><path d="M75.56872,339.3871a2.20975,2.20975,0,0,0-1.64583-2.5616l-5.66331-1.06176a1.8498,1.8498,0,0,0-1.50388.37184,2.22226,2.22226,0,0,0-.81957,1.42991l-.97625,6.252,9.63257,1.81792Z" fill="#c2ce2f"/><path d="M471.60645,180.39534H603.94488a5.86576,5.86576,0,0,0,5.5622-6.11646V86.12078a5.86578,5.86578,0,0,0-5.5622-6.11646H471.60645a5.86579,5.86579,0,0,0-5.5622,6.11646v88.15884A5.86515,5.86515,0,0,0,471.60645,180.39534Zm-.76734-91.17988a4.2475,4.2475,0,0,1,4.02753-4.42886H600.684a4.24749,4.24749,0,0,1,4.02753,4.42886v81.96949a4.2475,4.2475,0,0,1-4.02753,4.42886H474.8673a4.24751,4.24751,0,0,1-4.02753-4.42886V89.21545Z" fill="#7989a3"/><path d="M690.51954,446.24653H356.97707v9.23837H692.63879a.10624.10624,0,0,0,.09236-.1097V444.89837A2.39672,2.39672,0,0,1,690.51954,446.24653Z" fill="#b55232"/><path d="M41.64982,388.77085H79.13089V372.32041A1.75241,1.75241,0,0,0,77.469,370.4922H41.65049Q41.64948,379.6315,41.64982,388.77085Z" fill="#a17a94"/><path d="M285.59182,409.01842l2.42052,8.29957a9.775,9.775,0,0,0,7.59706,7.09647h2.831a8.73247,8.73247,0,0,0,1.47709-.36963c4.96627-1.748,7.70953-7.6185,6.11727-13.08629l-.56647-1.94016H285.59182Z" fill="#f8db94"/><path d="M180.18925,225.15951l-1.83,3.0159q.72817.50585,1.457,1.01241c1.25011.86883.0944,3.05785-1.16171,2.18533q-.78641-.5467-1.57284-1.09268l-4.22037,6.95363-8.65366,14.25847a84.66285,84.66285,0,0,0,6.83775,8.71192l2.47745-4.08206a1.50338,1.50338,0,0,1-.233-.16936q-1.05458-.94873-2.10985-1.89819a1.36777,1.36777,0,0,1,0-1.78995,1.1085,1.1085,0,0,1,1.62775,0q.98831.88908,1.97727,1.77889l15.20147-25.04528A101.99554,101.99554,0,0,0,180.18925,225.15951Z" fill="#f09b36"/><path d="M356.97707,424.34453V435.2381H374.739l-8.5425-26.21968H335.72861a209.589,209.589,0,0,1-7.71088,26.21968h13.871V424.34453c0-4.57465,3.38407-8.29593,7.54418-8.29593C353.593,416.04788,356.97707,419.76912,356.97707,424.34453Z" fill="#60718d"/><path d="M318.93623,431.16341H298.85284a12.67479,12.67479,0,0,1-3.63581,0H256.60437v4.07469h61.00406Z" fill="#60718d"/><path d="M131.12041,275.97166l1.90361-3.01149a19.93262,19.93262,0,0,1-2.54039-2.60281l-2.20225,3.48714q1.25749.89353,2.51428,1.787A1.24894,1.24894,0,0,1,131.12041,275.97166Z" fill="#f09b36"/><path d="M145.62619,220.174c1.63713,7.0501,5.48186,18.51429,14.09732,26.54734l14.21719-23.42395A97.47029,97.47029,0,0,0,145.62619,220.174Zm8.97907,11.08575a22.60085,22.60085,0,0,1-3.75633-7.04715,1.16032,1.16032,0,1,1,2.219-.673,19.15011,19.15011,0,0,0,3.16444,5.9309C157.19988,230.69577,155.57749,232.49235,154.60526,231.25977Zm3.291,3.76029c-1.48312,0-1.48111-2.53068,0-2.53068C159.38,232.4894,159.37736,235.02006,157.89625,235.02006Z" fill="#31b78d"/><path d="M341.39863,446.24653H6.13665v9.12867a.10621.10621,0,0,0,.0924.1097h335.661v-9.29212A2.68763,2.68763,0,0,1,341.39863,446.24653Z" fill="#b55232"/><path d="M150.245,245.71189c-.23971-.321-.46669-.64647-.697-.97118l-1.96722-1.45494-14.94235,23.66031a34.7515,34.7515,0,0,1,2.26786,3.03576Z" fill="#31b78d"/><path d="M129.87032,277.94939a1.17715,1.17715,0,0,1-.23636-.13253q-1.33279-.94651-2.66494-1.89378l-15.00864,23.76487a9.355,9.355,0,0,1,3.01176,1.83415Z" fill="#f09b36"/><path d="M349.43359,422.79679a1.48313,1.48313,0,0,0-1.4068,1.547v47.52384a1.41277,1.41277,0,1,0,2.8129,0V424.34377A1.483,1.483,0,0,0,349.43359,422.79679Z" fill="#ca6a4f"/><path d="M485.76873,118.82213H589.78194V99.67829H485.76873Zm45.45578-9.80165c2.58927,0,2.58526,4.41781,0,4.41781C528.63525,113.43828,528.63925,109.02047,531.22452,109.02047Zm-32.47462.7363H520.846c2.58927,0,2.58526,4.41781,0,4.41781H498.74989C496.16062,114.17458,496.16463,109.75678,498.74989,109.75678Z" fill="#0071bc"/><rect x="485.76873" y="134.27783" width="14.32032" height="15.74727" fill="#999"/><rect x="506.32084" y="134.27783" width="14.32032" height="15.74727" fill="#445d7b"/><rect x="526.87225" y="134.27783" width="14.32032" height="15.74727" fill="#445d7b"/><rect x="547.42366" y="124.52184" width="14.32032" height="15.74727" fill="#ef4d4e"/><rect x="568.34803" y="124.52184" width="14.32028" height="15.74727" fill="#60718d"/><rect x="547.42366" y="145.96808" width="14.32032" height="15.74727" fill="#ef4d4e"/><rect x="568.34803" y="145.96808" width="14.32028" height="15.74727" fill="#60718d"/><path d="M41.64982,434.71091V414.64229H38.21487V435.2381h3.38741A3.54135,3.54135,0,0,0,41.64982,434.71091Z" fill="#fff"/><path d="M41.64982,393.83292H38.21487v15.748h3.43495Z" fill="#fff"/><path d="M39.87677,370.49215a1.75241,1.75241,0,0,0-1.66189,1.82822V388.7708h3.43495V370.49211H39.87677Z" fill="#fff"/><path d="M341.39863,446.24653a2.67321,2.67321,0,0,0,.49078-.05375v-4.20574H6.22837a.09758.09758,0,0,0-.0924.10161v4.15787H341.39863Z" fill="#fff"/><path d="M690.51954,446.24653a2.39591,2.39591,0,0,0,2.211-1.34816V442.0879a.09759.09759,0,0,0-.09236-.10161H356.97707v4.25948H617.15837Q653.839,446.24692,690.51954,446.24653Z" fill="#fff"/><path d="M272.87851,269.28828h54.45894c3.447,0,3.45236-5.89041,0-5.89041H272.87851C269.4315,263.39786,269.42549,269.28828,272.87851,269.28828Z" fill="#fff"/><path d="M344.29992,269.28828c3.447,0,3.45236-5.89041,0-5.89041C340.85357,263.39786,340.84756,269.28828,344.29992,269.28828Z" fill="#fff"/><path d="M354.12064,269.28828c3.447,0,3.45236-5.89041,0-5.89041C350.67364,263.39786,350.66829,269.28828,354.12064,269.28828Z" fill="#fff"/><path d="M307.11078,198.5157a17.98956,17.98956,0,0,1,4.0563-7.87621c2.41182-2.71181-1.372-6.88074-3.7878-4.16527a24.22657,24.22657,0,0,0-5.43363,10.47535C301.05914,200.61711,306.22427,202.18175,307.11078,198.5157Z" fill="#fff"/><path d="M332.69409,182.65062c3.447,0,3.45236-5.89041,0-5.89041C329.24708,176.76021,329.24173,182.65062,332.69409,182.65062Z" fill="#fff"/><path d="M348.42922,174.91945c3.447,0,3.45236-5.89041,0-5.89041C344.98221,169.029,344.97686,174.91945,348.42922,174.91945Z" fill="#fff"/><path d="M343.40737,188.541c3.447,0,3.45236-5.89041,0-5.89041C339.96036,182.65062,339.955,188.541,343.40737,188.541Z" fill="#fff"/><path d="M426.88187,398.38694H243.86294c-2.09579,0-2.91135,2.175-2.4587,3.88253h187.935C429.79388,400.562,428.981,398.38694,426.88187,398.38694Z" fill="#fff"/><path d="M332.67,409.01842l-8.54184,26.21968h3.89026a209.80981,209.80981,0,0,0,7.71088-26.21968Z" fill="#fff"/><path d="M191.45559,226.57542a73.34862,73.34862,0,0,0-9.93991-3.60124l-1.32643,2.18533a102.19287,102.19287,0,0,1,9.796,3.83761Z" fill="#fff"/><path d="M173.94005,223.29741l1.84938-3.04682c-11.93192-6.72612-25.34828-4.7727-30.86831-3.52246.16874.95941.3984,2.1257.7044,3.44663A97.43941,97.43941,0,0,1,173.94005,223.29741Z" fill="#fff"/><path d="M106.71089,307.45371a2.62255,2.62255,0,0,0-.67628.09132,4.04417,4.04417,0,0,0-.59391,2.12572,3.81593,3.81593,0,0,0,2.148,3.51069C110.11772,312.26547,109.83581,307.45371,106.71089,307.45371Z" fill="#fff"/><path d="M297.61679,47.52532A29.34793,29.34793,0,0,1,308.62,31.98273c2.16473-1.5374.15268-5.36322-2.0275-3.81478a34.18773,34.18773,0,0,0-12.84924,18.18223A2.02579,2.02579,0,1,0,297.61679,47.52532Z" fill="#fff"/><path d="M317.07078,29.9903c2.58526,0,2.58927-4.41781,0-4.41781C314.48555,25.57249,314.48151,29.9903,317.07078,29.9903Z" fill="#fff"/><path d="M328.45363,75.641c-2.58526,0-2.58927,4.41781,0,4.41781C331.0382,80.05879,331.0429,75.641,328.45363,75.641Z" fill="#fff"/><path d="M407.60334,72.9417c2.58526,0,2.58927-4.41781,0-4.41781C405.01807,68.5239,405.01407,72.9417,407.60334,72.9417Z" fill="#fff"/><path d="M498.74989,114.17458H520.846c2.58526,0,2.58927-4.41781,0-4.41781H498.74989C496.16463,109.75678,496.16062,114.17458,498.74989,114.17458Z" fill="#fff"/><path d="M531.22452,113.43828c2.58526,0,2.58927-4.41781,0-4.41781C528.63925,109.02047,528.63525,113.43828,531.22452,113.43828Z" fill="#fff"/><path d="M499.05657,351.40135a1.77058,1.77058,0,0,0,1.36728.5986h40.06028v-3.86338H499.10074c-.01471.01546-.03012.0302-.04418.04566Z" fill="#fff"/><path d="M577.62439,336.46621h-1.58625a1.51618,1.51618,0,0,0-1.43822,1.58158v29.21055h3.1604V337.2732A2.44171,2.44171,0,0,0,577.62439,336.46621Z" fill="#fff"/><path d="M577.76032,398.64759h-3.15974V435.2381h3.15974Z" fill="#fff"/><path d="M577.76032,374.008h-3.15974v17.89063h3.15974Z" fill="#fff"/><path d="M612.91326,359.363c.0161,0,.02942-.0044.04553-.00517V356.889a1.51623,1.51623,0,0,0-1.43822-1.58158H598.287a1.51618,1.51618,0,0,0-1.43822,1.58158v2.474Q604.88063,359.363,612.91326,359.363Z" fill="#fff"/><path d="M621.95259,426.31265h-2.85577v8.92545h2.85577Z" fill="#fff"/><path d="M621.63521,319.87511h-1.10082a1.51618,1.51618,0,0,0-1.43822,1.58158v98.107h2.85642V321.07533A2.2662,2.2662,0,0,0,621.63521,319.87511Z" fill="#fff"/><path d="M642.04,343.53248h14.73076a1.89632,1.89632,0,0,0,.68495-.13181V342.266a1.51623,1.51623,0,0,0-1.43822-1.58158h-13.2336a1.51618,1.51618,0,0,0-1.43822,1.58158v1.131A1.87182,1.87182,0,0,0,642.04,343.53248Z" fill="#fff"/><path d="M679.70385,379.57885V361.68822h-2.17613v17.89063Z" fill="#fff"/><path d="M677.52771,354.93855h2.17613V338.04779a1.51623,1.51623,0,0,0-1.43822-1.58158h-.73121c-.00065.025-.0067.04566-.0067.07141Z" fill="#fff"/><path d="M679.70385,435.2381V386.3278h-2.17613v48.9103Z" fill="#fff"/><path d="M409.91875,327.9472h24.55148c2.58526,0,2.58927-4.41781,0-4.41781H409.91875C407.33418,323.52939,407.32948,327.9472,409.91875,327.9472Z" fill="#fff"/><path d="M448.75438,321.56568c-2.58526,0-2.58927,4.41781,0,4.41781C451.3396,325.98349,451.34365,321.56568,448.75438,321.56568Z" fill="#fff"/><path d="M692.63879,435.2381h-6.79756V338.04851c0-4.59379-3.39809-8.33053-7.5756-8.33053H665.032a7.54156,7.54156,0,0,0-6.76143,4.59451,6.91768,6.91768,0,0,0-2.25248-.37624h-13.2336a6.88135,6.88135,0,0,0-1.43822.15536V321.45742c0-4.59379-3.39809-8.33053-7.5756-8.33053h-13.2336c-4.17752,0-7.5756,3.73674-7.5756,8.33053v27.25641a6.93326,6.93326,0,0,0-1.43822-.15464h-13.2336a6.92961,6.92961,0,0,0-1.43822.15464v-10.6646c0-4.59379-3.39809-8.33053-7.5756-8.33053h-13.2336c-4.17752,0-7.5756,3.73674-7.5756,8.33053v97.18959H548.92694V422.93889a3.32378,3.32378,0,0,0-2.30135-3.2552V411.9194c9.76919-1.26866,12.46692-8.57056,12.46692-12.60179V364.93969c0-5.75348-5.74231-8.29957-6.39783-8.57128a2.81652,2.81652,0,0,0-1.08206-.21648h-4.98638V344.76281a3.23261,3.23261,0,0,0-3.06869-3.37448H495.99262a3.23261,3.23261,0,0,0-3.06869,3.37448V419.683a3.32374,3.32374,0,0,0-2.30135,3.2552v12.29993H448.40422V427.789a3.23261,3.23261,0,0,0-3.06869-3.37448H429.31785a18.15646,18.15646,0,0,0,3.73157-11.77273c-.00135-.03977-.004-.07806-.006-.11707l-.23434-3.50628h26.84748c7.05,0,12.78561-6.30714,12.78561-14.06042V255.19766c0-7.75325-5.73561-14.06042-12.78561-14.06042H412.37483a31.59562,31.59562,0,0,0,2.209-5.04956c1.96456-5.96773,1.6773-11.1395-.72716-14.56773,8.07448-8.56687,7.96266-24.39587,7.95191-25.14763a3.26484,3.26484,0,0,0-2.77272-3.306,24.61443,24.61443,0,0,1-6.76274-1.61987c4.59531-7.51543,6.01886-18.73151,6.18691-20.18571a3.50727,3.50727,0,0,0-1.36057-3.24709,2.83522,2.83522,0,0,0-3.25014-.08026c-3.93713,2.57117-9.21007,3.10865-13.1358,3.08879,3.56752-7.37847,4.14736-17.67418,4.21369-19.14384a3.48158,3.48158,0,0,0-1.40545-3.0041,2.8332,2.8332,0,0,0-3.06934-.1583c-9.55422,5.43465-23.87254,9.23617-32.31123,11.15791,4.16612-11.15791-.83563-23.05948-1.09677-23.6662a3.07351,3.07351,0,0,0-2.66491-1.92765,3.02168,3.02168,0,0,0-2.78278,1.71631c-7.51136,14.662-28.91446,25.77792-37.85,29.91225a31.37367,31.37367,0,0,0-6.83708-15.02349,2.883,2.883,0,0,0-3.15974-.92112,3.30129,3.30129,0,0,0-2.12256,2.73316c-.71445,5.37573-4.51631,11.03275-7.3145,14.821A115.26158,115.26158,0,0,0,293.4582,184.565c-5.83872,11.73591-6.677,24.63224-6.57863,34.96917-.1741.14136-.34885.29083-.5236.45136-3.59564,3.29569-4.34692,9.16474-2.06232,16.10365a31.64046,31.64046,0,0,0,2.20826,5.04881h-47.281c-7.0507,0-12.7863,6.30717-12.7863,14.06042V394.95872c0,7.75328,5.73561,14.06042,12.7863,14.06042h39.9304l3.02247,10.36269a17.75327,17.75327,0,0,0,2.36764,5.03336h-31.005a3.23261,3.23261,0,0,0-3.06869,3.37448v7.44916H185.05108c-9.735-13.28363-12.88741-13.28434-13.94534-13.28434H157.21331L118.73323,313.459a3.41427,3.41427,0,0,0-.59258-1.03745,10.98114,10.98114,0,0,0,.21025-4.41709l36.21089-57.2953a42.59071,42.59071,0,0,0,3.68537,3.29569c1.47106,2.20448,7.31985,10.74264,11.7538,13.99782a2.87649,2.87649,0,0,0,1.70342.56769,2.80794,2.80794,0,0,0,.59994-.0648,3.07645,3.07645,0,0,0,1.95248-1.4358l24.19527-39.86483a3.655,3.655,0,0,0,.45733-2.53362,3.40685,3.40685,0,0,0-1.30634-2.147c-4.43462-3.25372-13.85093-5.91765-16.26543-6.56559-18.25275-12.35365-39.86679-5.31536-40.78679-5.00612a3.38511,3.38511,0,0,0-2.15738,3.55487,70.32024,70.32024,0,0,0,6.211,21.75918,3.33943,3.33943,0,0,0-.34215.441l-40.43391,64.02508a11.08617,11.08617,0,0,0,.06226,17.91863,3.64823,3.64823,0,0,0,.19418,1.089l36.245,102.21409h-1.95451c-1.05727,0-4.21031.00148-13.94534,13.28434H85.26766V372.32109c0-4.73-3.49856-8.57717-7.79927-8.57717H76.43322l3.67131-23.49612c.622-3.951-1.79849-7.72379-5.40217-8.41L69.03905,330.776a6.10141,6.10141,0,0,0-4.94083,1.22669,7.32826,7.32826,0,0,0-2.69908,4.71086l-4.21969,27.03036H52.91623l-4.26121-37.963a2.16387,2.16387,0,0,0-.72449-1.40488,1.78129,1.78129,0,0,0-1.41549-.42927l-7.04264.96235a2.07753,2.07753,0,0,0-1.66726,2.351L41.901,363.74388H39.8775c-4.30071,0-7.79926,3.84716-7.79926,8.57717v62.91769H6.22977C2.79482,435.23873,0,438.31206,0,442.08929V455.3766c0,3.78163,2.79482,6.85865,6.22977,6.85865H341.89084V471.869c0,4.57389,3.38407,8.29517,7.54418,8.29517,4.15941,0,7.54348-3.72128,7.54348-8.29517v-9.63515H692.64018c3.43495,0,6.22974-3.077,6.22974-6.85865V442.08866C698.86788,438.31067,696.07374,435.2381,692.63879,435.2381ZM546.6215,362.8994h4.34156c.987.54486,1.988,1.45786,1.988,2.03881v34.37792c0,.21648-.08235,4.68435-6.32954,5.79689ZM38.21488,393.83292h40.916v15.748h-40.916v-15.748Zm0,20.80937h40.916V435.2381h-40.916V414.64229Zm261.70192,9.40182a8.66033,8.66033,0,0,1-1.47709.36963h-2.831a9.77509,9.77509,0,0,1-7.59706-7.09647l-2.42052-8.29957H305.4676l.56647,1.94016C307.627,416.42633,304.88376,422.29611,299.9168,424.04411Zm11.9915-15.02569h14.24263l-5.01584,15.396H309.49378A18.53888,18.53888,0,0,0,311.9083,409.01842Zm115.005,3.93848c.17475,5.71222-3.89361,10.52987-9.09421,10.75075a8.91967,8.91967,0,0,1-6.78755-2.75524,10.7781,10.7781,0,0,1-3.03052-7.17377l-.09306-4.76021h18.74288Zm-25.14472-3.93848.0971,4.96707a18.02156,18.02156,0,0,0,3.71015,10.429h-27.8438l-5.01584-15.396ZM574.60057,374.008h16.11v17.89063h-16.11Zm0,24.63958h16.11V435.2381h-16.11ZM598.287,355.30742h13.2336a1.51618,1.51618,0,0,1,1.43822,1.58158v78.3491H596.848V356.889A1.51724,1.51724,0,0,1,598.287,355.30742Zm20.80986,71.00523H635.2076v8.92545H619.09682Zm23.68639-85.62816h13.2336a1.51618,1.51618,0,0,1,1.43822,1.58158v92.972H641.34425V342.26679A1.5175,1.5175,0,0,1,642.78321,340.68448Zm20.80986,1.58158v-4.21827a1.51623,1.51623,0,0,1,1.43822-1.58158h13.23426a1.51618,1.51618,0,0,1,1.43822,1.58158v16.89076h-16.1107Zm0,19.42139h16.11078v17.89063H663.59306Zm0,24.64035h16.11078v48.9103h-8.82305V416.0486a1.53714,1.53714,0,1,0-3.06869,0v19.1895h-4.21969V386.3278ZM635.2076,321.4567V419.563H619.09682v-98.107a1.51623,1.51623,0,0,1,1.43822-1.58158H633.7693A1.51786,1.51786,0,0,1,635.2076,321.4567Zm-44.497,16.59181v29.21055h-16.11V338.04851a1.51623,1.51623,0,0,1,1.43822-1.58158h13.23426A1.51563,1.51563,0,0,1,590.71062,338.04851Zm-91.60988,10.08806h41.38338v5.48325H520.66523c-1.97457,0-1.97793,3.37448,0,3.37448h19.81889V419.563H499.05657v-7.874h15.5992c1.97457,0,1.97793-3.37448,0-3.37448h-15.5992V348.13581h.04418Zm-2.34619,78.17608h46.03092v8.92545H496.75456Zm-54.49241,4.85076v4.07469H381.25808l-1.32776-4.07469ZM298.83678,187.80179A109.13658,109.13658,0,0,1,309.07129,171.771a55.50032,55.50032,0,0,0,6.63822-11.08575,18.59442,18.59442,0,0,1,2.04086,9.70225,3.54981,3.54981,0,0,0,1.11618,3.074,2.84989,2.84989,0,0,0,2.96893.5456c1.26282-.50216,28.21811-11.37292,41.33851-28.75256.83763,4.90671.85573,11.79923-3.692,17.07041a3.63491,3.63491,0,0,0-.48678,3.89873,2.98883,2.98883,0,0,0,3.20327,1.75534c.94143-.16787,20.9833-3.78386,36.00463-10.69037-.84433,5.53552-2.5645,11.73516-5.29906,13.90063a3.54922,3.54922,0,0,0-1.19453,3.51143,3.207,3.207,0,0,0,2.49286,2.55791c.4473.07952,9.05474,1.56907,17.10845-.91669-1.09612,4.81688-3.01176,10.74558-5.90169,13.65838a3.60334,3.60334,0,0,0,.09105,5.06427c.3656.34018,3.42559,3.02767,10.043,4.29263-.3562,4.74178-1.74559,14.08325-7.12234,18.39576a7.434,7.434,0,0,0-3.02651-.03314,9.44966,9.44966,0,0,0-3.53871,1.57053v-7.21575h-6.13738v5.79249c-40.57587,3.81846-82.01618-2.11981-92.57277-3.81329V212.0747h-6.13738v7.215a9.45878,9.45878,0,0,0-3.5374-1.56979c-.14864-.02946-.30667-.05375-.468-.0751C293.01948,208.134,293.99169,197.54158,298.83678,187.80179Zm104.82341,43.72232a7.76076,7.76076,0,0,1-1.80317,2.21039v-5.03778c1.001-1.60587,2.91266-4.00474,4.62678-4.33608a2.29123,2.29123,0,0,1,2.10384.80919c1.37868,1.26275,1.21664,3.93627.997,5.41771-.77874,5.25424-3.9552,9.90326-5.14437,10.54973h-2.58391V236.757a10.013,10.013,0,0,0,3.7905-3.95468C406.41016,231.40041,404.42083,230.1266,403.66019,231.52411Zm-29.42134,2.86346a4.04083,4.04083,0,0,0-3.836,4.21827v2.53068H328.46369v-2.53068a3.85334,3.85334,0,1,0-7.67205,0v2.53068H303.14618v-20.266a436.52262,436.52262,0,0,0,64.22543,4.99949c9.21878,0,18.80247-.35563,28.34733-1.23478V241.1358H378.07419v-2.53068A4.03962,4.03962,0,0,0,374.23885,234.38757Zm-83.95928-9.21774a2.29159,2.29159,0,0,1,2.10314-.80919c1.71347.33206,3.62576,2.73021,4.62612,4.33683v3.95836a18.95141,18.95141,0,0,1-1.80052-1.9107c-.98631-1.21932-2.60933.5758-1.62777,1.78995a20.16769,20.16769,0,0,0,3.42759,3.31924v5.283h-2.58322c-1.18917-.64647-4.365-5.29475-5.14372-10.54825C289.06293,229.10682,288.9002,226.43332,290.27957,225.16982ZM232.56644,394.95723V255.19766c0-4.032,2.983-7.31147,6.64892-7.31147H459.65107c3.66593,0,6.64827,3.27949,6.64827,7.31147V394.958c0,4.032-2.98229,7.31147-6.64827,7.31147H239.2154C235.54943,402.26947,232.56644,398.98923,232.56644,394.95723ZM256.605,431.16341h38.61266a12.67479,12.67479,0,0,0,3.63581,0h20.08339l-1.3271,4.07469H256.60572v-4.07469ZM145.62619,220.174c-.30667-1.32093-.53633-2.48722-.7044-3.44663,5.52-1.2495,18.93572-3.20292,30.86831,3.52246l-1.84938,3.04682-14.21719,23.42395C151.10872,238.68831,147.26332,227.22411,145.62619,220.174Zm27.18094,32.08949a1.1085,1.1085,0,0,0-1.62775,0,1.36777,1.36777,0,0,0,0,1.78995q1.05458.94873,2.10985,1.89819a1.45851,1.45851,0,0,0,.233.16936l-2.47745,4.08206a84.66285,84.66285,0,0,1-6.83775-8.71192l8.65366-14.25847,4.22037-6.95363q.78641.5467,1.57284,1.09268c1.25546.87252,2.41182-1.3165,1.16171-2.18533q-.72817-.50585-1.457-1.01241l1.83-3.0159,1.32643-2.18533a73.41438,73.41438,0,0,1,9.93991,3.60124l-1.46973,2.4217L174.78371,254.041Q173.79543,253.154,172.80713,252.26351ZM147.58,243.28579l1.96722,1.45494c.23033.32472.45733.65015.697.97118l-15.33873,24.27071a34.63676,34.63676,0,0,0-2.26786-3.03576Zm-17.09638,27.07157a19.97769,19.97769,0,0,0,2.54039,2.60281l-1.90361,3.01149a1.24977,1.24977,0,0,0-.32474-.34015q-1.25749-.89353-2.51428-1.787Zm-3.51462,5.56572q1.33279.94651,2.66494,1.89378a1.21216,1.21216,0,0,0,.23636.13253l-14.89815,23.5727a9.38942,9.38942,0,0,0-3.01176-1.83415ZM107.58871,313.1814a3.81593,3.81593,0,0,1-2.148-3.51069,4.04441,4.04441,0,0,1,.59391-2.12572,3.37894,3.37894,0,0,1,2.85844-1.67065,3.81351,3.81351,0,0,1,0,7.59275A3.15882,3.15882,0,0,1,107.58871,313.1814Zm3.32914,7.25035,3.21265-1.37836,5.818,16.40333q-1.86211-.03094-3.72421-.0626Zm6.209,17.50855q1.86211.03094,3.72486.0626l1.92369,5.42362h-3.70278Zm3.32849,9.38784h3.70278l14.39932,40.59967H134.852Zm15.29453,43.1303H139.456L150.626,421.95375h-3.70813Zm2.95487,38.24426H170.777c1.07669.60449,3.50056,3.18892,6.21437,6.53539H132.49106C135.20418,431.89162,137.62808,429.3072,138.70476,428.70271ZM65.93616,337.56549a2.22237,2.22237,0,0,1,.81957-1.42991,1.85559,1.85559,0,0,1,1.50388-.37184l5.66331,1.06176a2.20933,2.20933,0,0,1,1.64583,2.5616l-.97625,6.24827-9.63257-1.81792Zm-1.755,11.24114,9.63191,1.81792L71.76351,363.744H61.849Zm-15.1305,14.93662H45.76506l-2.50891-22.35262,3.23607-.43956Zm-7.204-34.9088,3.23607-.44253.84568,7.53532-3.23608.43956ZM77.469,370.49215a1.75241,1.75241,0,0,1,1.66189,1.82822V388.7708h-40.916V372.32037a1.75241,1.75241,0,0,1,1.66189-1.82822H77.469ZM6.22838,455.48491a.10624.10624,0,0,1-.0924-.1097V442.08866a.09758.09758,0,0,1,.0924-.10161H341.88945v13.49786Zm335.661-31.14037V435.2381H324.12813L332.67,409.01842H366.1965l8.5425,26.21968H356.97707V424.34453c0-4.57465-3.38407-8.29593-7.54348-8.29593C345.27348,416.04788,341.88941,419.76912,341.88941,424.34453Zm8.95028,47.52384a1.41277,1.41277,0,1,1-2.8129,0V424.34453a1.41283,1.41283,0,1,1,2.8129,0Zm341.7991-16.38347H356.97707V441.98705H692.6383a.09753.09753,0,0,1,.09236.10161V455.376A.10623.10623,0,0,1,692.63879,455.48491Z" fill="#0d0e1f"/><path d="M349.43359,349.26165c12.12678,0,21.993-10.84939,21.993-24.18456s-9.86625-24.1838-21.993-24.1838-21.99233,10.84939-21.99233,24.1838C327.44125,338.41226,337.30681,349.26165,349.43359,349.26165Zm0-41.61946c8.74271,0,15.855,7.82172,15.855,17.43489,0,9.61389-7.11294,17.43489-15.855,17.43489-8.74271,0-15.855-7.82172-15.855-17.43489S340.69088,307.64219,349.43359,307.64219Z" fill="#0d0e1f"/><path d="M434.78225,266.4454H450.893a4.025,4.025,0,0,0,0-8.01388H434.78225a4.025,4.025,0,0,0,0,8.01388Z" fill="#0d0e1f"/><path d="M249.18877,378.36618v-70.302a2.30586,2.30586,0,1,0-4.60336,0v70.302A2.30588,2.30588,0,1,0,249.18877,378.36618Z" fill="#0d0e1f"/><path d="M246.88741,293.72244c2.96153,0,2.96693-5.06207,0-5.06207C243.92523,288.66108,243.92053,293.72244,246.88741,293.72244Z" fill="#0d0e1f"/><path d="M246.88741,280.7871c2.96153,0,2.96693-5.06207,0-5.06207C243.92523,275.725,243.92053,280.7871,246.88741,280.7871Z" fill="#0d0e1f"/><path d="M246.88741,267.85174c2.96153,0,2.96693-5.06207,0-5.06207C243.92523,262.78966,243.92053,267.85174,246.88741,267.85174Z" fill="#0d0e1f"/><path d="M384.468,384.83385h56.771c2.96153,0,2.96693-5.06207,0-5.06207H384.468C381.50578,379.7725,381.50112,384.83385,384.468,384.83385Z" fill="#0d0e1f"/><path d="M450.445,379.21c-2.96153,0-2.96693,5.06207,0,5.06207C453.40727,384.27205,453.412,379.21,450.445,379.21Z" fill="#0d0e1f"/><path d="M43.58491,427.437c2.46807,0,2.47209-4.21827,0-4.21827C41.11684,423.21945,41.11282,427.437,43.58491,427.437Z" fill="#0d0e1f"/><path d="M51.38484,427.437c2.46806,0,2.47209-4.21827,0-4.21827C48.9161,423.21945,48.91209,427.437,51.38484,427.437Z" fill="#0d0e1f"/><path d="M58.16167,427.437h14.704c2.46807,0,2.47208-4.21827,0-4.21827h-14.704C55.69292,423.21945,55.68889,427.437,58.16167,427.437Z" fill="#0d0e1f"/><path d="M153.06791,223.53966a1.16032,1.16032,0,1,0-2.219.673,22.59357,22.59357,0,0,0,3.75633,7.04715c.9729,1.23184,2.59462-.564,1.62775-1.78995A19.11246,19.11246,0,0,1,153.06791,223.53966Z" fill="#0d0e1f"/><path d="M157.89625,232.4894c-1.48111,0-1.48312,2.53068,0,2.53068C159.37736,235.02006,159.38,232.4894,157.89625,232.4894Z" fill="#0d0e1f"/><path d="M604.90372,374.42915a4.44493,4.44493,0,0,0-4.21969,4.64017v32.26842a4.23874,4.23874,0,1,0,8.43939,0V379.06932A4.44541,4.44541,0,0,0,604.90372,374.42915Z" fill="#0d0e1f"/><rect x="645.37252" y="357.9073" width="7.86356" height="14.97414" fill="#0d0e1f"/><rect x="645.37252" y="380.61338" width="7.86356" height="33.18363" fill="#0d0e1f"/><path d="M630.73216,359.52569V329.99854a1.53714,1.53714,0,1,0-3.06869,0v29.52715A1.53713,1.53713,0,1,0,630.73216,359.52569Z" fill="#0d0e1f"/><path d="M628.94165,368.80532c1.97457,0,1.97793-3.37448,0-3.37448C626.96773,365.43084,626.96438,368.80532,628.94165,368.80532Z" fill="#0d0e1f"/><path d="M628.94165,375.83551c1.97457,0,1.97793-3.37448,0-3.37448C626.96773,372.461,626.96438,375.83551,628.94165,375.83551Z" fill="#0d0e1f"/><path d="M669.091,409.01842c1.97457,0,1.97793-3.37448,0-3.37448C667.11645,405.64394,667.1131,409.01842,669.091,409.01842Z" fill="#0d0e1f"/><path d="M587.5141,416.6104v-7.874a1.53714,1.53714,0,1,0-3.06869,0v7.874A1.53715,1.53715,0,1,0,587.5141,416.6104Z" fill="#0d0e1f"/><path d="M585.72433,421.14528c-1.97457,0-1.97793,3.37448,0,3.37448C587.6989,424.51975,587.70225,421.14528,585.72433,421.14528Z" fill="#0d0e1f"/><path d="M580.92946,355.02614a1.64514,1.64514,0,0,0,1.53467-1.6876v-2.10878a1.5416,1.5416,0,1,0-3.06934,0v2.10878A1.63469,1.63469,0,0,0,580.92946,355.02614Z" fill="#0d0e1f"/><path d="M580.92946,348.06588c1.97457,0,1.97793-3.37448,0-3.37448C578.95489,344.69145,578.95153,348.06588,580.92946,348.06588Z" fill="#0d0e1f"/><path d="M674.909,340.052a1.6456,1.6456,0,0,0-1.53467,1.6876v2.10878a1.5416,1.5416,0,1,0,3.06934,0v-2.10878A1.63511,1.63511,0,0,0,674.909,340.052Z" fill="#0d0e1f"/><path d="M318.03232,205.0791a119.61971,119.61971,0,0,0,27.94425,1.59482c2.45469-.15167,2.47075-4.37069,0-4.21827a115.32323,115.32323,0,0,1-26.92447-1.44463C316.63688,200.59208,315.597,204.65574,318.03232,205.0791Z" fill="#0d0e1f"/><path d="M353.07745,205.49365c2.46805,0,2.4721-4.21827,0-4.21827C350.60936,201.27537,350.60535,205.49365,353.07745,205.49365Z" fill="#0d0e1f"/><path d="M359.5985,204.86116c2.46805,0,2.4721-4.21827,0-4.21827C357.1304,200.64288,357.1264,204.86116,359.5985,204.86116Z" fill="#0d0e1f"/><path d="M378.96944,179.55226c2.46805,0,2.4721-4.21827,0-4.21827C376.50134,175.334,376.49734,179.55226,378.96944,179.55226Z" fill="#0d0e1f"/><path d="M517.0937,395.13542a15.123,15.123,0,0,0,8.04636-2.46367c6.5331-4.1483,9.43906-12.1114,6.47752-17.75073-2.96088-5.63933-10.68516-6.85425-17.21826-2.70518-6.5331,4.1483-9.43906,12.11068-6.47818,17.75073A9.99755,9.99755,0,0,0,517.0937,395.13542Zm-.39237-18.53562a11.00457,11.00457,0,0,1,5.79854-1.801,5.50793,5.50793,0,0,1,5.13166,2.65363c1.66324,3.16757-.53165,8.131-4.79352,10.83613-4.26052,2.70518-9.26766,2.31492-10.9309-.85265C510.24457,384.26765,512.44011,379.30494,516.70133,376.59981Z" fill="#0d0e1f"/><path d="M516.003,384.84711a2.28667,2.28667,0,0,0,1.26952.50144,3.69459,3.69459,0,0,0,2.05427-.45947,6.91264,6.91264,0,0,0,1.92234-1.64639c.54636-.64575.9689-1.26938,1.36728-1.76346a6.4876,6.4876,0,0,1,1.24206-1.21563,3.18812,3.18812,0,0,1,1.155-.539,2.80613,2.80613,0,0,1,.52429-.06773,2.10931,2.10931,0,0,0-.47542-.2798,2.86319,2.86319,0,0,0-1.47979-.19661,4.5082,4.5082,0,0,0-2.03821.80919,10.00821,10.00821,0,0,0-1.81793,1.74872c-.5323.631-.98426,1.19946-1.4021,1.60441a4.88135,4.88135,0,0,1-1.25681.9042,2.5715,2.5715,0,0,1-.99031.25845,2.02125,2.02125,0,0,1-.39973-.01766l.07434.09864A1.70714,1.70714,0,0,0,516.003,384.84711Z" fill="#0d0e1f"/><path d="M522.455,408.31524c-1.97457,0-1.97793,3.37448,0,3.37448C524.42961,411.68971,524.433,408.31524,522.455,408.31524Z" fill="#0d0e1f"/><path d="M529.35975,408.31524c-1.97457,0-1.97793,3.37448,0,3.37448C531.33433,411.68971,531.33768,408.31524,529.35975,408.31524Z" fill="#0d0e1f"/><path d="M300.82006,53.11606c0,11.02759,8.15818,19.99868,18.18647,19.99868S337.193,64.14363,337.193,53.11606s-8.15818-19.99868-18.18647-19.99868C308.97889,33.11738,300.82006,42.08846,300.82006,53.11606Zm18.18647-13.24974c6.64357,0,12.04909,5.94343,12.04909,13.24974,0,7.30558-5.40552,13.24974-12.04909,13.24974s-12.04909-5.94416-12.04909-13.24974C306.95744,45.80973,312.363,39.86631,319.00653,39.86631Z" fill="#0d0e1f"/><path d="M391.53742,95.93787a11.7349,11.7349,0,0,0,2.27589.22383c6.10321,0,11.53284-4.80953,12.64768-11.64167a15.17192,15.17192,0,0,0-2.10049-10.57035,12.72243,12.72243,0,0,0-8.2827-5.84035c-6.97435-1.37468-13.67216,3.74557-14.92427,11.41783A15.17267,15.17267,0,0,0,383.254,90.0975,12.73085,12.73085,0,0,0,391.53742,95.93787Zm-5.09684-15.36734a7.73136,7.73136,0,0,1,7.364-6.77839,6.84934,6.84934,0,0,1,1.3251.13033,7.40966,7.40966,0,0,1,4.82233,3.40024,8.8305,8.8305,0,0,1,1.22265,6.15475c-.72851,4.46787-4.62412,7.45063-8.68913,6.6488a7.41357,7.41357,0,0,1-4.823-3.401A8.83412,8.83412,0,0,1,386.44058,80.57053Z" fill="#0d0e1f"/><path d="M366.14161,68.28018a2.71647,2.71647,0,0,0-3.11757,2.38488l-1.67125,10.24121a3.188,3.188,0,0,0,.43925,2.20817,2.67563,2.67563,0,0,0,1.73018,1.22006l5.581,1.10077c.03482.30483.07834.60746.12252.91006a9.74869,9.74869,0,0,1-3.299.94615,2.07425,2.07425,0,0,0-1.91834,2.10878c0,1.0647.87985,2.20742,1.91834,2.10878a14.65959,14.65959,0,0,0,3.53871-.7952l-4.05765,3.10425a2.99642,2.99642,0,0,0-1.10948,1.90261,3.18722,3.18722,0,0,0,.43925,2.20816l5.40486,8.5411a2.53488,2.53488,0,0,0,3.73757.737l4.65559-3.56224a24.48314,24.48314,0,0,0,3.77575,2.66615l-1.001,6.13632a2.94291,2.94291,0,0,0,2.16878,3.42748l9.31318,1.83781a2.45813,2.45813,0,0,0,.47407.04638,2.51777,2.51777,0,0,0,1.53332-.52865,2.99642,2.99642,0,0,0,1.10948-1.90261l1.001-6.13632a22.7711,22.7711,0,0,0,4.38439-1.05659l3.23874,5.11951a2.672,2.672,0,0,0,1.73018,1.21932,2.49064,2.49064,0,0,0,2.00809-.48228l7.76711-5.9427a3.14277,3.14277,0,0,0,.67023-4.11l-3.23874-5.11951c.27786-.39244.5417-.7952.79946-1.20238a63.21347,63.21347,0,0,0,9.75713,7.983c2.1219,1.39971,4.053-2.24571,1.93575-3.64248a58.40507,58.40507,0,0,1-8.66371-7.01475l4.17617.82391a2.71815,2.71815,0,0,0,3.11757-2.38489l1.6706-10.24121a2.94291,2.94291,0,0,0-2.16878-3.42748L418.514,78.612a29.31225,29.31225,0,0,0-.96019-4.8213l4.65559-3.56222a3.14276,3.14276,0,0,0,.67023-4.11l-5.40417-8.5411a2.67743,2.67743,0,0,0-1.72953-1.22,2.49125,2.49125,0,0,0-2.00809.48228l-4.65559,3.56222c-.13057-.11191-.26515-.21574-.39707-.3247a61.70012,61.70012,0,0,0,5.62984-10.616c1.00707-2.45483-2.298-4.60188-3.31243-2.12865a61.70848,61.70848,0,0,1-5.5488,10.493c-.05023-.02872-.09841-.06111-.14864-.08982l1.00167-6.13634a3.188,3.188,0,0,0-.43925-2.20816,2.67712,2.67712,0,0,0-1.73018-1.22L394.82427,46.334a2.71731,2.71731,0,0,0-3.11757,2.38488l-1.001,6.13634a22.74706,22.74706,0,0,0-4.38439,1.05659l-3.23944-5.11951a2.53531,2.53531,0,0,0-3.73757-.737L371.57717,55.998a2.99645,2.99645,0,0,0-1.10948,1.9026,3.188,3.188,0,0,0,.43925,2.20816l3.23944,5.11951a27.55857,27.55857,0,0,0-2.42522,4.15274Zm9.62186,5.53478a21.63407,21.63407,0,0,1,3.73426-6.39552,3.18161,3.18161,0,0,0,.23838-3.69771l-2.88654-4.56212,3.35861-2.5697,2.88654,4.56212a2.55032,2.55032,0,0,0,3.23608,1.03966,17.87567,17.87567,0,0,1,6.75-1.62649,2.7818,2.7818,0,0,0,2.5464-2.42906l.89256-5.4663,4.02684.79447-.89256,5.4663a3.01933,3.01933,0,0,0,1.61972,3.25151,19.23638,19.23638,0,0,1,5.816,4.10562,2.50252,2.50252,0,0,0,3.36261.26138l4.14805-3.1742,2.33683,3.69329-4.14805,3.1742a3.12718,3.12718,0,0,0-.94544,3.55781,23.09018,23.09018,0,0,1,1.47909,7.42486,2.87843,2.87843,0,0,0,2.20961,2.79942l4.97027.98075-.72246,4.42886-4.971-.98a2.64867,2.64867,0,0,0-2.95618,1.77963A21.62876,21.62876,0,0,1,408.11954,96.63a3.18153,3.18153,0,0,0-.23838,3.69771l2.88589,4.56213-3.35861,2.56968-2.88589-4.56213a2.55129,2.55129,0,0,0-3.23608-1.03965,17.876,17.876,0,0,1-6.75068,1.6265,2.78179,2.78179,0,0,0-2.5464,2.42907l-.89121,5.46631-4.02753-.79448.89256-5.46631a3.0192,3.0192,0,0,0-1.61906-3.25078,19.24391,19.24391,0,0,1-5.816-4.10635,2.50176,2.50176,0,0,0-3.36261-.2614l-4.14805,3.1742L370.68,96.98124l4.1494-3.1742a3.12718,3.12718,0,0,0,.94544-3.55781,23.09029,23.09029,0,0,1-1.47909-7.42485,2.87844,2.87844,0,0,0-2.20961-2.79942l-4.971-.98075.72316-4.42885,4.97027.98075A2.64345,2.64345,0,0,0,375.76347,73.815Z" fill="#0d0e1f"/><path d="M471.60645,187.145H603.94488c6.45141,0,11.69958-5.77186,11.69958-12.86539V86.12078c0-7.09353-5.24818-12.86539-11.69958-12.86539H471.60645c-6.45141,0-11.69958,5.77187-11.69958,12.86539v88.15884C459.90691,181.37315,465.15508,187.145,471.60645,187.145ZM466.04428,86.12078a5.8658,5.8658,0,0,1,5.5622-6.11646H603.945a5.86576,5.86576,0,0,1,5.5622,6.11646v88.15884a5.86578,5.86578,0,0,1-5.5622,6.11646H471.60645a5.86579,5.86579,0,0,1-5.5622-6.11646V86.12078Z" fill="#0d0e1f"/><path d="M474.8673,175.61378H600.68468a4.24749,4.24749,0,0,0,4.02753-4.42886V89.21545a4.2475,4.2475,0,0,0-4.02753-4.42886H474.8673a4.24751,4.24751,0,0,0-4.02753,4.42886v81.96949A4.24664,4.24664,0,0,0,474.8673,175.61378Zm2.10919-84.07826H598.57418v77.32931H476.97649Z" fill="#0d0e1f"/><path d="M299.82239,4.21827c2.46805,0,2.4721-4.21827,0-4.21827C297.35434.00074,297.35033,4.21827,299.82239,4.21827Z" fill="#0d0e1f"/><path d="M363.43448,33.39422c2.46805,0,2.4721-4.21827,0-4.21827C360.96643,29.176,360.96242,33.39422,363.43448,33.39422Z" fill="#0d0e1f"/><path d="M270.41045,75.27136a51.8703,51.8703,0,0,0,15.94739-5.266c.31738.74.65082,1.47334,1.01107,2.19344l-6.44671,7.08911a3.617,3.617,0,0,0,.00069,4.7727l9.94529,10.93628a2.87616,2.87616,0,0,0,4.33956,0l6.44671-7.0891a33.953,33.953,0,0,0,7.25156,3.30747v10.02033a3.23261,3.23261,0,0,0,3.06869,3.37448h14.06518a3.23261,3.23261,0,0,0,3.06869-3.37448V91.21525c.78209-.25034,1.55208-.53971,2.31472-.84748q.78037,2.13381,1.56079,4.26834a1.96227,1.96227,0,0,0,2.35959,1.47334,2.1574,2.1574,0,0,0,1.33981-2.59472q-.8768-2.39887-1.75364-4.797c.48077-.26065.96019-.52571,1.43091-.81068l6.44671,7.0891a2.87669,2.87669,0,0,0,4.33956,0L357.093,84.05986a3.61595,3.61595,0,0,0,0-4.7727L350.64691,72.198a41.543,41.543,0,0,0,3.0071-7.97415h9.113a3.23261,3.23261,0,0,0,3.06869-3.37448V45.38268a3.2326,3.2326,0,0,0-3.06869-3.37446h-9.113c-.16069-.60672-.33949-1.20606-.5263-1.80321a8.49838,8.49838,0,0,0,1.155-.8519c1.47443-1.27085,2.94147-2.5535,4.41185-3.82951a2.27676,2.27676,0,0,0,0-2.98275,1.83738,1.83738,0,0,0-2.71248,0q-1.34282,1.16519-2.68568,2.33113a18.20824,18.20824,0,0,1-1.609,1.43063c-.32674-.76649-.66958-1.52488-1.04189-2.26928l6.44605-7.08837a3.61595,3.61595,0,0,0,0-4.7727L347.14629,11.236a2.87741,2.87741,0,0,0-4.34021,0l-6.44671,7.08911a33.96762,33.96762,0,0,0-7.25156-3.30747V4.99655a3.23261,3.23261,0,0,0-3.06869-3.37448H311.97394a3.23261,3.23261,0,0,0-3.06869,3.37448V15.01761c-.48612.15536-.9662.33207-1.445.51025q-1.52059-3.61707-3.04192-7.2349c-1.03518-2.46146-4.34222-.321-3.31243,2.12865q1.40112,3.33213,2.80219,6.66426c-.762.3873-1.51661.793-2.25448,1.23994l-6.44671-7.08911a2.87741,2.87741,0,0,0-4.34021,0L280.92143,22.173a3.617,3.617,0,0,0,0,4.7727l6.44671,7.08911a41.485,41.485,0,0,0-3.00776,7.97488h-9.113a3.23261,3.23261,0,0,0-3.06869,3.37448V60.85089a3.2326,3.2326,0,0,0,3.06869,3.37446h9.113c.16739.63175.35285,1.25687.54771,1.87757a49.38435,49.38435,0,0,1-15.5175,5.10183C266.95609,71.581,267.99193,75.64614,270.41045,75.27136Zm7.90573-17.7964V48.75715h8.43a3.15135,3.15135,0,0,0,2.99905-2.65879,34.48266,34.48266,0,0,1,4.06166-10.76915,3.63047,3.63047,0,0,0-.41044-4.21165l-5.96463-6.559,5.60573-6.16431,5.96463,6.559a2.86153,2.86153,0,0,0,3.83.45136,28.28725,28.28725,0,0,1,9.79326-4.4664,3.31859,3.31859,0,0,0,2.41787-3.2979v-9.27h7.92784v9.27a3.31783,3.31783,0,0,0,2.41787,3.2979,28.26828,28.26828,0,0,1,9.79326,4.4664,2.86142,2.86142,0,0,0,3.83-.45136l5.96463-6.559,5.60573,6.16431-5.96394,6.55824a3.62956,3.62956,0,0,0-.41113,4.21165,34.50982,34.50982,0,0,1,4.06166,10.76988,3.15207,3.15207,0,0,0,2.99905,2.65879h8.43v8.71781h-8.43a3.15135,3.15135,0,0,0-2.99905,2.65878,34.48265,34.48265,0,0,1-4.06166,10.76915,3.63047,3.63047,0,0,0,.41044,4.21165l5.96463,6.559-5.60573,6.16432-5.96463-6.559a2.86386,2.86386,0,0,0-3.83-.45136,28.28746,28.28746,0,0,1-9.79326,4.4664,3.31787,3.31787,0,0,0-2.41787,3.2979v9.26929h-7.92784V88.59177a3.31782,3.31782,0,0,0-2.41787-3.2979,28.263,28.263,0,0,1-9.79326-4.4664,2.86384,2.86384,0,0,0-3.83.45136l-5.96463,6.559-5.60573-6.16432,5.96463-6.559a3.6294,3.6294,0,0,0,.41044-4.21165,34.51253,34.51253,0,0,1-4.06166-10.76915,3.15207,3.15207,0,0,0-2.99905-2.65879h-8.43Z" fill="#0d0e1f"/><path d="M263.254,75.36414c2.46805,0,2.4721-4.21827,0-4.21827C260.78524,71.14661,260.7812,75.36414,263.254,75.36414Z" fill="#0d0e1f"/><path d="M339.46018,104.61c2.46805,0,2.4721-4.21827,0-4.21827C336.99213,100.39176,336.98743,104.61,339.46018,104.61Z" fill="#0d0e1f"/><path d="M360.30155,87.597c-2.46805,0-2.4721,4.21827,0,4.21827C362.7696,91.81532,362.7743,87.597,360.30155,87.597Z" fill="#0d0e1f"/><path d="M415.79429,42.04134c2.46805,0,2.4721-4.21827,0-4.21827C413.32623,37.82307,413.32223,42.04134,415.79429,42.04134Z" fill="#0d0e1f"/><path d="M430.62615,109.25021c2.46805,0,2.4721-4.21827,0-4.21827C428.1581,105.03194,428.15409,109.25021,430.62615,109.25021Z" fill="#0d0e1f"/></g></g></g></svg>