<?xml version="1.0" encoding="utf-8"?>
<!-- Generator: Adobe Illustrator 21.0.0, SVG Export Plug-In . SVG Version: 6.00 Build 0)  -->
<svg version="1.1" id="Layer_1" xmlns="http://www.w3.org/2000/svg" xmlns:xlink="http://www.w3.org/1999/xlink" x="0px" y="0px"
	 viewBox="0 0 500 500" style="enable-background:new 0 0 500 500;" xml:space="preserve">
<style type="text/css">
	.st0{fill:url(#SVGID_1_);}
	.st1{fill:url(#SVGID_2_);}
	.st2{fill:url(#SVGID_3_);}
	.st3{fill:url(#SVGID_4_);}
	.st4{fill:#333333;}
	.st5{fill:#555555;}
	.st6{fill:#666666;}
</style>
<linearGradient id="SVGID_1_" gradientUnits="userSpaceOnUse" x1="72.2324" y1="186.3025" x2="316.4099" y2="186.3025">
	<stop  offset="0" style="stop-color:#F60D45"/>
	<stop  offset="0.6662" style="stop-color:#FC4A2B"/>
	<stop  offset="1" style="stop-color:#FF6320"/>
</linearGradient>
<path class="st0" d="M280.6,100c-47.7-47.7-125-47.7-172.7,0s-47.7,125,0,172.7s125,47.7,172.7,0c22.9-22.9,35.8-54,35.7-86.3
	C316.4,153.9,303.5,122.9,280.6,100z M117.8,109.8c42.3-42.2,110.9-42.2,153.1,0.2c15.8,15.9,26.3,36.2,30.1,58.3l-37.9,37.1
	c-11.3-6.4-25.6-2.9-32.7,7.8l-55.7-17.5v-0.5c0-13.7-11-24.8-24.7-24.8c-13.7,0-24.8,11-24.8,24.7c0,4.3,1.1,8.6,3.3,12.4
	l-29.2,30.3C76.5,195.7,84,143.7,117.8,109.8L117.8,109.8z M261.8,226.9c0,6-4.9,10.9-10.9,10.9c-6,0-10.9-4.9-10.9-10.9
	c0-6,4.9-10.9,10.9-10.9c0,0,0,0,0,0l0,0C257,216.1,261.8,220.9,261.8,226.9L261.8,226.9z M160.8,195.2c0,6-4.9,10.9-10.9,10.9
	c-6,0-10.9-4.9-10.9-10.9s4.9-10.9,10.9-10.9C155.9,184.4,160.8,189.2,160.8,195.2L160.8,195.2z M270.8,262.8
	C228.5,305,160,305,117.7,262.7c-4-4-7.6-8.2-10.9-12.8l31.6-32.7c11.2,5.9,25.1,2.4,32.1-8.2l55.7,17.5v0.5
	c0,13.7,11.1,24.8,24.8,24.8c13.7,0,24.8-11.1,24.8-24.8c0-4.1-1-8.1-2.9-11.7l29.7-29C302.6,215,291.2,242.5,270.8,262.8
	L270.8,262.8z"/>
<linearGradient id="SVGID_2_" gradientUnits="userSpaceOnUse" x1="132.7402" y1="109.1492" x2="225.3281" y2="109.1492">
	<stop  offset="0" style="stop-color:#F60D45"/>
	<stop  offset="0.6662" style="stop-color:#FC4A2B"/>
	<stop  offset="1" style="stop-color:#FF6320"/>
</linearGradient>
<path class="st1" d="M132.7,115.4l9.1,10.5c21.7-18.8,51.8-24.5,78.9-15.1l4.6-13.1C193.5,86.6,158.2,93.3,132.7,115.4z"/>
<linearGradient id="SVGID_3_" gradientUnits="userSpaceOnUse" x1="235.8991" y1="115.8276" x2="255.5067" y2="115.8276">
	<stop  offset="0" style="stop-color:#F60D45"/>
	<stop  offset="0.6662" style="stop-color:#FC4A2B"/>
	<stop  offset="1" style="stop-color:#FF6320"/>
</linearGradient>
<path class="st2" d="M243.2,106.1l-7.3,11.9c3.7,2.2,7.2,4.8,10.5,7.6l9.1-10.5C251.6,111.7,247.5,108.7,243.2,106.1z"/>
<linearGradient id="SVGID_4_" gradientUnits="userSpaceOnUse" x1="159.276" y1="270.3447" x2="213.8159" y2="270.3447">
	<stop  offset="0" style="stop-color:#F60D45"/>
	<stop  offset="0.6662" style="stop-color:#FC4A2B"/>
	<stop  offset="1" style="stop-color:#FF6320"/>
</linearGradient>
<path class="st3" d="M210.9,264.5c-15.6,3.3-31.7,1.9-46.5-4l-5.2,12.9c11.1,4.5,23,6.7,35,6.7c6.6,0,13.1-0.7,19.6-2.1L210.9,264.5
	z"/>
<path class="st4" d="M369.5,298l-10.1,10.1l-25-26.8c29.2-42.8,37.1-96.7,21.4-146.1l19.9-19.4c12,6.5,27.1,2,33.5-10.1
	c3.9-7.2,3.9-15.8,0.3-23L452.1,41v21.6H466v-45h-45v13.9h21l-42.1,41.2c-11.8-6.9-27-3-33.9,8.8c-4.5,7.6-4.6,17-0.3,24.6
	l-15.2,14.9c-8.4-20.1-20.7-38.3-36.1-53.7c-65.7-65.7-172.5-65.7-238.2,0c-58.5,58.5-64.9,149.7-19.1,215.3l-11.7,12.1
	c-12.1-6.4-27.1-1.7-33.5,10.4c-6.4,12.1-1.7,27.1,10.4,33.5c12.1,6.4,27.1,1.7,33.5-10.4c3.9-7.5,3.8-16.5-0.4-23.8l10.2-10.6
	c3.4,4,6.9,7.9,10.7,11.7c57.2,57,146.8,65.5,213.7,20.2l25.1,26.9l-10.4,10.4L426.2,484l64.9-64.8L369.5,298z M387.3,83.1
	c6,0,10.9,4.9,10.9,10.9s-4.9,10.9-10.9,10.9c-6,0-10.9-4.9-10.9-10.9v0l0,0C376.5,88,381.3,83.1,387.3,83.1L387.3,83.1z
	 M33.9,327.4c-6,0-10.9-4.9-10.9-10.9c0-6,4.9-10.9,10.9-10.9s10.9,4.9,10.9,10.9l0,0l0,0C44.7,322.6,39.9,327.4,33.9,327.4z
	 M86.1,295.5c-60.2-60.2-60.2-158.2,0-218.5c60.4-60.2,158.1-60.2,218.5,0c60.2,60.2,60.2,158.2,0,218.5S146.3,355.8,86.1,295.5
	L86.1,295.5z M301.2,317.2c9.1-7.3,17.3-15.6,24.7-24.6l23.7,25.3l-24.6,24.6L301.2,317.2z M426.2,464.4L324.3,362.8l45.2-45.2
	l101.9,101.6L426.2,464.4z"/>
<polygon class="st5" points="368.5,337.8 348.6,357.7 358.4,367.5 368.5,357.5 406.9,395.9 416.7,386 "/>
<rect x="421.9" y="400.7" transform="matrix(0.7071 -0.7071 0.7071 0.7071 -162.891 422.7349)" class="st6" width="13.9" height="14.6"/>
<rect x="83.4" y="361.7" class="st5" width="13.9" height="15.1"/>
<rect x="83.4" y="446.6" class="st5" width="13.9" height="15.1"/>
<rect x="197.9" y="390.9" class="st5" width="13.9" height="15.1"/>
<rect x="397.2" y="265.9" class="st5" width="13.9" height="15.1"/>
<rect x="413" y="145.2" class="st5" width="13.9" height="15.1"/>
<rect x="459.1" y="209.1" class="st5" width="13.9" height="15.1"/>
</svg>
