<?xml version="1.0" encoding="utf-8"?>
<!-- Generator: Adobe Illustrator 21.0.0, SVG Export Plug-In . SVG Version: 6.00 Build 0)  -->
<svg version="1.1" xmlns="http://www.w3.org/2000/svg" xmlns:xlink="http://www.w3.org/1999/xlink" x="0px" y="0px"
	 viewBox="0 0 960 1174.3" style="enable-background:new 0 0 960 1174.3;" xml:space="preserve">
<style type="text/css">
	.st0{fill:url(#SVGID_1_);}
	.st1{fill:#FFFFFF;}
	.st2{fill:#D4CCFF;}
	.st3{fill:#8550FC;}
	.st4{fill:#A796FF;}
	.st5{fill:#F4D37E;}
	.st6{fill:#FEF3F9;}
	.st7{fill:#7862EC;}
	.st8{fill:#FC8E53;}
	.st9{fill:#FDEAB1;}
	.st10{fill:#380F8F;}
	.st11{fill:#7B0F8F;}
	.st12{fill:#DE50FC;}
	.st13{fill:#D396FF;}
	.st14{fill:#DEB449;}
	.st15{fill:#232323;}
	.st16{fill:#808285;}
	.st17{fill:#1A0845;}
	.st18{fill:#0B53FF;}
	.st19{fill:#2175FB;}
	.st20{fill:#E6E7E8;}
	.st21{fill:#D1D3D4;}
	.st22{fill:#FBF3FE;}
</style>
<g id="Design">
</g>
<g id="Text">
	<g>
		<linearGradient id="SVGID_1_" gradientUnits="userSpaceOnUse" x1="1094.8627" y1="940.8023" x2="-133.6371" y2="231.5276">
			<stop  offset="0" style="stop-color:#010055"/>
			<stop  offset="9.811264e-02" style="stop-color:#140076"/>
			<stop  offset="0.2403" style="stop-color:#2B00A0"/>
			<stop  offset="0.3858" style="stop-color:#3F00C2"/>
			<stop  offset="0.5331" style="stop-color:#4E00DD"/>
			<stop  offset="0.6828" style="stop-color:#5800F0"/>
			<stop  offset="0.8364" style="stop-color:#5F00FB"/>
			<stop  offset="1" style="stop-color:#6100FF"/>
		</linearGradient>
		<rect x="0.6" y="-1" class="st0" width="960" height="1174.3"/>
	</g>
	<g>
		<path class="st1" d="M222.7,721h-10.5c-1.6,12.1-5.7,21.7-12.4,28.9c-2.2,2.4-3.7,3.5-4.7,3.5c-4.1,0-10.5-0.7-19.2-2.2
			c-2.4-0.4-3.6-1.4-3.6-3.1c0-0.9,0.9-1.6,2.8-2.3c3.5-1.2,5.8-2.1,6.9-2.7c14.5-7.2,22.8-14.5,24.8-21.8c-7.5,0-12.6-0.3-15.6-0.9
			c-6.9-1.4-10.3-4.4-10.3-9.1c0-3.7,1.2-8.8,3.5-15.3c3.2-8.8,7.1-13.3,11.8-13.3c4.8,0,8.7,2.6,11.7,7.9c2.3,4.1,3.8,8.9,4.5,14.4
			h10.2V721z M203.8,705.2c-0.9-2.7-2.5-4.9-4.8-6.3c-1.7-1.1-3.3-1.6-4.7-1.6c-3.5,0-5.3,1.7-5.3,5c0,2.2,3.6,3.2,10.7,3.2
			C201.1,705.5,202.5,705.4,203.8,705.2z"/>
		<path class="st1" d="M274.1,700.5c0,5.2-1.1,9.8-3.3,13.7c-2.5,4.5-6,6.7-10.3,6.7c-4.2,0-7.2-2.1-9.1-6.5c-0.8,1.8-2,3.4-3.8,4.6
			c-1.8,1.2-3.7,1.8-5.7,1.8c-4.2,0-7.5-2-9.8-6c-0.6,1.6-1.8,3-3.5,4.2c-1.7,1.2-3.4,1.8-5,1.8h-5.4V705h5.4c2.6,0,4.5-0.9,5.5-2.6
			c0.4-0.7,0.9-2.3,1.5-4.8c0.4-1.7,1.1-2.6,2.1-2.6c1,0,1.7,0.9,2,2.6c0.5,2.6,0.9,4.2,1.2,4.8c1,1.7,3,2.6,5.8,2.6
			c2.5,0,4.2-0.9,5.3-2.7c0.4-0.6,0.8-2.2,1.4-4.8c0.4-1.7,1.1-2.6,2-2.6c1.1,0,1.9,0.9,2.1,2.6c0.4,2.3,1,3.9,1.7,4.8
			c1.5,1.8,4.4,2.7,8.5,2.7c3.3,0,4.9-1.3,4.9-4c0-2-1.6-5-4.9-8.7l5.8-8c0.4-0.5,0.8-0.8,1.1-0.8c0.3,0,0.6,0.3,0.9,0.9
			C273,689.8,274.1,695.1,274.1,700.5z M256.6,677.3c0.4,0.4,0.4,0.9-0.1,1.3l-6,6c-0.4,0.4-0.9,0.4-1.3,0l-5.9-5.9l-5.8,5.9
			c-0.5,0.5-0.9,0.5-1.4,0l-6.1-6c-0.5-0.5-0.4-1,0.2-1.6l5.6-5.7c0.5-0.5,1-0.5,1.6,0l5.7,5.7l5.7-5.7c0.5-0.5,1-0.5,1.5,0
			L256.6,677.3z M250.2,667.4c0.5,0.4,0.5,0.9,0,1.3l-6,5.9c-0.4,0.4-0.9,0.4-1.3,0l-6-5.8c-0.5-0.5-0.5-1,0.1-1.6l5.6-5.7
			c0.5-0.5,1-0.5,1.5,0L250.2,667.4z"/>
		<path class="st1" d="M366,673.3c3.5,1.8,6.3,5.5,8.4,11c0.8,1.9,1.2,4.1,1.2,6.5v0.4c0,12.7-4.6,21.1-13.7,25.2
			c-5.9,2.9-15.2,4.4-27.8,4.4h-38.9l-0.1,0.1v-15.7l0.1-0.1l37.5,0.2c16.8,0,28.2-1.6,34.1-4.8c0.9-0.8,1.3-1.6,1.3-2.3
			c0-1.8-3.1-5.1-9.4-9.9l-0.2-0.2V688C363.2,678.2,365.7,673.3,366,673.3z M337.5,734.7c0.5,0.5,0.4,0.9-0.1,1.4l-6.5,6.5
			c-0.5,0.5-0.9,0.5-1.4,0l-6.6-6.4c-0.5-0.5-0.5-1,0.2-1.7l6-6.1c0.5-0.6,1.1-0.6,1.7,0L337.5,734.7z"/>
		<path class="st1" d="M410.2,703.5c0,8.6-1.4,16.4-4.1,23.6c-2.1,5.5-4.8,10.1-8,13.9c-2.6,3.1-4.5,4.6-5.6,4.6
			c-4.1,0-10.5-0.7-19.2-2.2c-2.4-0.4-3.6-1.4-3.6-3.1c0-0.9,0.9-1.6,2.8-2.3c3.5-1.2,5.8-2.1,6.9-2.7c14.4-7.1,22.6-14.5,24.8-22.4
			c-2.5,0.2-4.8,0.3-7,0.3c-12.6,0-18.9-3.3-18.9-9.8c0-3.4,1.2-8.4,3.5-15c3.2-9.1,7.2-13.6,11.8-13.6c5.7,0,10.1,3.5,13.1,10.6
			C409,691.1,410.2,697,410.2,703.5z M401,697.5c-0.9-2.8-2.5-4.9-4.8-6.4c-1.7-1.1-3.3-1.6-4.7-1.6c-3.5,0-5.3,1.7-5.3,5
			c0,2.2,3.6,3.2,10.7,3.2C398.4,697.7,399.8,697.6,401,697.5z"/>
		<path class="st1" d="M426.2,656.3l-5,60.5c-0.2,3-1,4.5-2.4,4.5c-1.4,0-2.3-1.9-2.8-5.7l-5.9-50.6l14-10.2
			c0.6-0.5,1.1-0.7,1.5-0.7C426.1,654.1,426.3,654.8,426.2,656.3z"/>
		<path class="st1" d="M429.2,704.5c1.6,1,4.1,1.5,7.3,1.5c8.1,0,14.7-2.3,19.7-7l-8.1-21.7l7.2-7.9c0.5-0.6,0.9-0.9,1.2-0.9
			c0.3,0,0.6,0.4,0.9,1.1l8.5,25.8c2.1,6.5,5.1,9.7,8.9,9.7h2.2v15.9h-4c-4.2,0-7.6-2-10.2-6c-1.2-1.8-2.8-5.4-4.7-10.8
			c-2.6,4.8-5.1,8.3-7.6,10.7c-4.7,4.4-10.6,6.6-17.6,6.6c-1.4,0-2.6-0.1-3.8-0.4V704.5z"/>
		<path class="st1" d="M489.1,734.1c0.4,0.4,0.4,0.8-0.1,1.2l-6,6c-0.2,0.2-0.5,0.4-0.7,0.4c-0.2,0-0.4-0.1-0.7-0.4l-5.8-5.8
			l-5.8,5.8c-0.4,0.4-0.8,0.4-1.3,0l-6.1-5.9c-0.5-0.5-0.5-1,0.1-1.6l5.6-5.7c0.5-0.5,1-0.5,1.6,0l5.7,5.7l5.7-5.7
			c0.5-0.5,1-0.5,1.6,0L489.1,734.1z M506.1,720.9h-3.9c-5.9,0-9.9-3.3-12.1-10c-2,6.7-5.8,10-11.3,10h-4.5V705h2.9
			c5.5,0,9.1-3.6,10.6-10.9c0.5-2.3,1.4-3.5,2.6-3.5c1.2,0,2,1.2,2.3,3.5c0.8,7.3,4,10.9,9.6,10.9h3.9V720.9z"/>
		<path class="st1" d="M526.2,670.9c0.2,0.4,0.3,0.7,0.3,0.9c0,0.6-0.6,0.8-1.7,0.8c-0.7,0-1.7-0.1-3-0.3v30.2c0,4.8-1.2,9-3.7,12.5
			c-2.8,4-6.5,6-11.1,6h-3.7v-15.9h3.9c4.4,0,6.6-1.6,6.6-4.8c0-2.6-0.5-7.1-1.5-13.5c-1.2-8-2.8-15.2-4.6-21.6l9-9.7
			c0.7-0.8,1.3-1.1,1.7-1.1c0.5,0,0.9,0.5,1.4,1.6L526.2,670.9z"/>
		<path class="st1" d="M645.9,700.5c0,5.2-1.1,9.8-3.3,13.7c-2.5,4.5-6,6.7-10.4,6.7c-3.8,0-6.7-1.9-8.5-5.6
			c-1.7,3.7-4.2,5.6-7.4,5.6c-2.1,0-4.1-0.4-6-1.1c0,10.5-2.9,18.6-8.6,24.1c-5.8,5.5-13.9,8.3-24.5,8.3c-8.3,0-15.1-1.6-20.4-4.8
			c-6.5-3.9-9.7-9.7-9.7-17.5c0-7.6,1.8-14.1,5.3-19.3c0.9-1.4,1.9-2,2.9-2c0.8,0,1.2,0.5,1.2,1.6c0,0.6-0.1,1.2-0.4,2
			c-1.2,3.8-1.9,7.1-1.9,10.1c0,9.5,7.8,14.2,23.3,14.2c6.2,0,11.8-0.7,16.9-2.1c7.5-2.1,11.3-5.4,11.3-9.8c0-3.1-4.3-9.2-13-18.5
			l6.9-11.5c0.6-0.9,1-1.4,1.4-1.4c0.4,0,0.8,0.3,1.4,1c2.9,3.8,5,6.2,6.2,7.3c2.5,2.3,4.9,3.5,7.2,3.5c1.8,0,3.2-1.7,4.2-5.1
			c1-3.4,1.8-5.1,2.5-5.1c1,0,1.7,0.9,2.1,2.6c0.5,2.3,1.1,4,1.9,4.9c1.6,1.8,4.4,2.7,8.3,2.7c3.3,0,4.9-1.3,4.9-4
			c0-2.1-1.6-5-4.9-8.8l5.8-8c0.4-0.5,0.7-0.8,1.1-0.8c0.4,0,0.7,0.3,0.9,0.9C644.8,689.7,645.9,695.1,645.9,700.5z"/>
		<path class="st1" d="M677.4,705.8c0,12.1-3.9,22.3-11.7,30.7c-1.2,1.3-2.1,2.1-2.8,2.4c-0.7,0.3-1.8,0.5-3.4,0.6
			c-3.3,0.1-7.2-0.1-11.8-0.6c-6.6-0.7-9.8-1.8-9.8-3.3c0-1.2,1.4-2.4,4.2-3.5c5.6-2.2,10.4-4.5,14.3-6.7
			c10.2-5.8,15.2-10.8,15.2-15c0-3.5-4.7-8.7-14.1-15.5l7.5-11.4c0.5-0.8,1-1.1,1.5-1.1c0.5,0,1.2,0.4,2,1.1c2.1,1.8,4,4.6,5.6,8.2
			C676.4,696.2,677.4,700.9,677.4,705.8z"/>
		<path class="st1" d="M680.5,704.5c1.6,1,4.1,1.5,7.3,1.5c8.1,0,14.7-2.3,19.7-7l-8.1-21.7l7.2-7.9c0.5-0.6,0.9-0.9,1.2-0.9
			c0.3,0,0.6,0.4,0.9,1.1l8.5,25.8c2.1,6.5,5.1,9.7,8.9,9.7h2.2v15.9h-4c-4.2,0-7.6-2-10.2-6c-1.2-1.8-2.8-5.4-4.7-10.8
			c-2.6,4.8-5.1,8.3-7.6,10.7c-4.7,4.4-10.6,6.6-17.6,6.6c-1.4,0-2.6-0.1-3.8-0.4V704.5z"/>
		<path class="st1" d="M763.8,708.7c0,3.8-0.8,7.1-2.3,9.8c-1.9,3.3-4.6,4.9-8.2,4.9c-6.4,0-11.2-4.1-14.6-12.3
			c-2.6,6.6-6.1,9.9-10.6,9.9h-2.6v-15.9h3.7c2.5,0,4.2-0.9,5.1-2.6c0.6-1.1,0.9-3.1,0.9-5.9c0-3.6,1.1-6.7,3.3-9.3
			c2.2-2.6,5.1-3.9,8.6-3.9c5.4,0,9.6,3,12.7,9.1C762.5,697.4,763.8,702.8,763.8,708.7z M755.7,698.5c-2.2-4.9-4.6-7.4-7.3-7.4
			c-2.3,0-3.5,1.6-3.5,4.8c0,2.2,0.6,4.7,1.7,7.5c2.2,5.5,5.1,8.3,8.8,8.3c1.8,0,2.8-1.4,2.8-4.1
			C758.1,705.3,757.3,702.2,755.7,698.5z"/>
	</g>
	<g>
		<path class="st2" d="M156.5,833.8c-3.3,0-6.2-1.6-6.2-5.3c0-1.9,0.7-3.5,1.8-4.9c1.3-1.4,2.7-2.3,4-2.3c1.6,0,3.2,1.2,4.3,3.2
			c1.1,2,1.8,4.6,1.8,7.8c0,2.6-0.7,5.1-2.1,7.4c-2.5,3.8-4.9,5.4-7.3,5.4c-2.6,0-5.3-0.8-8.1-2.8l0.4-0.9c1.4,0.7,2.7,1,4.1,1
			c2.9,0,5.7-1.4,8.3-4.3c1.3-1.4,2.5-3.1,2.7-4.7C159.1,833.6,157.8,833.8,156.5,833.8z M155.3,824.8c-1.3,0-3.2,1.5-3.2,2.5
			c0,1.8,2.5,3,4.8,3c1.1,0,2.2-0.1,3.2-0.4C159.4,827.1,157.7,824.8,155.3,824.8z"/>
		<path class="st2" d="M197.6,836.8H197c-2.5,0-4.7-1.1-5.8-4.6h-0.1c-0.2,1.1-0.8,2-2,2.7c-1.9,1.1-3.8,1.9-5.7,1.9
			c-3.2,0-4.9-1.9-4.9-5.2c0-0.7,0-1.4,0.1-2.1l1.1-0.1c0.1,2.3,1.3,3.8,4,3.8c1.5,0,3.3-0.7,4.6-1.4c1-0.6,1.8-1.4,1.8-2.1
			c0-1.9-1-5.7-2.3-10.5c0.7-1,1.3-2,2-2.9l0.2,0.1c1,4.1,1.9,8.4,2.7,12.6c0.5,2.8,2.3,4.3,4.5,4.3h0.5V836.8z"/>
		<path class="st2" d="M198.2,833.1c2.2,0,4.4-0.9,4.9-2.5l0.8-3.1l2-1.4l0.2,0.2c-0.4,1.4-0.6,2.7-0.6,3.3c0,1,0.3,1.8,0.9,2.3
			c0.9,0.7,2,1.1,3.5,1.1h0.5v3.6h-0.7c-2.8,0-4.9-0.8-5.8-2.9h-0.1c-1,1.9-3.2,2.9-5.6,2.9h-0.5c-1.6,0-2-1.1-2-1.9
			c0-0.7,0.5-1.7,2-1.7H198.2z M201.4,848c-1.2-1.1-2.2-2-3.3-2.9c0.7-1,1.5-2,2.2-2.7c1.2,0.9,2.1,1.8,3.2,3
			C202.7,846.6,202.2,847.3,201.4,848z M206.8,847.7c-1.2-1.1-2.2-2-3.3-2.9c0.7-1,1.5-2,2.2-2.7c1.2,0.9,2.1,1.8,3.2,3
			C208.2,846.2,207.6,846.9,206.8,847.7z"/>
		<path class="st2" d="M210.9,833.1c2.2,0,4.4-0.9,4.9-2.5l0.8-3.1l2-1.4l0.2,0.2c-0.4,1.4-0.6,2.7-0.6,3.3c0,1,0.3,1.8,0.9,2.3
			c0.9,0.7,2,1.1,3.5,1.1h0.5v3.6h-0.7c-2.8,0-4.9-0.8-5.8-2.9h-0.1c-1,1.9-3.2,2.9-5.6,2.9h-0.5c-1.6,0-2-1.1-2-1.9
			c0-0.7,0.5-1.7,2-1.7H210.9z M214.1,822.4c-1.2-1.1-2.2-2-3.3-2.9c0.7-1,1.5-2,2.2-2.7c1.2,0.9,2.1,1.8,3.2,3
			C215.4,821,214.9,821.7,214.1,822.4z M219.5,822.1c-1.2-1.1-2.2-2-3.3-2.9c0.7-1,1.5-2,2.2-2.7c1.2,0.9,2.1,1.8,3.2,3
			C220.9,820.6,220.3,821.3,219.5,822.1z"/>
		<path class="st2" d="M252,836.8h-0.7c-3.5,0-5.1-1.1-5.8-2.7h-0.2c-1.6,1.9-3.2,2.7-4.8,2.7c-1.2,0-2.6-0.4-3.1-2.3h-0.1
			c-1.3,1.4-2.8,2.3-4.9,2.3c-1.6,0-2.5-0.7-2.7-2.4h-0.1c-1.7,2-4.1,2.4-6,2.4h-0.5c-1.6,0-2-1.1-2-1.9c0-0.7,0.5-1.7,2-1.7h1
			c2.6,0,4.6-0.7,6-2.6l1.4-2.2l2.2-0.8l0.1,0.1c-1.1,1.9-1.8,3.2-1.8,4c0,0.9,0.7,1.4,1.5,1.4c0.8,0,1.7-0.3,2.5-0.8
			c0.7-0.5,1.4-1.5,1.8-2.5l0.7-1.7l2.1-1l0.1,0.1c-0.8,2.1-1.2,3.2-1.2,4.2c0,0.8,0.5,1.6,1.6,1.6c0.9,0,1.5-0.3,2-0.6
			c0.8-0.6,1.3-1.5,1.6-2.7c0.1-0.5,0.3-1,0.6-2.2l2.1-1.4l0.1,0.1c-0.4,1.2-0.7,2.8-0.7,3.9c0,2.2,2,3.1,4.6,3.1h0.6V836.8z"/>
		<path class="st2" d="M252.5,833.1c1.4,0,3.3-0.1,5-0.8c-0.5-1.2-0.6-2.5-0.6-3.9c0-1.7,0.5-3.4,1.8-5.1c0.8-1.1,1.7-2,2.8-2.6
			c0.1-0.9,0.3-1.9,0.5-2.8h0.2c2.7,2.6,6.7,5.1,10,7.6c2.5,1.9,3.5,3.6,3.5,6.1c0,2.8-1.8,5.3-5.6,5.3c-2.3,0-5.9-0.7-9.6-1.9
			c-3.1,1.3-5.6,1.9-7.7,1.9H252c-1.6,0-2-1.1-2-1.9c0-0.7,0.5-1.7,2-1.7H252.5z M266,828.3c0-2.4-1.7-4.5-2.9-4.5
			c-2.1,0-4.7,3-4.7,4.5c0,0.9,1,2.2,3.1,3.3C262.9,831.1,266,829.9,266,828.3z M270.9,833.6c1.6,0,3-0.5,3-1.3
			c0-1.8-2.5-3.8-6.1-6.1c-0.2,2.3-0.9,4.4-2.2,6.6C267.2,833.3,268.9,833.6,270.9,833.6z"/>
		<path class="st2" d="M305.8,837.9c-7.8,0-13.9-2.9-13.9-9.8c0-2.3,0.5-4.6,1.7-6.8l1.1,0.5c-0.5,1.6-0.8,3.1-0.8,4.3
			c0,5.7,5.6,8.1,12.7,8.1c3.3,0,6.5-0.5,9.7-1.2c1.3-0.3,2.6-0.7,3.7-1.2c0.2-0.1,0.3-0.2,0.3-0.3c0-1.3-1.4-4.1-2.8-7
			c0.7-1.2,1.4-2.3,2.1-3.2h0.1c1.3,2.3,2.8,5.8,2.8,8.6c0,2.1-0.7,3.4-1.5,4.7C318.6,836,311.4,837.9,305.8,837.9z M306.8,843
			c1.2,0.8,2.3,1.9,3.4,3c-0.6,1-1.4,2-2.3,2.8c-1.1-1-2.2-2-3.3-2.9C305.3,844.8,306,843.8,306.8,843z"/>
		<path class="st2" d="M334.8,833.8c-3.3,0-6.2-1.6-6.2-5.3c0-1.9,0.7-3.5,1.8-4.9c1.3-1.4,2.7-2.3,4-2.3c1.6,0,3.2,1.2,4.3,3.2
			c1.1,2,1.8,4.6,1.8,7.8c0,2.6-0.7,5.1-2.1,7.4c-2.5,3.8-4.9,5.4-7.3,5.4c-2.6,0-5.3-0.8-8.1-2.8l0.4-0.9c1.4,0.7,2.7,1,4.1,1
			c2.9,0,5.7-1.4,8.3-4.3c1.3-1.4,2.5-3.1,2.7-4.7C337.3,833.6,336.1,833.8,334.8,833.8z M333.5,824.8c-1.3,0-3.2,1.5-3.2,2.5
			c0,1.8,2.5,3,4.8,3c1.1,0,2.2-0.1,3.2-0.4C337.6,827.1,336,824.8,333.5,824.8z"/>
		<path class="st2" d="M382.8,833.1v3.6h-1.6c0.1,0.8,0.1,1.5,0.1,2c0,0.9-0.9,2.9-1.3,3.5c-3.6,3.3-9,5.3-13.2,5.3
			c-3.6,0-6.1-1.2-7.8-3.1c-1.8-2-2.5-4.7-2.5-7.9c0-2.8,1.1-6.6,2.7-9.3l1.1,0.5c-1.2,2.9-1.7,5.2-1.7,7.1c0,2.4,0.8,4.6,2.3,6.2
			c1.7,1.8,4.2,2.7,6.8,2.7c2.6,0,5.6-0.8,9-2.4c1.3-0.7,2.3-1.4,2.5-2c-0.7-1.4-3.7-2.6-8.2-2.6l-0.2-0.4l2-3.2H382.8z"/>
		<path class="st2" d="M384.5,833.1c4.6,0,9.3-1.6,15.1-5.1l0-0.1c-3.3-1.2-6.3-2-8.9-2c-1.6,0-2.8,0.5-3.6,1.4l0.3,1.4l-0.8,2.5
			h-0.3l-1.4-3.7c0.2-3.1,2.7-5.1,6.1-5.1c1.9,0,4.9,0.7,9.3,2.5c1.4,0.5,3.1,0.9,4.8,0.9l2.3,0l0.1,0.1l-1.5,3
			c-2.4-0.1-4,0.5-4.9,1l-4.7,3.1c-3.8,2.5-7.8,3.8-12.2,3.8h-1.5c-1.6,0-2-1.1-2-1.9c0-0.7,0.5-1.7,2-1.7H384.5z"/>
		<path class="st2" d="M412.4,837.2c0.3-1.8,0.3-3.8,0.3-5.7v-2.8c0-5.2-0.6-12.7-1-17.6c0.8-1,1.9-2.2,2.8-3l0.3,0.1
			c0.6,6.2,0.7,13.3,0.7,19.9c0,1.7-0.1,3.4-0.2,4.7c-0.1,1.6-0.8,2.7-2.5,4.6L412.4,837.2z"/>
		<path class="st2" d="M426,827c1.6,3.9,3.1,6.1,6.4,6.1h0.5v3.6h-0.6c-1.2,0-2.1-0.3-2.9-0.9h-0.1c0,0.3,0.1,0.7,0.1,1
			c0,1.3-0.4,3-1.1,4.4c-2.2,3.9-4.7,5.6-6.8,5.6c-2.1,0-4.7-1-7.1-2.2l0.4-1c0.8,0.4,1.8,0.6,3.3,0.6c3.8,0,8.8-4.3,9.4-8.5
			c-0.1-0.3-0.4-0.8-0.8-1.3c-1.1-1.6-1.8-2.9-2.5-4.2c0.6-1.3,1.1-2.3,1.6-3.3L426,827z"/>
		<path class="st2" d="M435.4,833.1l1.5-2.6c0.4-1.4,0.4-2.7,0.4-5.6c0-3.8-0.4-9.8-0.7-13c-0.1-0.9-0.2-1.9-0.2-2.8
			c0-1.3,0.8-2.2,2.2-3.3l0.2,0.2c0,1.6,0.8,3.7,2.4,6.2l-1.8,1.4c0.1,3.1,0.3,6.1,0.3,9.2c0,2.5-0.4,4.2-1,5.7h0.1
			c2.1-2.1,4.4-4.1,6.2-5.3c1.6-1,3.5-1.7,5.3-1.7c1.6,0,3.2,0.6,4.2,1.6c1.3,1.2,2.1,2.9,2.1,5c0,0.5-0.3,1.9-0.7,3
			c-1.4,4.9-11.3,5.6-16.9,5.6h-6.4c-1.6,0-2-1.1-2-1.9c0-0.7,0.5-1.7,2-1.7H435.4z M439.9,833.1c6.1,0,10-0.6,13-2.1
			c0.8-0.4,1.4-0.9,1.7-1.3c0-2-2.3-4.4-5.4-4.4c-3.6,0-7.7,3-11.8,7.8H439.9z"/>
		<path class="st2" d="M478,834.1c-3,0-5.1-1-5.1-3.3c0-0.8,0.3-1.9,0.9-3.3c1.2-2.5,4.2-5.1,9-7.8l-0.2-2.1
			c0.7-0.8,1.5-1.6,2.2-2.3h0.3c0.1,4.4,0.1,8.8,0.2,13.2c0,2,0.2,3.3,1.1,4c0.7,0.6,1.7,0.7,3,0.7h0.7v3.6h-0.6
			c-2.8,0-4.8-0.7-5.9-3.9C482,833.5,480.2,834.1,478,834.1z M483,822.8c-5,2.6-7.7,4.7-7.7,6.2c0,1.1,1.7,1.6,3.6,1.6
			c1.2,0,2.5-0.3,4.2-0.8L483,822.8z"/>
		<path class="st2" d="M490.7,833.1c2.2,0,4.4-0.9,4.9-2.5l0.8-3.1l2-1.4l0.2,0.2c-0.4,1.4-0.6,2.7-0.6,3.3c0,1,0.3,1.8,0.9,2.3
			c0.9,0.7,2,1.1,3.5,1.1h0.5v3.6h-0.7c-2.8,0-4.9-0.8-5.8-2.9h-0.1c-1,1.9-3.2,2.9-5.6,2.9h-0.5c-1.6,0-2-1.1-2-1.9
			c0-0.7,0.5-1.7,2-1.7H490.7z M495.6,816.1c1.2,0.8,2.3,1.9,3.4,3c-0.6,1-1.4,2-2.3,2.8c-1.1-1-2.2-2-3.3-2.9
			C494.1,817.9,494.8,816.9,495.6,816.1z"/>
		<path class="st2" d="M503.4,833.1c2.2,0,4.4-0.9,4.9-2.5l0.8-3.1l2-1.4l0.2,0.2c-0.4,1.4-0.6,2.7-0.6,3.3c0,1,0.3,1.8,0.9,2.3
			c0.9,0.7,2,1.1,3.5,1.1h0.5v3.6h-0.7c-2.8,0-4.9-0.8-5.8-2.9H509c-1,1.9-3.2,2.9-5.6,2.9h-0.5c-1.6,0-2-1.1-2-1.9
			c0-0.7,0.5-1.7,2-1.7H503.4z M506.6,848c-1.2-1.1-2.2-2-3.3-2.9c0.7-1,1.5-2,2.2-2.7c1.2,0.9,2.1,1.8,3.2,3
			C508,846.6,507.4,847.3,506.6,848z M512.1,847.7c-1.2-1.1-2.2-2-3.3-2.9c0.7-1,1.5-2,2.2-2.7c1.2,0.9,2.1,1.8,3.2,3
			C513.5,846.2,512.9,846.9,512.1,847.7z"/>
		<path class="st2" d="M516.2,833.1c2.1,0,3.7-1.4,4.8-5c0.3-1.1,1-2.3,2.1-3.4c1-1,2.2-1.6,3.6-1.6c3.5,0,5.5,4.8,5.9,9.7
			c-0.6,2.6-1.6,3.6-3,3.6c-2.8,0-5.6-1.3-8.4-3.3h-0.2c-0.7,2.5-2.3,3.7-4.9,3.7h-0.5c-1.6,0-2-1.1-2-1.9c0-0.7,0.5-1.7,2-1.7
			H516.2z M526.1,832c1.1,0.5,2.2,0.8,3.4,0.8c0.4,0,0.8-0.1,0.9-0.3c-0.8-4.3-2.7-6.2-4.5-6.2c-1.6,0-3,0.9-3.8,2.8
			C523,830.4,524.4,831.3,526.1,832z"/>
		<path class="st2" d="M541.9,822.2l2,3.8c0.7,1.4,1.4,2.9,1.4,5.4v3.1c0,2.5-1.4,5.2-3.6,7.9c-1.7,1.8-3.3,2.6-4.7,2.6
			c-2.1,0-4.5-0.8-7.3-2.2l0.3-1c0.9,0.3,1.9,0.5,3.1,0.5c4,0,8.1-3.5,9.9-7.6c0.2-0.5,0.3-0.9,0.3-1.2c0-0.5-0.2-1-0.4-1.5
			c-1-2.3-2.1-4.3-3.4-6.2c0.7-1.2,1.3-2.4,2-3.5L541.9,822.2z M539.3,812.4c1.2,0.8,2.3,1.9,3.4,3c-0.6,1-1.4,2-2.3,2.8
			c-1.1-1-2.2-2-3.3-2.9C537.8,814.3,538.6,813.3,539.3,812.4z"/>
		<path class="st2" d="M571.1,822.2l2,3.8c0.7,1.4,1.4,2.9,1.4,5.4v3.1c0,2.5-1.4,5.2-3.6,7.9c-1.7,1.8-3.3,2.6-4.7,2.6
			c-2.1,0-4.5-0.8-7.3-2.2l0.3-1c0.9,0.3,1.9,0.5,3.1,0.5c4,0,8.1-3.5,9.9-7.6c0.2-0.5,0.3-0.9,0.3-1.2c0-0.5-0.2-1-0.4-1.5
			c-1-2.3-2.1-4.3-3.4-6.2c0.7-1.2,1.3-2.4,2-3.5L571.1,822.2z"/>
		<path class="st2" d="M580.8,829.1c0.1,2.4,1.1,4.4,4.6,4.4c2.2,0,4.1-0.7,6.1-1.8c0.4-0.2,0.6-0.5,0.6-0.7c0-1.5-1-3.5-2.7-5.4
			c-1.6-1.7-3.8-3.3-5.8-4.3c-0.7-0.3-0.9-0.7-0.9-1c0-0.7,0.8-2.2,1.4-3.2l0.2,0c2.3,1.4,4.9,3.5,6.8,5.9c1.7,2.1,2.8,4.3,2.8,6.7
			c0,1.8-0.5,3.4-1.2,4.9c-2.5,1.5-5.2,2.6-7.9,2.6c-3.2,0-5.4-1.8-5.4-6c0-0.5,0-1.2,0.1-2.1H580.8z"/>
		<path class="st2" d="M634.3,824.8c1.8-1.6,3.8-2.9,6.3-2.9c4,0,6.4,2.9,6.4,6.2c0,1.6-0.6,3.4-1.4,5h3.8v3.6h-1.1
			c-2.4,0-5.1-0.3-8.1-1c-1.7,0.5-3.7,1-6.6,1c-3.4,0-4.3-0.5-4.8-0.6c-0.3,1.8-0.6,3.2-1.1,4.4c-1.4,3.3-5.3,5.7-9.3,5.7
			c-5.5,0-8.2-4-8.2-9c0-3.1,0.8-5.9,2.1-7.9l1.1,0.5c-0.8,1.8-1.4,3.6-1.4,5.3c0,4.6,3.2,7.1,6.9,7.1c3.4,0,6.8-2.7,7.9-5.3
			c-0.3-3.3-1.3-6.3-3.1-9c0.5-1,1.2-2,2.1-3l0.2,0c1.2,1.9,2,4.1,2.3,7C630.1,829.5,631.9,827,634.3,824.8z M635.3,833.1
			c2.7,0,5.7-0.6,7.4-1.3c1.4-0.6,2.3-1.3,2.3-2.1c-0.4-2.4-2.8-4.2-5.3-4.2c-3.3,0-6.4,2.7-9.6,7
			C631.1,832.9,632.7,833.1,635.3,833.1z"/>
		<path class="st2" d="M650,833.1c2.4,0,4.3-0.8,4.7-2.5c0.2-1.1,0.5-2.2,0.7-3.2c0.6-0.6,1.2-1,1.9-1.5l0.2,0.2
			c-0.3,0.9-0.5,1.8-0.5,2.7c0,1.5,0.4,2.3,1.6,3.1c1.6-2.5,3.4-4.9,5.9-7.1c1.8-1.6,3.8-2.9,6.3-2.9c4,0,6.4,2.9,6.4,6.2
			c0,1.6-0.6,3.4-1.4,5h3.8v3.6h-0.7c-2.8,0-5.5-0.3-8.5-1c-1.7,0.5-3.7,1-6.6,1c-3.7,0-6.4-0.9-8-3h-0.1c-1.5,2.4-4,3-5.9,3h-0.3
			c-1.6,0-2-1.1-2-1.9c0-0.7,0.5-1.7,2-1.7H650z M665.3,833.1c2.9,0,5.8-0.7,7.4-1.3c1.4-0.6,2.3-1.3,2.3-2.1
			c-0.4-2.4-2.8-4.2-5.3-4.2c-3.3,0-6.4,2.7-9.6,7C661.2,832.9,662.8,833.1,665.3,833.1z"/>
		<path class="st2" d="M696.3,827.9c-3.3-1.2-6.3-2-8.9-2c-1.6,0-2.8,0.5-3.6,1.4l0.3,1.4l-0.8,2.5H683l-1.4-3.7
			c0.2-3.1,2.7-5.1,6.1-5.1c1.9,0,4.8,0.7,9.3,2.4c1.4,0.5,3.1,0.9,4.8,0.9h2.5l0.1,0.1l-1.8,2.9c-2.3,0-3.8,0.5-4.8,1.1l-4.7,3.1
			c-3.9,2.5-7.8,3.8-12.4,3.8h-1.3c-1.6,0-2-1.1-2-1.9c0-0.7,0.5-1.7,2-1.7h1.7c4.6,0,9.3-1.6,15.1-5.1L696.3,827.9z M689.2,812.7
			c1.2,0.8,2.3,1.9,3.4,3c-0.6,1-1.4,2-2.3,2.8c-1.1-1-2.2-2-3.3-2.9C687.7,814.6,688.5,813.6,689.2,812.7z M699.5,829.8
			L699.5,829.8c0.2,2.4,2.2,3.3,5.1,3.3h0.8v3.6h-0.9c-3.6,0-6.1-1.3-6.1-4.7c0-0.5,0-1,0.1-1.6L699.5,829.8z"/>
		<path class="st2" d="M705.8,833.1c2.4,0,4.3-0.1,5.6-0.5c1-0.4,1.6-0.8,1.6-1.2c0-1.3-1.4-4.1-2.8-7c0.7-1.2,1.4-2.3,2.1-3.2h0.1
			c1.3,2.3,2.8,5.8,2.8,8.6c0,2.1-0.8,3.8-2,5.3c-1.3,1.3-3.3,1.7-7.6,1.7h-0.3c-1.6,0-2-1.1-2-1.9c0-0.7,0.5-1.7,2-1.7H705.8z
			 M707.9,818.7c-1.2-1.1-2.2-2-3.3-2.9c0.7-1,1.5-2,2.2-2.7c1.2,0.9,2.1,1.8,3.2,3C709.3,817.3,708.7,818,707.9,818.7z
			 M713.4,818.4c-1.2-1.1-2.2-2-3.3-2.9c0.7-1,1.5-2,2.2-2.7c1.2,0.9,2.1,1.8,3.2,3C714.7,816.9,714.2,817.6,713.4,818.4z"/>
		<path class="st2" d="M753.5,825.9c-0.5-2.4-1.4-3.5-2.1-3.5c-1.2,0-3,0.8-4.5,2c-1.6,1.2-2.8,2.6-2.8,3.6c0,2.5,7.4,2.2,9.3,3.8
			c0.7,0.7,1.2,1.6,1.2,3.2c0,1.5-1,4-2.3,5.2c-2.8,2.6-7.1,4.7-10.9,4.7c-6.6,0-9.8-4.4-9.8-10.4c0-2.6,0.6-4.9,1.5-7l1.1,0.4
			c-0.6,1.9-0.9,3.5-0.9,4.9c0,5.3,3.6,8.2,8.3,8.2c1.8,0,4.8-0.7,7.6-2.3c1.8-1.1,3.5-2.4,3.5-2.8c0-0.8-2.1-1.5-4.4-1.8
			c-2.5-0.4-4.4-0.9-5.2-1.7c-0.6-0.7-1-1.4-1-2.5c0-2.9,1.2-5.3,3.1-7.3c2-2,5.1-4,7-4c0.9,0,1.6,0.5,2.1,1.5
			c0.5,1,0.7,1.9,0.7,2.7c0,0.7-0.7,2.1-1.2,3.1L753.5,825.9z"/>
		<path class="st2" d="M760.6,837.2c0.3-1.8,0.3-3.8,0.3-5.7v-2.8c0-5.2-0.6-12.7-1-17.6c0.8-1,1.9-2.2,2.8-3l0.3,0.1
			c0.6,6.2,0.7,13.3,0.7,19.9c0,1.7-0.1,3.4-0.2,4.7c-0.1,1.6-0.8,2.7-2.5,4.6L760.6,837.2z"/>
		<path class="st2" d="M775.2,822.2l2,3.8c0.7,1.4,1.4,2.9,1.4,5.4v3.1c0,2.5-1.4,5.2-3.6,7.9c-1.7,1.8-3.3,2.6-4.7,2.6
			c-2.1,0-4.5-0.8-7.3-2.2l0.3-1c0.9,0.3,1.9,0.5,3.1,0.5c4,0,8.1-3.5,9.9-7.6c0.2-0.5,0.3-0.9,0.3-1.2c0-0.5-0.2-1-0.4-1.5
			c-1-2.3-2.1-4.3-3.4-6.2c0.7-1.2,1.3-2.4,2-3.5L775.2,822.2z"/>
		<path class="st2" d="M784.1,837.2c0.3-1.8,0.3-3.8,0.3-5.7v-2.8c0-5.2-0.6-12.7-1-17.6c0.8-1,1.9-2.2,2.8-3l0.3,0.1
			c0.6,6.2,0.7,13.3,0.7,19.9c0,1.7-0.1,3.4-0.2,4.7c-0.1,1.6-0.8,2.7-2.5,4.6L784.1,837.2z"/>
		<path class="st2" d="M793.9,829.1c0.1,2.4,1.1,4.4,4.6,4.4c2.2,0,4.1-0.7,6.1-1.8c0.4-0.2,0.6-0.5,0.6-0.7c0-1.5-1-3.5-2.7-5.4
			c-1.6-1.7-3.8-3.3-5.8-4.3c-0.7-0.3-0.9-0.7-0.9-1c0-0.7,0.8-2.2,1.4-3.2l0.2,0c2.3,1.4,4.9,3.5,6.8,5.9c1.7,2.1,2.8,4.3,2.8,6.7
			c0,1.8-0.5,3.4-1.2,4.9c-2.5,1.5-5.2,2.6-7.9,2.6c-3.2,0-5.4-1.8-5.4-6c0-0.5,0-1.2,0.1-2.1H793.9z"/>
		<path class="st2" d="M832.4,827c1.6,3.9,3.1,6.1,6.4,6.1h0.5v3.6h-0.6c-1.2,0-2.1-0.3-2.9-0.9h-0.1c0,0.3,0.1,0.7,0.1,1
			c0,1.3-0.4,3-1.1,4.4c-2.2,3.9-4.7,5.6-6.8,5.6c-2.1,0-4.7-1-7.1-2.2l0.4-1c0.8,0.4,1.8,0.6,3.3,0.6c3.8,0,8.8-4.3,9.4-8.5
			c-0.1-0.3-0.4-0.8-0.8-1.3c-1.1-1.6-1.8-2.9-2.5-4.2c0.6-1.3,1.1-2.3,1.6-3.3L832.4,827z"/>
		<path class="st2" d="M856.8,807.4c-0.6,1.2-1.3,2.3-2,3.5c-1.4,0.4-3,0.8-4.6,1.4c-3,1-6.2,2.3-9.4,3.7v0.2l4.7,1.3l-0.7,1.4
			c4.6,3.5,7.2,6.4,7.2,9.3c0,2.6-0.7,4.7-1.8,5.9c-1.8,1.6-4.6,2.6-9.9,2.6h-1.1c-1.6,0-2-1.1-2-1.9c0-0.7,0.5-1.7,2-1.7h1.8
			c2.9,0,5.6-0.3,7.6-1.5c1-0.6,1.6-1.2,1.6-1.5c0-1.3-1-3-2.1-4.3c-1.4-1.6-4.4-3.9-8.5-7c-0.6-0.4-0.8-1.4-0.8-2.4
			c0-0.6,0.3-1.2,0.7-1.8c0.2-0.5,0.8-1,2.1-1.6c3.3-1.7,8.7-3.5,15.2-5.7L856.8,807.4z M840.1,811.2c0.2-0.6,0.4-1.2,0.7-1.8
			c3.7-1.8,8.5-3.6,14.7-5.4l0.1,0.1l-1,1.7c-6.3,2-10.8,3.7-14.4,5.5L840.1,811.2z"/>
		<path class="st2" d="M860.5,837.2c0.3-1.8,0.3-3.8,0.3-5.7v-2.8c0-5.2-0.6-12.7-1-17.6c0.8-1,1.9-2.2,2.8-3l0.3,0.1
			c0.6,6.2,0.7,13.3,0.7,19.9c0,1.7-0.1,3.4-0.2,4.7c-0.1,1.6-0.8,2.7-2.5,4.6L860.5,837.2z"/>
		<path class="st2" d="M104.7,906.3h-0.5c-2.5,0-4.7-1.1-5.8-4.6h-0.1c-0.2,1.1-0.8,2-2,2.7c-1.9,1.1-3.8,1.9-5.7,1.9
			c-3.2,0-4.9-1.9-4.9-5.2c0-0.7,0-1.4,0.1-2.1l1.1-0.1c0.1,2.3,1.3,3.8,4,3.8c1.5,0,3.3-0.7,4.6-1.4c1-0.6,1.8-1.4,1.8-2.1
			c0-1.9-1-5.7-2.3-10.5c0.7-1,1.3-2,2-2.9l0.2,0.1c1,4.1,1.9,8.4,2.7,12.6c0.5,2.8,2.3,4.3,4.5,4.3h0.5V906.3z"/>
		<path class="st2" d="M105.3,902.6c2.2,0,4.4-0.9,4.9-2.5l0.8-3.1l2-1.4l0.2,0.2c-0.4,1.4-0.6,2.7-0.6,3.3c0,1,0.3,1.8,0.9,2.3
			c0.9,0.7,2,1.1,3.5,1.1h0.5v3.6h-0.7c-2.8,0-4.9-0.8-5.8-2.9h-0.1c-1,1.9-3.2,2.9-5.6,2.9h-0.5c-1.6,0-2-1.1-2-1.9
			c0-0.7,0.5-1.7,2-1.7H105.3z M108.5,917.5c-1.2-1.1-2.2-2-3.3-2.9c0.7-1,1.5-2,2.2-2.7c1.2,0.9,2.1,1.8,3.2,3
			C109.8,916.1,109.3,916.8,108.5,917.5z M114,917.2c-1.2-1.1-2.2-2-3.3-2.9c0.7-1,1.5-2,2.2-2.7c1.2,0.9,2.1,1.8,3.2,3
			C115.3,915.7,114.7,916.4,114,917.2z"/>
		<path class="st2" d="M118.1,902.6c2.2,0,4.4-0.9,4.9-2.5l0.8-3.1l2-1.4l0.2,0.2c-0.4,1.4-0.6,2.7-0.6,3.3c0,1,0.3,1.8,0.9,2.3
			c0.9,0.7,2,1.1,3.5,1.1h0.5v3.6h-0.7c-2.8,0-4.9-0.8-5.8-2.9h-0.1c-1,1.9-3.2,2.9-5.6,2.9h-0.5c-1.6,0-2-1.1-2-1.9
			c0-0.7,0.5-1.7,2-1.7H118.1z M123,885.6c1.2,0.8,2.3,1.9,3.4,3c-0.6,1-1.4,2-2.3,2.8c-1.1-1-2.2-2-3.3-2.9
			C121.4,887.4,122.2,886.4,123,885.6z"/>
		<path class="st2" d="M147.8,875.7c-0.6,1.2-1.4,2.3-2.1,3.5c-1.4,0.4-3,0.8-4.6,1.4c-3,1-6.1,2.3-9.3,3.7v0.2l4.6,1.8l-0.7,1.4
			c4.4,3.5,7.3,7.1,7.3,10.1c0,2.6-0.7,4.7-1.8,5.9c-1.8,1.6-4.6,2.6-9.9,2.6h-1.1c-1.6,0-2-1.1-2-1.9c0-0.7,0.5-1.7,2-1.7h1.8
			c2.9,0,5.6-0.3,7.6-1.5c1-0.6,1.6-1.2,1.6-1.5c0-1.3-0.9-2.8-2-4.2c-1.2-1.7-3.9-4.4-8.5-8c-0.8-0.6-1-1.6-1-2.6
			c0-0.6,0.3-1.3,0.7-1.9c0.3-0.5,0.8-1.1,2.1-1.7c3.3-1.7,8.7-3.5,15.2-5.7L147.8,875.7z"/>
		<path class="st2" d="M184,895.4c-0.5-2.4-1.4-3.5-2.1-3.5c-1.2,0-3,0.8-4.5,2c-1.6,1.2-2.8,2.6-2.8,3.6c0,2.5,7.4,2.2,9.3,3.8
			c0.7,0.7,1.2,1.6,1.2,3.2c0,1.5-1,4-2.3,5.2c-2.8,2.6-7.1,4.7-10.9,4.7c-6.6,0-9.8-4.4-9.8-10.4c0-2.6,0.6-4.9,1.5-7l1.1,0.4
			c-0.6,1.9-0.9,3.5-0.9,4.9c0,5.3,3.6,8.2,8.3,8.2c1.8,0,4.8-0.7,7.6-2.3c1.8-1.1,3.5-2.4,3.5-2.8c0-0.8-2.1-1.5-4.4-1.8
			c-2.5-0.4-4.4-0.9-5.2-1.7c-0.6-0.7-1-1.4-1-2.5c0-2.9,1.2-5.3,3.1-7.3c2-2,5.1-4,7-4c0.9,0,1.6,0.5,2.1,1.5
			c0.5,1,0.7,1.9,0.7,2.7c0,0.7-0.7,2.1-1.2,3.1L184,895.4z"/>
		<path class="st2" d="M198.1,891.7l2,3.8c0.7,1.4,1.4,2.9,1.4,5.4v3.1c0,2.5-1.4,5.2-3.6,7.9c-1.7,1.8-3.3,2.6-4.7,2.6
			c-2.1,0-4.5-0.8-7.3-2.2l0.3-1c0.9,0.3,1.9,0.5,3.1,0.5c4,0,8.1-3.5,9.9-7.6c0.2-0.5,0.3-0.9,0.3-1.2c0-0.5-0.2-1-0.4-1.5
			c-1-2.3-2.1-4.3-3.4-6.2c0.7-1.2,1.3-2.4,2-3.5L198.1,891.7z"/>
		<path class="st2" d="M214,906.3h-0.3c-2.2,0-3.7-0.5-4.8-1.6c-1.7-1.8-1.8-3.8-1.8-7.9c0-5.4-0.3-11-0.7-17c1-1,1.8-2,2.7-2.6
			l0.2,0.1c0.5,6.2,0.5,13.5,0.5,20.5v1.6c0,1.8,1,2.6,2.1,3c0.7,0.3,1.4,0.3,1.8,0.3h0.4V906.3z"/>
		<path class="st2" d="M235.8,906.3h-0.6c-3.5,0-5.3-1.9-7.3-4.6c-0.9-1.2-1.8-2.4-2.5-3.1h-0.1c0,4.4-2.5,7.7-10.5,7.7H214
			c-1.6,0-2-1.1-2-1.9c0-0.7,0.5-1.7,2-1.7h1.1c2.3,0,5-0.4,6.8-1.6c0.6-0.4,1.4-1,1.4-1.4c0-0.6-0.3-1.2-0.6-1.9
			c-1.2-2.5-4-5.6-7-8.6c-0.8-0.8-1.4-1.4-1.8-1.9c-0.1-0.5-0.2-1-0.2-1.6c0-0.8,0.3-1.6,0.8-2.4c0.2-0.4,0.7-0.8,1-1
			c2.9-1.9,9.6-4.2,17.4-6.6l0.1,0.2c-0.6,1.2-1.3,2.3-2.2,3.5c-1.7,0.4-4.1,1.2-6.5,2.1c-3.4,1.3-6.6,2.5-8.6,3.6v0.1
			c1.5,1,3.2,1.7,4.4,2.2l-0.8,1.4c3,2.7,6.6,6.7,10.4,11.2c1.6,1.9,3.2,2.9,5.5,2.9h0.5V906.3z"/>
		<path class="st2" d="M236.6,902.6c3,0,3.9-1.5,4.8-4.2c1.1-3.5,3.3-5.4,5.2-5.4c1.4,0,2.4,0.5,3.4,1.9c0.7,1,1.3,2.1,2.8,5.3
			c0.6,1.3,2.1,2.3,4.4,2.3h0.5v3.6h-0.5c-1.6,0-3.2-0.6-4.4-2.5h-0.1c-0.2,0.9-0.5,1.6-0.9,2.1c-0.6,0.6-1.2,0.9-1.9,0.9
			c-2.2,0-5.7-1.5-8-4h-0.1c-0.8,1.8-2.6,3.3-5.6,3.3h-0.4c-1.6,0-2-1.1-2-1.9c0-0.7,0.5-1.7,2-1.7H236.6z M246.1,902.2
			c1.3,0.7,2.9,1.2,3.9,1.2c0.5,0,1-0.1,1-0.7c0-1.1-0.7-2.6-1.4-3.8c-1.1-1.7-2.4-2.5-3.6-2.5c-1.6,0-2.7,1.1-3.3,2.5
			C243.1,900,244.9,901.5,246.1,902.2z"/>
		<path class="st2" d="M258.2,902.6c1.4,0,3.3-0.1,5-0.8c-0.5-1.2-0.6-2.5-0.6-3.9c0-1.7,0.5-3.4,1.8-5.1c0.8-1.1,1.7-2,2.8-2.6
			c0.1-0.9,0.3-1.9,0.5-2.8h0.2c2.7,2.6,6.7,5.1,10,7.6c2.5,1.9,3.5,3.6,3.5,6.1c0,2.8-1.8,5.3-5.6,5.3c-2.3,0-5.9-0.7-9.6-1.9
			c-3.1,1.3-5.6,1.9-7.7,1.9h-0.7c-1.6,0-2-1.1-2-1.9c0-0.7,0.5-1.7,2-1.7H258.2z M271.6,897.8c0-2.4-1.7-4.5-2.9-4.5
			c-2.1,0-4.7,3-4.7,4.5c0,0.9,1,2.2,3.1,3.3C268.6,900.6,271.6,899.4,271.6,897.8z M276.6,903.1c1.6,0,3-0.5,3-1.3
			c0-1.8-2.5-3.8-6.1-6.1c-0.2,2.3-0.9,4.4-2.2,6.6C272.9,902.8,274.5,903.1,276.6,903.1z"/>
		<path class="st2" d="M304.9,906.3h-0.3c-2.2,0-3.7-0.5-4.8-1.6c-1.7-1.8-1.8-3.8-1.8-7.9c0-5.4-0.3-11-0.7-17c1-1,1.8-2,2.7-2.6
			l0.2,0.1c0.5,6.2,0.5,13.5,0.5,20.5v1.6c0,1.8,1,2.6,2.1,3c0.7,0.3,1.4,0.3,1.8,0.3h0.4V906.3z"/>
		<path class="st2" d="M305.4,902.6c2.4,0,4.3-0.1,5.6-0.5c1-0.4,1.6-0.8,1.6-1.2c0-1.3-1.4-4.1-2.8-7c0.7-1.2,1.4-2.3,2.1-3.2h0.1
			c1.3,2.3,2.8,5.8,2.8,8.6c0,2.1-0.8,3.8-2,5.3c-1.3,1.3-3.3,1.7-7.6,1.7h-0.3c-1.6,0-2-1.1-2-1.9c0-0.7,0.5-1.7,2-1.7H305.4z
			 M310.7,911.6c1.2,0.8,2.3,1.9,3.4,3c-0.6,1-1.4,2-2.3,2.8c-1.1-1-2.2-2-3.3-2.9C309.2,913.5,310,912.5,310.7,911.6z"/>
		<path class="st2" d="M350.3,906.3h-0.5c-2.5,0-4.7-1.1-5.8-4.6h-0.1c-0.2,1.1-0.8,2-2,2.7c-1.9,1.1-3.8,1.9-5.7,1.9
			c-3.2,0-4.9-1.9-4.9-5.2c0-0.7,0-1.4,0.1-2.1l1.1-0.1c0.1,2.3,1.3,3.8,4,3.8c1.5,0,3.3-0.7,4.6-1.4c1-0.6,1.8-1.4,1.8-2.1
			c0-1.9-1-5.7-2.3-10.5c0.7-1,1.3-2,2-2.9l0.2,0.1c1,4.1,1.9,8.4,2.7,12.6c0.5,2.8,2.3,4.3,4.5,4.3h0.5V906.3z"/>
		<path class="st2" d="M350.9,902.6c2.2,0,4.4-0.9,4.9-2.5l0.8-3.1l2-1.4l0.2,0.2c-0.4,1.4-0.6,2.7-0.6,3.3c0,1,0.3,1.8,0.9,2.3
			c0.9,0.7,2,1.1,3.5,1.1h0.5v3.6h-0.7c-2.8,0-4.9-0.8-5.8-2.9h-0.1c-1,1.9-3.2,2.9-5.6,2.9h-0.5c-1.6,0-2-1.1-2-1.9
			c0-0.7,0.5-1.7,2-1.7H350.9z M354.1,917.5c-1.2-1.1-2.2-2-3.3-2.9c0.7-1,1.5-2,2.2-2.7c1.2,0.9,2.1,1.8,3.2,3
			C355.4,916.1,354.9,916.8,354.1,917.5z M359.5,917.2c-1.2-1.1-2.2-2-3.3-2.9c0.7-1,1.5-2,2.2-2.7c1.2,0.9,2.1,1.8,3.2,3
			C360.9,915.7,360.3,916.4,359.5,917.2z"/>
		<path class="st2" d="M363.5,902.6c2.4,0,4.3-0.1,5.6-0.5c1-0.4,1.6-0.8,1.6-1.2c0-1.3-1.4-4.1-2.8-7c0.7-1.2,1.4-2.3,2.1-3.2h0.1
			c1.3,2.3,2.8,5.8,2.8,8.6c0,2.1-0.8,3.8-2,5.3c-1.3,1.3-3.3,1.7-7.6,1.7H363c-1.6,0-2-1.1-2-1.9c0-0.7,0.5-1.7,2-1.7H363.5z
			 M367.4,881.6c1.2,0.8,2.3,1.9,3.4,3c-0.6,1-1.4,2-2.3,2.8c-1.1-1-2.2-2-3.3-2.9C365.9,883.5,366.7,882.5,367.4,881.6z"/>
		<path class="st2" d="M378.4,906.7c0.3-1.8,0.3-3.8,0.3-5.7v-2.8c0-5.2-0.6-12.7-1-17.6c0.8-1,1.9-2.2,2.8-3l0.3,0.1
			c0.6,6.2,0.7,13.3,0.7,19.9c0,1.7-0.1,3.4-0.2,4.7c-0.1,1.6-0.8,2.7-2.5,4.6L378.4,906.7z"/>
		<path class="st2" d="M401.8,902.6v3.6h-2.3c-0.1,1.8-1,4-2.1,5.8c-2.2,3.3-5.3,4.8-6.8,4.8c-2.6,0-5.4-1.2-8.1-2.9l0.5-0.9
			c1.1,0.6,2.5,1,4.2,1c2.9,0,5.4-1.4,7.9-3.9c1.4-1.4,2.3-2.5,2.7-4h-1.4c-5.8,0-8.7-1.8-8.7-5.8c0-1.9,0.6-3.4,1.4-4.6
			c1.1-1.6,2.6-2.7,4.4-2.7c2.6,0,5.3,3.6,6.1,9.4H401.8z M395.4,898.5c-0.9-1-2-1.6-3-1.6c-1.6,0-3.2,1.4-3.2,2.5
			c0,1.4,1.3,2.3,3.1,2.8c1.6,0.4,3.3,0.4,5.1,0.4C397,901.1,396.3,899.6,395.4,898.5z"/>
		<path class="st2" d="M402.4,902.6c2.2,0,4.4-0.9,4.9-2.5l0.8-3.1l2-1.4l0.2,0.2c-0.4,1.4-0.6,2.7-0.6,3.3c0,1,0.3,1.8,0.9,2.3
			c0.9,0.7,2,1.1,3.5,1.1h0.5v3.6h-0.7c-2.8,0-4.9-0.8-5.8-2.9h-0.1c-1,1.9-3.2,2.9-5.6,2.9h-0.5c-1.6,0-2-1.1-2-1.9
			c0-0.7,0.5-1.7,2-1.7H402.4z M405.5,891.9c-1.2-1.1-2.2-2-3.3-2.9c0.7-1,1.5-2,2.2-2.7c1.2,0.9,2.1,1.8,3.2,3
			C406.9,890.5,406.3,891.2,405.5,891.9z M411,891.6c-1.2-1.1-2.2-2-3.3-2.9c0.7-1,1.5-2,2.2-2.7c1.2,0.9,2.1,1.8,3.2,3
			C412.3,890.1,411.8,890.8,411,891.6z"/>
		<path class="st2" d="M415.2,902.6c2.2,0,4.4-0.9,4.9-2.5l0.8-3.1l2-1.4l0.2,0.2c-0.4,1.4-0.6,2.7-0.6,3.3c0,1,0.3,1.8,0.9,2.3
			c0.9,0.7,2,1.1,3.5,1.1h0.5v3.6h-0.7c-2.8,0-4.9-0.8-5.8-2.9h-0.1c-1,1.9-3.2,2.9-5.6,2.9h-0.5c-1.6,0-2-1.1-2-1.9
			c0-0.7,0.5-1.7,2-1.7H415.2z M418.4,917.5c-1.2-1.1-2.2-2-3.3-2.9c0.7-1,1.5-2,2.2-2.7c1.2,0.9,2.1,1.8,3.2,3
			C419.7,916.1,419.1,916.8,418.4,917.5z M423.8,917.2c-1.2-1.1-2.2-2-3.3-2.9c0.7-1,1.5-2,2.2-2.7c1.2,0.9,2.1,1.8,3.2,3
			C425.2,915.7,424.6,916.4,423.8,917.2z"/>
		<path class="st2" d="M427.9,902.6c2.1,0,3.7-1.4,4.8-5c0.3-1.1,1-2.3,2.1-3.4c1-1,2.2-1.6,3.6-1.6c3.5,0,5.5,4.8,5.9,9.7
			c-0.6,2.6-1.6,3.6-3,3.6c-2.8,0-5.6-1.3-8.4-3.3h-0.2c-0.7,2.5-2.3,3.7-4.9,3.7h-0.5c-1.6,0-2-1.1-2-1.9c0-0.7,0.5-1.7,2-1.7
			H427.9z M437.8,901.5c1.1,0.5,2.2,0.8,3.4,0.8c0.4,0,0.8-0.1,0.9-0.3c-0.8-4.3-2.7-6.2-4.5-6.2c-1.6,0-3,0.9-3.8,2.8
			C434.7,899.9,436.1,900.8,437.8,901.5z"/>
		<path class="st2" d="M463.4,906.7c-1.6,0-4-1.7-4-4.6c0-3.3,3.1-5.2,5.8-5.9l0.5,1.3c-2.1,0.8-3.3,2-3.3,3.5
			c0,1.5,1.2,2.5,2.7,2.9c0.2,0,0.5,0.4,0.5,1.1C465.6,906,464.5,906.7,463.4,906.7L463.4,906.7z"/>
		<path class="st2" d="M500.5,906.3h-0.5c-2.5,0-4.7-1.1-5.8-4.6H494c-0.2,1.1-0.8,2-2,2.7c-1.9,1.1-3.8,1.9-5.7,1.9
			c-3.2,0-4.9-1.9-4.9-5.2c0-0.7,0-1.4,0.1-2.1l1.1-0.1c0.1,2.3,1.3,3.8,4,3.8c1.5,0,3.3-0.7,4.6-1.4c1-0.6,1.8-1.4,1.8-2.1
			c0-1.9-1-5.7-2.3-10.5c0.7-1,1.3-2,2-2.9l0.2,0.1c1,4.1,1.9,8.4,2.7,12.6c0.5,2.8,2.3,4.3,4.5,4.3h0.5V906.3z"/>
		<path class="st2" d="M501,902.6c2.4,0,4.3-0.1,5.6-0.5c1-0.4,1.6-0.8,1.6-1.2c0-1.3-1.4-4.1-2.8-7c0.7-1.2,1.4-2.3,2.1-3.2h0.1
			c1.3,2.3,2.8,5.8,2.8,8.6c0,2.1-0.8,3.8-2,5.3c-1.3,1.3-3.3,1.7-7.6,1.7h-0.3c-1.6,0-2-1.1-2-1.9c0-0.7,0.5-1.7,2-1.7H501z
			 M503.7,917.5c-1.2-1.1-2.2-2-3.3-2.9c0.7-1,1.5-2,2.2-2.7c1.2,0.9,2.1,1.8,3.2,3C505.1,916.1,504.5,916.8,503.7,917.5z
			 M509.2,917.2c-1.2-1.1-2.2-2-3.3-2.9c0.7-1,1.5-2,2.2-2.7c1.2,0.9,2.1,1.8,3.2,3C510.5,915.7,510,916.4,509.2,917.2z"/>
		<path class="st2" d="M525,891.7l2,3.8c0.7,1.4,1.4,2.9,1.4,5.4v3.1c0,2.5-1.4,5.2-3.6,7.9c-1.7,1.8-3.3,2.6-4.7,2.6
			c-2.1,0-4.5-0.8-7.3-2.2l0.3-1c0.9,0.3,1.9,0.5,3.1,0.5c4,0,8.1-3.5,9.9-7.6c0.2-0.5,0.3-0.9,0.3-1.2c0-0.5-0.2-1-0.4-1.5
			c-1-2.3-2.1-4.3-3.4-6.2c0.7-1.2,1.3-2.4,2-3.5L525,891.7z"/>
		<path class="st2" d="M533.9,906.7c0.3-1.8,0.3-3.8,0.3-5.7v-2.8c0-5.2-0.6-12.7-1-17.6c0.8-1,1.9-2.2,2.8-3l0.3,0.1
			c0.6,6.2,0.7,13.3,0.7,19.9c0,1.7-0.1,3.4-0.2,4.7c-0.1,1.6-0.8,2.7-2.5,4.6L533.9,906.7z"/>
		<path class="st2" d="M543.7,898.6c0.1,2.4,1.1,4.4,4.6,4.4c2.2,0,4.1-0.7,6.1-1.8c0.4-0.2,0.6-0.5,0.6-0.7c0-1.5-1-3.5-2.7-5.4
			c-1.6-1.7-3.8-3.3-5.8-4.3c-0.7-0.3-0.9-0.7-0.9-1c0-0.7,0.8-2.2,1.4-3.2l0.2,0c2.3,1.4,4.9,3.5,6.8,5.9c1.7,2.1,2.8,4.3,2.8,6.7
			c0,1.8-0.5,3.4-1.2,4.9c-2.5,1.5-5.2,2.6-7.9,2.6c-3.2,0-5.4-1.8-5.4-6c0-0.5,0-1.2,0.1-2.1H543.7z"/>
		<path class="st2" d="M573.7,906.7c0.3-1.8,0.3-3.8,0.3-5.7v-2.8c0-5.2-0.6-12.7-1-17.6c0.8-1,1.9-2.2,2.8-3l0.3,0.1
			c0.6,6.2,0.7,13.3,0.7,19.9c0,1.7-0.1,3.4-0.2,4.7c-0.1,1.6-0.8,2.7-2.5,4.6L573.7,906.7z"/>
		<path class="st2" d="M588.3,891.7l2,3.8c0.7,1.4,1.4,2.9,1.4,5.4v3.1c0,2.5-1.4,5.2-3.6,7.9c-1.7,1.8-3.3,2.6-4.7,2.6
			c-2.1,0-4.5-0.8-7.3-2.2l0.3-1c0.9,0.3,1.9,0.5,3.1,0.5c4,0,8.1-3.5,9.9-7.6c0.2-0.5,0.3-0.9,0.3-1.2c0-0.5-0.2-1-0.4-1.5
			c-1-2.3-2.1-4.3-3.4-6.2c0.7-1.2,1.3-2.4,2-3.5L588.3,891.7z"/>
		<path class="st2" d="M625.1,889.9c2,3.7,3,7.3,3,11.6c0,2.8-0.9,6-2,7.2c-2.4,2.6-6.1,4.3-9.4,4.3c-5.3,0-8.7-3.5-8.7-8.6
			c0-3.6,1.1-6.1,2.4-8.2l1.1,0.6c-1,1.8-1.6,4-1.6,5.3c0,2.4,0.8,3.9,1.9,4.9c1.2,1.1,3.2,1.9,5.3,1.9c2.3,0,5.1-1.1,6.8-2.5
			c1.2-1,2-1.8,2-2.3c0-2-0.5-3.6-0.9-5c-0.7-2.2-1.5-4.1-2.4-5.6c0.7-1.2,1.4-2.4,2.2-3.6L625.1,889.9z M617.4,880.8
			c1.2,0.8,2.3,1.9,3.4,3c-0.6,1-1.4,2-2.3,2.8c-1.1-1-2.2-2-3.3-2.9C615.9,882.6,616.6,881.6,617.4,880.8z"/>
		<path class="st2" d="M641.2,871.9c-0.3,0.8-0.5,1.6-0.8,2.1c-1.1,0.9-2.4,1.4-4,1.4c-1.8,0-3.8-0.5-5.2-0.5c-0.5,0-1,1-1.6,2.2
			h-0.2l-1-1.7c0-1.3,0.6-3.1,2.6-3.1c2,0,4,0.8,6.1,0.8c0.8,0,1.5-0.1,2.3-0.4c0.5-0.2,1.1-0.5,1.6-0.9L641.2,871.9z M633.7,906.7
			c0.3-1.8,0.3-3.8,0.3-5.7v-2.8c0-5.2-0.6-12.7-1-17.6c0.8-1,1.9-2.2,2.8-3l0.3,0.1c0.6,6.2,0.7,13.3,0.7,19.9
			c0,1.7-0.1,3.4-0.2,4.7c-0.1,1.6-0.8,2.7-2.5,4.6L633.7,906.7z"/>
		<path class="st2" d="M671.7,895.1c0.8,1.4,1.3,2.8,1.8,4.3c0.4,0.9,0.6,2.5,2.3,2.5c0.5,0,1.2-0.2,1.9-0.6
			c0.7-0.5,1.3-1.1,1.6-2.2l0.7-2.8l1.7-1l0.1,0.1c-0.2,1-0.3,2-0.3,2.8c0,2.3,1.7,3.2,3.1,3.2c0.8,0,1.5-0.5,1.5-1.3
			c0-1.1-0.4-3-0.9-4.6c0.8-0.9,1.6-1.9,2.5-2.6l0.1,0.1c0.4,2,0.6,3.9,0.6,5.2c0,1.3-0.5,2.7-0.9,3.6c-0.8,1.8-2.3,3.3-4,3.3
			c-1.3,0-2.8-0.8-3.8-2.2h-0.1c-1,1.4-2.4,2.7-4.8,2.7h-0.7c-0.1,1.8-0.5,3.1-1,4.3c-1.4,3.3-5.6,5.5-9.5,5.5
			c-5.5,0-8.2-3.7-8.2-8.7c0-3.1,0.8-5.9,2.1-7.9l1.1,0.5c-0.8,1.8-1.4,3.6-1.4,5.3c0,4.6,3.2,6.8,6.9,6.8c3.4,0,7.7-2.6,8.4-5.5
			c-0.3-3.3-1.3-4.8-2.9-7.7c0.5-1,1.1-2,1.9-3H671.7z M677.4,891.1c-1.2-1.1-2.2-2-3.3-2.9c0.7-1,1.5-2,2.2-2.7
			c1.2,0.9,2.1,1.8,3.2,3C678.8,889.6,678.2,890.3,677.4,891.1z M678.9,885.1c-1.2-1.1-2.2-2-3.3-2.9c0.7-1,1.5-2,2.2-2.7
			c1.2,0.9,2.1,1.8,3.2,3C680.3,883.6,679.7,884.3,678.9,885.1z M682.9,890.7c-1.2-1.1-2.2-2-3.3-2.9c0.7-1,1.5-2,2.2-2.7
			c1.2,0.9,2.1,1.8,3.2,3C684.2,889.2,683.7,890,682.9,890.7z"/>
		<path class="st2" d="M698,891.7l2,3.8c0.7,1.4,1.4,2.9,1.4,5.4v3.1c0,2.5-1.4,5.2-3.6,7.9c-1.7,1.8-3.3,2.6-4.7,2.6
			c-2.1,0-4.5-0.8-7.3-2.2l0.3-1c0.9,0.3,1.9,0.5,3.1,0.5c4,0,8.1-3.5,9.9-7.6c0.2-0.5,0.3-0.9,0.3-1.2c0-0.5-0.2-1-0.4-1.5
			c-1-2.3-2.1-4.3-3.4-6.2c0.7-1.2,1.3-2.4,2-3.5L698,891.7z M695.4,881.9c1.2,0.8,2.3,1.9,3.4,3c-0.6,1-1.4,2-2.3,2.8
			c-1.1-1-2.2-2-3.3-2.9C693.9,883.8,694.7,882.8,695.4,881.9z"/>
		<path class="st2" d="M722.4,902.6v3.6h-2.3c-0.1,1.8-1,4-2.1,5.8c-2.2,3.3-5.3,4.8-6.8,4.8c-2.6,0-5.4-1.2-8.1-2.9l0.5-0.9
			c1.1,0.6,2.5,1,4.2,1c2.9,0,5.4-1.4,7.9-3.9c1.4-1.4,2.3-2.5,2.7-4h-1.4c-5.8,0-8.7-1.8-8.7-5.8c0-1.9,0.6-3.4,1.4-4.6
			c1.1-1.6,2.6-2.7,4.4-2.7c2.6,0,5.3,3.6,6.1,9.4H722.4z M716,898.5c-0.9-1-2-1.6-3-1.6c-1.6,0-3.2,1.4-3.2,2.5
			c0,1.4,1.3,2.3,3.1,2.8c1.6,0.4,3.3,0.4,5.1,0.4C717.7,901.1,717,899.6,716,898.5z"/>
		<path class="st2" d="M723.1,902.6c2.1,0,3.7-1.4,4.8-5c0.3-1.1,1-2.3,2.1-3.4c1-1,2.2-1.6,3.6-1.6c3.5,0,5.5,4.8,5.9,9.7
			c-0.6,2.6-1.6,3.6-3,3.6c-2.8,0-5.6-1.3-8.4-3.3h-0.2c-0.7,2.5-2.3,3.7-4.9,3.7h-0.5c-1.6,0-2-1.1-2-1.9c0-0.7,0.5-1.7,2-1.7
			H723.1z M733,901.5c1.1,0.5,2.2,0.8,3.4,0.8c0.4,0,0.8-0.1,0.9-0.3c-0.8-4.3-2.7-6.2-4.5-6.2c-1.6,0-3,0.9-3.8,2.8
			C729.8,899.9,731.3,900.8,733,901.5z"/>
		<path class="st2" d="M752.2,871.9c-0.3,0.8-0.5,1.6-0.8,2.1c-1.1,0.9-2.4,1.4-4,1.4c-1.8,0-3.8-0.5-5.2-0.5c-0.5,0-1,1-1.6,2.2
			h-0.2l-1-1.7c0-1.3,0.6-3.1,2.6-3.1c2,0,4,0.8,6.1,0.8c0.8,0,1.5-0.1,2.3-0.4c0.5-0.2,1.1-0.5,1.6-0.9L752.2,871.9z M744.7,906.7
			c0.3-1.8,0.3-3.8,0.3-5.7v-2.8c0-5.2-0.6-12.7-1-17.6c0.8-1,1.9-2.2,2.8-3l0.3,0.1c0.6,6.2,0.7,13.3,0.7,19.9
			c0,1.7-0.1,3.4-0.2,4.7c-0.1,1.6-0.8,2.7-2.5,4.6L744.7,906.7z"/>
		<path class="st2" d="M792.6,902.6v3.6h-1.6c0.1,0.8,0.1,1.5,0.1,2c0,0.9-0.9,2.9-1.3,3.5c-3.6,3.3-9,5.3-13.2,5.3
			c-3.6,0-6.1-1.2-7.8-3.1c-1.8-2-2.5-4.7-2.5-7.9c0-2.8,1.1-6.6,2.7-9.3l1.1,0.5c-1.2,2.9-1.7,5.2-1.7,7.1c0,2.4,0.8,4.6,2.3,6.2
			c1.7,1.8,4.2,2.7,6.8,2.7c2.6,0,5.6-0.8,9-2.4c1.3-0.7,2.3-1.4,2.5-2c-0.7-1.4-3.7-2.6-8.2-2.6l-0.2-0.4l2-3.2H792.6z"/>
		<path class="st2" d="M793.1,902.6c2.4,0,4.3-0.1,5.6-0.5c1-0.4,1.6-0.8,1.6-1.2c0-1.3-1.4-4.1-2.8-7c0.7-1.2,1.4-2.3,2.1-3.2h0.1
			c1.3,2.3,2.8,5.8,2.8,8.6c0,2.1-0.8,3.8-2,5.3c-1.3,1.3-3.3,1.7-7.6,1.7h-0.3c-1.6,0-2-1.1-2-1.9c0-0.7,0.5-1.7,2-1.7H793.1z
			 M795.8,917.5c-1.2-1.1-2.2-2-3.3-2.9c0.7-1,1.5-2,2.2-2.7c1.2,0.9,2.1,1.8,3.2,3C797.2,916.1,796.6,916.8,795.8,917.5z
			 M801.3,917.2c-1.2-1.1-2.2-2-3.3-2.9c0.7-1,1.5-2,2.2-2.7c1.2,0.9,2.1,1.8,3.2,3C802.6,915.7,802.1,916.4,801.3,917.2z"/>
		<path class="st2" d="M815.2,906.3h-0.3c-2.2,0-3.7-0.5-4.8-1.6c-1.7-1.8-1.8-3.8-1.8-7.9c0-5.4-0.3-11-0.7-17c1-1,1.8-2,2.7-2.6
			l0.2,0.1c0.5,6.2,0.5,13.5,0.5,20.5v1.6c0,1.8,1,2.6,2.1,3c0.7,0.3,1.4,0.3,1.8,0.3h0.4V906.3z"/>
		<path class="st2" d="M815.6,902.6c2.4,0,4.3-0.1,5.6-0.5c1-0.4,1.6-0.8,1.6-1.2c0-1.3-1.4-4.1-2.8-7c0.7-1.2,1.4-2.3,2.1-3.2h0.1
			c1.3,2.3,2.8,5.8,2.8,8.6c0,2.1-0.8,3.8-2,5.3c-1.3,1.3-3.3,1.7-7.6,1.7h-0.3c-1.6,0-2-1.1-2-1.9c0-0.7,0.5-1.7,2-1.7H815.6z
			 M819.6,881.6c1.2,0.8,2.3,1.9,3.4,3c-0.6,1-1.4,2-2.3,2.8c-1.1-1-2.2-2-3.3-2.9C818.1,883.5,818.8,882.5,819.6,881.6z"/>
		<path class="st2" d="M830.5,906.7c0.3-1.8,0.3-3.8,0.3-5.7v-2.8c0-5.2-0.6-12.7-1-17.6c0.8-1,1.9-2.2,2.8-3l0.3,0.1
			c0.6,6.2,0.7,13.3,0.7,19.9c0,1.7-0.1,3.4-0.2,4.7c-0.1,1.6-0.8,2.7-2.5,4.6L830.5,906.7z"/>
		<path class="st2" d="M853.9,902.6v3.6h-2.3c-0.1,1.8-1,4-2.1,5.8c-2.2,3.3-5.3,4.8-6.8,4.8c-2.6,0-5.4-1.2-8.1-2.9l0.5-0.9
			c1.1,0.6,2.5,1,4.2,1c2.9,0,5.4-1.4,7.9-3.9c1.4-1.4,2.3-2.5,2.7-4h-1.4c-5.8,0-8.7-1.8-8.7-5.8c0-1.9,0.6-3.4,1.4-4.6
			c1.1-1.6,2.6-2.7,4.4-2.7c2.6,0,5.3,3.6,6.1,9.4H853.9z M847.5,898.5c-0.9-1-2-1.6-3-1.6c-1.6,0-3.2,1.4-3.2,2.5
			c0,1.4,1.3,2.3,3.1,2.8c1.6,0.4,3.3,0.4,5.1,0.4C849.2,901.1,848.5,899.6,847.5,898.5z"/>
		<path class="st2" d="M854.4,902.6c2.4,0,4.3-0.1,5.6-0.5c1-0.4,1.6-0.8,1.6-1.2c0-1.3-1.4-4.1-2.8-7c0.7-1.2,1.4-2.3,2.1-3.2h0.1
			c1.3,2.3,2.8,5.8,2.8,8.6c0,2.1-0.8,3.8-2,5.3c-1.3,1.3-3.3,1.7-7.6,1.7h-0.3c-1.6,0-2-1.1-2-1.9c0-0.7,0.5-1.7,2-1.7H854.4z
			 M856.5,888.2c-1.2-1.1-2.2-2-3.3-2.9c0.7-1,1.5-2,2.2-2.7c1.2,0.9,2.1,1.8,3.2,3C857.9,886.8,857.3,887.5,856.5,888.2z
			 M862,887.9c-1.2-1.1-2.2-2-3.3-2.9c0.7-1,1.5-2,2.2-2.7c1.2,0.9,2.1,1.8,3.2,3C863.4,886.4,862.8,887.1,862,887.9z"/>
	</g>
	<g>
		<g>
			<path class="st2" d="M419,85.8c1.2-0.6,2.4-1.1,3.6-1.6c36.8-15.7,76.1,8.8,113.9,8.5c34.9-0.3,68-18.2,102.9-17.5
				c10.4,0.2,21.1,2.2,29.6,8.4c9.2,6.7,14.8,17.5,22.6,25.9c18.1,19.6,48.9,27.5,58.1,52.9c7.2,20-2.5,41.8-10.2,61.6
				c-13.2,34-20.6,72.2-9.9,107.1c7.7,25,24.3,46.9,27.8,72.9c3.1,22.8-4.4,46.1-15.1,66c-14.3,26.5-14.2,56.7-21.2,85.3
				c-4.6,18.7-13.9,37.6-30.7,46.9c-15.1,8.4-32.8,7.5-49.5,8.4c-17.3,1-33.8,1.8-51.1-0.2c-29.2-3.4-57.9-10.5-87.3-12.5
				c-53.6-3.8-106.9,9.3-160.5,12c-29.6,1.5-61-0.6-85.7-17.5c-21.1-14.4-35.1-38.5-40.5-64.1c-5.3-25.6-2.5-52.5,5.1-77.5
				c9.3-30.4,25.8-60.2,22.3-91.9c-2.2-19.9-12.2-37.8-17.8-56.9c-7.8-26.2-7.2-55.6,4.4-80.3c6.9-14.7,17.8-27.4,31.2-36.1
				c15.5-10,32.9-7.8,49.9-14.3C354.6,154.9,377.8,106,419,85.8z"/>
		</g>
		<g>
			<path class="st3" d="M698.9,316.6h-10.6c-1.7-6.9-4.4-13.4-8-19.3l7.5-7.5c2.5-2.5,2.5-6.5,0-9l-15.5-15.5c-2.5-2.5-6.5-2.5-9,0
				l-7.5,7.5c-5.9-3.6-12.4-6.3-19.3-8v-10.6c0-3.5-2.9-6.4-6.4-6.4h-21.9c-3.5,0-6.4,2.9-6.4,6.4v10.6c-6.9,1.7-13.4,4.4-19.3,8
				l-7.5-7.5c-2.5-2.5-6.5-2.5-9,0l-15.5,15.5c-2.5,2.5-2.5,6.5,0,9l7.5,7.5c-3.6,5.9-6.3,12.4-8,19.3h-10.6c-3.5,0-6.4,2.9-6.4,6.4
				v21.9c0,3.5,2.9,6.4,6.4,6.4h10.6c1.7,6.9,4.4,13.4,8,19.3l-7.5,7.5c-2.5,2.5-2.5,6.5,0,9l15.5,15.5c2.5,2.5,6.5,2.5,9,0l7.5-7.5
				c5.9,3.6,12.4,6.3,19.3,8v10.6c0,3.5,2.9,6.4,6.4,6.4h21.9c3.5,0,6.4-2.9,6.4-6.4V403c6.9-1.7,13.4-4.4,19.3-8l7.5,7.5
				c2.5,2.5,6.5,2.5,9,0l15.5-15.5c2.5-2.5,2.5-6.5,0-9l-7.5-7.5c3.6-5.9,6.3-12.4,8-19.3h10.6c3.5,0,6.4-2.9,6.4-6.4v-21.9
				C705.3,319.4,702.4,316.6,698.9,316.6z M619.2,377c-23.8,0-43.1-19.3-43.1-43.1c0-23.8,19.3-43.1,43.1-43.1s43.1,19.3,43.1,43.1
				C662.3,357.7,643,377,619.2,377z"/>
		</g>
		<g>
			<path class="st4" d="M475.7,297.4h-7.9c-1.3-5.1-3.3-10-6-14.4l5.6-5.6c1.9-1.9,1.9-4.9,0-6.7l-11.5-11.5c-1.9-1.9-4.9-1.9-6.7,0
				l-5.6,5.6c-4.4-2.7-9.3-4.7-14.4-6v-7.9c0-2.6-2.1-4.7-4.8-4.7h-16.3c-2.6,0-4.7,2.1-4.7,4.7v7.9c-5.1,1.3-10,3.3-14.4,6
				l-5.6-5.6c-1.9-1.9-4.9-1.9-6.7,0l-11.5,11.5c-1.9,1.9-1.9,4.9,0,6.7l5.6,5.6c-2.7,4.4-4.7,9.3-6,14.4H357
				c-2.6,0-4.7,2.1-4.7,4.7v16.3c0,2.6,2.1,4.7,4.7,4.7h7.9c1.3,5.1,3.3,10,6,14.4l-5.6,5.6c-1.9,1.9-1.9,4.9,0,6.7l11.5,11.5
				c1.9,1.9,4.9,1.9,6.7,0l5.6-5.6c4.4,2.7,9.3,4.7,14.4,6v7.9c0,2.6,2.1,4.8,4.7,4.8h16.3c2.6,0,4.8-2.1,4.8-4.8v-7.9
				c5.1-1.3,10-3.3,14.4-6l5.6,5.6c1.9,1.9,4.9,1.9,6.7,0l11.5-11.5c1.9-1.9,1.9-4.9,0-6.7l-5.6-5.6c2.7-4.4,4.7-9.3,6-14.4h7.9
				c2.6,0,4.7-2.1,4.7-4.7v-16.3C480.5,299.5,478.3,297.4,475.7,297.4z M416.3,342.4c-17.7,0-32.1-14.4-32.1-32.1
				c0-17.7,14.4-32.1,32.1-32.1c17.7,0,32.1,14.4,32.1,32.1C448.4,328,434.1,342.4,416.3,342.4z"/>
		</g>
		<g>
			<g>
				<g>
					<g>
						<path class="st5" d="M339.2,403.9c-0.7-2-1.4-3.9-2.1-5.8L339.2,403.9z"/>
					</g>
					<g>
						<path class="st5" d="M337,415.2l0-17.2c-3.7-9.4-8.1-17.7-12.1-23.8c-4.4,4.7-5.9,19.3-5.9,19.3c0.4-15.1,2-19.6,2.2-24.5
							c-6.5-8.5-16.5-13.1-24.3-18.2c3.2,17.9,2.9,22.4,2.9,22.4c-1-10.7-4.6-18.2-6.3-24.5c-20-11.8-30.4-8.7-30.4-8.7
							c0.2,7.6,2.7,24.4,3.4,30.8c8.5,7.2,20.2,14.3,20.2,14.3c-6.1-1.9-14-6.7-19.7-10.3c1.3,9.4,1.2,7.8,3.6,15.2
							c8.4,7.7,25.5,16.5,25.5,16.5c-7.4-1.8-17.8-7.4-23.5-10.7c4.9,12.6,11.4,22.7,19.4,31.7c8.8,3.9,18.1,6.8,18.1,6.8
							c-4.3-0.3-9.7-1.5-14.6-3c9.4,9.8,20.4,18.5,32.6,28.3l12.3,5l3.9-18.4c1.8-14.7-0.8-29.4-5.1-42.2L337,415.2z"/>
					</g>
				</g>
				<g>
					<path class="st6" d="M327.2,433c2.3,4.4,4.6,8.8,6.6,13.4c2,4.6,3.7,9.3,4.9,14.3l-0.2,0.1c-1.3-4.9-3.1-9.5-5.3-14
						c-2.1-4.5-4.5-8.8-6.9-13.1c-4.9-8.6-10.1-16.9-15.4-25.2c-5.3-8.3-10.8-16.4-15.7-25c-2.5-4.3-4.9-8.6-7.2-13
						c-2.3-4.4-4.4-8.9-6.4-13.5l0.2-0.1c4.9,8.6,10,17,15.2,25.3c5.2,8.3,10.2,16.8,15.3,25.2C317.4,415.8,322.5,424.3,327.2,433z"
						/>
				</g>
			</g>
			<g>
				<g>
					<path class="st4" d="M311.1,460.9c0.1-18.2,1.3-25.8,0-31.8c-10.5-7.8-21.8-12.7-32.8-15.9c9.3,20.4,7,34.8,7,34.8
						c-0.5-14.7-7.6-29-11.7-36c-27.7-6.6-52-2.1-52-2.1c2.6,9,5.3,17.3,8.2,24.8c12.4,5.5,28.7,9.6,28.7,9.6
						c-7.9,0-18.9-2.7-26.8-5c4.4,10.8,9.2,20,14.4,28c12.5,6.1,35.8,10.2,35.8,10.2c-9.5,0.6-23.7-2.2-31.5-3.9
						c9.7,13.3,20.7,23,33,30.8c11.7,1.4,23.9,1.3,23.9,1.3c-5.2,1.3-12.1,1.8-18.5,1.9c14.3,8.3,30.2,14.6,47.9,21.7l16.4,1.4
						l-1-23.6c-4.5-35.4-18-58.3-34.6-73.1C313.3,441.3,311.1,460.9,311.1,460.9z"/>
				</g>
				<g>
					<path class="st7" d="M349.2,526.7c-3-5.4-6.7-10.3-10.6-14.8c-3.9-4.6-8.1-8.9-12.3-13.2c-8.5-8.5-17.3-16.5-26.2-24.4
						c-8.9-8-18-15.7-26.6-24.1c-4.3-4.2-8.5-8.5-12.6-12.9c-4.1-4.4-8.1-9-11.8-13.9l0.2-0.2c8.5,8.5,17.3,16.6,26,24.7
						c8.8,8.1,17.4,16.4,26.2,24.6c8.7,8.2,17.4,16.5,25.8,25.2c4.1,4.4,8.2,8.9,12,13.7c3.8,4.7,7.4,9.8,10.2,15.3L349.2,526.7z"/>
				</g>
			</g>
		</g>
		<g>
			<g>
				<g>
					<g>
						<path class="st4" d="M668.6,461.3c1.4-1.2,2.7-2.5,4-3.7L668.6,461.3z"/>
					</g>
					<g>
						<path class="st4" d="M658.6,462.8l14.1-5.2c6.4-6.3,11.5-12.8,15.1-18.3c-5.5-2.6-18,0.5-18,0.5c12.5-4.2,16.8-4.1,20.9-5.5
							c4.6-8.6,4.8-19.1,6.1-27.8c-13.6,8.4-17.4,9.5-17.4,9.5c8.4-4.2,13.3-9.7,17.8-13.3c2.4-22-3.9-30.5-3.9-30.5
							c-6.1,2.5-19,9.9-24.1,12.6c-2.8,9.9-4.4,22.9-4.4,22.9c-0.6-6.2,0.4-14.9,1.3-21.2c-7.2,4-6,3.5-11.2,7.9
							c-3.3,10.1-4.3,28.4-4.3,28.4c-1.2-7.3-0.4-18.6,0.2-24.7c-8.6,8.3-14.5,17.4-18.9,27.4c0,9.2,1,18.6,1,18.6
							c-1.3-4-2.3-9.3-2.9-14.3c-4.6,11.6-7.8,24.3-11.4,38.5l0.4,12.8l16.5-2.1c12.7-2.9,23.8-9.7,32.8-17.6L658.6,462.8z"/>
					</g>
				</g>
				<g>
					<path class="st7" d="M640.4,459.3c-2.7,3.5-5.6,6.9-8.6,10.1c-3,3.2-6.3,6.3-9.9,8.8l-0.1-0.2c3.5-2.6,6.7-5.8,9.6-9.1
						c2.9-3.3,5.6-6.8,8.2-10.3c5.3-7.1,10.2-14.4,15-21.8c4.9-7.4,9.6-14.9,14.8-22c2.6-3.6,5.3-7.1,8.1-10.6
						c2.8-3.5,5.7-6.8,8.8-10l0.2,0.1c-5.3,7.1-10.3,14.4-15.2,21.7c-4.9,7.3-10.1,14.5-15.1,21.8
						C650.9,445.1,645.8,452.3,640.4,459.3z"/>
				</g>
			</g>
			<g>
				<path class="st8" d="M645.9,431.9c-0.6,1.2-1.3,2.3-2,3.5L645.9,431.9z M643.8,435.5c-4.7,7.5-11,14.8-19.4,19.6l-11.2,5.1
					l-3.1-9c-0.6-10.8-1.1-20.5-0.4-29.7c1.5,3.4,3.3,6.9,5.1,9.5c0,0-2.8-6.4-4.8-13c1-8.1,3.1-15.8,7.4-23.5
					c0.9,4.5,2.8,12.6,5.3,17.5c0,0-3.3-13.2-3.2-21c2.7-4.3,2-3.6,6.2-8.1c0.7,4.6,1.9,11,3.7,15.3c0,0-1.7-9.5-1.9-17.1
					c3-3,10.5-11,14.3-14.2c0,0,6.3,4.7,9.4,20.7c-2.5,3.5-4.7,8.5-9.7,13.3c0,0,2.4-1.7,10.2-10.5c1,6.5,3.2,13.9,1.8,21
					c-2.6,1.9-5.7,2.7-13.6,8.5c0,0,8.2-5,12.6-4.3c-1.3,4.7-3.5,10.4-6.7,16.3l-8.8,6.8L643.8,435.5z M629.8,421.6
					c2-6.2,4.1-12.4,6-18.7c1.9-6.2,3.9-12.5,6-18.7l-0.1-0.1c-1.5,2.9-2.8,5.9-4,9c-1.2,3-2.3,6.1-3.4,9.2
					c-2.1,6.2-3.8,12.5-5.7,18.8c-1.8,6.3-3.7,12.5-5.9,18.7c-1.1,3.1-2.2,6.1-3.6,9.1c-1.3,3-2.9,5.9-4.8,8.5l0.1,0.1
					c2-2.6,3.7-5.5,5.1-8.4c1.4-2.9,2.7-6,3.9-9C625.7,434,627.8,427.8,629.8,421.6z"/>
			</g>
			<g>
				<g>
					<path class="st5" d="M654.7,498c12,3.9,16.8,6.4,21.1,6.6c7.6-6.1,13.5-13.4,18.1-20.9c-15.7,2.6-24.7-2.1-24.7-2.1
						c9.9,2.7,21,0.4,26.6-1.1c10.8-19.1,13.5-37.9,13.5-37.9c-6.6,0-12.7,0.3-18.3,0.8c-6.5,8-13,19.1-13,19.1
						c1.9-5.8,6.2-13.4,9.5-18.8c-8.2,1-15.4,2.6-21.9,4.7c-6.9,8-15.1,24.3-15.1,24.3c1.8-7.1,6.9-17,9.9-22.4
						c-11.1,4.4-20,10.5-28.1,17.9c-3.6,8.4-6.4,17.3-6.4,17.3c0.3-4.1,1.6-9.3,3-14c-8.8,8.8-16.7,19.2-25.5,30.8l-4.7,11.8
						l15.9,4.2c24.5,4,42.9-1.1,56.5-10.3C667.2,503.6,654.7,498,654.7,498z"/>
				</g>
				<g>
					<path class="st9" d="M602.3,512.3c4.3-1.1,8.4-2.8,12.3-4.7c4-1.9,7.8-4.1,11.6-6.3c7.6-4.5,14.9-9.4,22.3-14.2
						c7.4-4.9,14.6-10,22.2-14.5c3.8-2.3,7.6-4.5,11.5-6.6c3.9-2.1,7.9-4.1,11.9-5.8l0.1,0.2c-7.6,4.5-15,9.3-22.4,14.1
						c-7.4,4.8-14.9,9.4-22.4,14.2c-7.5,4.7-15,9.4-22.7,13.7c-3.9,2.1-7.8,4.2-11.8,6c-4,1.8-8.2,3.4-12.5,4.3L602.3,512.3z"/>
				</g>
			</g>
		</g>
		<g>
			<g>
				<g>
					<path class="st10" d="M633.2,520.4h-295V348.9c0-7.8,6.3-14.1,14.1-14.1h266.9c7.8,0,14.1,6.3,14.1,14.1V520.4z"/>
				</g>
				<g>
					<rect x="352.2" y="348.4" class="st3" width="267" height="156"/>
				</g>
			</g>
			<g>
				<g>
					<polygon class="st4" points="687.3,566.2 284,566.2 338.2,520.4 633.2,520.4 					"/>
				</g>
				<g>
					<path class="st10" d="M673.4,583.6H297.9c-7.7,0-13.9-6.2-13.9-13.9v-3.5h403.3v3.5C687.3,577.4,681.1,583.6,673.4,583.6z"/>
				</g>
				<g>
					<g>
						<path class="st6" d="M376.6,532.8h-16.3c-0.5,0-0.8-0.6-0.4-1l5.1-4.8c0.1-0.1,0.2-0.2,0.4-0.2h15.6c0.5,0,0.7,0.6,0.4,0.9
							l-4.4,4.8C376.9,532.7,376.7,532.8,376.6,532.8z"/>
					</g>
					<g>
						<path class="st6" d="M402.4,532.8h-16.5c-0.5,0-0.7-0.6-0.4-0.9l4-4.8c0.1-0.1,0.3-0.2,0.4-0.2h15.8c0.5,0,0.7,0.5,0.5,0.9
							l-3.3,4.8C402.8,532.7,402.6,532.8,402.4,532.8z"/>
					</g>
					<g>
						<path class="st6" d="M428.3,532.8h-16.6c-0.4,0-0.7-0.5-0.5-0.9l3-4.8c0.1-0.2,0.3-0.3,0.5-0.3h15.9c0.4,0,0.7,0.4,0.5,0.8
							l-2.3,4.8C428.7,532.7,428.5,532.8,428.3,532.8z"/>
					</g>
					<g>
						<path class="st6" d="M454.1,532.8h-16.7c-0.4,0-0.7-0.4-0.5-0.8l1.9-4.8c0.1-0.2,0.3-0.4,0.5-0.4h16c0.4,0,0.6,0.3,0.5,0.7
							l-1.2,4.8C454.6,532.6,454.4,532.8,454.1,532.8z"/>
					</g>
					<g>
						<path class="st6" d="M479.9,532.8h-16.8c-0.4,0-0.6-0.3-0.6-0.7l0.9-4.8c0-0.3,0.3-0.5,0.6-0.5h16c0.3,0,0.6,0.3,0.6,0.6
							l-0.2,4.8C480.4,532.6,480.2,532.8,479.9,532.8z"/>
					</g>
					<g>
						<path class="st6" d="M505.7,532.8h-16.8c-0.3,0-0.6-0.2-0.6-0.5l-0.2-4.8c0-0.3,0.2-0.6,0.6-0.6h16c0.3,0,0.5,0.2,0.6,0.5
							l0.9,4.8C506.3,532.5,506,532.8,505.7,532.8z"/>
					</g>
					<g>
						<path class="st6" d="M531.4,532.8h-16.7c-0.3,0-0.5-0.2-0.5-0.4l-1.2-4.8c-0.1-0.4,0.2-0.7,0.5-0.7h16c0.2,0,0.4,0.1,0.5,0.4
							l1.9,4.8C532.1,532.4,531.8,532.8,531.4,532.8z"/>
					</g>
					<g>
						<path class="st6" d="M557.1,532.8h-16.6c-0.2,0-0.4-0.1-0.5-0.3l-2.3-4.8c-0.2-0.4,0.1-0.8,0.5-0.8h15.9
							c0.2,0,0.4,0.1,0.5,0.3l3,4.8C557.8,532.3,557.6,532.8,557.1,532.8z"/>
					</g>
					<g>
						<path class="st6" d="M582.8,532.8h-16.5c-0.2,0-0.4-0.1-0.5-0.2l-3.3-4.8c-0.3-0.4,0-0.9,0.5-0.9h15.8c0.2,0,0.3,0.1,0.4,0.2
							l4,4.8C583.6,532.2,583.3,532.8,582.8,532.8z"/>
					</g>
					<g>
						<path class="st6" d="M608.5,532.8h-16.3c-0.2,0-0.3-0.1-0.4-0.2l-4.4-4.8c-0.3-0.4-0.1-0.9,0.4-0.9h15.6
							c0.1,0,0.3,0.1,0.4,0.2l5.1,4.8C609.3,532.2,609,532.8,608.5,532.8z"/>
					</g>
					<g>
						<path class="st6" d="M368.4,541.8h-17.7c-0.5,0-0.8-0.6-0.4-1l6.1-5.7c0.1-0.1,0.2-0.2,0.4-0.2h16.8c0.5,0,0.7,0.6,0.4,0.9
							l-5.2,5.7C368.7,541.8,368.6,541.8,368.4,541.8z"/>
					</g>
					<g>
						<path class="st6" d="M396.2,541.8h-17.9c-0.5,0-0.7-0.6-0.4-0.9l4.8-5.7c0.1-0.1,0.3-0.2,0.4-0.2h17c0.5,0,0.7,0.5,0.5,0.9
							l-3.9,5.7C396.6,541.7,396.4,541.8,396.2,541.8z"/>
					</g>
					<g>
						<path class="st6" d="M424,541.8h-18c-0.4,0-0.7-0.5-0.5-0.9l3.6-5.7c0.1-0.2,0.3-0.3,0.5-0.3h17.1c0.4,0,0.7,0.4,0.5,0.8
							l-2.7,5.7C424.5,541.7,424.3,541.8,424,541.8z"/>
					</g>
					<g>
						<path class="st6" d="M358.9,552.3h-19.3c-0.5,0-0.8-0.6-0.4-1l7.3-6.9c0.1-0.1,0.2-0.2,0.4-0.2h18.2c0.5,0,0.7,0.6,0.4,0.9
							l-6.2,6.9C359.2,552.2,359.1,552.3,358.9,552.3z"/>
					</g>
					<g>
						<path class="st6" d="M389,552.3h-19.4c-0.5,0-0.7-0.6-0.4-0.9l5.8-6.9c0.1-0.1,0.3-0.2,0.4-0.2h18.4c0.5,0,0.7,0.5,0.5,0.9
							l-4.7,6.9C389.4,552.2,389.2,552.3,389,552.3z"/>
					</g>
					<g>
						<path class="st6" d="M419.1,552.3h-19.6c-0.4,0-0.7-0.5-0.5-0.9l4.3-6.9c0.1-0.2,0.3-0.3,0.5-0.3h18.5c0.4,0,0.7,0.4,0.5,0.8
							l-3.2,6.9C419.5,552.2,419.3,552.3,419.1,552.3z"/>
					</g>
					<g>
						<path class="st6" d="M451.8,541.8h-18.1c-0.4,0-0.7-0.4-0.5-0.8l2.3-5.7c0.1-0.2,0.3-0.4,0.5-0.4h17.2c0.4,0,0.6,0.3,0.5,0.7
							l-1.4,5.7C452.3,541.6,452.1,541.8,451.8,541.8z"/>
					</g>
					<g>
						<path class="st6" d="M539.3,552.3H429.5c-0.4,0-0.7-0.4-0.5-0.8l2.8-6.9c0.1-0.2,0.3-0.4,0.5-0.4h104.2c0.2,0,0.4,0.1,0.5,0.4
							l2.8,6.9C539.9,551.9,539.7,552.3,539.3,552.3z"/>
					</g>
					<g>
						<path class="st6" d="M479.6,541.8h-18.1c-0.4,0-0.6-0.3-0.6-0.7l1.1-5.7c0-0.3,0.3-0.5,0.6-0.5h17.3c0.3,0,0.6,0.3,0.6,0.6
							l-0.2,5.7C480.1,541.6,479.9,541.8,479.6,541.8z"/>
					</g>
					<g>
						<path class="st6" d="M507.3,541.8h-18.1c-0.3,0-0.6-0.2-0.6-0.5l-0.2-5.7c0-0.3,0.2-0.6,0.6-0.6h17.3c0.3,0,0.5,0.2,0.6,0.5
							l1.1,5.7C507.9,541.5,507.7,541.8,507.3,541.8z"/>
					</g>
					<g>
						<path class="st6" d="M535,541.8H517c-0.3,0-0.5-0.2-0.5-0.4l-1.4-5.7c-0.1-0.4,0.2-0.7,0.5-0.7h17.2c0.2,0,0.4,0.1,0.5,0.4
							l2.3,5.7C535.7,541.4,535.4,541.8,535,541.8z"/>
					</g>
					<g>
						<path class="st6" d="M562.7,541.8h-18c-0.2,0-0.4-0.1-0.5-0.3l-2.7-5.7c-0.2-0.4,0.1-0.8,0.5-0.8h17.1c0.2,0,0.4,0.1,0.5,0.3
							l3.6,5.7C563.4,541.3,563.2,541.8,562.7,541.8z"/>
					</g>
					<g>
						<path class="st6" d="M590.4,541.8h-17.9c-0.2,0-0.4-0.1-0.5-0.2l-3.9-5.7c-0.3-0.4,0-0.9,0.5-0.9h17c0.2,0,0.3,0.1,0.4,0.2
							l4.8,5.7C591.1,541.3,590.9,541.8,590.4,541.8z"/>
					</g>
					<g>
						<path class="st6" d="M595.4,547.8h-18.8c-0.2,0-0.4-0.1-0.5-0.2l-1.6-2.4c-0.3-0.4,0-0.9,0.5-0.9h18.4c0.2,0,0.3,0.1,0.4,0.2
							l2,2.4C596.2,547.3,595.9,547.8,595.4,547.8z"/>
					</g>
					<g>
						<path class="st6" d="M599.2,552.3h-19.4c-0.2,0-0.4-0.1-0.5-0.2l-1.8-2.7c-0.3-0.4,0-0.9,0.5-0.9h19c0.2,0,0.3,0.1,0.4,0.2
							l2.2,2.7C599.9,551.8,599.7,552.3,599.2,552.3z"/>
					</g>
					<g>
						<path class="st6" d="M629.1,552.3h-19.3c-0.2,0-0.3-0.1-0.4-0.2l-2.4-2.7c-0.3-0.4-0.1-0.9,0.4-0.9h18.9
							c0.1,0,0.3,0.1,0.4,0.2l2.8,2.7C629.9,551.7,629.7,552.3,629.1,552.3z"/>
					</g>
					<g>
						<path class="st6" d="M569.2,552.3h-19.6c-0.2,0-0.4-0.1-0.5-0.3l-1.3-2.7c-0.2-0.4,0.1-0.8,0.5-0.8h19.2
							c0.2,0,0.4,0.1,0.5,0.3l1.7,2.7C569.9,551.8,569.7,552.3,569.2,552.3z"/>
					</g>
					<g>
						<path class="st6" d="M618.1,541.8h-17.7c-0.2,0-0.3-0.1-0.4-0.2l-5.2-5.7c-0.3-0.4-0.1-0.9,0.4-0.9H612c0.1,0,0.3,0.1,0.4,0.2
							l6.1,5.7C618.8,541.2,618.6,541.8,618.1,541.8z"/>
					</g>
				</g>
			</g>
		</g>
		<g>
			<g>
				<g>
					<g>
						<polygon class="st11" points="134.9,113.5 193.4,157.4 176.6,178.1 						"/>
					</g>
				</g>
				<g>
					<g>
						<polygon class="st12" points="134.9,113.5 180,158.1 176.6,178.1 						"/>
					</g>
				</g>
				<g>
					<g>
						<polygon class="st13" points="134.9,113.5 215.7,152 193.4,157.4 						"/>
					</g>
				</g>
				<g>
					<g>
						<polygon class="st13" points="134.9,113.5 180,158.1 152.8,162.5 						"/>
					</g>
				</g>
			</g>
			<g>
				<g>
					<path class="st3" d="M390.5,292.8c-0.1,0-0.2-0.1-0.3-0.1c-1.8-1-3.6-2.1-5.3-3.3c-0.5-0.4-0.7-1.1-0.3-1.6
						c0.4-0.5,1.1-0.7,1.6-0.3c1.7,1.1,3.4,2.2,5.2,3.2c0.5,0.3,0.7,1,0.4,1.6C391.5,292.7,391,292.9,390.5,292.8z M378.5,284.3
						c-0.2,0-0.4-0.1-0.5-0.3c-2.1-1.8-4.3-3.9-6.3-6c-0.4-0.5-0.4-1.2,0-1.6c0.5-0.4,1.2-0.4,1.6,0c2,2.1,4,4,6.1,5.8
						c0.5,0.4,0.5,1.1,0.1,1.6C379.3,284.3,378.9,284.4,378.5,284.3z M366.8,271.9c-0.3-0.1-0.5-0.2-0.7-0.4c-1.7-2.2-3.4-4.6-5-7
						c-0.3-0.5-0.2-1.2,0.3-1.6c0.5-0.3,1.2-0.2,1.6,0.3c1.6,2.4,3.2,4.7,4.9,6.9c0.4,0.5,0.3,1.2-0.2,1.6
						C367.4,271.9,367.1,272,366.8,271.9z M357.4,257.7c-0.3-0.1-0.6-0.3-0.8-0.6c-1.4-2.5-2.7-5-3.9-7.7c-0.3-0.6,0-1.2,0.6-1.5
						c0.6-0.3,1.2,0,1.5,0.6c1.2,2.6,2.5,5.1,3.8,7.6c0.3,0.6,0.1,1.2-0.4,1.5C357.9,257.7,357.6,257.7,357.4,257.7z M267.9,226.1
						C267.9,226.1,267.9,226.1,267.9,226.1c-2.8-0.6-5.7-1.3-8.4-2.1c-0.6-0.2-1-0.8-0.8-1.4c0.2-0.6,0.8-1,1.4-0.8
						c2.7,0.7,5.5,1.4,8.3,2c0.6,0.1,1,0.7,0.9,1.4C269.1,225.9,268.5,226.3,267.9,226.1z M276.3,227.8c-0.6-0.1-1-0.7-0.9-1.3
						c0.1-0.6,0.7-1,1.3-0.9c2.8,0.5,5.6,1,8.4,1.4c0.6,0.1,1.1,0.7,1,1.3c-0.1,0.6-0.7,1.1-1.3,1
						C281.9,228.8,279.1,228.4,276.3,227.8C276.3,227.8,276.3,227.8,276.3,227.8z M350.2,242.2c-0.4-0.1-0.7-0.3-0.8-0.7
						c-1-2.6-2-5.4-2.9-8.1c-0.2-0.6,0.1-1.2,0.7-1.4c0.6-0.2,1.2,0.1,1.4,0.7c0.9,2.7,1.8,5.4,2.9,8c0.2,0.6-0.1,1.2-0.6,1.5
						C350.6,242.2,350.4,242.2,350.2,242.2z M251.4,221.7c0,0-0.1,0-0.1,0c-2.8-0.9-5.5-1.9-8.1-2.9c-0.6-0.2-0.9-0.9-0.7-1.5
						c0.2-0.6,0.9-0.9,1.5-0.7c2.6,1,5.3,1.9,8,2.8c0.6,0.2,0.9,0.8,0.7,1.4C252.5,221.4,251.9,221.8,251.4,221.7z M293.2,230.2
						c-0.6-0.1-1-0.6-0.9-1.2c0.1-0.6,0.6-1.1,1.3-1c1.1,0.1,2.2,0.2,3.3,0.3c1.7,0.2,3.4,0.3,5.1,0.3c0.6,0,1.1,0.6,1.1,1.2
						c0,0.6-0.6,1.1-1.2,1.1c-1.7-0.1-3.5-0.2-5.2-0.3c-1.1-0.1-2.2-0.2-3.3-0.3C293.3,230.2,293.2,230.2,293.2,230.2z M310.3,231
						c-0.5-0.1-0.9-0.5-0.9-1.1c0-0.6,0.5-1.2,1.1-1.2c2.8-0.1,5.7-0.3,8.4-0.6c0.6-0.1,1.2,0.4,1.3,1c0.1,0.6-0.4,1.2-1,1.3
						c-2.8,0.3-5.7,0.5-8.6,0.6C310.5,231,310.4,231,310.3,231z M235.4,215.5c-0.1,0-0.2,0-0.2-0.1c-2.7-1.2-5.3-2.5-7.7-3.8
						c-0.6-0.3-0.8-1-0.5-1.5c0.3-0.6,1-0.8,1.5-0.5c2.4,1.3,5,2.6,7.6,3.7c0.6,0.3,0.8,0.9,0.6,1.5
						C236.5,215.4,235.9,215.6,235.4,215.5z M220.4,207.5c-0.1,0-0.3-0.1-0.4-0.2c-2.5-1.6-4.9-3.2-7.1-4.9
						c-0.5-0.4-0.6-1.1-0.2-1.6c0.4-0.5,1.1-0.6,1.6-0.2c2.2,1.7,4.5,3.3,6.9,4.8c0.5,0.3,0.7,1,0.4,1.6
						C221.3,207.4,220.8,207.5,220.4,207.5z M327.3,229.2c-0.4-0.1-0.8-0.4-0.9-0.9c-0.1-0.6,0.3-1.2,0.9-1.3
						c2.8-0.5,5.6-1.1,8.3-1.8c0.6-0.2,1.2,0.2,1.4,0.8c0.2,0.6-0.2,1.2-0.8,1.4c-2.8,0.7-5.6,1.4-8.4,1.9
						C327.6,229.2,327.4,229.2,327.3,229.2z M344.8,225.9c-0.4-0.1-0.8-0.4-0.9-0.8c0-0.1,0-0.2-0.1-0.3c-0.4,0-0.8-0.3-1-0.8
						c-0.2-0.5,0-1,0.4-1.3c-0.5-2-1-4.1-1.4-6.1c-0.1-0.6,0.3-1.2,0.9-1.3c0.6-0.1,1.2,0.3,1.3,0.9c0.4,1.9,0.8,3.8,1.3,5.7
						c2-0.8,4-1.6,6-2.4c0.6-0.3,1.2,0,1.5,0.6c0.3,0.6,0,1.2-0.6,1.5c-2.1,0.9-4.2,1.8-6.3,2.6c0,0.1,0.1,0.2,0.1,0.3
						c0.2,0.6-0.2,1.2-0.8,1.4C345.2,226,345,226,344.8,225.9z M206.8,197.1c-0.2,0-0.4-0.1-0.5-0.3c-2.2-2-4.2-4.1-6.1-6.2
						c-0.4-0.5-0.4-1.2,0.1-1.6c0.5-0.4,1.2-0.4,1.6,0.1c1.8,2.1,3.8,4.1,5.9,6c0.5,0.4,0.5,1.1,0.1,1.6
						C207.6,197.1,207.2,197.2,206.8,197.1z M195.5,184.3c-0.3-0.1-0.5-0.2-0.7-0.5c-1.7-2.4-3.2-4.9-4.6-7.4
						c-0.3-0.6-0.1-1.2,0.5-1.5c0.6-0.3,1.2-0.1,1.5,0.5c1.3,2.5,2.8,4.9,4.4,7.2c0.4,0.5,0.2,1.2-0.3,1.6
						C196.1,184.3,195.8,184.4,195.5,184.3z M359.4,217.9c-0.3-0.1-0.6-0.3-0.8-0.6c-0.3-0.6-0.1-1.2,0.5-1.5
						c2.5-1.3,4.9-2.8,7.2-4.4c0.5-0.3,1.2-0.2,1.6,0.3c0.3,0.5,0.2,1.2-0.3,1.6c-2.4,1.6-4.9,3.1-7.4,4.5
						C359.9,217.9,359.6,217.9,359.4,217.9z M341.5,209.2c-0.5-0.1-0.8-0.5-0.9-1c-0.4-2.9-0.6-5.8-0.7-8.6c0-0.6,0.5-1.2,1.1-1.2
						c0.6,0,1.2,0.5,1.2,1.1c0.1,2.7,0.4,5.6,0.7,8.4c0.1,0.6-0.4,1.2-1,1.3C341.8,209.2,341.6,209.2,341.5,209.2z M373.6,208.5
						c-0.3-0.1-0.5-0.2-0.7-0.4c-0.4-0.5-0.3-1.2,0.2-1.6c2.2-1.7,4.4-3.6,6.4-5.5c0.5-0.4,1.2-0.4,1.6,0.1c0.4,0.5,0.4,1.2-0.1,1.6
						c-2.1,2-4.3,3.8-6.6,5.6C374.3,208.4,374,208.5,373.6,208.5z M340.8,192.1c-0.5-0.1-0.9-0.6-0.9-1.2c0.2-2.9,0.5-5.8,0.9-8.6
						c0.1-0.6,0.7-1,1.3-0.9c0.7,0.1,1,0.7,0.9,1.3c-0.4,2.7-0.7,5.5-0.9,8.4c0,0.6-0.6,1.1-1.2,1.1
						C341,192.1,340.9,192.1,340.8,192.1z M386.2,196.9c-0.2,0-0.4-0.1-0.5-0.3c-0.5-0.4-0.5-1.1-0.1-1.6c1.9-2.1,3.7-4.2,5.5-6.4
						c0.4-0.5,1.1-0.6,1.6-0.2c0.5,0.4,0.6,1.1,0.2,1.6c-1.8,2.3-3.7,4.5-5.6,6.6C387,196.8,386.6,197,386.2,196.9z M343.6,175.2
						C343.6,175.2,343.5,175.2,343.6,175.2c-0.7-0.2-1-0.8-0.9-1.4l0.1-0.3c0.8-2.6,1.7-5.2,2.9-7.8c0.3-0.6,0.9-0.8,1.5-0.6
						c0.6,0.3,0.8,0.9,0.6,1.5c-1.1,2.5-2.1,5-2.8,7.5l-0.1,0.3C344.8,175,344.2,175.4,343.6,175.2z M396.8,183.5
						c-0.1,0-0.3-0.1-0.4-0.2c-0.5-0.4-0.7-1.1-0.3-1.6c1.6-2.3,3.1-4.7,4.5-7.2c0.3-0.5,1-0.7,1.6-0.4c0.5,0.3,0.7,1,0.4,1.6
						c-1.4,2.5-3,5-4.6,7.3C397.7,183.4,397.2,183.6,396.8,183.5z M350.5,159.7c-0.1,0-0.3-0.1-0.4-0.1c-0.5-0.3-0.7-1-0.4-1.6
						c1.5-2.5,3.2-4.9,5.1-7.1c0.4-0.5,1.1-0.6,1.6-0.2c0.5,0.4,0.6,1.1,0.2,1.6c-1.8,2.1-3.4,4.4-4.9,6.8
						C351.5,159.6,351,159.8,350.5,159.7z M405.3,168.6c-0.1,0-0.2,0-0.3-0.1c-0.6-0.3-0.8-1-0.5-1.5l0.6-1.3c1-2.1,1.7-4.3,2.2-6.5
						c0.1-0.6,0.7-1,1.3-0.9c0,0,0,0,0,0c0.6,0.1,1,0.7,0.9,1.4c-0.5,2.4-1.3,4.7-2.4,7l-0.6,1.3
						C406.3,168.5,405.8,168.7,405.3,168.6z M361.4,146.5c-0.2,0-0.4-0.2-0.6-0.4c-0.4-0.5-0.4-1.2,0.1-1.6c2.2-2,4.5-3.8,6.9-5.3
						c0.5-0.3,1.2-0.2,1.6,0.3c0.3,0.5,0.2,1.2-0.3,1.6c-2.3,1.5-4.5,3.2-6.6,5.1C362.1,146.5,361.7,146.6,361.4,146.5z
						 M408.8,152.1c-0.5-0.1-0.9-0.5-0.9-1c-0.2-2.9-1-5.5-2.2-7.7c-0.3-0.5-0.1-1.2,0.4-1.6c0.5-0.3,1.2-0.1,1.6,0.4
						c1.4,2.5,2.3,5.4,2.5,8.6c0.1,0.6-0.4,1.2-1,1.2C409,152.1,408.9,152.1,408.8,152.1z M375.8,137.4c-0.4-0.1-0.7-0.3-0.8-0.7
						c-0.2-0.6,0.1-1.2,0.6-1.5c2.8-1.1,5.6-1.8,8.5-2.3c0.6-0.1,1.2,0.3,1.3,1c0.1,0.6-0.3,1.2-1,1.3c-2.7,0.4-5.4,1.1-8,2.1
						C376.2,137.4,376,137.5,375.8,137.4z M400.5,137.9c-0.1,0-0.2-0.1-0.4-0.1c-2.2-1.3-4.8-2.3-7.6-2.6c-0.6-0.1-1.1-0.7-1-1.3
						c0.1-0.6,0.7-1.1,1.3-1c3.1,0.4,6,1.5,8.5,3c0.5,0.3,0.7,1,0.4,1.6C401.5,137.8,401,138,400.5,137.9z"/>
				</g>
			</g>
		</g>
		<g>
			<g>
				<path class="st8" d="M662.9,214.6h-59.4c-11.1,0-20-9-20-20v-42.4c0-11.1,9-20,20-20h59.4c11.1,0,20,9,20,20v42.4
					C682.9,205.6,673.9,214.6,662.9,214.6z"/>
			</g>
			<g>
				<g>
					<path class="st1" d="M678.5,140.1l-27.1,27.1c-0.5,0.5-1,0.9-1.4,1.3c-4.8,4.1-10.8,6.2-16.8,6.2c-6,0-12-2.1-16.8-6.2
						c-0.5-0.4-1-0.9-1.4-1.3l-1.9-1.9l-25.1-25.1c1-1.2,2.1-2.4,3.2-3.3l25.2,25.2l1.9,1.9c0.5,0.5,1,0.9,1.5,1.3
						c7.8,6.5,19.2,6.5,27,0c0.5-0.4,1-0.9,1.5-1.3l1.9-1.9l25.2-25.2C676.4,137.7,677.5,138.8,678.5,140.1z"/>
				</g>
				<g>
					<path class="st1" d="M618.2,163.8c0.5,0.5,1,0.9,1.5,1.3l-3.3,3.3l-31.9,31.9c-0.6-1.8-0.9-3.6-1-5.6l29.5-29.5l3.3-3.3
						L618.2,163.8z"/>
				</g>
				<g>
					<path class="st1" d="M682.9,194.8c-0.1,1.9-0.4,3.8-1,5.6L650,168.5l-3.3-3.3c0.5-0.4,1-0.9,1.5-1.3l1.9-1.9l3.3,3.3
						L682.9,194.8z"/>
				</g>
			</g>
		</g>
		<g>
			<g>
				<polygon class="st5" points="531.3,315.6 490.7,349.8 446.4,318.1 457,289.2 459.2,278.2 463.5,256.3 507.9,255.1 509.9,262.9 
					515,283.9 				"/>
			</g>
			<g>
				<g>
					<path class="st14" d="M509.9,262.9c-4.5,8-16.9,18.7-50.7,15.3l4.3-21.9l44.5-1.2L509.9,262.9z"/>
				</g>
				<g>
					<g>
						<path class="st5" d="M527.4,199.1c0,38.3-18.5,69.4-41.3,69.4c-22.8,0-41.3-31.1-41.3-69.4s18.5-49.7,41.3-49.7
							C508.9,149.4,527.4,160.7,527.4,199.1z"/>
					</g>
					<g>
						<path class="st14" d="M506.5,153.2c0,0,0.2,22.2-19.8,24.1c-20,2-38.2-10.1-42.8,16.1V170l22.2-13L506.5,153.2z"/>
					</g>
					<g>
						<path class="st15" d="M531.7,166.3c3.7,13.1-6.2,71.6-11.8,83.4c-5.6,11.8-18,18.7-34.9,18.8c-21.6,0.2-28.9-10.5-33.3-16.7
							c-4.4-6.2-4.7-18.2-10.4-63.1c-5.6-44.9,30-50.9,43.1-50.9c13.1,0,19.3-0.2,21.8,8.5C524.8,145.3,528,153.2,531.7,166.3z
							 M490.4,172.7c-11.9,5.6-33.1-5.7-41.1,3.4c-8.1,9.1-3.1,38.1-0.5,50.2c1,4.8,14.7,1,23.2,5.5c-11.6,10.9,0,20.3,12.7,20.3
							c12.1,0,23.6-3.9,15.9-18.7c5.9-6.4,18.7-0.3,21.2-5.8c3.7-7.9,1.6-44.4,1.6-44.4c-5-1.5-16.7-15.6-16.7-26.2
							C506.8,157,502.3,167.2,490.4,172.7z"/>
					</g>
					<g>
						<ellipse class="st15" cx="467.9" cy="196.6" rx="4" ry="5.9"/>
					</g>
					<g>
						<ellipse class="st15" cx="502.5" cy="196.6" rx="4" ry="5.9"/>
					</g>
					<g>
						<path class="st1" d="M473.7,237.4h23.8c0,0-2.6,10.3-10.9,10.3C478.2,247.7,474.7,241.7,473.7,237.4z"/>
					</g>
					<g>
						<path class="st14" d="M485.6,202.5c0,0-15.2,24.3,0,24.3V202.5z"/>
					</g>
				</g>
				<g>
					<g>
						<path class="st16" d="M438.8,200.3c-0.4-2.3-0.6-4.7-0.6-7.1c0-23.9,21.1-39.2,47-39.2c26,0,47,15.3,47,39.2
							c0,2.4-0.2,4.8-0.6,7.1h5.4c1.3-4.2,2.5-8.7,2-13.3c-2.3-22.4-20.9-44-53.8-44c-29.7,0-53.2,23.3-53.2,46.9
							c0,4.6,0.1,6.1,1.4,10.4H438.8z"/>
					</g>
					<g>
						<g>
							<path class="st16" d="M440.9,226.2l-4.8,0.5c-5.5,0.6-10.5-3.2-11.1-8.5l-2.7-23.1c-0.6-5.3,3.4-10,8.9-10.6l4.8-0.5
								c2.9-0.3,5.6,1.7,5.9,4.5l3.7,31.9C445.9,223.3,443.8,225.9,440.9,226.2z"/>
						</g>
						<g>
							<path class="st16" d="M530.4,226.2l4.8,0.5c5.5,0.6,10.5-3.2,11.1-8.5l2.7-23.1c0.6-5.3-3.4-10-8.9-10.6l-4.8-0.5
								c-2.9-0.3-5.6,1.7-5.9,4.5l-3.7,31.9C525.3,223.3,527.4,225.9,530.4,226.2z"/>
						</g>
					</g>
				</g>
				<g>
					<path class="st15" d="M497.5,141c0,0-3.2,10.6-21.8,10.6c-18.6,0-24.4,1.6-24.4,1.6S465,138.5,497.5,141z"/>
				</g>
			</g>
			<g>
				<g>
					<path class="st10" d="M556,380.1c-1.3,0.4-2.4,0.8-3.4,1.2c0.6,5.4,1.2,18.2,1.9,30l0.1,1.4c0.2,3.3,0.4,6.5,0.6,9.4
						c0.4,5.4,0.7,9.9,1.1,12.4c1.1,6.3,2,12.7,2.7,18.8c1.8,15.3,2.4,28.1,2.4,28.1c-3-0.1-146.4,0-146.4,0l0.7-24.8l0.5-16.3
						l0.5-15.5l1.3-42.8c-1.3-0.4-3.5-0.9-6.2-1.4c-10.5-1.8-28.9-3.8-36-4.5c-1.8-0.2-2.9-0.3-2.9-0.3s15.9-66.2,25.6-76.7
						c17.7-11.2,36.2-15.5,60.5-21c0,0-1.5,9.2,3,17.1c10.9,19,46.9,15.6,51.7-5.7c1.2-5.1-0.2-11.3-0.2-11.3s49.8,10.3,59.5,21.9
						c7.6,12.8,21.4,69.2,21.4,69.2s-1.4,0.3-3.6,1C583.4,372.2,566,376.9,556,380.1z"/>
				</g>
				<g>
					<polygon class="st17" points="542.5,340.9 552.6,381.3 554.6,412.7 542.5,379.8 					"/>
				</g>
				<g>
					<polygon class="st17" points="424.8,404.1 419.4,427.2 416.3,440.3 416.8,424.8 418.1,382 424.8,337.8 					"/>
				</g>
			</g>
			<g>
				<g>
					<g>
						<path class="st15" d="M393.9,508.8c0,0-50.9,2.7-62.5,7.9c-11.7,5.2,1.8,31.6,9.9,32.7c6,0.8,56.4-4.3,63.6-11.6L393.9,508.8z
							"/>
					</g>
					<g>
						<path class="st5" d="M393.9,508.8c0,0-22.1,4.7-26.2,10.1c-4.1,5.4-4.8,19.9-1.8,20.5c3.1,0.6,6.9,5.4,38.9-1.6L393.9,508.8z"
							/>
					</g>
				</g>
				<g>
					<path class="st18" d="M393.3,508.5l11.3,29.8l209.6-38.4c20.4-4.5,55.8-23.2,51.3-39.3c-5.5-19.5-21.5-32-41.7-26.3
						L393.3,508.5z"/>
				</g>
			</g>
			<g>
				<path class="st5" d="M419.4,427.2l-2.6-2.4l-13.5-12.2l8.5-32c-10.5-1.8-28.9-3.8-36-4.5l-8,41c-1,5.1,1.3,10.4,5.7,13.1
					l42.3,26.4l14.3,8.9l11.2-18.6L419.4,427.2z"/>
			</g>
			<g>
				<path class="st5" d="M600.9,416.4l-9.9-46.2c-7.5,2-25,6.6-34.9,9.9l9.3,32.5l-10.1,9.4l-27.3,25.6l11.5,18.4l19.6-12.7
					l36.4-23.6C599.8,426.8,602,421.6,600.9,416.4z"/>
			</g>
			<g>
				<g>
					<path class="st19" d="M584,508.1l-10.9,30l-216.8-38.1c-20.5-4.2-44.2-20.5-44.5-32.6c-0.5-16.7,23.7-38.1,43.9-32.7L584,508.1
						z"/>
				</g>
				<g>
					<g>
						<path class="st15" d="M584,508.1c0,0,53.6,3.5,65.4,8.3c11.9,4.7-4.2,29.3-12.3,30.8c-5.9,1.1-56.5-2-64-9.1L584,508.1z"/>
					</g>
					<g>
						<path class="st5" d="M584,508.1c0,0,21.1,4.3,25.5,9.5c4.3,5.2,5.6,19.7,2.6,20.5c-3,0.7-6.7,5.7-38.9,0L584,508.1z"/>
					</g>
				</g>
			</g>
			<g>
				<g>
					<path class="st20" d="M565.9,379.8l-11.2,88.1H412.9l-1.7-13.1l-9.5-75c0-5.5,4.4-9.9,9.9-9.9H556
						C561.5,369.9,565.9,374.3,565.9,379.8z"/>
				</g>
				<g>
					<path class="st21" d="M554.8,476.3H412.8c-1.5,0-2.7-1.2-2.7-2.7v-2.9c0-1.5,1.2-2.7,2.7-2.7h142.1c1.5,0,2.7,1.2,2.7,2.7v2.9
						C557.5,475.1,556.3,476.3,554.8,476.3z"/>
				</g>
				<g>
					<path class="st21" d="M483.8,407.7c-0.9,0-1.7,0.1-2.5,0.3c0,0.3,0.1,0.7,0.1,1.1c0,5-4.1,9.1-9.1,9.1c0,0.4-0.1,0.8-0.1,1.1
						c0,6.4,5.2,11.6,11.6,11.6c6.4,0,11.6-5.2,11.6-11.6C495.4,412.8,490.2,407.7,483.8,407.7z"/>
				</g>
			</g>
		</g>
		<g>
			<g>
				<g>
					<path class="st22" d="M277.4,245.9c-7.4,0-10.4,3.1-10.4,9.7c0,0.6-1.2,0.6-1.2,0c0-6.6-2.3-9.7-10.4-9.7c-0.6,0-0.6-1.2,0-1.2
						c8.3,0,10.4-3.8,10.4-9.6c0-0.6,1.2-0.6,1.2,0c0,6.9,2.8,9.6,10.4,9.6C278,244.8,278,245.9,277.4,245.9z"/>
				</g>
			</g>
			<g>
				<g>
					<path class="st22" d="M333,195.4c-11.1,0-15.4,4.6-15.4,14.4c0,0.9-1.7,0.9-1.7,0c0-9.8-3.5-14.4-15.4-14.4
						c-0.9,0-0.9-1.7,0-1.7c12.3,0,15.4-5.7,15.4-14.4c0-0.9,1.7-0.9,1.7,0c0,10.4,4.2,14.4,15.4,14.4
						C333.9,193.7,333.9,195.4,333,195.4z"/>
				</g>
			</g>
			<g>
				<g>
					<path class="st22" d="M322.7,302.1c-8.5,0-11.8,3.5-11.8,11c0,0.7-1.3,0.7-1.3,0c0-7.5-2.7-11-11.8-11c-0.7,0-0.7-1.3,0-1.3
						c9.4,0,11.8-4.4,11.8-11c0-0.7,1.3-0.7,1.3,0c0,7.9,3.2,11,11.8,11C323.4,300.8,323.4,302.1,322.7,302.1z"/>
				</g>
			</g>
		</g>
	</g>
	<g>
		<g>
			<path class="st2" d="M764.3,1095.5H190c-6.6,0-12-5.4-12-12v-87.8c0-6.6,5.4-12,12-12h574.3c6.6,0,12,5.4,12,12v87.8
				C776.3,1090.1,770.9,1095.5,764.3,1095.5z"/>
		</g>
		<g>
			<path d="M255.5,1026.9c5.2,4.7,7.8,9.2,7.8,13.6c0.3,0.8,0.9,1.2,1.7,1.2h0.9l0.2,0.2v6.9l-0.2,0.2h-1.2c-0.9,0-1.9-0.7-3.1-2
				c-1.5,1.8-4.1,2.7-7.9,2.7c-4.6-0.2-6.9-0.7-6.9-1.5c-0.7,0-1-1.4-1-4.2v-0.7c0-1.6,0.4-2.5,1.1-2.5c3.6,0.7,6.3,1.1,7.9,1.1h0.5
				c1.2,0,1.8-0.3,1.8-1c0-1.1-1.9-3.2-5.7-6.4c-0.2-0.3-0.4-0.7-0.4-1.2c2-3.7,3.3-5.9,3.9-6.5H255.5z"/>
			<path d="M268.1,1053c0.4,0,1.3,0.9,2.7,2.6v0.2c0,0.6-0.8,1.5-2.5,2.7h-0.2c-0.6,0-1.5-0.8-2.7-2.5v-0.6
				C266.9,1053.9,267.8,1053,268.1,1053z M274.8,1032.7h0.1c0.2,0,0.2,0.1,0.2,0.4c-0.7,3.3-1,5.3-1,6c0,1.7,0.9,2.6,2.7,2.6
				c0.2,0,0.4,0.1,0.4,0.2v6.9l-0.2,0.2h-1.5c-1.2,0-2.5-0.2-3.9-0.7c-0.8,0.5-1.7,0.7-2.5,0.7h-3.2l-0.2-0.2v-6.9l0.2-0.2h1.5
				c1.9-0.1,2.8-0.7,2.8-1.7c0.5-0.8,1.5-2.9,3-6.2L274.8,1032.7z M273.5,1053.2h0.4c0.6,0,1.5,0.8,2.7,2.5v0.5l-2.5,2.5h-0.6
				c-1.6-1.4-2.5-2.4-2.5-2.8C271.1,1055.5,271.9,1054.7,273.5,1053.2z"/>
			<path d="M286.1,1032.7l0.1,0.1l-1,5.7v0.6c0,1.7,0.7,2.6,2.1,2.6h0.7l0.2,0.2v6.9l-0.2,0.2h-1.4c-1.1,0-2.6-0.2-4.3-0.7
				c-0.4,0.5-1.2,0.7-2.5,0.7h-3l-0.2-0.2v-6.9l0.2-0.2h1.5c1.5,0,2.4-0.5,2.8-1.6l3-6.3C285,1033.1,285.7,1032.7,286.1,1032.7z
				 M283,1023.5c0.5,0,1.6,0.9,3.1,2.8l0.1,0.4c0,0.4-0.9,1.4-2.8,3h-0.6c-0.3,0-1.2-0.9-2.7-2.7v-0.4c0-0.5,0.9-1.6,2.8-3.1H283z"
				/>
			<path d="M305.7,1019.3c0.6,0,0.9,0.2,0.9,0.6c0,1.5-0.4,3.2-1.1,5.3l-8.9,2.8c-2,0.8-3,1.4-3,1.7v0.2c7.1,3.5,10.7,7.2,10.7,11
				c0,2.1-0.7,4-2.2,5.9c-1.8,1.5-6.5,2.2-14.2,2.2l-0.1-0.1v-7.1l0.2-0.2h6c2.4,0,4.3-0.6,5.5-1.7v-0.5c-0.1-0.7-2.5-2-7-3.7
				c-1.1-0.7-1.7-3.6-1.7-8.6c0-2.6,4.5-5.2,13.6-7.6L305.7,1019.3z"/>
			<path d="M348.5,1019.3c0.6,0.1,0.9,0.3,0.9,0.5c-0.4,3.9-1,5.8-1.8,5.8c-5.7,1.4-9.4,2.8-11.1,4.1l-0.1,0.1v0.1
				c3.3,1.7,6,3.6,8.3,5.5c3.4,4.1,5.9,6.2,7.4,6.2c0.2,0,0.4,0.1,0.4,0.2v7l-0.2,0.2c-2,0-3.9-1.5-5.7-4.4h-0.2
				c0,1.3-1.3,2.5-3.9,3.7c-3.5,1.2-7.2,1.7-11.1,1.7h-0.4c-5.4,0-9.2-2.1-11.3-6.4c-0.4-1.1-0.6-2.1-0.6-3v-0.6
				c0-3.1,1.5-6,4.4-8.7h0.1c0.7,0,1.3,0.3,1.7,1v0.1c-1.2,1.9-1.8,3.6-1.8,5.1c0,2.6,2.2,4.2,6.5,4.9l2.3,0.1
				c2.8,0,6.1-0.7,9.9-2.2l0.5-0.6c0-1-2.3-2.3-6.9-3.9c-1.1-0.6-1.7-2.8-1.7-6.5l-0.1-2.2c0-2.6,4.5-5.2,13.6-7.6L348.5,1019.3z"/>
			<path d="M354.3,1053c0.4,0,1.3,0.9,2.7,2.6v0.2c0,0.6-0.8,1.5-2.5,2.7h-0.2c-0.6,0-1.5-0.8-2.7-2.5v-0.6
				C353,1053.9,353.9,1053,354.3,1053z M360.9,1032.7h0.1c0.2,0,0.2,0.1,0.2,0.4c-0.7,3.3-1,5.3-1,6c0,1.7,0.9,2.6,2.7,2.6
				c0.2,0,0.4,0.1,0.4,0.2v6.9l-0.2,0.2h-1.5c-1.2,0-2.5-0.2-3.9-0.7c-0.8,0.5-1.7,0.7-2.5,0.7h-3.2l-0.2-0.2v-6.9l0.2-0.2h1.5
				c1.9-0.1,2.8-0.7,2.8-1.7c0.5-0.8,1.5-2.9,3-6.2L360.9,1032.7z M359.7,1053.2h0.4c0.6,0,1.5,0.8,2.7,2.5v0.5l-2.5,2.5h-0.6
				c-1.6-1.4-2.5-2.4-2.5-2.8C357.2,1055.5,358,1054.7,359.7,1053.2z"/>
			<path d="M371.7,1019.4l0.2,0.6l0.1,10.6v8c0,2.1,0.9,3.1,2.6,3.1c0.3,0,0.5,0.1,0.5,0.2v6.9l-0.2,0.2h-1.2
				c-1.7,0-3.2-0.4-4.6-1.2h-0.2c-1.3,0.8-2.8,1.2-4.6,1.2h-1.2l-0.2-0.2v-6.9c0-0.1,0.7-0.3,2-0.5c0.8,0,1.2-1.9,1.2-5.7
				c-0.1-3.4-0.3-7-0.7-10.6c0-0.7,1.8-2.5,5.5-5.4C371.2,1019.5,371.5,1019.4,371.7,1019.4z"/>
			<path d="M392.6,1019.3c0.6,0,0.9,0.2,0.9,0.6c0,1.5-0.4,3.2-1.1,5.3l-8.9,2.8c-2,0.8-3,1.4-3,1.7v0.2c7.1,3.5,10.7,7.2,10.7,11
				c0,2.1-0.7,4-2.2,5.9c-1.8,1.5-6.5,2.2-14.2,2.2l-0.1-0.1v-7.1l0.2-0.2h6c2.4,0,4.3-0.6,5.5-1.7v-0.5c-0.1-0.7-2.5-2-7-3.7
				c-1.1-0.7-1.7-3.6-1.7-8.6c0-2.6,4.5-5.2,13.6-7.6L392.6,1019.3z"/>
			<path d="M424.5,1029.4c2.8,0,4.6,2.8,5.4,8.4l-0.1,0.1h-0.1c-1.7-0.6-3.6-1-5.7-1.2c-2.4,0.5-3.6,1.5-3.6,2.8v0.5
				c0,1.2,2,1.7,5.9,1.7c1.5,0.5,2.4,1.3,3,2.5l0.5,1.8v1.5c0,2.8-2,5.8-5.9,9c-2.5,1.4-4.8,2.1-6.8,2.1h-0.6c-3.6,0-6.6-1.6-9-4.8
				c-0.6-1.2-0.9-2.3-0.9-3.3v-0.4c0-3.8,0.7-7.6,2.2-11.3h0.2c0.9,0.2,1.4,0.6,1.4,1c-0.4,1.6-0.6,3.4-0.6,5.3
				c0.2,3.6,1,5.4,2.5,5.4c0.9,0.5,2.2,0.7,3.9,0.7c3.4,0,6-0.7,7.9-2v-0.1c-4.4,0-7-1.4-7.6-4.1l-0.4-2.5c0-3,1-6.4,3.1-10.2
				C420.6,1030.4,422.4,1029.4,424.5,1029.4z"/>
			<path d="M444.6,1031.3c0.8,0.6,2,3.5,3.7,8.6l0.4,3.7c0,5.8-2.5,10.2-7.4,13.3c-1,0.6-1.7,0.9-2.2,0.9h-0.2
				c-1.1,0-2.7-1.5-4.8-4.6c-0.8-0.7-1.2-1.3-1.2-1.7l0.4-0.2c5.9,0,9.4-1.4,10.6-4.2v-0.1c0-0.8-1-3.7-3-8.7c0-0.4,1.1-2.6,3.4-6.8
				l0.1-0.1H444.6z"/>
			<path d="M458.5,1019.4h0.1c0.3,0,0.5,0.9,0.5,2.7v10.3l0.1,7.3c0.3,1.2,0.9,1.8,1.7,1.8h1.1l0.2,0.2v7l-0.2,0.2h-0.5
				c-5.6,0-8.4-2.8-8.4-8.5l-0.7-15.6c0-0.5,1.7-2.1,5.1-4.8L458.5,1019.4z"/>
			<path d="M479.7,1019.3c0.6,0.1,0.9,0.3,0.9,0.5c-0.4,3.9-1,5.8-1.8,5.8c-5.7,1.4-9.4,2.8-11.1,4.1l-0.1,0.1v0.1
				c3.3,1.7,6,3.6,8.3,5.5c3.4,4.1,5.9,6.2,7.4,6.2c0.2,0,0.4,0.1,0.4,0.2v7l-0.2,0.2c-2,0-3.9-1.5-5.7-4.4h-0.2
				c0,1.3-1.3,2.4-3.8,3.4c-2.4,0.7-6.3,1-11.6,1l-0.1-0.1v-7.1l0.2-0.2h5.8c3.9-0.4,5.8-1,5.8-1.8v-0.2c0-0.8-2.3-2-6.9-3.7
				c-1.2-0.5-1.8-3.4-1.8-8.6c0-2.4,3.4-4.7,10.2-6.8C477,1019.6,478.5,1019.3,479.7,1019.3z"/>
			<path d="M495.1,1030.1c2.5,0,4.6,2.4,6.3,7.3c0.2,2.8,0.8,4.2,1.7,4.2h1.4l0.2,0.2v7l-0.2,0.2h-0.1c-1.8,0-3.1-0.6-3.9-1.7
				c-1,1.3-2.3,2-4.1,2c-2.8,0-5.5-1.1-8-3.4c-1.5,2.1-2.9,3.2-4.4,3.2h-0.6l-0.2-0.2v-7c0-0.2,0.3-0.2,1-0.2c1.9-0.7,4-3.4,6.3-8.1
				C491.8,1031.2,493.4,1030.1,495.1,1030.1z M491.2,1039.4c0,0.9,2,1.8,6,2.7c0.9,0,1.4-0.3,1.4-1v-0.2c0-1.2-1.4-2.2-4.3-3.1h-0.5
				C492.7,1037.8,491.8,1038.3,491.2,1039.4z"/>
			<path d="M510.5,1025.6c2.4,0.5,5.6,2.5,9.7,5.9c4.4,4.2,6.7,8.1,6.7,11.7v0.4c0,3.1-1.3,5.1-3.8,5.9l-1.1,0.1
				c-2,0-4.2-0.6-6.7-1.8c-1.3,0.9-3.2,1.4-5.8,1.4h-5.1l-0.2-0.2v-7l0.2-0.2h3.3c-1.1-1.4-1.6-2.7-1.6-3.9c0-1.6,0.6-3.3,1.7-5.1
				v-0.1c-0.5,0-0.7-0.2-0.7-0.5C509.1,1027.7,510.2,1025.6,510.5,1025.6z M510.2,1038v0.6c0,0.9,1.2,1.9,3.6,3
				c0.9,0,1.4-0.6,1.4-1.7v-0.1c0-1.8-0.7-3-2.1-3.7l-0.9-0.1C511.2,1035.9,510.5,1036.6,510.2,1038z M518,1037.4l0.2,2.5v1.2
				c0,0.8-0.1,1.7-0.4,2.7c0.9,0.3,1.9,0.5,3,0.5h0.1c0.9,0,1.4-0.5,1.4-1.4c0-1.6-1.4-3.4-4.2-5.5H518z"/>
			<path d="M552.3,1024c3,0,4.8,2.8,5.7,8.4l-0.1,0.1h-0.1c-2.6-0.7-4.4-1.1-5.2-1.1h-0.4c-2.1,0-3.3,1-3.7,3v0.2
				c0,1.1,1.1,1.6,3.3,1.6h1.2c1.7,0,3.7-0.3,6-1c0.2,0,0.4,0.2,0.4,0.5c-0.9,4.1-1.7,6.2-2.3,6.2c0,0.2-2,0.7-5.9,1.5
				c-3.6,1.2-5.4,3.3-5.4,6.3v0.1c0,3.2,1.9,5.5,5.8,6.9l2.7,0.4c1.8-0.2,3.5-0.5,4.9-0.9c0.5,0.6,0.7,1,0.7,1.4v0.1
				c0,0.6-2.1,1.4-6.4,2.2l-2,0.1h-0.4c-4.9,0-8.5-1.8-10.8-5.4c-0.8-1.5-1.2-3-1.2-4.3v-1c0-2.7,1.9-5.7,5.7-8.9
				c-0.3-0.8-0.5-1.9-0.6-3.1c0-3.1,1.1-6.6,3.2-10.5C548.9,1024.9,550.5,1024,552.3,1024z"/>
			<path d="M572.2,1029.4h0.2c3.1,0,5.1,3.2,5.8,9.7c0.2,0.6,0.3,1.9,0.4,3.8c0,7.2-3.1,12.1-9.2,14.8h-0.7c-1,0-2.7-1.7-5.2-5.1
				l-0.7-0.9v-0.2l0.4-0.4c4.5,0,7.5-0.7,9.1-2v-0.1c-3.6,0-6-0.9-7-2.7c-0.6-1.2-0.9-2.2-0.9-3.1v-1c0-3.7,1.2-7.3,3.7-11
				C569.4,1030,570.8,1029.4,572.2,1029.4z M568.5,1039.7c0,1,0.7,1.5,2.1,1.7l2.5,0.1h1.2c-0.4-3.2-1.2-4.8-2.2-4.8h-0.5
				C569.5,1037.2,568.5,1038.2,568.5,1039.7z"/>
			<path d="M593.1,1031.3c0.6,0.4,1.8,3.2,3.6,8.3c0.2,1.4,0.9,2.1,2.1,2.1c0.2,0,0.4,0.1,0.4,0.2v6.9l-0.2,0.2h-1.5l-1.2-0.2v0.1
				c-1,3.4-3.3,6.2-7,8.4l-1.7,0.5h-0.4c-0.8,0-2.6-1.8-5.3-5.3c-0.4-0.4-0.6-0.7-0.6-1c0.1-0.1,2-0.3,5.7-0.6
				c2.4-0.7,4.2-1.8,5.2-3.3l0.1-0.5v-0.5c-0.4-1.7-1.3-4.4-2.8-8.1v-0.2c0-0.6,1.1-2.9,3.4-6.8l0.1-0.1H593.1z"/>
			<path d="M622.1,1028.5c0.9,1.4,2.2,5.1,3.9,11.3v0.6c0,3.3-1.8,6.1-5.5,8.4c-0.9,0.3-1.6,0.5-2.2,0.5h-0.4
				c-1.4,0-3.1-0.4-5.1-1.1c-0.7,0.9-1.7,1.4-3,1.4c-1.2,0-2.9-0.5-5.2-1.6c-0.5,0.7-1.4,1.1-2.7,1.1h-3.1l-0.2-0.2v-6.9l0.2-0.2
				h0.7c2.2,0,3.3-0.5,3.3-1.4c0.7-1.1,1.7-3.4,3.2-6.7l1.5-1h0.2l0.1,0.1h0.1l-1.1,6.4c0.2,1.8,0.8,2.7,1.8,2.7h0.5
				c1.1,0,2.7-2.6,4.7-7.9c0.9-0.9,1.6-1.4,2.1-1.4h0.1l-1,5.8v0.7c0,1.7,0.7,2.6,2.1,2.6h0.7c2.2,0,3.3-0.6,3.3-1.8l-2.8-7.1v-0.2
				c0.3-1.3,1.4-2.6,3.1-3.9L622.1,1028.5z M611.3,1023.1h0.1c0.5,0,1.4,0.8,2.8,2.5v0.6c-1.4,1.6-2.4,2.5-2.8,2.5
				c-0.2,0-1.1-0.8-2.6-2.5v-0.4C608.9,1025.3,609.7,1024.3,611.3,1023.1z M614.2,1019.4h0.5l2.1,2.1v0.6c-1.2,1.4-2,2.1-2.5,2.1
				c-1.5-1.1-2.2-1.9-2.2-2.5v-0.2L614.2,1019.4z M617.4,1023.1c0.4,0,1.3,0.9,2.7,2.6v0.2c0,0.4-0.9,1.3-2.6,2.7h-0.4
				c-0.3,0-1.1-0.9-2.6-2.6v-0.1c0-0.6,0.9-1.5,2.6-2.8H617.4z"/>
			<path d="M657,1029.4c2.8,0,4.6,2.8,5.4,8.4l-0.1,0.1h-0.1c-1.7-0.6-3.6-1-5.7-1.2c-2.4,0.5-3.6,1.5-3.6,2.8v0.5
				c0,1.2,2,1.7,5.9,1.7c1.5,0.5,2.4,1.3,3,2.5l0.5,1.8v1.5c0,2.8-2,5.8-5.9,9c-2.5,1.4-4.8,2.1-6.8,2.1H649c-3.6,0-6.6-1.6-9-4.8
				c-0.6-1.2-0.9-2.3-0.9-3.3v-0.4c0-3.8,0.7-7.6,2.2-11.3h0.2c0.9,0.2,1.4,0.6,1.4,1c-0.4,1.6-0.6,3.4-0.6,5.3
				c0.2,3.6,1,5.4,2.5,5.4c0.9,0.5,2.2,0.7,3.9,0.7c3.4,0,6-0.7,7.9-2v-0.1c-4.4,0-7-1.4-7.6-4.1l-0.4-2.5c0-3,1-6.4,3.1-10.2
				C653.1,1030.4,654.9,1029.4,657,1029.4z"/>
			<path d="M672.7,1019.4h0.1l0.4,0.2l0.1,4.9v12.8c0,4.7-0.3,7-0.9,7c-0.6,1.6-2,3.4-4.2,5.3l-0.1,0.1h-0.4l-0.4-0.4v-8.4
				c0-4.5-0.2-9.9-0.7-16C666.7,1024.3,668.7,1022.4,672.7,1019.4z"/>
			<path d="M687.6,1031.3c0.6,0.4,1.8,3.2,3.6,8.3c0.2,1.4,0.9,2.1,2.1,2.1c0.2,0,0.4,0.1,0.4,0.2v6.9l-0.2,0.2h-1.5l-1.2-0.2v0.1
				c-1,3.4-3.3,6.2-7,8.4l-1.7,0.5h-0.4c-0.8,0-2.6-1.8-5.3-5.3c-0.4-0.4-0.6-0.7-0.6-1c0.1-0.1,2-0.3,5.7-0.6
				c2.4-0.7,4.2-1.8,5.2-3.3l0.1-0.5v-0.5c-0.4-1.7-1.3-4.4-2.8-8.1v-0.2c0-0.6,1.1-2.9,3.4-6.8l0.1-0.1H687.6z"/>
			<path d="M699.4,1028.6h0.2c1.2,2.2,2.5,6,3.9,11.3v0.9c0,2.5-1.5,4.8-4.4,7c-1.3,0.8-2.5,1.2-3.6,1.2h-2.2l-0.2-0.2v-6.9l0.2-0.2
				h2.1c2.1,0,3.1-0.4,3.1-1.1c0-0.4-0.9-2.6-2.6-6.8l-0.1-0.6C695.9,1032.4,697,1030.8,699.4,1028.6z M697.2,1052h0.4
				c0.5,0,1.5,0.9,3,2.7l0.1,0.4c0,0.4-0.9,1.4-2.8,3l-0.4,0.1c-0.4,0-1.4-0.9-3-2.8v-0.6C694.5,1054.5,695.4,1053.5,697.2,1052z"/>
		</g>
	</g>
</g>
</svg>
